<svg xmlns="http://www.w3.org/2000/svg" xmlns:xlink="http://www.w3.org/1999/xlink" width="1080" zoomAndPan="magnify" viewBox="0 0 810 809.999993" height="1080" preserveAspectRatio="xMidYMid meet" version="1.0"><path fill="#074694" d="M 474.933594 665.175781 C 484.027344 668.679688 493.101562 672.292969 502.148438 676.023438 C 508.101562 678.253906 514.109375 680.339844 520.171875 682.277344 C 524.929688 683.46875 528.792969 682.183594 531.757812 678.414062 C 532.980469 676.089844 533.835938 673.640625 534.332031 671.058594 C 535.34375 661.847656 534.914062 652.714844 533.042969 643.65625 C 533.164062 643.472656 533.289062 643.289062 533.410156 643.105469 C 549.472656 652.605469 565.53125 662.109375 581.589844 671.609375 C 601.796875 681.324219 608.722656 675.378906 602.371094 653.773438 C 598.027344 642.140625 592.878906 630.859375 586.925781 619.933594 C 577.371094 601.304688 567.4375 582.914062 557.132812 564.761719 C 550.976562 555.71875 543.070312 548.730469 533.410156 543.792969 C 533.410156 540.117188 533.410156 536.4375 533.410156 532.761719 C 534 529.949219 534.488281 527.128906 534.882812 524.300781 C 534.722656 521.300781 534.230469 518.355469 533.410156 515.472656 C 533.410156 510.570312 533.410156 505.664062 533.410156 500.761719 C 539.5 493.601562 542.6875 485.269531 542.972656 475.75 C 555.605469 475.890625 568.234375 475.707031 580.855469 475.199219 C 584.894531 475.039062 588.816406 474.304688 592.625 472.992188 C 593.019531 472.71875 593.265625 472.351562 593.359375 471.886719 C 592.28125 462.46875 590.011719 453.335938 586.554688 444.484375 C 575.902344 417.902344 563.027344 392.523438 547.9375 368.347656 C 543.398438 362.765625 538.554688 357.492188 533.410156 352.53125 C 533.410156 348.238281 533.410156 343.949219 533.410156 339.65625 C 533.410156 337.695312 533.410156 335.734375 533.410156 333.773438 C 533.472656 301.894531 533.410156 270.015625 533.226562 238.140625 C 503.621094 190.140625 474.011719 142.140625 444.40625 94.140625 C 512.695312 93.894531 580.976562 93.894531 649.265625 94.140625 C 693.347656 98.425781 727.613281 118.835938 752.0625 155.382812 C 763.800781 174.171875 770.542969 194.648438 772.289062 216.808594 C 772.535156 342.84375 772.535156 468.882812 772.289062 594.921875 C 767.148438 644.160156 742.570312 679.902344 698.546875 702.140625 C 682.234375 709.773438 665.070312 714.0625 647.058594 715.011719 C 579.507812 715.257812 511.957031 715.257812 444.40625 715.011719 C 454.675781 698.4375 464.851562 681.820312 474.933594 665.175781 Z M 474.933594 665.175781 " fill-opacity="0.999" fill-rule="evenodd"/><path fill="#074694" d="M 377.835938 170.460938 C 377.316406 170.636719 377.074219 171.003906 377.101562 171.566406 C 376.855469 171.566406 376.734375 171.6875 376.734375 171.933594 C 376.488281 171.933594 376.367188 172.054688 376.367188 172.300781 C 376.367188 172.421875 376.367188 172.546875 376.367188 172.667969 C 376.117188 172.667969 375.996094 172.792969 375.996094 173.035156 C 370.269531 180.929688 365 189.144531 360.183594 197.679688 C 359.816406 197.804688 359.445312 197.925781 359.078125 198.046875 C 342.421875 194.769531 325.625 193.730469 308.691406 194.921875 C 265.808594 199.097656 234.117188 220.003906 213.621094 257.632812 C 200.328125 283.488281 193.09375 310.953125 191.917969 340.023438 C 191.054688 366.222656 196.078125 391.234375 207 415.058594 C 214.15625 430.859375 222.984375 445.570312 233.480469 459.199219 C 235.925781 463.085938 236.660156 467.253906 235.6875 471.703125 C 230.089844 478.554688 227.332031 486.464844 227.410156 495.425781 C 227.292969 501.523438 228.457031 507.34375 230.90625 512.898438 C 235.21875 517.3125 236.320312 522.460938 234.214844 528.347656 C 233.058594 531.089844 231.402344 533.480469 229.25 535.519531 C 224.257812 536.46875 221.007812 539.351562 219.503906 544.164062 C 219.195312 547.371094 219.316406 550.558594 219.871094 553.726562 C 221.675781 556.472656 223.390625 559.289062 225.019531 562.1875 C 226.976562 568.148438 224.832031 571.703125 218.585938 572.851562 C 201.460938 595.976562 194.042969 621.964844 196.332031 650.828125 C 196.929688 657.339844 197.972656 663.777344 199.460938 670.140625 C 199.589844 670.601562 199.832031 670.722656 200.195312 670.507812 C 232.90625 646.488281 268.828125 628.585938 307.957031 616.804688 C 317.386719 614.535156 326.949219 613.800781 336.644531 614.597656 C 346.304688 615.210938 355.867188 616.496094 365.332031 618.460938 C 384.875 650.6875 404.617188 682.8125 424.546875 714.828125 C 295.332031 715.316406 166.113281 715.316406 36.898438 714.828125 C 66.289062 666.949219 95.773438 619.132812 125.351562 571.382812 C 125.59375 460.179688 125.59375 348.976562 125.351562 237.773438 C 95.667969 189.921875 66.183594 141.980469 36.898438 93.957031 C 166.113281 93.832031 295.332031 93.957031 424.546875 94.324219 C 408.875 119.664062 393.304688 145.042969 377.835938 170.460938 Z M 377.835938 170.460938 " fill-opacity="0.998" fill-rule="evenodd"/><path fill="#fdfdfe" d="M 533.410156 333.773438 C 533.410156 335.734375 533.410156 337.695312 533.410156 339.65625 C 532.785156 343.359375 532.171875 347.097656 531.570312 350.875 C 532.136719 351.503906 532.75 352.054688 533.410156 352.53125 C 538.554688 357.492188 543.398438 362.765625 547.9375 368.347656 C 563.027344 392.523438 575.902344 417.902344 586.554688 444.484375 C 590.011719 453.335938 592.28125 462.46875 593.359375 471.886719 C 593.265625 472.351562 593.019531 472.71875 592.625 472.992188 C 588.816406 474.304688 584.894531 475.039062 580.855469 475.199219 C 568.234375 475.707031 555.605469 475.890625 542.972656 475.75 C 542.6875 485.269531 539.5 493.601562 533.410156 500.761719 C 530.835938 502.410156 528.019531 503.453125 524.953125 503.886719 C 528.429688 507.300781 531.253906 511.164062 533.410156 515.472656 C 534.230469 518.355469 534.722656 521.300781 534.882812 524.300781 C 534.488281 527.128906 534 529.949219 533.410156 532.761719 C 531.867188 535.90625 529.90625 538.785156 527.527344 541.402344 C 529.472656 542.234375 531.433594 543.035156 533.410156 543.792969 C 543.070312 548.730469 550.976562 555.71875 557.132812 564.761719 C 567.4375 582.914062 577.371094 601.304688 586.925781 619.933594 C 592.878906 630.859375 598.027344 642.140625 602.371094 653.773438 C 608.722656 675.378906 601.796875 681.324219 581.589844 671.609375 C 565.53125 662.109375 549.472656 652.605469 533.410156 643.105469 C 533.289062 643.289062 533.164062 643.472656 533.042969 643.65625 C 534.914062 652.714844 535.34375 661.847656 534.332031 671.058594 C 533.835938 673.640625 532.980469 676.089844 531.757812 678.414062 C 528.792969 682.183594 524.929688 683.46875 520.171875 682.277344 C 514.109375 680.339844 508.101562 678.253906 502.148438 676.023438 C 493.101562 672.292969 484.027344 668.679688 474.933594 665.175781 C 451.628906 654.625 428.949219 642.917969 406.890625 630.046875 C 393.269531 625.324219 379.414062 621.460938 365.332031 618.460938 C 355.867188 616.496094 346.304688 615.210938 336.644531 614.597656 C 326.949219 613.800781 317.386719 614.535156 307.957031 616.804688 C 268.828125 628.585938 232.90625 646.488281 200.195312 670.507812 C 199.832031 670.722656 199.589844 670.601562 199.460938 670.140625 C 197.972656 663.777344 196.929688 657.339844 196.332031 650.828125 C 194.042969 621.964844 201.460938 595.976562 218.585938 572.851562 C 224.832031 571.703125 226.976562 568.148438 225.019531 562.1875 C 223.390625 559.289062 221.675781 556.472656 219.871094 553.726562 C 219.316406 550.558594 219.195312 547.371094 219.503906 544.164062 C 221.007812 539.351562 224.257812 536.46875 229.25 535.519531 C 231.402344 533.480469 233.058594 531.089844 234.214844 528.347656 C 236.320312 522.460938 235.21875 517.3125 230.90625 512.898438 C 228.457031 507.34375 227.292969 501.523438 227.410156 495.425781 C 227.332031 486.464844 230.089844 478.554688 235.6875 471.703125 C 236.660156 467.253906 235.925781 463.085938 233.480469 459.199219 C 222.984375 445.570312 214.15625 430.859375 207 415.058594 C 196.078125 391.234375 191.054688 366.222656 191.917969 340.023438 C 193.09375 310.953125 200.328125 283.488281 213.621094 257.632812 C 234.117188 220.003906 265.808594 199.097656 308.691406 194.921875 C 325.625 193.730469 342.421875 194.769531 359.078125 198.046875 C 359.445312 197.925781 359.816406 197.804688 360.183594 197.679688 C 365 189.144531 370.269531 180.929688 375.996094 173.035156 C 376.246094 173.035156 376.367188 172.914062 376.367188 172.667969 C 376.367188 172.546875 376.367188 172.421875 376.367188 172.300781 C 376.613281 172.300781 376.734375 172.179688 376.734375 171.933594 C 376.980469 171.933594 377.101562 171.8125 377.101562 171.566406 C 377.621094 171.390625 377.863281 171.023438 377.835938 170.460938 C 381.183594 166.683594 384.613281 162.945312 388.132812 159.242188 C 394.34375 152.953125 401.453125 147.925781 409.464844 144.164062 C 414.730469 141.773438 420.246094 140.730469 426.015625 141.035156 C 423.148438 162.320312 420.207031 183.589844 417.191406 204.851562 C 417.339844 205.199219 417.582031 205.445312 417.925781 205.589844 C 419.972656 205.972656 421.996094 206.402344 423.992188 206.875 C 427.746094 193.882812 430.320312 180.640625 431.71875 167.152344 C 442.660156 173.566406 449.527344 183.007812 452.3125 195.472656 C 453.109375 199.355469 453.535156 203.28125 453.601562 207.242188 C 453.371094 211.554688 453.0625 215.847656 452.679688 220.117188 C 467.996094 229.054688 480.746094 240.824219 490.929688 255.425781 C 503.582031 273.746094 512.777344 293.734375 518.515625 315.382812 C 523.429688 321.582031 528.394531 327.710938 533.410156 333.773438 Z M 533.410156 333.773438 " fill-opacity="0.995" fill-rule="evenodd"/><path fill="#084694" d="M 417.558594 148.394531 C 417.882812 148.34375 418.125 148.46875 418.292969 148.761719 C 413.050781 161.429688 409.558594 174.546875 407.8125 188.117188 C 407.09375 196.5625 408.445312 204.652344 411.855469 212.394531 C 415.429688 217.5625 419.78125 218.234375 424.914062 214.417969 C 426.863281 213.101562 428.640625 211.570312 430.246094 209.820312 C 434.625 201.488281 437.203125 192.90625 437.96875 184.070312 C 444.183594 196.953125 447.125 210.5625 446.796875 224.898438 C 464.289062 236.605469 478.265625 251.5625 488.726562 269.773438 C 494.960938 280.753906 499.988281 292.28125 503.804688 304.347656 C 509.28125 315.675781 515.410156 326.585938 522.195312 337.082031 C 522.441406 337.695312 522.441406 338.308594 522.195312 338.921875 C 520.871094 342.835938 519.582031 346.757812 518.332031 350.691406 C 526.050781 358.59375 533.835938 366.441406 541.6875 374.230469 C 554.609375 402.339844 567.605469 430.417969 580.671875 458.460938 C 582.398438 463.660156 580.617188 466.910156 575.339844 468.207031 C 561.726562 468.003906 548.117188 467.574219 534.515625 466.921875 C 535.402344 471.441406 535.460938 475.980469 534.699219 480.53125 C 532.808594 486.222656 528.945312 489.714844 523.113281 491.011719 C 520.90625 491.320312 518.699219 491.628906 516.492188 491.933594 C 515.144531 493.894531 513.796875 495.859375 512.445312 497.816406 C 517.480469 503.707031 521.585938 510.207031 524.769531 517.3125 C 525.304688 519.371094 525.425781 521.453125 525.136719 523.566406 C 524.429688 524.46875 523.574219 525.207031 522.5625 525.773438 C 520.007812 530.390625 516.148438 533.273438 510.976562 534.414062 C 522.996094 543.984375 534.339844 554.34375 544.996094 565.496094 C 547.417969 568.492188 549.746094 571.5625 551.984375 574.691406 C 553.808594 578.3125 555.527344 581.988281 557.132812 585.726562 C 568.257812 606.386719 579.292969 627.109375 590.234375 647.886719 C 591.898438 651.191406 592.386719 654.621094 591.707031 658.183594 C 591.273438 658.617188 590.847656 659.042969 590.417969 659.472656 C 587.597656 659.9375 584.902344 659.570312 582.328125 658.371094 C 552.886719 642.910156 522.972656 628.445312 492.585938 614.96875 C 480.605469 609.5 468.15625 605.519531 455.257812 603.011719 C 453.097656 603.125 452.730469 603.984375 454.152344 605.589844 C 456.5 607.832031 459.011719 609.855469 461.691406 611.65625 C 481.964844 620.722656 502.253906 629.734375 522.5625 638.691406 C 524.558594 645.90625 525.292969 653.265625 524.769531 660.761719 C 524.175781 668.316406 520.3125 670.949219 513.183594 668.667969 C 478.765625 650.738281 443.457031 634.800781 407.257812 620.851562 C 397.585938 617.21875 387.777344 614.03125 377.835938 611.289062 C 370.484375 610.175781 363.25 608.578125 356.136719 606.507812 C 337.707031 603.78125 319.4375 604.640625 301.335938 609.082031 C 277.089844 615.121094 254.039062 624.195312 232.191406 636.300781 C 225.894531 639.84375 219.640625 643.460938 213.433594 647.152344 C 209.324219 628.472656 211.957031 610.691406 221.34375 593.816406 C 224.691406 588.21875 228.492188 582.949219 232.742188 578 C 237.144531 573.355469 241.742188 569 246.535156 564.945312 C 243.285156 559.605469 240.894531 553.90625 239.363281 547.839844 C 238.304688 543.074219 240.144531 540.378906 244.882812 539.75 C 246.542969 539.890625 248.195312 540.074219 249.847656 540.300781 C 252.8125 541.1875 255.753906 542.105469 258.671875 543.058594 C 260.085938 549.441406 263.273438 554.773438 268.234375 559.058594 C 279.097656 567.257812 291.355469 571.671875 305.015625 572.300781 C 286.925781 558.265625 269.824219 543 253.707031 526.507812 C 250.996094 523.425781 248.417969 520.238281 245.984375 516.945312 C 244.4375 514.65625 243.210938 512.207031 242.304688 509.589844 C 241.773438 503.589844 241.652344 497.582031 241.9375 491.566406 C 242.386719 487.15625 244.039062 483.292969 246.902344 479.980469 C 249 478.460938 251.328125 477.96875 253.890625 478.507812 C 256.03125 479.222656 258.117188 480.078125 260.144531 481.082031 C 279.582031 495.152344 299.195312 508.945312 318.992188 522.460938 C 319.8125 522.4375 320.183594 522.003906 320.09375 521.175781 C 318.019531 516.644531 315.078125 512.71875 311.265625 509.402344 C 292.726562 497.757812 275.625 484.210938 259.960938 468.761719 C 257.859375 466.289062 255.894531 463.714844 254.074219 461.035156 C 223.714844 434.394531 206.796875 400.800781 203.320312 360.253906 C 202.390625 341.226562 204.597656 322.59375 209.941406 304.347656 C 212.96875 278.679688 223.144531 256.367188 240.46875 237.40625 C 258.191406 219.929688 279.460938 209.445312 304.277344 205.957031 C 315.257812 204.382812 326.292969 203.890625 337.378906 204.484375 C 342.90625 204.703125 348.058594 206.171875 352.828125 208.898438 C 353.882812 209.832031 354.800781 210.875 355.585938 212.023438 C 356.222656 215.515625 355.359375 218.578125 353.011719 221.222656 C 348.96875 224.820312 347.191406 229.359375 347.679688 234.828125 C 347.492188 242.429688 350.925781 247.640625 357.976562 250.460938 C 360.023438 251.300781 362.109375 252.039062 364.226562 252.667969 C 370.222656 253.054688 373.964844 250.296875 375.445312 244.394531 C 377.765625 225.066406 382.058594 206.183594 388.320312 187.75 C 391.910156 177.492188 396.941406 168.050781 403.398438 159.425781 C 407.230469 154.546875 411.949219 150.867188 417.558594 148.394531 Z M 417.558594 148.394531 " fill-opacity="1" fill-rule="evenodd"/><path fill="#fcfcfd" d="M 285.523438 253.957031 C 285.910156 253.902344 286.277344 253.960938 286.625 254.140625 C 285.765625 256.1875 285.394531 258.332031 285.523438 260.578125 C 286.191406 269.148438 288.949219 276.996094 293.796875 284.117188 C 297.601562 289.636719 301.949219 294.726562 306.851562 299.382812 C 310.914062 301.847656 314.40625 304.972656 317.335938 308.761719 C 324.316406 317.820312 330.9375 327.136719 337.195312 336.714844 C 337.882812 339.972656 338.25 343.285156 338.300781 346.644531 C 338.546875 350.203125 338.546875 353.757812 338.300781 357.3125 C 338.265625 360.324219 337.285156 360.8125 335.355469 358.785156 C 332.207031 352.527344 329.632812 346.03125 327.632812 339.289062 C 321.519531 328.144531 313.859375 318.152344 304.648438 309.3125 C 300.8125 306.707031 297.441406 303.578125 294.53125 299.933594 C 289.421875 293.152344 285.253906 285.792969 282.027344 277.863281 C 272.808594 305.714844 269.496094 334.28125 272.097656 363.566406 C 276.566406 404.078125 293.671875 438.101562 323.402344 465.632812 C 327.34375 468.960938 331.386719 472.148438 335.539062 475.199219 C 336.851562 475.242188 337.648438 474.566406 337.929688 473.175781 C 340.109375 465.972656 341.453125 458.617188 341.976562 451.105469 C 342.648438 442.882812 343.261719 434.667969 343.816406 426.460938 C 347.835938 437.515625 349.308594 448.917969 348.230469 460.667969 C 347.621094 470.316406 345.90625 479.757812 343.082031 488.992188 C 342.890625 490 342.460938 490.859375 341.792969 491.566406 C 329.660156 485.382812 318.933594 477.289062 309.613281 467.289062 C 285.105469 440.585938 270.027344 409.199219 264.375 373.128906 C 261.054688 355.496094 259.707031 337.71875 260.328125 319.796875 C 261.207031 303.683594 264.515625 288.113281 270.257812 273.082031 C 272.828125 267.015625 276.445312 261.683594 281.109375 257.082031 C 282.644531 256.089844 284.117188 255.046875 285.523438 253.957031 Z M 285.523438 253.957031 " fill-opacity="1" fill-rule="evenodd"/><path fill="#fcfcfd" d="M 395.492188 288.53125 C 395.125 286.394531 395.003906 284.1875 395.121094 281.910156 C 395.613281 273.515625 398.921875 266.464844 405.054688 260.761719 C 409.332031 257.636719 414.113281 256.410156 419.398438 257.082031 C 429.09375 258.761719 438.046875 262.320312 446.246094 267.75 C 449.433594 269.957031 452.617188 272.164062 455.808594 274.371094 C 445.574219 272.644531 435.277344 271.296875 424.914062 270.324219 C 421.21875 269.613281 417.785156 270.226562 414.617188 272.164062 C 407.503906 276.765625 401.128906 282.21875 395.492188 288.53125 Z M 395.492188 288.53125 " fill-opacity="1" fill-rule="evenodd"/><path fill="#85a3ca" d="M 395.121094 281.910156 C 395.003906 284.1875 395.125 286.394531 395.492188 288.53125 C 395.46875 288.730469 395.347656 288.851562 395.121094 288.898438 C 394.636719 286.511719 394.636719 284.183594 395.121094 281.910156 Z M 395.121094 281.910156 " fill-opacity="1" fill-rule="evenodd"/><path fill="#fdfefe" d="M 432.269531 292.210938 C 447.457031 293.570312 461.429688 298.414062 474.195312 306.738281 C 490.285156 318.402344 495.742188 333.910156 490.5625 353.265625 C 489.460938 357.070312 487.925781 360.6875 485.964844 364.117188 C 481.957031 366.84375 477.542969 368.070312 472.726562 367.796875 C 470.296875 366.289062 469.195312 364.082031 469.414062 361.175781 C 469.699219 359.15625 469.945312 357.132812 470.152344 355.105469 C 469.675781 350.558594 468.148438 346.390625 465.554688 342.601562 C 463.796875 339.980469 461.894531 337.46875 459.851562 335.058594 C 455.402344 336.449219 450.863281 337.675781 446.246094 338.738281 C 444.289062 338.988281 442.324219 339.171875 440.359375 339.289062 C 440.269531 336.164062 441.308594 333.464844 443.488281 331.199219 C 446.050781 328.507812 448.933594 326.242188 452.128906 324.394531 C 446.246094 317.527344 440.359375 310.660156 434.476562 303.796875 C 431.304688 302.339844 428.546875 300.316406 426.199219 297.726562 C 425.289062 296.152344 425.597656 294.863281 427.121094 293.863281 C 428.839844 293.191406 430.558594 292.640625 432.269531 292.210938 Z M 432.269531 292.210938 " fill-opacity="1" fill-rule="evenodd"/><path fill="#fcfcfd" d="M 284.050781 306.1875 C 285.710938 306.746094 287.121094 307.726562 288.28125 309.128906 C 290.976562 312.5625 293.675781 315.996094 296.371094 319.425781 C 306.640625 338.371094 316.816406 357.375 326.898438 376.4375 C 327.144531 376.929688 327.144531 377.417969 326.898438 377.910156 C 318.808594 387.132812 319.421875 395.714844 328.738281 403.65625 C 329.125 407.949219 328.636719 412.117188 327.265625 416.164062 C 326.703125 417.113281 325.910156 417.421875 324.875 417.082031 C 324.089844 416.601562 323.351562 416.050781 322.667969 415.425781 C 320.417969 411.769531 317.902344 408.335938 315.128906 405.128906 C 312.878906 397.878906 312.511719 390.523438 314.023438 383.058594 C 314.519531 380.652344 315.070312 378.261719 315.679688 375.886719 C 306.964844 358.761719 298.199219 341.65625 289.382812 324.578125 C 286.929688 319.121094 285.03125 313.480469 283.683594 307.65625 C 283.726562 307.132812 283.851562 306.644531 284.050781 306.1875 Z M 284.050781 306.1875 " fill-opacity="1" fill-rule="evenodd"/><path fill="#fefefe" d="M 504.722656 598.230469 C 502.269531 598.167969 499.816406 598.230469 497.367188 598.414062 C 497.882812 598.566406 498.371094 598.75 498.839844 598.96875 C 508.738281 602.199219 518.179688 606.429688 527.160156 611.65625 C 528.144531 612.332031 528.757812 613.253906 528.996094 614.414062 C 528.964844 615.125 528.597656 615.550781 527.894531 615.703125 C 523.859375 616.410156 519.8125 616.410156 515.757812 615.703125 C 496.828125 610.375 478.316406 603.875 460.222656 596.207031 C 435.792969 586.0625 411.640625 575.273438 387.765625 563.839844 C 365.378906 537.371094 357.964844 507.144531 365.515625 473.175781 C 368.234375 462.46875 372.28125 452.289062 377.652344 442.644531 C 380.820312 437.640625 384.128906 432.738281 387.582031 427.933594 C 393.28125 416.648438 392.667969 405.738281 385.742188 395.199219 C 380.265625 373.460938 385.964844 369.964844 402.847656 384.714844 C 421.914062 398.777344 442.875 402.453125 465.738281 395.75 C 476.957031 392.132812 487.3125 386.921875 496.816406 380.117188 C 501.855469 381.417969 506.941406 382.339844 512.078125 382.875 C 508.921875 379.960938 506.652344 376.46875 505.273438 372.394531 C 504.191406 365.507812 506.949219 363.117188 513.550781 365.21875 C 520.003906 368.730469 525.582031 373.328125 530.285156 379.011719 C 542.667969 403.289062 555.046875 427.566406 567.429688 451.839844 C 569.253906 456.300781 567.839844 458.875 563.203125 459.566406 C 559.53125 458.996094 555.855469 458.503906 552.167969 458.09375 C 551.476562 451.453125 548.042969 446.855469 541.871094 444.300781 C 534.074219 441.214844 525.980469 439.988281 517.597656 440.621094 C 503.191406 447.265625 501.046875 444.628906 511.160156 432.714844 C 515.328125 428.546875 519.496094 424.378906 523.664062 420.207031 C 524.167969 419.519531 524.59375 418.785156 524.953125 418.003906 C 523.410156 417.511719 521.941406 417.695312 520.539062 418.554688 C 513.921875 421.859375 507.546875 425.539062 501.414062 429.589844 C 492.339844 434.519531 482.652344 437.460938 472.359375 438.414062 C 463.90625 438.855469 455.449219 439.097656 446.980469 439.152344 C 438.496094 440.609375 432.917969 445.453125 430.246094 453.679688 C 429.117188 457.269531 428.382812 460.949219 428.039062 464.714844 C 427.753906 470.730469 427.875 476.738281 428.40625 482.738281 C 429.257812 488.941406 430.480469 495.074219 432.085938 501.128906 C 432.792969 503.371094 433.710938 505.515625 434.84375 507.566406 C 435.53125 507.828125 436.082031 507.640625 436.5 507.011719 C 436.789062 505.921875 437.035156 504.816406 437.234375 503.703125 C 437.136719 499.78125 437.136719 495.859375 437.234375 491.933594 C 437.644531 489.574219 438.691406 487.550781 440.359375 485.863281 C 441.300781 485.023438 442.40625 484.59375 443.671875 484.578125 C 467.632812 489.851562 489.761719 499.289062 510.054688 512.898438 C 512.035156 515.261719 513.324219 517.960938 513.917969 520.992188 C 513.832031 523.59375 512.480469 525.128906 509.871094 525.589844 C 508.339844 525.652344 506.808594 525.710938 505.273438 525.773438 C 500.480469 525.59375 495.761719 525.042969 491.117188 524.117188 C 487.5 526.140625 486.335938 529.140625 487.621094 533.128906 C 488.183594 534.238281 488.980469 535.160156 490.011719 535.886719 C 499.136719 541.214844 507.964844 546.976562 516.492188 553.175781 C 523.503906 559.445312 529.691406 566.371094 535.066406 573.957031 C 535.863281 575.078125 536.109375 576.300781 535.800781 577.632812 C 535.410156 577.855469 534.980469 577.976562 534.515625 578 C 529.035156 576.179688 523.886719 573.667969 519.066406 570.460938 C 515.324219 567.917969 511.644531 565.277344 508.035156 562.554688 C 507.660156 562.738281 507.597656 562.984375 507.851562 563.289062 C 513.519531 568.46875 518.671875 574.109375 523.296875 580.207031 C 524.769531 582.070312 525.261719 584.152344 524.769531 586.460938 C 524.464844 586.765625 524.152344 587.074219 523.847656 587.382812 C 520.671875 588.089844 517.480469 588.089844 514.285156 587.382812 C 510.035156 586.289062 505.867188 585.0625 501.78125 583.703125 C 504.089844 585.15625 506.296875 586.75 508.402344 588.484375 C 514.257812 594.367188 513.03125 597.617188 504.722656 598.230469 Z M 504.722656 598.230469 " fill-opacity="1" fill-rule="evenodd"/><path fill="#0c4794" d="M 411.304688 433.449219 C 414.320312 432.679688 416.464844 433.660156 417.742188 436.394531 C 418.617188 439.648438 418.863281 442.957031 418.476562 446.324219 C 417.625 447.53125 417.136719 448.875 417.007812 450.371094 C 416.660156 453.730469 416.476562 457.105469 416.453125 460.484375 C 416.910156 470.859375 417.460938 481.21875 418.109375 491.566406 C 413.476562 488.644531 410.164062 484.597656 408.179688 479.425781 C 406.253906 474.175781 404.90625 468.78125 404.132812 463.242188 C 403.601562 455.160156 403.476562 447.066406 403.765625 438.96875 C 406.136719 436.894531 408.652344 435.054688 411.304688 433.449219 Z M 411.304688 433.449219 " fill-opacity="1" fill-rule="evenodd"/><path fill="#fbfcfd" d="M 495.160156 445.957031 C 501.5625 445.652344 502.789062 448.042969 498.839844 453.128906 C 505.9375 452.375 513.046875 451.578125 520.171875 450.738281 C 524.960938 450.945312 529.742188 451.253906 534.515625 451.65625 C 535.90625 451.875 537.25 452.242188 538.558594 452.761719 C 539.988281 453.542969 539.988281 454.402344 538.558594 455.335938 C 533.847656 457.234375 529.003906 458.640625 524.03125 459.566406 C 523.25 465.121094 522.269531 470.636719 521.089844 476.117188 C 520.308594 474.488281 519.140625 473.199219 517.597656 472.253906 C 510.164062 467.730469 502.316406 464.050781 494.058594 461.21875 C 488.03125 459.230469 482.023438 457.207031 476.035156 455.152344 C 480.390625 452.542969 484.804688 450.03125 489.277344 447.609375 C 491.277344 447.050781 493.238281 446.5 495.160156 445.957031 Z M 495.160156 445.957031 " fill-opacity="1" fill-rule="evenodd"/><path fill="#fdfdfe" d="M 453.601562 459.199219 C 455.566406 459.136719 457.527344 459.199219 459.484375 459.382812 C 476.960938 465.878906 494.492188 472.195312 512.078125 478.324219 C 508.96875 484.9375 505.597656 491.4375 501.964844 497.816406 C 484.386719 490.304688 466.796875 482.824219 449.1875 475.382812 C 446.113281 472.175781 444.699219 468.375 444.957031 463.980469 C 445.851562 461.964844 447.386719 460.675781 449.554688 460.117188 C 450.957031 459.824219 452.304688 459.515625 453.601562 459.199219 Z M 453.601562 459.199219 " fill-opacity="1" fill-rule="evenodd"/><path fill="#698ebd" d="M 504.722656 598.230469 C 502.761719 598.476562 500.800781 598.722656 498.839844 598.96875 C 498.371094 598.75 497.882812 598.566406 497.367188 598.414062 C 499.816406 598.230469 502.269531 598.167969 504.722656 598.230469 Z M 504.722656 598.230469 " fill-opacity="1" fill-rule="evenodd"/><path fill="#064594" d="M 744.523438 698.277344 C 744.941406 699.558594 745.003906 700.902344 744.707031 702.324219 C 744.523438 700.980469 744.460938 699.632812 744.523438 698.277344 Z M 744.523438 698.277344 " fill-opacity="0.382" fill-rule="evenodd"/></svg>