<?xml version="1.0" encoding="UTF-8"?>
<svg xmlns="http://www.w3.org/2000/svg" xmlns:xlink="http://www.w3.org/1999/xlink" width="1000px" height="1000px" viewBox="0 0 1000 1000" version="1.1">
<g id="surface1">
<path style=" stroke:none;fill-rule:nonzero;fill:rgb(20.392157%,65.882355%,32.549021%);fill-opacity:1;" d="M 500.082031 41.097656 C 501.632812 41.101562 503.1875 41.105469 504.785156 41.109375 C 530.035156 41.195312 554.542969 42.464844 579.425781 46.875 C 580.832031 47.117188 582.242188 47.363281 583.691406 47.613281 C 644.683594 58.5 702.855469 82.105469 753.90625 117.1875 C 755.222656 118.089844 755.222656 118.089844 756.566406 119.007812 C 766.941406 126.160156 776.835938 133.792969 786.457031 141.925781 C 788.074219 143.269531 789.691406 144.609375 791.304688 145.949219 C 792.972656 147.347656 794.640625 148.746094 796.304688 150.148438 C 797.097656 150.800781 797.890625 151.457031 798.707031 152.132812 C 802.761719 155.574219 804.867188 157.910156 807.292969 162.761719 C 764.324219 205.730469 721.355469 248.699219 677.082031 292.96875 C 671.210938 290.621094 669.285156 289.488281 665.039062 285.320312 C 615.265625 239.320312 547.832031 224.132812 481.910156 226.328125 C 470.808594 226.773438 460.066406 228.097656 449.21875 230.46875 C 448.0625 230.714844 446.910156 230.957031 445.71875 231.210938 C 398.710938 241.496094 357.511719 263.929688 321.613281 295.574219 C 320.515625 296.511719 319.417969 297.449219 318.289062 298.417969 C 311.84375 303.980469 306.230469 309.875 300.78125 316.40625 C 299.804688 317.527344 298.832031 318.648438 297.824219 319.804688 C 283.625 336.355469 271.785156 354.367188 261.71875 373.699219 C 261.230469 374.628906 260.746094 375.558594 260.246094 376.519531 C 226.757812 441.476562 222.332031 515.214844 244 584.527344 C 266.605469 654.167969 315.800781 712.378906 380.878906 745.945312 C 446.332031 778.75 522.421875 783.488281 592.132812 761.074219 C 651.152344 740.824219 700.160156 702.335938 728.035156 646.03125 C 735.816406 629.859375 740.398438 613.929688 744.792969 596.355469 C 664.011719 595.925781 583.230469 595.496094 500 595.050781 C 500 536.183594 500 477.316406 500 416.667969 C 642.65625 416.667969 785.3125 416.667969 932.292969 416.667969 C 945.632812 470.03125 944.40625 531.871094 936.199219 585.9375 C 935.972656 587.476562 935.75 589.019531 935.519531 590.605469 C 924.472656 665.335938 897.136719 740.484375 848.957031 799.480469 C 847.972656 800.714844 846.984375 801.949219 845.96875 803.222656 C 839.421875 811.347656 832.558594 819.128906 825.519531 826.824219 C 824.335938 828.144531 823.148438 829.46875 821.964844 830.789062 C 816.074219 837.34375 810.160156 843.683594 803.394531 849.355469 C 800.40625 851.878906 797.550781 854.523438 794.679688 857.179688 C 769.691406 879.570312 740.757812 897.570312 710.9375 912.761719 C 709.984375 913.25 709.03125 913.738281 708.050781 914.242188 C 651.449219 942.972656 584.875 958.347656 521.472656 958.597656 C 519.957031 958.605469 518.441406 958.613281 516.878906 958.621094 C 513.683594 958.632812 510.484375 958.640625 507.289062 958.644531 C 502.515625 958.660156 497.746094 958.699219 492.976562 958.742188 C 465.289062 958.867188 438.132812 956.359375 410.96875 950.929688 C 409.296875 950.597656 407.621094 950.265625 405.898438 949.921875 C 342.105469 936.976562 281.558594 909.609375 229.167969 871.09375 C 228.347656 870.492188 227.53125 869.890625 226.6875 869.273438 C 200.765625 850.105469 175.882812 827.917969 154.949219 803.386719 C 153.921875 802.214844 152.894531 801.042969 151.835938 799.835938 C 135.515625 781.082031 121.03125 760.785156 108.074219 739.582031 C 107.152344 738.082031 107.152344 738.082031 106.214844 736.546875 C 67.222656 672.195312 41.738281 594.609375 41.402344 518.878906 C 41.394531 517.492188 41.382812 516.105469 41.375 514.675781 C 41.351562 510.214844 41.34375 505.757812 41.339844 501.300781 C 41.339844 499.019531 41.339844 499.019531 41.339844 496.691406 C 41.359375 474.535156 41.832031 452.875 45.574219 430.988281 C 45.796875 429.621094 46.019531 428.253906 46.25 426.84375 C 53.144531 385.433594 65.238281 345.203125 83.332031 307.292969 C 83.742188 306.4375 84.148438 305.582031 84.566406 304.699219 C 87.511719 298.558594 90.589844 292.492188 93.75 286.457031 C 94.277344 285.449219 94.808594 284.4375 95.351562 283.394531 C 112.625 250.628906 133.917969 220.113281 158.855469 192.707031 C 159.613281 191.867188 160.375 191.027344 161.15625 190.160156 C 177.855469 171.773438 195.460938 154.644531 215.296875 139.660156 C 217.390625 138.0625 219.457031 136.429688 221.523438 134.796875 C 277.082031 90.988281 344.3125 61.582031 413.65625 48.421875 C 415.527344 48.0625 415.527344 48.0625 417.433594 47.699219 C 421.941406 46.902344 426.457031 46.210938 430.988281 45.574219 C 432.144531 45.410156 433.296875 45.246094 434.488281 45.078125 C 456.402344 42.078125 477.976562 40.976562 500.082031 41.097656 Z M 500.082031 41.097656 "/>
<path style=" stroke:none;fill-rule:nonzero;fill:rgb(91.764706%,26.274511%,20.392157%);fill-opacity:1;" d="M 500.082031 41.097656 C 501.632812 41.101562 503.1875 41.105469 504.785156 41.109375 C 530.035156 41.195312 554.542969 42.464844 579.425781 46.875 C 580.832031 47.117188 582.242188 47.363281 583.691406 47.613281 C 644.683594 58.5 702.855469 82.105469 753.90625 117.1875 C 755.222656 118.089844 755.222656 118.089844 756.566406 119.007812 C 766.941406 126.160156 776.835938 133.792969 786.457031 141.925781 C 788.074219 143.269531 789.691406 144.609375 791.304688 145.949219 C 792.972656 147.347656 794.640625 148.746094 796.304688 150.148438 C 797.097656 150.800781 797.890625 151.457031 798.707031 152.132812 C 802.761719 155.574219 804.867188 157.910156 807.292969 162.761719 C 764.324219 205.730469 721.355469 248.699219 677.082031 292.96875 C 671.210938 290.621094 669.285156 289.488281 665.039062 285.320312 C 615.265625 239.320312 547.832031 224.132812 481.910156 226.328125 C 470.808594 226.773438 460.066406 228.097656 449.21875 230.46875 C 448.0625 230.714844 446.910156 230.957031 445.71875 231.210938 C 398.710938 241.496094 357.511719 263.929688 321.613281 295.574219 C 320.515625 296.511719 319.417969 297.449219 318.289062 298.417969 C 311.84375 303.980469 306.230469 309.875 300.78125 316.40625 C 299.804688 317.527344 298.832031 318.648438 297.824219 319.804688 C 283.625 336.355469 271.785156 354.367188 261.71875 373.699219 C 261.230469 374.628906 260.746094 375.558594 260.246094 376.519531 C 229.003906 437.121094 222.925781 505.535156 240.125 571.125 C 241.4375 576.457031 242.464844 581.847656 243.488281 587.238281 C 235.148438 594.183594 226.691406 600.867188 217.980469 607.339844 C 209.613281 613.59375 201.417969 620.078125 193.183594 626.503906 C 189.136719 629.660156 185.085938 632.808594 181.035156 635.953125 C 173.191406 642.046875 165.355469 648.152344 157.550781 654.296875 C 149.75 660.4375 141.921875 666.542969 134.078125 672.628906 C 128.945312 676.617188 123.820312 680.609375 118.707031 684.625 C 117.675781 685.433594 116.644531 686.242188 115.582031 687.078125 C 113.628906 688.605469 111.679688 690.136719 109.734375 691.675781 C 103.3125 696.699219 96.683594 701.292969 89.84375 705.730469 C 59.550781 649.828125 41.683594 582.523438 41.402344 518.878906 C 41.394531 517.492188 41.382812 516.105469 41.375 514.675781 C 41.351562 510.214844 41.34375 505.757812 41.339844 501.300781 C 41.339844 499.019531 41.339844 499.019531 41.339844 496.691406 C 41.359375 474.535156 41.832031 452.875 45.574219 430.988281 C 45.796875 429.621094 46.019531 428.253906 46.25 426.84375 C 53.144531 385.433594 65.238281 345.203125 83.332031 307.292969 C 83.742188 306.4375 84.148438 305.582031 84.566406 304.699219 C 87.511719 298.558594 90.589844 292.492188 93.75 286.457031 C 94.277344 285.449219 94.808594 284.4375 95.351562 283.394531 C 112.625 250.628906 133.917969 220.113281 158.855469 192.707031 C 159.613281 191.867188 160.375 191.027344 161.15625 190.160156 C 177.855469 171.773438 195.460938 154.644531 215.296875 139.660156 C 217.390625 138.0625 219.457031 136.429688 221.523438 134.796875 C 277.082031 90.988281 344.3125 61.582031 413.65625 48.421875 C 415.527344 48.0625 415.527344 48.0625 417.433594 47.699219 C 421.941406 46.902344 426.457031 46.210938 430.988281 45.574219 C 432.144531 45.410156 433.296875 45.246094 434.488281 45.078125 C 456.402344 42.078125 477.976562 40.976562 500.082031 41.097656 Z M 500.082031 41.097656 "/>
<path style=" stroke:none;fill-rule:nonzero;fill:rgb(25.490198%,52.156866%,95.294118%);fill-opacity:1;" d="M 500 416.667969 C 642.65625 416.667969 785.3125 416.667969 932.292969 416.667969 C 945.632812 470.03125 944.40625 531.871094 936.199219 585.9375 C 935.972656 587.476562 935.75 589.019531 935.519531 590.605469 C 924.472656 665.335938 897.136719 740.484375 848.957031 799.480469 C 847.972656 800.714844 846.984375 801.949219 845.96875 803.222656 C 839.421875 811.347656 832.5625 819.128906 825.519531 826.824219 C 824.289062 828.191406 823.058594 829.558594 821.828125 830.925781 C 820.5625 832.328125 819.300781 833.726562 818.035156 835.125 C 816.3125 837.03125 816.3125 837.03125 814.554688 838.980469 C 811.441406 842.195312 808.25 844.953125 804.6875 847.65625 C 800.988281 845.925781 797.875 843.976562 794.667969 841.449219 C 793.746094 840.730469 792.828125 840.011719 791.878906 839.269531 C 790.898438 838.492188 789.914062 837.714844 788.898438 836.914062 C 786.78125 835.253906 784.660156 833.589844 782.542969 831.929688 C 781.460938 831.078125 780.378906 830.230469 779.265625 829.351562 C 774.296875 825.453125 769.308594 821.582031 764.324219 817.707031 C 762.378906 816.195312 760.433594 814.683594 758.488281 813.171875 C 757.039062 812.042969 757.039062 812.042969 755.5625 810.894531 C 752.546875 808.546875 749.53125 806.199219 746.515625 803.851562 C 737.925781 797.167969 729.335938 790.484375 720.703125 783.855469 C 707.902344 774.027344 695.1875 764.089844 682.460938 754.171875 C 681.421875 753.363281 680.386719 752.554688 679.316406 751.722656 C 677.351562 750.191406 675.386719 748.660156 673.421875 747.128906 C 667.316406 742.371094 661.15625 737.695312 654.949219 733.074219 C 657.179688 728.1875 659.410156 726.238281 663.898438 723.226562 C 672.46875 717.195312 679.933594 710.339844 687.5 703.125 C 688.4375 702.253906 689.375 701.386719 690.34375 700.492188 C 719.457031 672.722656 735.238281 634.570312 744.792969 596.355469 C 664.011719 595.925781 583.230469 595.496094 500 595.050781 C 500 536.183594 500 477.316406 500 416.667969 Z M 500 416.667969 "/>
<path style=" stroke:none;fill-rule:nonzero;fill:rgb(98.039216%,73.333335%,1.960784%);fill-opacity:1;" d="M 89.84375 294.269531 C 98.152344 299.40625 105.703125 305.3125 113.277344 311.449219 C 119.253906 316.277344 125.335938 320.941406 131.511719 325.519531 C 139.269531 331.285156 146.867188 337.222656 154.390625 343.289062 C 160.792969 348.445312 167.28125 353.472656 173.8125 358.46875 C 179.265625 362.648438 184.683594 366.871094 190.105469 371.09375 C 196.816406 376.320312 203.539062 381.539062 210.285156 386.71875 C 211.59375 387.730469 212.90625 388.738281 214.253906 389.78125 C 217.800781 392.511719 221.375 395.207031 224.957031 397.898438 C 227.117188 399.542969 229.28125 401.1875 231.445312 402.832031 C 232.488281 403.609375 233.527344 404.382812 234.601562 405.183594 C 236.050781 406.289062 236.050781 406.289062 237.527344 407.417969 C 238.394531 408.074219 239.261719 408.726562 240.15625 409.398438 C 242.597656 411.875 243.152344 413.222656 243.488281 416.667969 C 242.980469 419.613281 242.980469 419.613281 242.046875 422.855469 C 241.707031 424.066406 241.371094 425.273438 241.023438 426.515625 C 240.65625 427.804688 240.289062 429.09375 239.910156 430.421875 C 236.203125 443.984375 233.503906 457.40625 231.769531 471.355469 C 231.601562 472.703125 231.429688 474.054688 231.253906 475.445312 C 230.855469 479.292969 230.625 483.109375 230.46875 486.980469 C 230.433594 487.851562 230.398438 488.722656 230.359375 489.621094 C 229.398438 517.332031 233.105469 544.363281 240.125 571.125 C 241.4375 576.457031 242.464844 581.847656 243.488281 587.238281 C 235.148438 594.183594 226.691406 600.867188 217.980469 607.339844 C 209.613281 613.59375 201.417969 620.078125 193.183594 626.503906 C 189.136719 629.660156 185.085938 632.808594 181.035156 635.953125 C 173.191406 642.046875 165.355469 648.152344 157.550781 654.296875 C 149.75 660.4375 141.921875 666.542969 134.078125 672.628906 C 128.945312 676.617188 123.820312 680.609375 118.707031 684.625 C 117.675781 685.433594 116.644531 686.242188 115.582031 687.078125 C 113.628906 688.605469 111.679688 690.136719 109.734375 691.675781 C 103.3125 696.699219 96.683594 701.292969 89.84375 705.730469 C 59.550781 649.828125 41.683594 582.523438 41.402344 518.878906 C 41.394531 517.492188 41.382812 516.105469 41.375 514.675781 C 41.351562 510.214844 41.34375 505.757812 41.339844 501.300781 C 41.339844 499.78125 41.339844 498.257812 41.339844 496.691406 C 41.359375 474.535156 41.832031 452.875 45.574219 430.988281 C 45.90625 428.9375 45.90625 428.9375 46.25 426.84375 C 53.941406 380.65625 68.132812 335.816406 89.84375 294.269531 Z M 89.84375 294.269531 "/>
</g>
</svg>
