<?xml version="1.0" encoding="UTF-8"?>
<svg xmlns="http://www.w3.org/2000/svg" xmlns:xlink="http://www.w3.org/1999/xlink" width="900px" height="900px" viewBox="0 0 900 900" version="1.1">
<g id="surface1">
<path style=" stroke:none;fill-rule:nonzero;fill:rgb(20.392157%,65.882355%,32.549021%);fill-opacity:1;" d="M 450.074219 36.988281 C 451.46875 36.992188 452.867188 36.996094 454.304688 37 C 477.03125 37.074219 499.089844 38.21875 521.484375 42.1875 C 522.75 42.40625 524.019531 42.625 525.320312 42.851562 C 580.214844 52.648438 632.570312 73.894531 678.515625 105.46875 C 679.699219 106.28125 679.699219 106.28125 680.910156 107.105469 C 690.246094 113.542969 699.152344 120.414062 707.8125 127.734375 C 709.265625 128.941406 710.722656 130.148438 712.175781 131.355469 C 713.675781 132.613281 715.175781 133.871094 716.675781 135.132812 C 717.386719 135.71875 718.101562 136.3125 718.835938 136.917969 C 722.484375 140.015625 724.378906 142.117188 726.5625 146.484375 C 687.890625 185.15625 649.21875 223.828125 609.375 263.671875 C 604.089844 261.558594 602.355469 260.539062 598.535156 256.789062 C 553.738281 215.386719 493.046875 201.71875 433.71875 203.695312 C 423.726562 204.097656 414.058594 205.289062 404.296875 207.421875 C 403.257812 207.644531 402.21875 207.859375 401.148438 208.089844 C 358.839844 217.347656 321.761719 237.535156 289.453125 266.015625 C 288.464844 266.859375 287.476562 267.703125 286.460938 268.578125 C 280.660156 273.582031 275.609375 278.886719 270.703125 284.765625 C 269.824219 285.773438 268.949219 286.785156 268.042969 287.824219 C 255.261719 302.71875 244.605469 318.929688 235.546875 336.328125 C 235.109375 337.164062 234.671875 338.003906 234.222656 338.867188 C 204.082031 397.328125 200.097656 463.695312 219.601562 526.074219 C 239.945312 588.75 284.21875 641.140625 342.789062 671.351562 C 401.699219 700.875 470.179688 705.140625 532.917969 684.96875 C 586.039062 666.742188 630.144531 632.101562 655.230469 581.429688 C 662.234375 566.875 666.359375 552.535156 670.3125 536.71875 C 597.609375 536.332031 524.90625 535.945312 450 535.546875 C 450 482.566406 450 429.585938 450 375 C 578.390625 375 706.78125 375 839.0625 375 C 851.070312 423.027344 849.964844 478.683594 842.578125 527.34375 C 842.375 528.730469 842.175781 530.117188 841.96875 531.546875 C 832.023438 598.800781 807.421875 666.4375 764.0625 719.53125 C 763.175781 720.644531 762.285156 721.753906 761.371094 722.898438 C 755.480469 730.210938 749.304688 737.214844 742.96875 744.140625 C 741.902344 745.328125 740.832031 746.523438 739.769531 747.710938 C 734.46875 753.609375 729.144531 759.316406 723.054688 764.421875 C 720.367188 766.691406 717.796875 769.070312 715.210938 771.460938 C 692.722656 791.613281 666.683594 807.8125 639.84375 821.484375 C 638.984375 821.925781 638.128906 822.363281 637.246094 822.816406 C 586.304688 848.675781 526.386719 862.511719 469.324219 862.738281 C 467.960938 862.746094 466.597656 862.75 465.191406 862.757812 C 462.316406 862.769531 459.4375 862.777344 456.558594 862.78125 C 452.265625 862.792969 447.972656 862.828125 443.679688 862.867188 C 418.761719 862.980469 394.320312 860.722656 369.871094 855.835938 C 368.367188 855.539062 366.859375 855.238281 365.308594 854.929688 C 307.894531 843.277344 253.402344 818.648438 206.25 783.984375 C 205.511719 783.441406 204.777344 782.902344 204.019531 782.347656 C 180.6875 765.09375 158.292969 745.125 139.453125 723.046875 C 138.53125 721.992188 137.605469 720.9375 136.652344 719.851562 C 121.964844 702.972656 108.929688 684.707031 97.265625 665.625 C 96.4375 664.273438 96.4375 664.273438 95.59375 662.890625 C 60.5 604.976562 37.5625 535.148438 37.261719 466.992188 C 37.253906 465.742188 37.246094 464.496094 37.238281 463.207031 C 37.214844 459.195312 37.210938 455.183594 37.207031 451.171875 C 37.207031 449.117188 37.207031 449.117188 37.207031 447.023438 C 37.222656 427.082031 37.648438 407.585938 41.015625 387.890625 C 41.21875 386.660156 41.417969 385.429688 41.625 384.160156 C 47.828125 346.890625 58.714844 310.683594 75 276.5625 C 75.367188 275.792969 75.734375 275.023438 76.109375 274.230469 C 78.761719 268.703125 81.53125 263.242188 84.375 257.8125 C 84.851562 256.90625 85.328125 255.992188 85.816406 255.054688 C 101.363281 225.566406 120.527344 198.101562 142.96875 173.4375 C 143.652344 172.679688 144.335938 171.925781 145.039062 171.144531 C 160.070312 154.597656 175.914062 139.179688 193.765625 125.695312 C 195.652344 124.257812 197.511719 122.785156 199.371094 121.316406 C 249.375 81.890625 309.882812 55.421875 372.289062 43.578125 C 373.976562 43.257812 373.976562 43.257812 375.691406 42.929688 C 379.746094 42.210938 383.8125 41.589844 387.890625 41.015625 C 388.929688 40.867188 389.96875 40.722656 391.039062 40.570312 C 410.761719 37.871094 430.179688 36.878906 450.074219 36.988281 Z M 450.074219 36.988281 "/>
<path style=" stroke:none;fill-rule:nonzero;fill:rgb(91.764706%,26.274511%,20.392157%);fill-opacity:1;" d="M 450.074219 36.988281 C 451.46875 36.992188 452.867188 36.996094 454.304688 37 C 477.03125 37.074219 499.089844 38.21875 521.484375 42.1875 C 522.75 42.40625 524.019531 42.625 525.320312 42.851562 C 580.214844 52.648438 632.570312 73.894531 678.515625 105.46875 C 679.699219 106.28125 679.699219 106.28125 680.910156 107.105469 C 690.246094 113.542969 699.152344 120.414062 707.8125 127.734375 C 709.265625 128.941406 710.722656 130.148438 712.175781 131.355469 C 713.675781 132.613281 715.175781 133.871094 716.675781 135.132812 C 717.386719 135.71875 718.101562 136.3125 718.835938 136.917969 C 722.484375 140.015625 724.378906 142.117188 726.5625 146.484375 C 687.890625 185.15625 649.21875 223.828125 609.375 263.671875 C 604.089844 261.558594 602.355469 260.539062 598.535156 256.789062 C 553.738281 215.386719 493.046875 201.71875 433.71875 203.695312 C 423.726562 204.097656 414.058594 205.289062 404.296875 207.421875 C 403.257812 207.644531 402.21875 207.859375 401.148438 208.089844 C 358.839844 217.347656 321.761719 237.535156 289.453125 266.015625 C 288.464844 266.859375 287.476562 267.703125 286.460938 268.578125 C 280.660156 273.582031 275.609375 278.886719 270.703125 284.765625 C 269.824219 285.773438 268.949219 286.785156 268.042969 287.824219 C 255.261719 302.71875 244.605469 318.929688 235.546875 336.328125 C 235.109375 337.164062 234.671875 338.003906 234.222656 338.867188 C 206.101562 393.410156 200.632812 454.980469 216.113281 514.011719 C 217.292969 518.8125 218.21875 523.664062 219.140625 528.515625 C 211.632812 534.765625 204.023438 540.78125 196.183594 546.605469 C 188.652344 552.234375 181.277344 558.070312 173.867188 563.851562 C 170.222656 566.695312 166.578125 569.527344 162.929688 572.359375 C 155.871094 577.84375 148.820312 583.335938 141.796875 588.867188 C 134.773438 594.394531 127.730469 599.890625 120.671875 605.367188 C 116.050781 608.957031 111.4375 612.546875 106.835938 616.164062 C 105.90625 616.890625 104.980469 617.617188 104.023438 618.371094 C 102.265625 619.746094 100.511719 621.125 98.761719 622.507812 C 92.980469 627.03125 87.015625 631.164062 80.859375 635.15625 C 53.59375 584.84375 37.515625 524.269531 37.261719 466.992188 C 37.253906 465.742188 37.246094 464.496094 37.238281 463.207031 C 37.214844 459.195312 37.210938 455.183594 37.207031 451.171875 C 37.207031 449.117188 37.207031 449.117188 37.207031 447.023438 C 37.222656 427.082031 37.648438 407.585938 41.015625 387.890625 C 41.21875 386.660156 41.417969 385.429688 41.625 384.160156 C 47.828125 346.890625 58.714844 310.683594 75 276.5625 C 75.367188 275.792969 75.734375 275.023438 76.109375 274.230469 C 78.761719 268.703125 81.53125 263.242188 84.375 257.8125 C 84.851562 256.90625 85.328125 255.992188 85.816406 255.054688 C 101.363281 225.566406 120.527344 198.101562 142.96875 173.4375 C 143.652344 172.679688 144.335938 171.925781 145.039062 171.144531 C 160.070312 154.597656 175.914062 139.179688 193.765625 125.695312 C 195.652344 124.257812 197.511719 122.785156 199.371094 121.316406 C 249.375 81.890625 309.882812 55.421875 372.289062 43.578125 C 373.976562 43.257812 373.976562 43.257812 375.691406 42.929688 C 379.746094 42.210938 383.8125 41.589844 387.890625 41.015625 C 388.929688 40.867188 389.96875 40.722656 391.039062 40.570312 C 410.761719 37.871094 430.179688 36.878906 450.074219 36.988281 Z M 450.074219 36.988281 "/>
<path style=" stroke:none;fill-rule:nonzero;fill:rgb(25.490198%,52.156866%,95.294118%);fill-opacity:1;" d="M 450 375 C 578.390625 375 706.78125 375 839.0625 375 C 851.070312 423.027344 849.964844 478.683594 842.578125 527.34375 C 842.375 528.730469 842.175781 530.117188 841.96875 531.546875 C 832.023438 598.800781 807.421875 666.4375 764.0625 719.53125 C 763.175781 720.644531 762.285156 721.753906 761.371094 722.898438 C 755.480469 730.210938 749.304688 737.214844 742.96875 744.140625 C 741.859375 745.371094 740.753906 746.601562 739.644531 747.832031 C 738.507812 749.09375 737.371094 750.355469 736.230469 751.613281 C 734.679688 753.328125 734.679688 753.328125 733.097656 755.082031 C 730.296875 757.976562 727.425781 760.457031 724.21875 762.890625 C 720.890625 761.332031 718.085938 759.578125 715.203125 757.304688 C 714.371094 756.65625 713.546875 756.011719 712.691406 755.34375 C 711.808594 754.644531 710.921875 753.945312 710.007812 753.222656 C 708.101562 751.726562 706.195312 750.230469 704.289062 748.738281 C 703.316406 747.96875 702.339844 747.207031 701.339844 746.417969 C 696.867188 742.90625 692.378906 739.421875 687.890625 735.9375 C 686.140625 734.574219 684.390625 733.214844 682.640625 731.855469 C 681.335938 730.839844 681.335938 730.839844 680.007812 729.804688 C 677.292969 727.691406 674.578125 725.578125 671.863281 723.464844 C 664.132812 717.453125 656.402344 711.4375 648.632812 705.46875 C 637.113281 696.625 625.667969 687.679688 614.214844 678.753906 C 613.28125 678.027344 612.347656 677.300781 611.382812 676.550781 C 609.617188 675.171875 607.847656 673.792969 606.078125 672.414062 C 600.585938 668.132812 595.039062 663.925781 589.453125 659.765625 C 591.460938 655.367188 593.46875 653.613281 597.507812 650.902344 C 605.222656 645.476562 611.941406 639.304688 618.75 632.8125 C 619.59375 632.027344 620.4375 631.25 621.308594 630.441406 C 647.511719 605.449219 661.714844 571.113281 670.3125 536.71875 C 597.609375 536.332031 524.90625 535.945312 450 535.546875 C 450 482.566406 450 429.585938 450 375 Z M 450 375 "/>
<path style=" stroke:none;fill-rule:nonzero;fill:rgb(98.039216%,73.333335%,1.960784%);fill-opacity:1;" d="M 80.859375 264.84375 C 88.335938 269.464844 95.132812 274.78125 101.949219 280.304688 C 107.328125 284.648438 112.800781 288.847656 118.359375 292.96875 C 125.34375 298.15625 132.179688 303.5 138.953125 308.960938 C 144.714844 313.601562 150.554688 318.125 156.429688 322.621094 C 161.339844 326.382812 166.214844 330.183594 171.09375 333.984375 C 177.132812 338.6875 183.183594 343.386719 189.257812 348.046875 C 190.433594 348.957031 191.617188 349.863281 192.828125 350.804688 C 196.019531 353.261719 199.238281 355.6875 202.460938 358.109375 C 204.40625 359.589844 206.351562 361.070312 208.300781 362.546875 C 209.238281 363.25 210.175781 363.945312 211.140625 364.664062 C 212.445312 365.660156 212.445312 365.660156 213.773438 366.675781 C 214.554688 367.265625 215.335938 367.855469 216.140625 368.457031 C 218.335938 370.6875 218.835938 371.898438 219.140625 375 C 218.683594 377.652344 218.683594 377.652344 217.84375 380.570312 C 217.535156 381.660156 217.234375 382.746094 216.921875 383.863281 C 216.589844 385.023438 216.261719 386.183594 215.917969 387.378906 C 212.582031 399.585938 210.152344 411.664062 208.59375 424.21875 C 208.441406 425.433594 208.285156 426.648438 208.128906 427.902344 C 207.769531 431.363281 207.5625 434.796875 207.421875 438.28125 C 207.390625 439.066406 207.359375 439.851562 207.324219 440.660156 C 206.457031 465.597656 209.796875 489.925781 216.113281 514.011719 C 217.292969 518.8125 218.21875 523.664062 219.140625 528.515625 C 211.632812 534.765625 204.023438 540.78125 196.183594 546.605469 C 188.652344 552.234375 181.277344 558.070312 173.867188 563.851562 C 170.222656 566.695312 166.578125 569.527344 162.929688 572.359375 C 155.871094 577.84375 148.820312 583.335938 141.796875 588.867188 C 134.773438 594.394531 127.730469 599.890625 120.671875 605.367188 C 116.050781 608.957031 111.4375 612.546875 106.835938 616.164062 C 105.90625 616.890625 104.980469 617.617188 104.023438 618.371094 C 102.265625 619.746094 100.511719 621.125 98.761719 622.507812 C 92.980469 627.03125 87.015625 631.164062 80.859375 635.15625 C 53.59375 584.84375 37.515625 524.269531 37.261719 466.992188 C 37.253906 465.742188 37.246094 464.496094 37.238281 463.207031 C 37.214844 459.195312 37.210938 455.183594 37.207031 451.171875 C 37.207031 449.804688 37.207031 448.433594 37.207031 447.023438 C 37.222656 427.082031 37.648438 407.585938 41.015625 387.890625 C 41.316406 386.042969 41.316406 386.042969 41.625 384.160156 C 48.546875 342.589844 61.320312 302.234375 80.859375 264.84375 Z M 80.859375 264.84375 "/>
</g>
</svg>
