<?xml version="1.0" encoding="UTF-8"?>
<svg xmlns="http://www.w3.org/2000/svg" xmlns:xlink="http://www.w3.org/1999/xlink" width="800px" height="800px" viewBox="0 0 800 800" version="1.1">
<g id="surface1">
<path style=" stroke:none;fill-rule:nonzero;fill:rgb(20.392157%,65.882355%,32.549021%);fill-opacity:1;" d="M 400.066406 32.878906 C 401.304688 32.882812 402.546875 32.886719 403.828125 32.890625 C 424.027344 32.953125 443.636719 33.972656 463.542969 37.5 C 464.667969 37.695312 465.796875 37.890625 466.953125 38.089844 C 515.746094 46.796875 562.285156 65.683594 603.125 93.75 C 604.175781 94.472656 604.175781 94.472656 605.253906 95.203125 C 613.550781 100.925781 621.46875 107.035156 629.167969 113.542969 C 630.457031 114.613281 631.753906 115.6875 633.046875 116.761719 C 634.378906 117.878906 635.710938 118.996094 637.046875 120.117188 C 637.675781 120.640625 638.3125 121.167969 638.964844 121.703125 C 642.207031 124.457031 643.890625 126.328125 645.832031 130.207031 C 611.457031 164.582031 577.082031 198.957031 541.667969 234.375 C 536.96875 232.496094 535.425781 231.589844 532.03125 228.257812 C 492.210938 191.453125 438.265625 179.304688 385.527344 181.0625 C 376.644531 181.421875 368.050781 182.480469 359.375 184.375 C 358.453125 184.574219 357.527344 184.765625 356.578125 184.96875 C 318.96875 193.199219 286.011719 211.140625 257.292969 236.457031 C 256.414062 237.207031 255.535156 237.957031 254.632812 238.734375 C 249.476562 243.183594 244.984375 247.898438 240.625 253.125 C 239.84375 254.019531 239.066406 254.921875 238.261719 255.84375 C 226.898438 269.082031 217.425781 283.492188 209.375 298.957031 C 208.984375 299.703125 208.597656 300.449219 208.199219 301.214844 C 181.40625 353.179688 177.863281 412.171875 195.203125 467.621094 C 213.285156 523.332031 252.640625 569.902344 304.703125 596.757812 C 357.066406 623 417.9375 626.792969 473.703125 608.859375 C 520.921875 592.660156 560.128906 561.867188 582.425781 516.828125 C 588.652344 503.890625 592.320312 491.140625 595.832031 477.082031 C 531.207031 476.738281 466.582031 476.394531 400 476.042969 C 400 428.949219 400 381.855469 400 333.332031 C 514.125 333.332031 628.25 333.332031 745.832031 333.332031 C 756.507812 376.023438 755.523438 425.496094 748.957031 468.75 C 748.777344 469.984375 748.601562 471.214844 748.417969 472.484375 C 739.578125 532.265625 717.707031 592.390625 679.167969 639.582031 C 678.378906 640.574219 677.585938 641.558594 676.773438 642.578125 C 671.539062 649.078125 666.046875 655.300781 660.417969 661.457031 C 659.46875 662.515625 658.515625 663.578125 657.574219 664.632812 C 652.859375 669.875 648.128906 674.949219 642.714844 679.484375 C 640.328125 681.503906 638.042969 683.617188 635.742188 685.742188 C 615.753906 703.65625 592.609375 718.054688 568.75 730.207031 C 567.984375 730.601562 567.226562 730.988281 566.441406 731.390625 C 521.160156 754.378906 467.898438 766.675781 417.175781 766.878906 C 415.964844 766.886719 414.753906 766.890625 413.503906 766.894531 C 410.949219 766.90625 408.390625 766.914062 405.828125 766.917969 C 402.015625 766.925781 398.199219 766.957031 394.382812 766.992188 C 372.234375 767.09375 350.507812 765.085938 328.773438 760.742188 C 327.4375 760.480469 326.097656 760.210938 324.71875 759.9375 C 273.683594 749.578125 225.246094 727.6875 183.332031 696.875 C 182.675781 696.390625 182.023438 695.914062 181.351562 695.421875 C 160.609375 680.082031 140.703125 662.332031 123.957031 642.707031 C 123.140625 641.769531 122.316406 640.832031 121.46875 639.867188 C 108.414062 624.863281 96.828125 608.628906 86.457031 591.667969 C 85.722656 590.464844 85.722656 590.464844 84.972656 589.234375 C 53.777344 537.757812 33.390625 475.6875 33.121094 415.105469 C 33.113281 413.992188 33.109375 412.886719 33.101562 411.738281 C 33.078125 408.171875 33.078125 404.609375 33.074219 401.042969 C 33.074219 399.214844 33.074219 399.214844 33.074219 397.355469 C 33.085938 379.628906 33.464844 362.296875 36.457031 344.792969 C 36.640625 343.699219 36.816406 342.605469 37 341.476562 C 42.515625 308.347656 52.191406 276.164062 66.667969 245.832031 C 66.992188 245.148438 67.320312 244.464844 67.652344 243.761719 C 70.011719 238.847656 72.472656 233.992188 75 229.167969 C 75.421875 228.359375 75.847656 227.546875 76.28125 226.714844 C 90.101562 200.503906 107.136719 176.089844 127.082031 154.167969 C 127.691406 153.492188 128.296875 152.824219 128.921875 152.128906 C 142.285156 137.421875 156.367188 123.714844 172.234375 111.730469 C 173.914062 110.453125 175.566406 109.140625 177.21875 107.835938 C 221.667969 72.792969 275.453125 49.265625 330.921875 38.734375 C 332.421875 38.453125 332.421875 38.453125 333.949219 38.160156 C 337.550781 37.519531 341.167969 36.96875 344.792969 36.457031 C 345.714844 36.328125 346.640625 36.199219 347.589844 36.0625 C 365.121094 33.664062 382.382812 32.78125 400.066406 32.878906 Z M 400.066406 32.878906 "/>
<path style=" stroke:none;fill-rule:nonzero;fill:rgb(91.764706%,26.274511%,20.392157%);fill-opacity:1;" d="M 400.066406 32.878906 C 401.304688 32.882812 402.546875 32.886719 403.828125 32.890625 C 424.027344 32.953125 443.636719 33.972656 463.542969 37.5 C 464.667969 37.695312 465.796875 37.890625 466.953125 38.089844 C 515.746094 46.796875 562.285156 65.683594 603.125 93.75 C 604.175781 94.472656 604.175781 94.472656 605.253906 95.203125 C 613.550781 100.925781 621.46875 107.035156 629.167969 113.542969 C 630.457031 114.613281 631.753906 115.6875 633.046875 116.761719 C 634.378906 117.878906 635.710938 118.996094 637.046875 120.117188 C 637.675781 120.640625 638.3125 121.167969 638.964844 121.703125 C 642.207031 124.457031 643.890625 126.328125 645.832031 130.207031 C 611.457031 164.582031 577.082031 198.957031 541.667969 234.375 C 536.96875 232.496094 535.425781 231.589844 532.03125 228.257812 C 492.210938 191.453125 438.265625 179.304688 385.527344 181.0625 C 376.644531 181.421875 368.050781 182.480469 359.375 184.375 C 358.453125 184.574219 357.527344 184.765625 356.578125 184.96875 C 318.96875 193.199219 286.011719 211.140625 257.292969 236.457031 C 256.414062 237.207031 255.535156 237.957031 254.632812 238.734375 C 249.476562 243.183594 244.984375 247.898438 240.625 253.125 C 239.84375 254.019531 239.066406 254.921875 238.261719 255.84375 C 226.898438 269.082031 217.425781 283.492188 209.375 298.957031 C 208.984375 299.703125 208.597656 300.449219 208.199219 301.214844 C 183.203125 349.699219 178.339844 404.425781 192.101562 456.898438 C 193.148438 461.167969 193.972656 465.480469 194.792969 469.792969 C 188.117188 475.347656 181.355469 480.695312 174.386719 485.871094 C 167.691406 490.875 161.136719 496.0625 154.546875 501.203125 C 151.308594 503.730469 148.070312 506.246094 144.828125 508.765625 C 138.550781 513.640625 132.285156 518.519531 126.042969 523.4375 C 119.796875 528.351562 113.539062 533.234375 107.265625 538.105469 C 103.15625 541.296875 99.054688 544.484375 94.964844 547.703125 C 94.140625 548.347656 93.316406 548.992188 92.464844 549.664062 C 90.902344 550.886719 89.34375 552.109375 87.789062 553.339844 C 82.648438 557.359375 77.347656 561.035156 71.875 564.582031 C 47.640625 519.859375 33.347656 466.015625 33.121094 415.105469 C 33.113281 413.992188 33.109375 412.886719 33.101562 411.738281 C 33.078125 408.171875 33.078125 404.609375 33.074219 401.042969 C 33.074219 399.214844 33.074219 399.214844 33.074219 397.355469 C 33.085938 379.628906 33.464844 362.296875 36.457031 344.792969 C 36.640625 343.699219 36.816406 342.605469 37 341.476562 C 42.515625 308.347656 52.191406 276.164062 66.667969 245.832031 C 66.992188 245.148438 67.320312 244.464844 67.652344 243.761719 C 70.011719 238.847656 72.472656 233.992188 75 229.167969 C 75.421875 228.359375 75.847656 227.546875 76.28125 226.714844 C 90.101562 200.503906 107.136719 176.089844 127.082031 154.167969 C 127.691406 153.492188 128.296875 152.824219 128.921875 152.128906 C 142.285156 137.421875 156.367188 123.714844 172.234375 111.730469 C 173.914062 110.453125 175.566406 109.140625 177.21875 107.835938 C 221.667969 72.792969 275.453125 49.265625 330.921875 38.734375 C 332.421875 38.453125 332.421875 38.453125 333.949219 38.160156 C 337.550781 37.519531 341.167969 36.96875 344.792969 36.457031 C 345.714844 36.328125 346.640625 36.199219 347.589844 36.0625 C 365.121094 33.664062 382.382812 32.78125 400.066406 32.878906 Z M 400.066406 32.878906 "/>
<path style=" stroke:none;fill-rule:nonzero;fill:rgb(25.490198%,52.156866%,95.294118%);fill-opacity:1;" d="M 400 333.332031 C 514.125 333.332031 628.25 333.332031 745.832031 333.332031 C 756.507812 376.023438 755.523438 425.496094 748.957031 468.75 C 748.777344 469.984375 748.601562 471.214844 748.417969 472.484375 C 739.578125 532.265625 717.707031 592.390625 679.167969 639.582031 C 678.378906 640.574219 677.585938 641.558594 676.773438 642.578125 C 671.539062 649.078125 666.046875 655.300781 660.417969 661.457031 C 659.429688 662.550781 658.449219 663.644531 657.460938 664.738281 C 656.453125 665.859375 655.441406 666.984375 654.425781 668.101562 C 653.046875 669.625 653.046875 669.625 651.640625 671.183594 C 649.152344 673.757812 646.601562 675.960938 643.75 678.125 C 640.792969 676.738281 638.296875 675.179688 635.734375 673.160156 C 634.996094 672.582031 634.265625 672.011719 633.503906 671.417969 C 632.71875 670.796875 631.929688 670.171875 631.117188 669.53125 C 629.421875 668.203125 627.730469 666.871094 626.035156 665.546875 C 625.171875 664.859375 624.300781 664.183594 623.414062 663.484375 C 619.4375 660.359375 615.449219 657.265625 611.457031 654.167969 C 609.902344 652.953125 608.347656 651.746094 606.792969 650.539062 C 605.632812 649.636719 605.632812 649.636719 604.453125 648.714844 C 602.039062 646.835938 599.625 644.957031 597.210938 643.078125 C 590.339844 637.734375 583.46875 632.390625 576.5625 627.082031 C 566.324219 619.222656 556.148438 611.269531 545.96875 603.335938 C 545.140625 602.691406 544.308594 602.046875 543.453125 601.378906 C 541.882812 600.152344 540.308594 598.925781 538.734375 597.703125 C 533.855469 593.894531 528.921875 590.15625 523.957031 586.457031 C 525.742188 582.546875 527.527344 580.988281 531.117188 578.578125 C 537.976562 573.757812 543.949219 568.269531 550 562.5 C 550.75 561.800781 551.5 561.109375 552.273438 560.390625 C 575.566406 538.175781 588.191406 507.65625 595.832031 477.082031 C 531.207031 476.738281 466.582031 476.394531 400 476.042969 C 400 428.949219 400 381.855469 400 333.332031 Z M 400 333.332031 "/>
<path style=" stroke:none;fill-rule:nonzero;fill:rgb(98.039216%,73.333335%,1.960784%);fill-opacity:1;" d="M 71.875 235.417969 C 78.519531 239.523438 84.5625 244.25 90.621094 249.160156 C 95.402344 253.019531 100.265625 256.753906 105.207031 260.417969 C 111.417969 265.027344 117.492188 269.777344 123.515625 274.632812 C 128.636719 278.757812 133.828125 282.777344 139.046875 286.773438 C 143.414062 290.117188 147.746094 293.496094 152.082031 296.875 C 157.453125 301.054688 162.828125 305.234375 168.230469 309.375 C 169.273438 310.183594 170.328125 310.988281 171.402344 311.828125 C 174.238281 314.011719 177.101562 316.167969 179.964844 318.320312 C 181.695312 319.636719 183.421875 320.953125 185.15625 322.265625 C 185.988281 322.890625 186.824219 323.507812 187.679688 324.144531 C 188.839844 325.03125 188.839844 325.03125 190.019531 325.933594 C 190.714844 326.457031 191.410156 326.984375 192.125 327.515625 C 194.078125 329.5 194.519531 330.578125 194.792969 333.332031 C 194.386719 335.691406 194.386719 335.691406 193.640625 338.285156 C 193.363281 339.253906 193.097656 340.21875 192.820312 341.210938 C 192.523438 342.242188 192.234375 343.273438 191.925781 344.335938 C 188.960938 355.1875 186.800781 365.921875 185.417969 377.082031 C 185.28125 378.164062 185.140625 379.242188 185.003906 380.359375 C 184.683594 383.433594 184.5 386.484375 184.375 389.582031 C 184.347656 390.28125 184.320312 390.980469 184.289062 391.699219 C 183.515625 413.863281 186.484375 435.488281 192.101562 456.898438 C 193.148438 461.167969 193.972656 465.480469 194.792969 469.792969 C 188.117188 475.347656 181.355469 480.695312 174.386719 485.871094 C 167.691406 490.875 161.136719 496.0625 154.546875 501.203125 C 151.308594 503.730469 148.070312 506.246094 144.828125 508.765625 C 138.550781 513.640625 132.285156 518.519531 126.042969 523.4375 C 119.796875 528.351562 113.539062 533.234375 107.265625 538.105469 C 103.15625 541.296875 99.054688 544.484375 94.964844 547.703125 C 94.140625 548.347656 93.316406 548.992188 92.464844 549.664062 C 90.902344 550.886719 89.34375 552.109375 87.789062 553.339844 C 82.648438 557.359375 77.347656 561.035156 71.875 564.582031 C 47.640625 519.859375 33.347656 466.015625 33.121094 415.105469 C 33.113281 413.992188 33.109375 412.886719 33.101562 411.738281 C 33.078125 408.171875 33.078125 404.609375 33.074219 401.042969 C 33.074219 399.828125 33.074219 398.609375 33.074219 397.355469 C 33.085938 379.628906 33.464844 362.296875 36.457031 344.792969 C 36.726562 343.148438 36.726562 343.148438 37 341.476562 C 43.152344 304.523438 54.507812 268.652344 71.875 235.417969 Z M 71.875 235.417969 "/>
</g>
</svg>
