<?xml version="1.0" encoding="UTF-8"?>
<svg xmlns="http://www.w3.org/2000/svg" xmlns:xlink="http://www.w3.org/1999/xlink" width="800px" height="800px" viewBox="0 0 800 800" version="1.1">
<g id="surface1">
<rect x="0" y="0" width="800" height="800" style="fill:rgb(0%,0%,0%);fill-opacity:1;stroke:none;"/>
<path style=" stroke:none;fill-rule:nonzero;fill:rgb(100%,100%,100%);fill-opacity:1;" d="M 177.828125 476.882812 L 264.214844 476.882812 L 264.214844 488.101562 L 177.828125 488.101562 Z M 177.828125 476.882812 "/>
<path style=" stroke:none;fill-rule:nonzero;fill:rgb(100%,100%,100%);fill-opacity:1;" d="M 177.828125 453.324219 L 264.214844 453.324219 L 264.214844 464.542969 L 177.828125 464.542969 Z M 177.828125 453.324219 "/>
<path style=" stroke:none;fill-rule:nonzero;fill:rgb(100%,100%,100%);fill-opacity:1;" d="M 202.515625 429.761719 L 239.535156 429.761719 L 239.535156 440.980469 L 202.515625 440.980469 Z M 202.515625 429.761719 "/>
<path style=" stroke:none;fill-rule:nonzero;fill:rgb(100%,100%,100%);fill-opacity:1;" d="M 202.515625 406.203125 L 239.535156 406.203125 L 239.535156 417.421875 L 202.515625 417.421875 Z M 202.515625 406.203125 "/>
<path style=" stroke:none;fill-rule:nonzero;fill:rgb(100%,100%,100%);fill-opacity:1;" d="M 202.515625 382.640625 L 239.535156 382.640625 L 239.535156 393.859375 L 202.515625 393.859375 Z M 202.515625 382.640625 "/>
<path style=" stroke:none;fill-rule:nonzero;fill:rgb(100%,100%,100%);fill-opacity:1;" d="M 202.515625 359.078125 L 239.535156 359.078125 L 239.535156 370.296875 L 202.515625 370.296875 Z M 202.515625 359.078125 "/>
<path style=" stroke:none;fill-rule:nonzero;fill:rgb(100%,100%,100%);fill-opacity:1;" d="M 177.828125 335.519531 L 264.214844 335.519531 L 264.214844 346.738281 L 177.828125 346.738281 Z M 177.828125 335.519531 "/>
<path style=" stroke:none;fill-rule:nonzero;fill:rgb(100%,100%,100%);fill-opacity:1;" d="M 177.828125 311.960938 L 264.214844 311.960938 L 264.214844 323.179688 L 177.828125 323.179688 Z M 177.828125 311.960938 "/>
<path style=" stroke:none;fill-rule:nonzero;fill:rgb(100%,100%,100%);fill-opacity:1;" d="M 276.554688 476.882812 L 276.554688 488.101562 L 367.429688 488.101562 C 378.609375 488.109375 389.425781 484.136719 397.933594 476.882812 Z M 276.554688 476.882812 "/>
<path style=" stroke:none;fill-rule:nonzero;fill:rgb(100%,100%,100%);fill-opacity:1;" d="M 276.554688 453.324219 L 276.554688 464.542969 L 408.234375 464.542969 C 410.269531 461.015625 411.84375 457.246094 412.90625 453.324219 Z M 276.554688 453.324219 "/>
<path style=" stroke:none;fill-rule:nonzero;fill:rgb(100%,100%,100%);fill-opacity:1;" d="M 301.238281 429.761719 L 338.265625 429.761719 L 338.265625 440.980469 L 301.238281 440.980469 Z M 301.238281 429.761719 "/>
<path style=" stroke:none;fill-rule:nonzero;fill:rgb(100%,100%,100%);fill-opacity:1;" d="M 398.765625 406.203125 L 301.238281 406.203125 L 301.238281 417.421875 L 407.820312 417.421875 C 405.390625 413.238281 402.335938 409.453125 398.765625 406.203125 Z M 398.765625 406.203125 "/>
<path style=" stroke:none;fill-rule:nonzero;fill:rgb(100%,100%,100%);fill-opacity:1;" d="M 301.238281 382.640625 L 301.238281 393.859375 L 399.171875 393.859375 C 402.742188 390.609375 405.796875 386.824219 408.226562 382.640625 Z M 301.238281 382.640625 "/>
<path style=" stroke:none;fill-rule:nonzero;fill:rgb(100%,100%,100%);fill-opacity:1;" d="M 412.90625 346.738281 C 411.84375 342.8125 410.269531 339.046875 408.234375 335.519531 L 276.554688 335.519531 L 276.554688 346.738281 Z M 412.90625 346.738281 "/>
<path style=" stroke:none;fill-rule:nonzero;fill:rgb(100%,100%,100%);fill-opacity:1;" d="M 397.933594 323.179688 C 389.425781 315.925781 378.609375 311.949219 367.429688 311.960938 L 276.554688 311.960938 L 276.554688 323.179688 Z M 397.933594 323.179688 "/>
<path style=" stroke:none;fill-rule:nonzero;fill:rgb(100%,100%,100%);fill-opacity:1;" d="M 301.238281 359.078125 L 338.265625 359.078125 L 338.265625 370.296875 L 301.238281 370.296875 Z M 301.238281 359.078125 "/>
<path style=" stroke:none;fill-rule:nonzero;fill:rgb(100%,100%,100%);fill-opacity:1;" d="M 373.042969 370.296875 L 413.175781 370.296875 C 414.082031 366.628906 414.546875 362.859375 414.546875 359.078125 L 373.042969 359.078125 Z M 373.042969 370.296875 "/>
<path style=" stroke:none;fill-rule:nonzero;fill:rgb(100%,100%,100%);fill-opacity:1;" d="M 373.042969 429.761719 L 373.042969 440.980469 L 414.546875 440.980469 C 414.546875 437.203125 414.082031 433.429688 413.175781 429.761719 Z M 373.042969 429.761719 "/>
<path style=" stroke:none;fill-rule:nonzero;fill:rgb(100%,100%,100%);fill-opacity:1;" d="M 494.203125 311.898438 L 424.644531 311.898438 L 424.644531 323.117188 L 498.097656 323.117188 Z M 494.203125 311.898438 "/>
<path style=" stroke:none;fill-rule:nonzero;fill:rgb(100%,100%,100%);fill-opacity:1;" d="M 424.644531 476.875 L 486.371094 476.875 L 486.371094 488.101562 L 424.644531 488.101562 Z M 424.644531 476.875 "/>
<path style=" stroke:none;fill-rule:nonzero;fill:rgb(100%,100%,100%);fill-opacity:1;" d="M 424.644531 453.308594 L 486.371094 453.308594 L 486.371094 464.53125 L 424.644531 464.53125 Z M 424.644531 453.308594 "/>
<path style=" stroke:none;fill-rule:nonzero;fill:rgb(100%,100%,100%);fill-opacity:1;" d="M 449.335938 429.738281 L 486.371094 429.738281 L 486.371094 440.960938 L 449.335938 440.960938 Z M 449.335938 429.738281 "/>
<path style=" stroke:none;fill-rule:nonzero;fill:rgb(100%,100%,100%);fill-opacity:1;" d="M 449.335938 406.171875 L 486.371094 406.171875 L 486.371094 417.394531 L 449.335938 417.394531 Z M 449.335938 406.171875 "/>
<path style=" stroke:none;fill-rule:nonzero;fill:rgb(100%,100%,100%);fill-opacity:1;" d="M 560.445312 476.875 L 622.171875 476.875 L 622.171875 488.101562 L 560.445312 488.101562 Z M 560.445312 476.875 "/>
<path style=" stroke:none;fill-rule:nonzero;fill:rgb(100%,100%,100%);fill-opacity:1;" d="M 560.445312 453.308594 L 622.171875 453.308594 L 622.171875 464.53125 L 560.445312 464.53125 Z M 560.445312 453.308594 "/>
<path style=" stroke:none;fill-rule:nonzero;fill:rgb(100%,100%,100%);fill-opacity:1;" d="M 560.445312 429.738281 L 597.480469 429.738281 L 597.480469 440.960938 L 560.445312 440.960938 Z M 560.445312 429.738281 "/>
<path style=" stroke:none;fill-rule:nonzero;fill:rgb(100%,100%,100%);fill-opacity:1;" d="M 560.445312 406.171875 L 597.480469 406.171875 L 597.480469 417.394531 L 560.445312 417.394531 Z M 560.445312 406.171875 "/>
<path style=" stroke:none;fill-rule:nonzero;fill:rgb(100%,100%,100%);fill-opacity:1;" d="M 560.445312 393.828125 L 597.480469 393.828125 L 597.480469 382.609375 L 528.058594 382.609375 L 524.167969 393.828125 L 556.671875 393.828125 L 560.445312 383.140625 Z M 560.445312 393.828125 "/>
<path style=" stroke:none;fill-rule:nonzero;fill:rgb(100%,100%,100%);fill-opacity:1;" d="M 518.757812 382.609375 L 449.335938 382.609375 L 449.335938 393.828125 L 486.375 393.828125 L 486.375 383.140625 L 490.144531 393.828125 L 522.648438 393.828125 Z M 518.757812 382.609375 "/>
<path style=" stroke:none;fill-rule:nonzero;fill:rgb(100%,100%,100%);fill-opacity:1;" d="M 597.480469 359.039062 L 536.234375 359.039062 L 532.339844 370.261719 L 597.480469 370.261719 Z M 597.480469 359.039062 "/>
<path style=" stroke:none;fill-rule:nonzero;fill:rgb(100%,100%,100%);fill-opacity:1;" d="M 552.585938 311.898438 L 548.695312 323.125 L 622.171875 323.125 L 622.171875 311.898438 Z M 552.585938 311.898438 "/>
<path style=" stroke:none;fill-rule:nonzero;fill:rgb(100%,100%,100%);fill-opacity:1;" d="M 523.386719 488.101562 L 527.351562 476.875 L 519.464844 476.875 Z M 523.386719 488.101562 "/>
<path style=" stroke:none;fill-rule:nonzero;fill:rgb(100%,100%,100%);fill-opacity:1;" d="M 515.109375 464.53125 L 531.703125 464.53125 L 535.671875 453.308594 L 511.144531 453.308594 Z M 515.109375 464.53125 "/>
<path style=" stroke:none;fill-rule:nonzero;fill:rgb(100%,100%,100%);fill-opacity:1;" d="M 506.789062 440.960938 L 540.027344 440.960938 L 543.988281 429.738281 L 502.828125 429.738281 Z M 506.789062 440.960938 "/>
<path style=" stroke:none;fill-rule:nonzero;fill:rgb(100%,100%,100%);fill-opacity:1;" d="M 498.46875 417.394531 L 548.351562 417.394531 L 552.3125 406.171875 L 494.507812 406.171875 Z M 498.46875 417.394531 "/>
<path style=" stroke:none;fill-rule:nonzero;fill:rgb(100%,100%,100%);fill-opacity:1;" d="M 449.335938 370.261719 L 514.476562 370.261719 L 510.578125 359.039062 L 449.335938 359.039062 Z M 449.335938 370.261719 "/>
<path style=" stroke:none;fill-rule:nonzero;fill:rgb(100%,100%,100%);fill-opacity:1;" d="M 540.515625 346.691406 L 622.171875 346.691406 L 622.171875 335.46875 L 544.414062 335.46875 Z M 540.515625 346.691406 "/>
<path style=" stroke:none;fill-rule:nonzero;fill:rgb(100%,100%,100%);fill-opacity:1;" d="M 502.40625 335.46875 L 424.644531 335.46875 L 424.644531 346.691406 L 506.296875 346.691406 Z M 502.40625 335.46875 "/>
</g>
</svg>
