<svg xmlns="http://www.w3.org/2000/svg" xmlns:xlink="http://www.w3.org/1999/xlink" width="1080" zoomAndPan="magnify" viewBox="0 0 810 809.999993" height="1080" preserveAspectRatio="xMidYMid meet" version="1.0"><defs><clipPath id="f5e4537531"><path d="M 67.648438 67.648438 L 742.648438 67.648438 L 742.648438 742.648438 L 67.648438 742.648438 Z M 67.648438 67.648438 " clip-rule="nonzero"/></clipPath></defs><g clip-path="url(#f5e4537531)"><path fill="#000000" d="M 67.648438 67.648438 L 742.648438 67.648438 L 742.648438 742.648438 L 67.648438 742.648438 Z M 67.648438 67.648438 " fill-opacity="1" fill-rule="nonzero"/></g><path fill="#ffffff" d="M 217.691406 470.019531 L 290.582031 470.019531 L 290.582031 479.484375 L 217.691406 479.484375 Z M 217.691406 470.019531 " fill-opacity="1" fill-rule="nonzero"/><path fill="#ffffff" d="M 217.691406 450.140625 L 290.582031 450.140625 L 290.582031 459.609375 L 217.691406 459.609375 Z M 217.691406 450.140625 " fill-opacity="1" fill-rule="nonzero"/><path fill="#ffffff" d="M 238.523438 430.261719 L 269.757812 430.261719 L 269.757812 439.726562 L 238.523438 439.726562 Z M 238.523438 430.261719 " fill-opacity="1" fill-rule="nonzero"/><path fill="#ffffff" d="M 238.523438 410.382812 L 269.757812 410.382812 L 269.757812 419.847656 L 238.523438 419.847656 Z M 238.523438 410.382812 " fill-opacity="1" fill-rule="nonzero"/><path fill="#ffffff" d="M 238.523438 390.503906 L 269.757812 390.503906 L 269.757812 399.96875 L 238.523438 399.96875 Z M 238.523438 390.503906 " fill-opacity="1" fill-rule="nonzero"/><path fill="#ffffff" d="M 238.523438 370.621094 L 269.757812 370.621094 L 269.757812 380.085938 L 238.523438 380.085938 Z M 238.523438 370.621094 " fill-opacity="1" fill-rule="nonzero"/><path fill="#ffffff" d="M 217.691406 350.746094 L 290.582031 350.746094 L 290.582031 360.210938 L 217.691406 360.210938 Z M 217.691406 350.746094 " fill-opacity="1" fill-rule="nonzero"/><path fill="#ffffff" d="M 217.691406 330.867188 L 290.582031 330.867188 L 290.582031 340.332031 L 217.691406 340.332031 Z M 217.691406 330.867188 " fill-opacity="1" fill-rule="nonzero"/><path fill="#ffffff" d="M 300.992188 470.019531 L 300.992188 479.484375 L 377.667969 479.484375 C 387.101562 479.492188 396.226562 476.140625 403.40625 470.019531 Z M 300.992188 470.019531 " fill-opacity="1" fill-rule="nonzero"/><path fill="#ffffff" d="M 300.992188 450.140625 L 300.992188 459.609375 L 412.097656 459.609375 C 413.816406 456.632812 415.144531 453.449219 416.039062 450.140625 Z M 300.992188 450.140625 " fill-opacity="1" fill-rule="nonzero"/><path fill="#ffffff" d="M 321.820312 430.261719 L 353.0625 430.261719 L 353.0625 439.726562 L 321.820312 439.726562 Z M 321.820312 430.261719 " fill-opacity="1" fill-rule="nonzero"/><path fill="#ffffff" d="M 404.109375 410.382812 L 321.820312 410.382812 L 321.820312 419.847656 L 411.75 419.847656 C 409.699219 416.320312 407.121094 413.125 404.109375 410.382812 Z M 404.109375 410.382812 " fill-opacity="1" fill-rule="nonzero"/><path fill="#ffffff" d="M 321.820312 390.503906 L 321.820312 399.96875 L 404.449219 399.96875 C 407.464844 397.226562 410.039062 394.03125 412.089844 390.503906 Z M 321.820312 390.503906 " fill-opacity="1" fill-rule="nonzero"/><path fill="#ffffff" d="M 416.039062 360.210938 C 415.144531 356.898438 413.816406 353.71875 412.097656 350.746094 L 300.992188 350.746094 L 300.992188 360.210938 Z M 416.039062 360.210938 " fill-opacity="1" fill-rule="nonzero"/><path fill="#ffffff" d="M 403.40625 340.332031 C 396.226562 334.210938 387.101562 330.855469 377.667969 330.867188 L 300.992188 330.867188 L 300.992188 340.332031 Z M 403.40625 340.332031 " fill-opacity="1" fill-rule="nonzero"/><path fill="#ffffff" d="M 321.820312 370.621094 L 353.0625 370.621094 L 353.0625 380.085938 L 321.820312 380.085938 Z M 321.820312 370.621094 " fill-opacity="1" fill-rule="nonzero"/><path fill="#ffffff" d="M 382.40625 380.085938 L 416.265625 380.085938 C 417.03125 376.992188 417.421875 373.8125 417.421875 370.621094 L 382.40625 370.621094 Z M 382.40625 380.085938 " fill-opacity="1" fill-rule="nonzero"/><path fill="#ffffff" d="M 382.40625 430.261719 L 382.40625 439.726562 L 417.421875 439.726562 C 417.421875 436.539062 417.03125 433.355469 416.265625 430.261719 Z M 382.40625 430.261719 " fill-opacity="1" fill-rule="nonzero"/><path fill="#ffffff" d="M 484.632812 330.8125 L 425.945312 330.8125 L 425.945312 340.28125 L 487.917969 340.28125 Z M 484.632812 330.8125 " fill-opacity="1" fill-rule="nonzero"/><path fill="#ffffff" d="M 425.945312 470.011719 L 478.023438 470.011719 L 478.023438 479.484375 L 425.945312 479.484375 Z M 425.945312 470.011719 " fill-opacity="1" fill-rule="nonzero"/><path fill="#ffffff" d="M 425.945312 450.128906 L 478.023438 450.128906 L 478.023438 459.597656 L 425.945312 459.597656 Z M 425.945312 450.128906 " fill-opacity="1" fill-rule="nonzero"/><path fill="#ffffff" d="M 446.777344 430.242188 L 478.023438 430.242188 L 478.023438 439.710938 L 446.777344 439.710938 Z M 446.777344 430.242188 " fill-opacity="1" fill-rule="nonzero"/><path fill="#ffffff" d="M 446.777344 410.355469 L 478.023438 410.355469 L 478.023438 419.828125 L 446.777344 419.828125 Z M 446.777344 410.355469 " fill-opacity="1" fill-rule="nonzero"/><path fill="#ffffff" d="M 540.527344 470.011719 L 592.605469 470.011719 L 592.605469 479.484375 L 540.527344 479.484375 Z M 540.527344 470.011719 " fill-opacity="1" fill-rule="nonzero"/><path fill="#ffffff" d="M 540.527344 450.128906 L 592.605469 450.128906 L 592.605469 459.597656 L 540.527344 459.597656 Z M 540.527344 450.128906 " fill-opacity="1" fill-rule="nonzero"/><path fill="#ffffff" d="M 540.527344 430.242188 L 571.773438 430.242188 L 571.773438 439.710938 L 540.527344 439.710938 Z M 540.527344 430.242188 " fill-opacity="1" fill-rule="nonzero"/><path fill="#ffffff" d="M 540.527344 410.355469 L 571.773438 410.355469 L 571.773438 419.828125 L 540.527344 419.828125 Z M 540.527344 410.355469 " fill-opacity="1" fill-rule="nonzero"/><path fill="#ffffff" d="M 540.527344 399.941406 L 571.773438 399.941406 L 571.773438 390.476562 L 513.199219 390.476562 L 509.917969 399.941406 L 537.339844 399.941406 L 540.527344 390.925781 Z M 540.527344 399.941406 " fill-opacity="1" fill-rule="nonzero"/><path fill="#ffffff" d="M 505.351562 390.476562 L 446.777344 390.476562 L 446.777344 399.941406 L 478.027344 399.941406 L 478.027344 390.925781 L 481.210938 399.941406 L 508.632812 399.941406 Z M 505.351562 390.476562 " fill-opacity="1" fill-rule="nonzero"/><path fill="#ffffff" d="M 571.773438 370.589844 L 520.097656 370.589844 L 516.8125 380.058594 L 571.773438 380.058594 Z M 571.773438 370.589844 " fill-opacity="1" fill-rule="nonzero"/><path fill="#ffffff" d="M 533.894531 330.8125 L 530.613281 340.285156 L 592.605469 340.285156 L 592.605469 330.8125 Z M 533.894531 330.8125 " fill-opacity="1" fill-rule="nonzero"/><path fill="#ffffff" d="M 509.257812 479.484375 L 512.601562 470.011719 L 505.949219 470.011719 Z M 509.257812 479.484375 " fill-opacity="1" fill-rule="nonzero"/><path fill="#ffffff" d="M 502.273438 459.597656 L 516.273438 459.597656 L 519.621094 450.128906 L 498.929688 450.128906 Z M 502.273438 459.597656 " fill-opacity="1" fill-rule="nonzero"/><path fill="#ffffff" d="M 495.253906 439.710938 L 523.296875 439.710938 L 526.640625 430.242188 L 491.910156 430.242188 Z M 495.253906 439.710938 " fill-opacity="1" fill-rule="nonzero"/><path fill="#ffffff" d="M 488.234375 419.828125 L 530.320312 419.828125 L 533.664062 410.355469 L 484.890625 410.355469 Z M 488.234375 419.828125 " fill-opacity="1" fill-rule="nonzero"/><path fill="#ffffff" d="M 446.777344 380.058594 L 501.738281 380.058594 L 498.449219 370.589844 L 446.777344 370.589844 Z M 446.777344 380.058594 " fill-opacity="1" fill-rule="nonzero"/><path fill="#ffffff" d="M 523.710938 360.171875 L 592.605469 360.171875 L 592.605469 350.703125 L 527 350.703125 Z M 523.710938 360.171875 " fill-opacity="1" fill-rule="nonzero"/><path fill="#ffffff" d="M 491.554688 350.703125 L 425.945312 350.703125 L 425.945312 360.171875 L 494.835938 360.171875 Z M 491.554688 350.703125 " fill-opacity="1" fill-rule="nonzero"/></svg>