<?xml version="1.0" encoding="UTF-8"?>
<svg xmlns="http://www.w3.org/2000/svg" xmlns:xlink="http://www.w3.org/1999/xlink" width="1000px" height="1000px" viewBox="0 0 1000 1000" version="1.1">
<g id="surface1">
<rect x="0" y="0" width="1000" height="1000" style="fill:rgb(0%,0%,0%);fill-opacity:1;stroke:none;"/>
<path style=" stroke:none;fill-rule:nonzero;fill:rgb(100%,100%,100%);fill-opacity:1;" d="M 222.289062 596.101562 L 330.269531 596.101562 L 330.269531 610.125 L 222.289062 610.125 Z M 222.289062 596.101562 "/>
<path style=" stroke:none;fill-rule:nonzero;fill:rgb(100%,100%,100%);fill-opacity:1;" d="M 222.289062 566.652344 L 330.269531 566.652344 L 330.269531 580.675781 L 222.289062 580.675781 Z M 222.289062 566.652344 "/>
<path style=" stroke:none;fill-rule:nonzero;fill:rgb(100%,100%,100%);fill-opacity:1;" d="M 253.140625 537.199219 L 299.417969 537.199219 L 299.417969 551.222656 L 253.140625 551.222656 Z M 253.140625 537.199219 "/>
<path style=" stroke:none;fill-rule:nonzero;fill:rgb(100%,100%,100%);fill-opacity:1;" d="M 253.140625 507.75 L 299.417969 507.75 L 299.417969 521.773438 L 253.140625 521.773438 Z M 253.140625 507.75 "/>
<path style=" stroke:none;fill-rule:nonzero;fill:rgb(100%,100%,100%);fill-opacity:1;" d="M 253.140625 478.300781 L 299.417969 478.300781 L 299.417969 492.324219 L 253.140625 492.324219 Z M 253.140625 478.300781 "/>
<path style=" stroke:none;fill-rule:nonzero;fill:rgb(100%,100%,100%);fill-opacity:1;" d="M 253.140625 448.851562 L 299.417969 448.851562 L 299.417969 462.875 L 253.140625 462.875 Z M 253.140625 448.851562 "/>
<path style=" stroke:none;fill-rule:nonzero;fill:rgb(100%,100%,100%);fill-opacity:1;" d="M 222.289062 419.402344 L 330.269531 419.402344 L 330.269531 433.425781 L 222.289062 433.425781 Z M 222.289062 419.402344 "/>
<path style=" stroke:none;fill-rule:nonzero;fill:rgb(100%,100%,100%);fill-opacity:1;" d="M 222.289062 389.953125 L 330.269531 389.953125 L 330.269531 403.976562 L 222.289062 403.976562 Z M 222.289062 389.953125 "/>
<path style=" stroke:none;fill-rule:nonzero;fill:rgb(100%,100%,100%);fill-opacity:1;" d="M 345.695312 596.101562 L 345.695312 610.125 L 459.289062 610.125 C 473.261719 610.140625 486.785156 605.167969 497.417969 596.101562 Z M 345.695312 596.101562 "/>
<path style=" stroke:none;fill-rule:nonzero;fill:rgb(100%,100%,100%);fill-opacity:1;" d="M 345.695312 566.652344 L 345.695312 580.675781 L 510.289062 580.675781 C 512.839844 576.273438 514.804688 571.558594 516.132812 566.652344 Z M 345.695312 566.652344 "/>
<path style=" stroke:none;fill-rule:nonzero;fill:rgb(100%,100%,100%);fill-opacity:1;" d="M 376.550781 537.199219 L 422.828125 537.199219 L 422.828125 551.222656 L 376.550781 551.222656 Z M 376.550781 537.199219 "/>
<path style=" stroke:none;fill-rule:nonzero;fill:rgb(100%,100%,100%);fill-opacity:1;" d="M 498.457031 507.75 L 376.550781 507.75 L 376.550781 521.773438 L 509.773438 521.773438 C 506.742188 516.550781 502.921875 511.820312 498.457031 507.75 Z M 498.457031 507.75 "/>
<path style=" stroke:none;fill-rule:nonzero;fill:rgb(100%,100%,100%);fill-opacity:1;" d="M 376.550781 478.300781 L 376.550781 492.324219 L 498.960938 492.324219 C 503.429688 488.257812 507.246094 483.527344 510.28125 478.300781 Z M 376.550781 478.300781 "/>
<path style=" stroke:none;fill-rule:nonzero;fill:rgb(100%,100%,100%);fill-opacity:1;" d="M 516.132812 433.425781 C 514.804688 428.515625 512.839844 423.804688 510.289062 419.402344 L 345.695312 419.402344 L 345.695312 433.425781 Z M 516.132812 433.425781 "/>
<path style=" stroke:none;fill-rule:nonzero;fill:rgb(100%,100%,100%);fill-opacity:1;" d="M 497.417969 403.976562 C 486.785156 394.910156 473.261719 389.933594 459.289062 389.953125 L 345.695312 389.953125 L 345.695312 403.976562 Z M 497.417969 403.976562 "/>
<path style=" stroke:none;fill-rule:nonzero;fill:rgb(100%,100%,100%);fill-opacity:1;" d="M 376.550781 448.851562 L 422.828125 448.851562 L 422.828125 462.875 L 376.550781 462.875 Z M 376.550781 448.851562 "/>
<path style=" stroke:none;fill-rule:nonzero;fill:rgb(100%,100%,100%);fill-opacity:1;" d="M 466.300781 462.875 L 516.472656 462.875 C 517.605469 458.285156 518.179688 453.578125 518.1875 448.851562 L 466.300781 448.851562 Z M 466.300781 462.875 "/>
<path style=" stroke:none;fill-rule:nonzero;fill:rgb(100%,100%,100%);fill-opacity:1;" d="M 466.300781 537.199219 L 466.300781 551.222656 L 518.1875 551.222656 C 518.179688 546.5 517.605469 541.789062 516.472656 537.199219 Z M 466.300781 537.199219 "/>
<path style=" stroke:none;fill-rule:nonzero;fill:rgb(100%,100%,100%);fill-opacity:1;" d="M 617.757812 389.875 L 530.808594 389.875 L 530.808594 403.898438 L 622.621094 403.898438 Z M 617.757812 389.875 "/>
<path style=" stroke:none;fill-rule:nonzero;fill:rgb(100%,100%,100%);fill-opacity:1;" d="M 530.808594 596.09375 L 607.964844 596.09375 L 607.964844 610.125 L 530.808594 610.125 Z M 530.808594 596.09375 "/>
<path style=" stroke:none;fill-rule:nonzero;fill:rgb(100%,100%,100%);fill-opacity:1;" d="M 530.808594 566.636719 L 607.964844 566.636719 L 607.964844 580.664062 L 530.808594 580.664062 Z M 530.808594 566.636719 "/>
<path style=" stroke:none;fill-rule:nonzero;fill:rgb(100%,100%,100%);fill-opacity:1;" d="M 561.671875 537.175781 L 607.964844 537.175781 L 607.964844 551.203125 L 561.671875 551.203125 Z M 561.671875 537.175781 "/>
<path style=" stroke:none;fill-rule:nonzero;fill:rgb(100%,100%,100%);fill-opacity:1;" d="M 561.671875 507.714844 L 607.964844 507.714844 L 607.964844 521.746094 L 561.671875 521.746094 Z M 561.671875 507.714844 "/>
<path style=" stroke:none;fill-rule:nonzero;fill:rgb(100%,100%,100%);fill-opacity:1;" d="M 700.554688 596.09375 L 777.710938 596.09375 L 777.710938 610.125 L 700.554688 610.125 Z M 700.554688 596.09375 "/>
<path style=" stroke:none;fill-rule:nonzero;fill:rgb(100%,100%,100%);fill-opacity:1;" d="M 700.554688 566.636719 L 777.710938 566.636719 L 777.710938 580.664062 L 700.554688 580.664062 Z M 700.554688 566.636719 "/>
<path style=" stroke:none;fill-rule:nonzero;fill:rgb(100%,100%,100%);fill-opacity:1;" d="M 700.554688 537.175781 L 746.847656 537.175781 L 746.847656 551.203125 L 700.554688 551.203125 Z M 700.554688 537.175781 "/>
<path style=" stroke:none;fill-rule:nonzero;fill:rgb(100%,100%,100%);fill-opacity:1;" d="M 700.554688 507.714844 L 746.847656 507.714844 L 746.847656 521.746094 L 700.554688 521.746094 Z M 700.554688 507.714844 "/>
<path style=" stroke:none;fill-rule:nonzero;fill:rgb(100%,100%,100%);fill-opacity:1;" d="M 700.554688 492.285156 L 746.847656 492.285156 L 746.847656 478.257812 L 660.074219 478.257812 L 655.207031 492.285156 L 695.835938 492.285156 L 700.554688 478.921875 Z M 700.554688 492.285156 "/>
<path style=" stroke:none;fill-rule:nonzero;fill:rgb(100%,100%,100%);fill-opacity:1;" d="M 648.445312 478.257812 L 561.671875 478.257812 L 561.671875 492.285156 L 607.96875 492.285156 L 607.96875 478.921875 L 612.683594 492.285156 L 653.3125 492.285156 Z M 648.445312 478.257812 "/>
<path style=" stroke:none;fill-rule:nonzero;fill:rgb(100%,100%,100%);fill-opacity:1;" d="M 746.847656 448.796875 L 670.292969 448.796875 L 665.425781 462.824219 L 746.847656 462.824219 Z M 746.847656 448.796875 "/>
<path style=" stroke:none;fill-rule:nonzero;fill:rgb(100%,100%,100%);fill-opacity:1;" d="M 690.734375 389.875 L 685.867188 403.90625 L 777.710938 403.90625 L 777.710938 389.875 Z M 690.734375 389.875 "/>
<path style=" stroke:none;fill-rule:nonzero;fill:rgb(100%,100%,100%);fill-opacity:1;" d="M 654.230469 610.125 L 659.1875 596.09375 L 649.332031 596.09375 Z M 654.230469 610.125 "/>
<path style=" stroke:none;fill-rule:nonzero;fill:rgb(100%,100%,100%);fill-opacity:1;" d="M 643.886719 580.664062 L 664.632812 580.664062 L 669.585938 566.636719 L 638.933594 566.636719 Z M 643.886719 580.664062 "/>
<path style=" stroke:none;fill-rule:nonzero;fill:rgb(100%,100%,100%);fill-opacity:1;" d="M 633.484375 551.203125 L 675.035156 551.203125 L 679.988281 537.175781 L 628.53125 537.175781 Z M 633.484375 551.203125 "/>
<path style=" stroke:none;fill-rule:nonzero;fill:rgb(100%,100%,100%);fill-opacity:1;" d="M 623.085938 521.746094 L 685.4375 521.746094 L 690.390625 507.714844 L 618.132812 507.714844 Z M 623.085938 521.746094 "/>
<path style=" stroke:none;fill-rule:nonzero;fill:rgb(100%,100%,100%);fill-opacity:1;" d="M 561.671875 462.824219 L 643.09375 462.824219 L 638.226562 448.796875 L 561.671875 448.796875 Z M 561.671875 462.824219 "/>
<path style=" stroke:none;fill-rule:nonzero;fill:rgb(100%,100%,100%);fill-opacity:1;" d="M 675.648438 433.363281 L 777.710938 433.363281 L 777.710938 419.335938 L 680.515625 419.335938 Z M 675.648438 433.363281 "/>
<path style=" stroke:none;fill-rule:nonzero;fill:rgb(100%,100%,100%);fill-opacity:1;" d="M 628.007812 419.335938 L 530.808594 419.335938 L 530.808594 433.363281 L 632.875 433.363281 Z M 628.007812 419.335938 "/>
</g>
</svg>
