<?xml version="1.0" encoding="UTF-8"?>
<svg xmlns="http://www.w3.org/2000/svg" xmlns:xlink="http://www.w3.org/1999/xlink" width="900px" height="900px" viewBox="0 0 900 900" version="1.1">
<g id="surface1">
<rect x="0" y="0" width="900" height="900" style="fill:rgb(0%,0%,0%);fill-opacity:1;stroke:none;"/>
<path style=" stroke:none;fill-rule:nonzero;fill:rgb(100%,100%,100%);fill-opacity:1;" d="M 200.058594 536.492188 L 297.242188 536.492188 L 297.242188 549.113281 L 200.058594 549.113281 Z M 200.058594 536.492188 "/>
<path style=" stroke:none;fill-rule:nonzero;fill:rgb(100%,100%,100%);fill-opacity:1;" d="M 200.058594 509.988281 L 297.242188 509.988281 L 297.242188 522.609375 L 200.058594 522.609375 Z M 200.058594 509.988281 "/>
<path style=" stroke:none;fill-rule:nonzero;fill:rgb(100%,100%,100%);fill-opacity:1;" d="M 227.828125 483.480469 L 269.476562 483.480469 L 269.476562 496.101562 L 227.828125 496.101562 Z M 227.828125 483.480469 "/>
<path style=" stroke:none;fill-rule:nonzero;fill:rgb(100%,100%,100%);fill-opacity:1;" d="M 227.828125 456.976562 L 269.476562 456.976562 L 269.476562 469.597656 L 227.828125 469.597656 Z M 227.828125 456.976562 "/>
<path style=" stroke:none;fill-rule:nonzero;fill:rgb(100%,100%,100%);fill-opacity:1;" d="M 227.828125 430.46875 L 269.476562 430.46875 L 269.476562 443.09375 L 227.828125 443.09375 Z M 227.828125 430.46875 "/>
<path style=" stroke:none;fill-rule:nonzero;fill:rgb(100%,100%,100%);fill-opacity:1;" d="M 227.828125 403.964844 L 269.476562 403.964844 L 269.476562 416.585938 L 227.828125 416.585938 Z M 227.828125 403.964844 "/>
<path style=" stroke:none;fill-rule:nonzero;fill:rgb(100%,100%,100%);fill-opacity:1;" d="M 200.058594 377.460938 L 297.242188 377.460938 L 297.242188 390.082031 L 200.058594 390.082031 Z M 200.058594 377.460938 "/>
<path style=" stroke:none;fill-rule:nonzero;fill:rgb(100%,100%,100%);fill-opacity:1;" d="M 200.058594 350.957031 L 297.242188 350.957031 L 297.242188 363.578125 L 200.058594 363.578125 Z M 200.058594 350.957031 "/>
<path style=" stroke:none;fill-rule:nonzero;fill:rgb(100%,100%,100%);fill-opacity:1;" d="M 311.125 536.492188 L 311.125 549.113281 L 413.359375 549.113281 C 425.9375 549.125 438.105469 544.652344 447.675781 536.492188 Z M 311.125 536.492188 "/>
<path style=" stroke:none;fill-rule:nonzero;fill:rgb(100%,100%,100%);fill-opacity:1;" d="M 311.125 509.988281 L 311.125 522.609375 L 459.261719 522.609375 C 461.554688 518.644531 463.324219 514.402344 464.519531 509.988281 Z M 311.125 509.988281 "/>
<path style=" stroke:none;fill-rule:nonzero;fill:rgb(100%,100%,100%);fill-opacity:1;" d="M 338.894531 483.480469 L 380.546875 483.480469 L 380.546875 496.101562 L 338.894531 496.101562 Z M 338.894531 483.480469 "/>
<path style=" stroke:none;fill-rule:nonzero;fill:rgb(100%,100%,100%);fill-opacity:1;" d="M 448.609375 456.976562 L 338.894531 456.976562 L 338.894531 469.597656 L 458.796875 469.597656 C 456.066406 464.894531 452.628906 460.636719 448.609375 456.976562 Z M 448.609375 456.976562 "/>
<path style=" stroke:none;fill-rule:nonzero;fill:rgb(100%,100%,100%);fill-opacity:1;" d="M 338.894531 430.46875 L 338.894531 443.09375 L 449.066406 443.09375 C 453.085938 439.433594 456.523438 435.175781 459.253906 430.46875 Z M 338.894531 430.46875 "/>
<path style=" stroke:none;fill-rule:nonzero;fill:rgb(100%,100%,100%);fill-opacity:1;" d="M 464.519531 390.082031 C 463.324219 385.664062 461.554688 381.425781 459.261719 377.460938 L 311.125 377.460938 L 311.125 390.082031 Z M 464.519531 390.082031 "/>
<path style=" stroke:none;fill-rule:nonzero;fill:rgb(100%,100%,100%);fill-opacity:1;" d="M 447.675781 363.578125 C 438.105469 355.417969 425.9375 350.941406 413.359375 350.957031 L 311.125 350.957031 L 311.125 363.578125 Z M 447.675781 363.578125 "/>
<path style=" stroke:none;fill-rule:nonzero;fill:rgb(100%,100%,100%);fill-opacity:1;" d="M 338.894531 403.964844 L 380.546875 403.964844 L 380.546875 416.585938 L 338.894531 416.585938 Z M 338.894531 403.964844 "/>
<path style=" stroke:none;fill-rule:nonzero;fill:rgb(100%,100%,100%);fill-opacity:1;" d="M 419.671875 416.585938 L 464.824219 416.585938 C 465.84375 412.457031 466.363281 408.21875 466.367188 403.964844 L 419.671875 403.964844 Z M 419.671875 416.585938 "/>
<path style=" stroke:none;fill-rule:nonzero;fill:rgb(100%,100%,100%);fill-opacity:1;" d="M 419.671875 483.480469 L 419.671875 496.101562 L 466.367188 496.101562 C 466.363281 491.851562 465.84375 487.609375 464.824219 483.480469 Z M 419.671875 483.480469 "/>
<path style=" stroke:none;fill-rule:nonzero;fill:rgb(100%,100%,100%);fill-opacity:1;" d="M 555.980469 350.886719 L 477.726562 350.886719 L 477.726562 363.507812 L 560.359375 363.507812 Z M 555.980469 350.886719 "/>
<path style=" stroke:none;fill-rule:nonzero;fill:rgb(100%,100%,100%);fill-opacity:1;" d="M 477.726562 536.484375 L 547.167969 536.484375 L 547.167969 549.113281 L 477.726562 549.113281 Z M 477.726562 536.484375 "/>
<path style=" stroke:none;fill-rule:nonzero;fill:rgb(100%,100%,100%);fill-opacity:1;" d="M 477.726562 509.972656 L 547.167969 509.972656 L 547.167969 522.597656 L 477.726562 522.597656 Z M 477.726562 509.972656 "/>
<path style=" stroke:none;fill-rule:nonzero;fill:rgb(100%,100%,100%);fill-opacity:1;" d="M 505.503906 483.457031 L 547.167969 483.457031 L 547.167969 496.082031 L 505.503906 496.082031 Z M 505.503906 483.457031 "/>
<path style=" stroke:none;fill-rule:nonzero;fill:rgb(100%,100%,100%);fill-opacity:1;" d="M 505.503906 456.945312 L 547.167969 456.945312 L 547.167969 469.570312 L 505.503906 469.570312 Z M 505.503906 456.945312 "/>
<path style=" stroke:none;fill-rule:nonzero;fill:rgb(100%,100%,100%);fill-opacity:1;" d="M 630.5 536.484375 L 699.941406 536.484375 L 699.941406 549.113281 L 630.5 549.113281 Z M 630.5 536.484375 "/>
<path style=" stroke:none;fill-rule:nonzero;fill:rgb(100%,100%,100%);fill-opacity:1;" d="M 630.5 509.972656 L 699.941406 509.972656 L 699.941406 522.597656 L 630.5 522.597656 Z M 630.5 509.972656 "/>
<path style=" stroke:none;fill-rule:nonzero;fill:rgb(100%,100%,100%);fill-opacity:1;" d="M 630.5 483.457031 L 672.164062 483.457031 L 672.164062 496.082031 L 630.5 496.082031 Z M 630.5 483.457031 "/>
<path style=" stroke:none;fill-rule:nonzero;fill:rgb(100%,100%,100%);fill-opacity:1;" d="M 630.5 456.945312 L 672.164062 456.945312 L 672.164062 469.570312 L 630.5 469.570312 Z M 630.5 456.945312 "/>
<path style=" stroke:none;fill-rule:nonzero;fill:rgb(100%,100%,100%);fill-opacity:1;" d="M 630.5 443.054688 L 672.164062 443.054688 L 672.164062 430.433594 L 594.066406 430.433594 L 589.6875 443.054688 L 626.253906 443.054688 L 630.5 431.03125 Z M 630.5 443.054688 "/>
<path style=" stroke:none;fill-rule:nonzero;fill:rgb(100%,100%,100%);fill-opacity:1;" d="M 583.601562 430.433594 L 505.503906 430.433594 L 505.503906 443.054688 L 547.171875 443.054688 L 547.171875 431.03125 L 551.414062 443.054688 L 587.980469 443.054688 Z M 583.601562 430.433594 "/>
<path style=" stroke:none;fill-rule:nonzero;fill:rgb(100%,100%,100%);fill-opacity:1;" d="M 672.164062 403.917969 L 603.265625 403.917969 L 598.882812 416.542969 L 672.164062 416.542969 Z M 672.164062 403.917969 "/>
<path style=" stroke:none;fill-rule:nonzero;fill:rgb(100%,100%,100%);fill-opacity:1;" d="M 621.660156 350.886719 L 617.28125 363.515625 L 699.941406 363.515625 L 699.941406 350.886719 Z M 621.660156 350.886719 "/>
<path style=" stroke:none;fill-rule:nonzero;fill:rgb(100%,100%,100%);fill-opacity:1;" d="M 588.808594 549.113281 L 593.269531 536.484375 L 584.398438 536.484375 Z M 588.808594 549.113281 "/>
<path style=" stroke:none;fill-rule:nonzero;fill:rgb(100%,100%,100%);fill-opacity:1;" d="M 579.5 522.597656 L 598.167969 522.597656 L 602.628906 509.972656 L 575.039062 509.972656 Z M 579.5 522.597656 "/>
<path style=" stroke:none;fill-rule:nonzero;fill:rgb(100%,100%,100%);fill-opacity:1;" d="M 570.136719 496.082031 L 607.53125 496.082031 L 611.988281 483.457031 L 565.679688 483.457031 Z M 570.136719 496.082031 "/>
<path style=" stroke:none;fill-rule:nonzero;fill:rgb(100%,100%,100%);fill-opacity:1;" d="M 560.777344 469.570312 L 616.894531 469.570312 L 621.351562 456.945312 L 556.320312 456.945312 Z M 560.777344 469.570312 "/>
<path style=" stroke:none;fill-rule:nonzero;fill:rgb(100%,100%,100%);fill-opacity:1;" d="M 505.503906 416.542969 L 578.785156 416.542969 L 574.402344 403.917969 L 505.503906 403.917969 Z M 505.503906 416.542969 "/>
<path style=" stroke:none;fill-rule:nonzero;fill:rgb(100%,100%,100%);fill-opacity:1;" d="M 608.082031 390.027344 L 699.941406 390.027344 L 699.941406 377.402344 L 612.464844 377.402344 Z M 608.082031 390.027344 "/>
<path style=" stroke:none;fill-rule:nonzero;fill:rgb(100%,100%,100%);fill-opacity:1;" d="M 565.207031 377.402344 L 477.726562 377.402344 L 477.726562 390.027344 L 569.585938 390.027344 Z M 565.207031 377.402344 "/>
</g>
</svg>
