<svg xmlns="http://www.w3.org/2000/svg" xmlns:xlink="http://www.w3.org/1999/xlink" version="1.1" width="1000" height="1000" viewBox="0 0 1000 1000" xml:space="preserve">
<desc>Created with Fabric.js 3.5.0</desc>
<defs>
</defs>
<rect x="0" y="0" width="100%" height="100%" fill="rgba(255,255,255,0)"/>
<g transform="matrix(0.534 0 0 0.534 500.003 500.0017)" id="989135">
<g style="" vector-effect="non-scaling-stroke">
		<g transform="matrix(1 0 0 1 1.1762 -2.0611)">
<path style="stroke: none; stroke-width: 1; stroke-dasharray: none; stroke-linecap: butt; stroke-dashoffset: 0; stroke-linejoin: miter; stroke-miterlimit: 4; is-custom-font: none; font-file-url: none; fill: rgb(0,114,201); fill-rule: evenodd; opacity: 0.999;" transform=" translate(-1405.6762, -788.4388)" d="M 636.5 19.5 C 1149 18.5001 1661.67 18.1668 2174.5 18.5 C 2174.97 531.907 2174.97 1045.24 2174.5 1558.5 C 1662.86 1557.29 1151.19 1557.29 639.5 1558.5 C 637.962 1558.55 636.962 1557.88 636.5 1556.5 C 637.552 1556.65 638.552 1556.48 639.5 1556 C 637.501 1044.37 636.834 532.54 637.5 20.5 C 1149.5 20.6667 1661.5 20.5 2173.5 20 C 1661.17 19.5 1148.83 19.3333 636.5 19.5 Z" stroke-linecap="round"/>
</g>
		<g transform="matrix(1 0 0 1 0.5 -2.5048)">
<path style="stroke: none; stroke-width: 1; stroke-dasharray: none; stroke-linecap: butt; stroke-dashoffset: 0; stroke-linejoin: miter; stroke-miterlimit: 4; is-custom-font: none; font-file-url: none; fill: rgb(0,119,209); fill-rule: evenodd; opacity: 1;" transform=" translate(-1405, -787.9952)" d="M 636.5 19.5 C 1148.83 19.3333 1661.17 19.5 2173.5 20 C 1661.5 20.5 1149.5 20.6667 637.5 20.5 C 636.834 532.54 637.501 1044.37 639.5 1556 C 638.552 1556.48 637.552 1556.65 636.5 1556.5 C 636.5 1044.17 636.5 531.833 636.5 19.5 Z" stroke-linecap="round"/>
</g>
		<g transform="matrix(1 0 0 1 527.5 -2.5)">
<path style="stroke: none; stroke-width: 1; stroke-dasharray: none; stroke-linecap: butt; stroke-dashoffset: 0; stroke-linejoin: miter; stroke-miterlimit: 4; is-custom-font: none; font-file-url: none; fill: rgb(254,254,254); fill-rule: evenodd; opacity: 1;" transform=" translate(-1932, -788)" d="M 1973.5 553.5 C 1973.5 709.833 1973.5 866.167 1973.5 1022.5 C 1945.83 1022.5 1918.17 1022.5 1890.5 1022.5 C 1890.5 866.167 1890.5 709.833 1890.5 553.5 C 1918.17 553.5 1945.83 553.5 1973.5 553.5 Z" stroke-linecap="round"/>
</g>
		<g transform="matrix(1 0 0 1 -508.0289 -186.2675)">
<path style="stroke: none; stroke-width: 1; stroke-dasharray: none; stroke-linecap: butt; stroke-dashoffset: 0; stroke-linejoin: miter; stroke-miterlimit: 4; is-custom-font: none; font-file-url: none; fill: rgb(6,197,252); fill-rule: evenodd; opacity: 1;" transform=" translate(-896.4711, -604.2325)" d="M 853.5 559.5 C 882.138 560.11 910.972 560.11 940 559.5 C 940.5 589.165 940.667 618.831 940.5 648.5 C 911.693 649.12 882.36 649.12 852.5 648.5 C 852.175 618.76 852.508 589.093 853.5 559.5 Z" stroke-linecap="round"/>
</g>
		<g transform="matrix(1 0 0 1 -13 -211.0618)">
<path style="stroke: none; stroke-width: 1; stroke-dasharray: none; stroke-linecap: butt; stroke-dashoffset: 0; stroke-linejoin: miter; stroke-miterlimit: 4; is-custom-font: none; font-file-url: none; fill: rgb(109,176,225); fill-rule: evenodd; opacity: 1;" transform=" translate(-1391.5, -579.4381)" d="M 1349.5 578.5 C 1377.33 577.502 1405.33 577.169 1433.5 577.5 C 1433.5 578.833 1433.5 580.167 1433.5 581.5 C 1432.6 580.791 1432.26 579.791 1432.5 578.5 C 1404.83 578.5 1377.17 578.5 1349.5 578.5 Z" stroke-linecap="round"/>
</g>
		<g transform="matrix(1 0 0 1 16.9681 12.0251)">
<path style="stroke: none; stroke-width: 1; stroke-dasharray: none; stroke-linecap: butt; stroke-dashoffset: 0; stroke-linejoin: miter; stroke-miterlimit: 4; is-custom-font: none; font-file-url: none; fill: rgb(254,254,254); fill-rule: evenodd; opacity: 1;" transform=" translate(-1421.468, -802.5251)" d="M 1349.5 578.5 C 1377.17 578.5 1404.83 578.5 1432.5 578.5 C 1432.26 579.791 1432.6 580.791 1433.5 581.5 C 1433.5 621.833 1433.5 662.167 1433.5 702.5 C 1453.33 703.497 1473.33 703.83 1493.5 703.5 C 1493.5 727.167 1493.5 750.833 1493.5 774.5 C 1473.17 774.5 1452.83 774.5 1432.5 774.5 C 1432.2 777.059 1432.53 779.393 1433.5 781.5 C 1433.33 823.501 1433.5 865.501 1434 907.5 C 1433.87 918.218 1436.87 927.885 1443 936.5 C 1448.61 941.438 1455.11 944.605 1462.5 946 C 1473 946.75 1483.33 947.583 1493.5 948.5 C 1493.5 974.167 1493.5 999.833 1493.5 1025.5 C 1491.26 1025.21 1489.26 1025.54 1487.5 1026.5 C 1462.74 1026.97 1438.41 1024.14 1414.5 1018 C 1385.18 1008.01 1366.01 988.178 1357 958.5 C 1352.86 943.115 1350.52 927.448 1350 911.5 C 1349.5 800.501 1349.33 689.501 1349.5 578.5 Z" stroke-linecap="round"/>
</g>
		<g transform="matrix(1 0 0 1 -258.9228 68.9406)">
<path style="stroke: none; stroke-width: 1; stroke-dasharray: none; stroke-linecap: butt; stroke-dashoffset: 0; stroke-linejoin: miter; stroke-miterlimit: 4; is-custom-font: none; font-file-url: none; fill: rgb(254,254,254); fill-rule: evenodd; opacity: 1;" transform=" translate(-1145.5772, -859.4406)" d="M 1161.5 696.5 C 1241.45 693.966 1288.28 731.966 1302 810.5 C 1303.44 881.153 1303.94 951.82 1303.5 1022.5 C 1275.17 1022.5 1246.83 1022.5 1218.5 1022.5 C 1218.67 959.832 1218.5 897.166 1218 834.5 C 1209.79 785.645 1180.95 764.145 1131.5 770 C 1096.41 779.43 1076.58 802.263 1072 838.5 C 1071.67 843.833 1071.33 849.167 1071 854.5 C 1070.5 910.499 1070.33 966.499 1070.5 1022.5 C 1042.83 1022.5 1015.17 1022.5 987.5 1022.5 C 987.5 915.833 987.5 809.167 987.5 702.5 C 1014.83 702.5 1042.17 702.5 1069.5 702.5 C 1069.17 717.515 1069.5 732.515 1070.5 747.5 C 1093.43 717.204 1123.76 700.204 1161.5 696.5 Z" stroke-linecap="round"/>
</g>
		<g transform="matrix(1 0 0 1 277.4165 72.6392)">
<path style="stroke: none; stroke-width: 1; stroke-dasharray: none; stroke-linecap: butt; stroke-dashoffset: 0; stroke-linejoin: miter; stroke-miterlimit: 4; is-custom-font: none; font-file-url: none; fill: rgb(254,254,254); fill-rule: evenodd; opacity: 1;" transform=" translate(-1681.9165, -863.1392)" d="M 1846.5 891.5 C 1763.16 891.167 1679.83 891.5 1596.5 892.5 C 1596.62 893.107 1596.96 893.44 1597.5 893.5 C 1606.1 925.931 1626.77 946.097 1659.5 954 C 1700.98 961.426 1736.65 950.593 1766.5 921.5 C 1787 935.926 1807 951.093 1826.5 967 C 1777.64 1019.54 1717.64 1039.21 1646.5 1026 C 1581.89 1009.77 1540.39 969.6 1522 905.5 C 1507.5 836.683 1526.33 779.183 1578.5 733 C 1632.53 693.046 1690.87 685.712 1753.5 711 C 1798.29 732.786 1827.46 767.619 1841 815.5 C 1843.4 825.027 1845.07 834.694 1846 844.5 C 1846.5 860.163 1846.67 875.83 1846.5 891.5 Z" stroke-linecap="round"/>
</g>
		<g transform="matrix(1 0 0 1 -508 72)">
<path style="stroke: none; stroke-width: 1; stroke-dasharray: none; stroke-linecap: butt; stroke-dashoffset: 0; stroke-linejoin: miter; stroke-miterlimit: 4; is-custom-font: none; font-file-url: none; fill: rgb(254,254,254); fill-rule: evenodd; opacity: 1;" transform=" translate(-896.5, -862.5)" d="M 854.5 702.5 C 882.5 702.5 910.5 702.5 938.5 702.5 C 938.5 809.167 938.5 915.833 938.5 1022.5 C 910.5 1022.5 882.5 1022.5 854.5 1022.5 C 854.5 915.833 854.5 809.167 854.5 702.5 Z" stroke-linecap="round"/>
</g>
		<g transform="matrix(1 0 0 1 59.5618 -52)">
<path style="stroke: none; stroke-width: 1; stroke-dasharray: none; stroke-linecap: butt; stroke-dashoffset: 0; stroke-linejoin: miter; stroke-miterlimit: 4; is-custom-font: none; font-file-url: none; fill: rgb(157,208,237); fill-rule: evenodd; opacity: 1;" transform=" translate(-1464.0618, -738.5)" d="M 1433.5 702.5 C 1453.83 702.5 1474.17 702.5 1494.5 702.5 C 1494.83 726.672 1494.5 750.672 1493.5 774.5 C 1493.5 750.833 1493.5 727.167 1493.5 703.5 C 1473.33 703.83 1453.33 703.497 1433.5 702.5 Z" stroke-linecap="round"/>
</g>
		<g transform="matrix(1 0 0 1 278 9.9094)">
<path style="stroke: none; stroke-width: 1; stroke-dasharray: none; stroke-linecap: butt; stroke-dashoffset: 0; stroke-linejoin: miter; stroke-miterlimit: 4; is-custom-font: none; font-file-url: none; fill: rgb(1,114,201); fill-rule: evenodd; opacity: 1;" transform=" translate(-1682.5, -800.4093)" d="M 1601.5 832.5 C 1600.5 832.5 1599.5 832.5 1598.5 832.5 C 1598.5 830.167 1598.5 827.833 1598.5 825.5 C 1606.53 799.068 1623.86 781.568 1650.5 773 C 1683.47 763.48 1713.8 768.48 1741.5 788 C 1755.96 799.419 1764.29 814.253 1766.5 832.5 C 1711.5 832.5 1656.5 832.5 1601.5 832.5 Z" stroke-linecap="round"/>
</g>
		<g transform="matrix(1 0 0 1 58.4465 -12.5)">
<path style="stroke: none; stroke-width: 1; stroke-dasharray: none; stroke-linecap: butt; stroke-dashoffset: 0; stroke-linejoin: miter; stroke-miterlimit: 4; is-custom-font: none; font-file-url: none; fill: rgb(171,211,239); fill-rule: evenodd; opacity: 1;" transform=" translate(-1462.9465, -778)" d="M 1493.5 774.5 C 1473.67 775.497 1453.67 775.83 1433.5 775.5 C 1433.5 777.5 1433.5 779.5 1433.5 781.5 C 1432.53 779.393 1432.2 777.059 1432.5 774.5 C 1452.83 774.5 1473.17 774.5 1493.5 774.5 Z" stroke-linecap="round"/>
</g>
		<g transform="matrix(1 0 0 1 194.9444 39.0448)">
<path style="stroke: none; stroke-width: 1; stroke-dasharray: none; stroke-linecap: butt; stroke-dashoffset: 0; stroke-linejoin: miter; stroke-miterlimit: 4; is-custom-font: none; font-file-url: none; fill: rgb(140,194,233); fill-rule: evenodd; opacity: 1;" transform=" translate(-1599.4444, -829.5448)" d="M 1598.5 825.5 C 1598.5 827.833 1598.5 830.167 1598.5 832.5 C 1599.5 832.5 1600.5 832.5 1601.5 832.5 C 1600.43 833.434 1599.1 833.768 1597.5 833.5 C 1597.19 830.615 1597.53 827.948 1598.5 825.5 Z" stroke-linecap="round"/>
</g>
		<g transform="matrix(1 0 0 1 317 101.9375)">
<path style="stroke: none; stroke-width: 1; stroke-dasharray: none; stroke-linecap: butt; stroke-dashoffset: 0; stroke-linejoin: miter; stroke-miterlimit: 4; is-custom-font: none; font-file-url: none; fill: rgb(210,236,248); fill-rule: evenodd; opacity: 1;" transform=" translate(-1721.5, -892.4376)" d="M 1846.5 891.5 C 1763.5 892.167 1680.5 892.833 1597.5 893.5 C 1596.96 893.44 1596.62 893.107 1596.5 892.5 C 1679.83 891.5 1763.16 891.167 1846.5 891.5 Z" stroke-linecap="round"/>
</g>
		<g transform="matrix(1 0 0 1 86.5618 197)">
<path style="stroke: none; stroke-width: 1; stroke-dasharray: none; stroke-linecap: butt; stroke-dashoffset: 0; stroke-linejoin: miter; stroke-miterlimit: 4; is-custom-font: none; font-file-url: none; fill: rgb(142,200,234); fill-rule: evenodd; opacity: 1;" transform=" translate(-1491.0618, -987.5)" d="M 1493.5 948.5 C 1494.5 974.328 1494.83 1000.33 1494.5 1026.5 C 1492.17 1026.5 1489.83 1026.5 1487.5 1026.5 C 1489.26 1025.54 1491.26 1025.21 1493.5 1025.5 C 1493.5 999.833 1493.5 974.167 1493.5 948.5 Z" stroke-linecap="round"/>
</g>
		<g transform="matrix(1 0 0 1 528.0618 -1.9382)">
<path style="stroke: none; stroke-width: 1; stroke-dasharray: none; stroke-linecap: butt; stroke-dashoffset: 0; stroke-linejoin: miter; stroke-miterlimit: 4; is-custom-font: none; font-file-url: none; fill: rgb(142,200,235); fill-rule: evenodd; opacity: 1;" transform=" translate(-1932.5618, -788.5618)" d="M 1973.5 553.5 C 1974.5 709.999 1974.83 866.666 1974.5 1023.5 C 1945.76 1023.83 1917.76 1023.5 1890.5 1022.5 C 1918.17 1022.5 1945.83 1022.5 1973.5 1022.5 C 1973.5 866.167 1973.5 709.833 1973.5 553.5 Z" stroke-linecap="round"/>
</g>
</g>
</g>
</svg>