<svg xmlns="http://www.w3.org/2000/svg" xmlns:xlink="http://www.w3.org/1999/xlink" version="1.1" width="1000" height="1000" viewBox="0 0 1000 1000" xml:space="preserve">
<desc>Created with Fabric.js 3.5.0</desc>
<defs>
</defs>
<rect x="0" y="0" width="100%" height="100%" fill="rgba(255,255,255,0)"/>
<g transform="matrix(0.3646 0 0 0.3646 500.032 500.018)" id="363665">
<g style="" vector-effect="non-scaling-stroke">
		<g transform="matrix(1 0 0 1 0 -0.5)">
<path style="stroke: none; stroke-width: 1; stroke-dasharray: none; stroke-linecap: butt; stroke-dashoffset: 0; stroke-linejoin: miter; stroke-miterlimit: 4; is-custom-font: none; font-file-url: none; fill: rgb(0,114,201); fill-rule: evenodd; opacity: 1;" transform=" translate(-1920, -1079.5)" d="M 867.5 26.5 C 1569.17 26.5 2270.83 26.5 2972.5 26.5 C 2972.5 728.5 2972.5 1430.5 2972.5 2132.5 C 2270.83 2132.5 1569.17 2132.5 867.5 2132.5 C 867.5 1430.5 867.5 728.5 867.5 26.5 Z" stroke-linecap="round"/>
</g>
		<g transform="matrix(1 0 0 1 642.5 -5.5)">
<path style="stroke: none; stroke-width: 1; stroke-dasharray: none; stroke-linecap: butt; stroke-dashoffset: 0; stroke-linejoin: miter; stroke-miterlimit: 4; is-custom-font: none; font-file-url: none; fill: rgb(254,255,254); fill-rule: evenodd; opacity: 1;" transform=" translate(-2562.5, -1074.5)" d="M 2505.5 753.5 C 2543.5 753.5 2581.5 753.5 2619.5 753.5 C 2619.5 967.5 2619.5 1181.5 2619.5 1395.5 C 2581.5 1395.5 2543.5 1395.5 2505.5 1395.5 C 2505.5 1181.5 2505.5 967.5 2505.5 753.5 Z" stroke-linecap="round"/>
</g>
		<g transform="matrix(1 0 0 1 643 -5.5004)">
<path style="stroke: none; stroke-width: 1; stroke-dasharray: none; stroke-linecap: butt; stroke-dashoffset: 0; stroke-linejoin: miter; stroke-miterlimit: 4; is-custom-font: none; font-file-url: none; fill: rgb(168,215,241); fill-rule: evenodd; opacity: 1;" transform=" translate(-2563, -1074.4996)" d="M 2505.5 753.5 C 2543.66 752.501 2582 752.168 2620.5 752.5 C 2620.5 967.167 2620.5 1181.83 2620.5 1396.5 C 2581.43 1396.83 2543.09 1396.5 2505.5 1395.5 C 2543.5 1395.5 2581.5 1395.5 2619.5 1395.5 C 2619.5 1181.5 2619.5 967.5 2619.5 753.5 C 2581.5 753.5 2543.5 753.5 2505.5 753.5 Z" stroke-linecap="round"/>
</g>
		<g transform="matrix(1 0 0 1 -774.9382 -257.3894)">
<path style="stroke: none; stroke-width: 1; stroke-dasharray: none; stroke-linecap: butt; stroke-dashoffset: 0; stroke-linejoin: miter; stroke-miterlimit: 4; is-custom-font: none; font-file-url: none; fill: rgb(6,198,253); fill-rule: evenodd; opacity: 1;" transform=" translate(-1145.0618, -822.6106)" d="M 1084.5 761.5 C 1124.47 761.527 1164.47 761.527 1204.5 761.5 C 1205.5 802.161 1205.83 842.828 1205.5 883.5 C 1165.21 883.795 1124.87 883.795 1084.5 883.5 C 1084.5 842.833 1084.5 802.167 1084.5 761.5 Z" stroke-linecap="round"/>
</g>
		<g transform="matrix(1 0 0 1 -55.9768 13.6495)">
<path style="stroke: none; stroke-width: 1; stroke-dasharray: none; stroke-linecap: butt; stroke-dashoffset: 0; stroke-linejoin: miter; stroke-miterlimit: 4; is-custom-font: none; font-file-url: none; fill: rgb(253,254,254); fill-rule: evenodd; opacity: 1;" transform=" translate(-1864.0233, -1093.6495)" d="M 1765.5 786.5 C 1803.5 786.5 1841.5 786.5 1879.5 786.5 C 1880.49 843.471 1880.82 900.471 1880.5 957.5 C 1908.17 957.5 1935.83 957.5 1963.5 957.5 C 1963.5 990.5 1963.5 1023.5 1963.5 1056.5 C 1935.83 1056.5 1908.17 1056.5 1880.5 1056.5 C 1880.33 1116.83 1880.5 1177.17 1881 1237.5 C 1881.34 1249.88 1884.34 1261.54 1890 1272.5 C 1897.63 1282.57 1907.8 1288.4 1920.5 1290 C 1934.68 1291.72 1948.84 1292.89 1963 1293.5 C 1963.5 1329.17 1963.67 1364.83 1963.5 1400.5 C 1929.8 1401.78 1896.47 1398.95 1863.5 1392 C 1818.68 1380.52 1789.52 1352.68 1776 1308.5 C 1768.26 1277.33 1764.59 1245.66 1765 1213.5 C 1764.17 1071.14 1764.34 928.806 1765.5 786.5 Z" stroke-linecap="round"/>
</g>
		<g transform="matrix(1 0 0 1 -433.968 91.933)">
<path style="stroke: none; stroke-width: 1; stroke-dasharray: none; stroke-linecap: butt; stroke-dashoffset: 0; stroke-linejoin: miter; stroke-miterlimit: 4; is-custom-font: none; font-file-url: none; fill: rgb(254,254,254); fill-rule: evenodd; opacity: 1;" transform=" translate(-1486.032, -1171.9329)" d="M 1530.5 948.5 C 1533.41 950.018 1536.41 950.352 1539.5 949.5 C 1618.02 955.322 1669.19 995.655 1693 1070.5 C 1698.24 1089.15 1701.24 1108.15 1702 1127.5 C 1702.5 1216.83 1702.67 1306.17 1702.5 1395.5 C 1663.83 1395.5 1625.17 1395.5 1586.5 1395.5 C 1586.67 1313.17 1586.5 1230.83 1586 1148.5 C 1578.36 1070.57 1535.86 1038.41 1458.5 1052 C 1417.29 1065.89 1393.45 1094.39 1387 1137.5 C 1385.51 1146.78 1384.51 1156.11 1384 1165.5 C 1383.5 1242.17 1383.33 1318.83 1383.5 1395.5 C 1345.5 1395.5 1307.5 1395.5 1269.5 1395.5 C 1269.5 1249.5 1269.5 1103.5 1269.5 957.5 C 1307.17 957.5 1344.83 957.5 1382.5 957.5 C 1382.17 977.844 1382.5 998.178 1383.5 1018.5 C 1420.11 969.699 1469.11 946.366 1530.5 948.5 Z" stroke-linecap="round"/>
</g>
		<g transform="matrix(1 0 0 1 -385 -130.8265)">
<path style="stroke: none; stroke-width: 1; stroke-dasharray: none; stroke-linecap: butt; stroke-dashoffset: 0; stroke-linejoin: miter; stroke-miterlimit: 4; is-custom-font: none; font-file-url: none; fill: rgb(153,213,243); fill-rule: evenodd; opacity: 1;" transform=" translate(-1535, -949.1735)" d="M 1530.5 948.5 C 1533.71 948.19 1536.71 948.523 1539.5 949.5 C 1536.41 950.352 1533.41 950.018 1530.5 948.5 Z" stroke-linecap="round"/>
</g>
		<g transform="matrix(1 0 0 1 302.5 -130.6754)">
<path style="stroke: none; stroke-width: 1; stroke-dasharray: none; stroke-linecap: butt; stroke-dashoffset: 0; stroke-linejoin: miter; stroke-miterlimit: 4; is-custom-font: none; font-file-url: none; fill: rgb(131,209,245); fill-rule: evenodd; opacity: 1;" transform=" translate(-2222.5, -949.3245)" d="M 2215.5 949.5 C 2220.17 948.167 2224.83 948.167 2229.5 949.5 C 2224.73 950.365 2220.07 950.365 2215.5 949.5 Z" stroke-linecap="round"/>
</g>
		<g transform="matrix(1 0 0 1 301.008 97.4322)">
<path style="stroke: none; stroke-width: 1; stroke-dasharray: none; stroke-linecap: butt; stroke-dashoffset: 0; stroke-linejoin: miter; stroke-miterlimit: 4; is-custom-font: none; font-file-url: none; fill: rgb(254,254,254); fill-rule: evenodd; opacity: 1;" transform=" translate(-2221.0081, -1177.4322)" d="M 2215.5 949.5 C 2220.07 950.365 2224.73 950.365 2229.5 949.5 C 2325.07 954.015 2391.9 1000.01 2430 1087.5 C 2444.79 1129.46 2449.96 1172.46 2445.5 1216.5 C 2331.5 1216.17 2217.5 1216.5 2103.5 1217.5 C 2103.62 1218.11 2103.96 1218.44 2104.5 1218.5 C 2115.34 1259.51 2141.01 1286.34 2181.5 1299 C 2232.99 1311.87 2279.65 1302.2 2321.5 1270 C 2326.33 1265.17 2331.17 1260.33 2336 1255.5 C 2363.41 1276.79 2390.91 1297.95 2418.5 1319 C 2363.45 1380.33 2294.45 1409 2211.5 1405 C 2144.74 1401.44 2089.57 1374.61 2046 1324.5 C 2000.28 1264.28 1985.28 1196.94 2001 1122.5 C 2023.69 1040.14 2075.53 985.306 2156.5 958 C 2175.75 952.226 2195.42 949.393 2215.5 949.5 Z" stroke-linecap="round"/>
</g>
		<g transform="matrix(1 0 0 1 -775 96.5)">
<path style="stroke: none; stroke-width: 1; stroke-dasharray: none; stroke-linecap: butt; stroke-dashoffset: 0; stroke-linejoin: miter; stroke-miterlimit: 4; is-custom-font: none; font-file-url: none; fill: rgb(254,254,254); fill-rule: evenodd; opacity: 1;" transform=" translate(-1145, -1176.5)" d="M 1087.5 957.5 C 1125.83 957.5 1164.17 957.5 1202.5 957.5 C 1202.5 1103.5 1202.5 1249.5 1202.5 1395.5 C 1164.17 1395.5 1125.83 1395.5 1087.5 1395.5 C 1087.5 1249.5 1087.5 1103.5 1087.5 957.5 Z" stroke-linecap="round"/>
</g>
		<g transform="matrix(1 0 0 1 300.5 11.2488)">
<path style="stroke: none; stroke-width: 1; stroke-dasharray: none; stroke-linecap: butt; stroke-dashoffset: 0; stroke-linejoin: miter; stroke-miterlimit: 4; is-custom-font: none; font-file-url: none; fill: rgb(0,114,201); fill-rule: evenodd; opacity: 1;" transform=" translate(-2220.5, -1091.2488)" d="M 2207.5 1047.5 C 2247.78 1044.31 2282.62 1056.31 2312 1083.5 C 2321.29 1093.74 2328.29 1105.41 2333 1118.5 C 2334.68 1124.05 2335.51 1129.72 2335.5 1135.5 C 2258.83 1135.5 2182.17 1135.5 2105.5 1135.5 C 2107.58 1112.51 2117.25 1093.34 2134.5 1078 C 2155.6 1060.13 2179.94 1049.96 2207.5 1047.5 Z" stroke-linecap="round"/>
</g>
		<g transform="matrix(1 0 0 1 354.5 137.4382)">
<path style="stroke: none; stroke-width: 1; stroke-dasharray: none; stroke-linecap: butt; stroke-dashoffset: 0; stroke-linejoin: miter; stroke-miterlimit: 4; is-custom-font: none; font-file-url: none; fill: rgb(168,216,240); fill-rule: evenodd; opacity: 1;" transform=" translate(-2274.5, -1217.4382)" d="M 2445.5 1216.5 C 2331.83 1217.17 2218.17 1217.83 2104.5 1218.5 C 2103.96 1218.44 2103.62 1218.11 2103.5 1217.5 C 2217.5 1216.5 2331.5 1216.17 2445.5 1216.5 Z" stroke-linecap="round"/>
</g>
		<g transform="matrix(1 0 0 1 792.057 276.8039)">
<path style="stroke: none; stroke-width: 1; stroke-dasharray: none; stroke-linecap: butt; stroke-dashoffset: 0; stroke-linejoin: miter; stroke-miterlimit: 4; is-custom-font: none; font-file-url: none; fill: rgb(242,249,253); fill-rule: evenodd; opacity: 1;" transform=" translate(-2712.057, -1356.8039)" d="M 2705.5 1314.5 C 2731.37 1313.51 2747.54 1325.51 2754 1350.5 C 2755.4 1375.88 2743.9 1392.05 2719.5 1399 C 2691.62 1400.79 2675.12 1387.96 2670 1360.5 C 2670.54 1336.39 2682.38 1321.06 2705.5 1314.5 Z" stroke-linecap="round"/>
</g>
		<g transform="matrix(1 0 0 1 791.7603 277.3982)">
<path style="stroke: none; stroke-width: 1; stroke-dasharray: none; stroke-linecap: butt; stroke-dashoffset: 0; stroke-linejoin: miter; stroke-miterlimit: 4; is-custom-font: none; font-file-url: none; fill: rgb(0,115,201); fill-rule: evenodd; opacity: 1;" transform=" translate(-2711.7604, -1357.3981)" d="M 2703.5 1322.5 C 2731.64 1320.48 2745.8 1333.48 2746 1361.5 C 2742.49 1381.01 2730.82 1391.35 2711 1392.5 C 2686.01 1388.57 2675.01 1373.91 2678 1348.5 C 2681.35 1334.65 2689.85 1325.99 2703.5 1322.5 Z" stroke-linecap="round"/>
</g>
		<g transform="matrix(1 0 0 1 793.5944 276.9731)">
<path style="stroke: none; stroke-width: 1; stroke-dasharray: none; stroke-linecap: butt; stroke-dashoffset: 0; stroke-linejoin: miter; stroke-miterlimit: 4; is-custom-font: none; font-file-url: none; fill: rgb(248,252,254); fill-rule: evenodd; opacity: 1;" transform=" translate(-2713.5944, -1356.9731)" d="M 2695.5 1332.5 C 2703.51 1332.33 2711.51 1332.5 2719.5 1333 C 2731.44 1337.14 2734.61 1344.97 2729 1356.5 C 2726.4 1358.55 2723.57 1360.22 2720.5 1361.5 C 2723.91 1368 2727.58 1374.33 2731.5 1380.5 C 2728.55 1381.65 2725.55 1381.82 2722.5 1381 C 2718.5 1374.67 2714.5 1368.33 2710.5 1362 C 2708.53 1361.5 2706.53 1361.34 2704.5 1361.5 C 2704.5 1368.17 2704.5 1374.83 2704.5 1381.5 C 2701.5 1381.5 2698.5 1381.5 2695.5 1381.5 C 2695.5 1365.17 2695.5 1348.83 2695.5 1332.5 Z" stroke-linecap="round"/>
</g>
		<g transform="matrix(1 0 0 1 793.375 266.5007)">
<path style="stroke: none; stroke-width: 1; stroke-dasharray: none; stroke-linecap: butt; stroke-dashoffset: 0; stroke-linejoin: miter; stroke-miterlimit: 4; is-custom-font: none; font-file-url: none; fill: rgb(1,116,202); fill-rule: evenodd; opacity: 1;" transform=" translate(-2713.375, -1346.5007)" d="M 2704.5 1339.5 C 2709.58 1339.25 2714.58 1339.75 2719.5 1341 C 2723.74 1345.78 2723.08 1349.78 2717.5 1353 C 2713.18 1353.5 2708.85 1353.67 2704.5 1353.5 C 2704.5 1348.83 2704.5 1344.17 2704.5 1339.5 Z" stroke-linecap="round"/>
</g>
</g>
</g>
</svg>