<svg xmlns="http://www.w3.org/2000/svg" xmlns:xlink="http://www.w3.org/1999/xlink" width="1080" zoomAndPan="magnify" viewBox="0 0 810 809.999993" height="1080" preserveAspectRatio="xMidYMid meet" version="1.0"><path fill="#0072c9" d="M 35.980469 34.539062 C 282.289062 34.058594 528.675781 33.898438 775.144531 34.058594 C 775.371094 280.800781 775.371094 527.507812 775.144531 774.179688 C 529.25 773.601562 283.339844 773.601562 37.421875 774.179688 C 36.683594 774.207031 36.203125 773.882812 35.980469 773.21875 C 36.484375 773.292969 36.96875 773.210938 37.421875 772.980469 C 36.460938 527.089844 36.140625 281.105469 36.460938 35.019531 C 282.527344 35.097656 528.59375 35.019531 774.664062 34.777344 C 528.4375 34.539062 282.207031 34.457031 35.980469 34.539062 Z M 35.980469 34.539062 " fill-opacity="0.999" fill-rule="evenodd"/><path fill="#0077d1" d="M 35.980469 34.539062 C 282.207031 34.457031 528.4375 34.539062 774.664062 34.777344 C 528.59375 35.019531 282.527344 35.097656 36.460938 35.019531 C 36.140625 281.105469 36.460938 527.089844 37.421875 772.980469 C 36.96875 773.210938 36.484375 773.292969 35.980469 773.21875 C 35.980469 526.992188 35.980469 280.765625 35.980469 34.539062 Z M 35.980469 34.539062 " fill-opacity="1" fill-rule="evenodd"/><path fill="#fefefe" d="M 678.542969 291.179688 C 678.542969 366.3125 678.542969 441.445312 678.542969 516.578125 C 665.246094 516.578125 651.953125 516.578125 638.652344 516.578125 C 638.652344 441.445312 638.652344 366.3125 638.652344 291.179688 C 651.953125 291.179688 665.246094 291.179688 678.542969 291.179688 Z M 678.542969 291.179688 " fill-opacity="1" fill-rule="evenodd"/><path fill="#06c5fc" d="M 140.269531 294.0625 C 154.035156 294.355469 167.890625 294.355469 181.84375 294.0625 C 182.082031 308.320312 182.164062 322.578125 182.082031 336.835938 C 168.238281 337.132812 154.140625 337.132812 139.789062 336.835938 C 139.632812 322.542969 139.792969 308.285156 140.269531 294.0625 Z M 140.269531 294.0625 " fill-opacity="1" fill-rule="evenodd"/><path fill="#6db0e1" d="M 378.648438 303.191406 C 392.023438 302.714844 405.480469 302.554688 419.019531 302.710938 C 419.019531 303.351562 419.019531 303.996094 419.019531 304.636719 C 418.585938 304.292969 418.421875 303.8125 418.539062 303.191406 C 405.238281 303.191406 391.945312 303.191406 378.648438 303.191406 Z M 378.648438 303.191406 " fill-opacity="1" fill-rule="evenodd"/><path fill="#fefefe" d="M 378.648438 303.191406 C 391.945312 303.191406 405.238281 303.191406 418.539062 303.191406 C 418.421875 303.8125 418.585938 304.292969 419.019531 304.636719 C 419.019531 324.019531 419.019531 343.402344 419.019531 362.789062 C 428.550781 363.265625 438.160156 363.425781 447.855469 363.269531 C 447.855469 374.640625 447.855469 386.015625 447.855469 397.390625 C 438.085938 397.390625 428.308594 397.390625 418.539062 397.390625 C 418.394531 398.621094 418.550781 399.742188 419.019531 400.753906 C 418.9375 420.941406 419.019531 441.125 419.257812 461.308594 C 419.195312 466.460938 420.636719 471.109375 423.585938 475.246094 C 426.28125 477.621094 429.40625 479.144531 432.957031 479.8125 C 438.003906 480.175781 442.96875 480.574219 447.855469 481.015625 C 447.855469 493.351562 447.855469 505.6875 447.855469 518.019531 C 446.777344 517.882812 445.816406 518.039062 444.972656 518.5 C 433.070312 518.726562 421.378906 517.367188 409.886719 514.417969 C 395.796875 509.617188 386.582031 500.085938 382.253906 485.820312 C 380.261719 478.425781 379.140625 470.898438 378.890625 463.234375 C 378.648438 409.886719 378.566406 356.539062 378.648438 303.191406 Z M 378.648438 303.191406 " fill-opacity="1" fill-rule="evenodd"/><path fill="#fefefe" d="M 288.296875 359.902344 C 326.71875 358.6875 349.226562 376.949219 355.820312 414.691406 C 356.511719 448.648438 356.753906 482.609375 356.539062 516.578125 C 342.925781 516.578125 329.304688 516.578125 315.691406 516.578125 C 315.773438 486.460938 315.691406 456.34375 315.449219 426.226562 C 311.503906 402.746094 297.644531 392.414062 273.878906 395.226562 C 257.011719 399.761719 247.484375 410.734375 245.28125 428.148438 C 245.125 430.710938 244.960938 433.277344 244.800781 435.839844 C 244.5625 462.75 244.480469 489.664062 244.5625 516.578125 C 231.261719 516.578125 217.96875 516.578125 204.671875 516.578125 C 204.671875 465.316406 204.671875 414.050781 204.671875 362.789062 C 217.804688 362.789062 230.945312 362.789062 244.082031 362.789062 C 243.921875 370.003906 244.082031 377.210938 244.5625 384.414062 C 255.582031 369.855469 270.15625 361.683594 288.296875 359.902344 Z M 288.296875 359.902344 " fill-opacity="1" fill-rule="evenodd"/><path fill="#fefefe" d="M 617.507812 453.621094 C 577.453125 453.460938 537.40625 453.621094 497.355469 454.101562 C 497.414062 454.394531 497.578125 454.554688 497.835938 454.582031 C 501.96875 470.167969 511.90625 479.859375 527.632812 483.660156 C 547.570312 487.226562 564.710938 482.019531 579.058594 468.039062 C 588.910156 474.972656 598.523438 482.261719 607.894531 489.90625 C 584.414062 515.15625 555.578125 524.609375 521.386719 518.261719 C 490.335938 510.460938 470.390625 491.15625 461.550781 460.347656 C 454.582031 427.277344 463.632812 399.640625 488.707031 377.445312 C 514.671875 358.242188 542.710938 354.71875 572.8125 366.871094 C 594.335938 377.34375 608.355469 394.082031 614.863281 417.09375 C 616.015625 421.675781 616.820312 426.320312 617.265625 431.03125 C 617.507812 438.558594 617.589844 446.089844 617.507812 453.621094 Z M 617.507812 453.621094 " fill-opacity="1" fill-rule="evenodd"/><path fill="#fefefe" d="M 140.75 362.789062 C 154.207031 362.789062 167.664062 362.789062 181.121094 362.789062 C 181.121094 414.050781 181.121094 465.316406 181.121094 516.578125 C 167.664062 516.578125 154.207031 516.578125 140.75 516.578125 C 140.75 465.316406 140.75 414.050781 140.75 362.789062 Z M 140.75 362.789062 " fill-opacity="1" fill-rule="evenodd"/><path fill="#9dd0ed" d="M 419.019531 362.789062 C 428.789062 362.789062 438.566406 362.789062 448.335938 362.789062 C 448.492188 374.40625 448.335938 385.9375 447.855469 397.390625 C 447.855469 386.015625 447.855469 374.640625 447.855469 363.269531 C 438.160156 363.425781 428.550781 363.265625 419.019531 362.789062 Z M 419.019531 362.789062 " fill-opacity="1" fill-rule="evenodd"/><path fill="#0172c9" d="M 499.757812 425.265625 C 499.277344 425.265625 498.796875 425.265625 498.316406 425.265625 C 498.316406 424.144531 498.316406 423.023438 498.316406 421.902344 C 502.175781 409.199219 510.503906 400.789062 523.308594 396.667969 C 539.15625 392.09375 553.730469 394.496094 567.042969 403.878906 C 573.992188 409.367188 577.996094 416.496094 579.058594 425.265625 C 552.625 425.265625 526.191406 425.265625 499.757812 425.265625 Z M 499.757812 425.265625 " fill-opacity="1" fill-rule="evenodd"/><path fill="#abd3ef" d="M 447.855469 397.390625 C 438.324219 397.871094 428.710938 398.03125 419.019531 397.871094 C 419.019531 398.832031 419.019531 399.792969 419.019531 400.753906 C 418.550781 399.742188 418.394531 398.621094 418.539062 397.390625 C 428.308594 397.390625 438.085938 397.390625 447.855469 397.390625 Z M 447.855469 397.390625 " fill-opacity="1" fill-rule="evenodd"/><path fill="#8cc2e9" d="M 498.316406 421.902344 C 498.316406 423.023438 498.316406 424.144531 498.316406 425.265625 C 498.796875 425.265625 499.277344 425.265625 499.757812 425.265625 C 499.246094 425.714844 498.605469 425.875 497.835938 425.746094 C 497.6875 424.359375 497.851562 423.078125 498.316406 421.902344 Z M 498.316406 421.902344 " fill-opacity="1" fill-rule="evenodd"/><path fill="#d2ecf8" d="M 617.507812 453.621094 C 577.617188 453.941406 537.726562 454.261719 497.835938 454.582031 C 497.578125 454.554688 497.414062 454.394531 497.355469 454.101562 C 537.40625 453.621094 577.453125 453.460938 617.507812 453.621094 Z M 617.507812 453.621094 " fill-opacity="1" fill-rule="evenodd"/><path fill="#8ec8ea" d="M 447.855469 481.015625 C 448.335938 493.429688 448.492188 505.925781 448.335938 518.5 C 447.214844 518.5 446.089844 518.5 444.972656 518.5 C 445.816406 518.039062 446.777344 517.882812 447.855469 518.019531 C 447.855469 505.6875 447.855469 493.351562 447.855469 481.015625 Z M 447.855469 481.015625 " fill-opacity="1" fill-rule="evenodd"/><path fill="#8ec8eb" d="M 678.542969 291.179688 C 679.023438 366.390625 679.183594 441.6875 679.023438 517.058594 C 665.210938 517.21875 651.753906 517.058594 638.652344 516.578125 C 651.953125 516.578125 665.246094 516.578125 678.542969 516.578125 C 678.542969 441.445312 678.542969 366.3125 678.542969 291.179688 Z M 678.542969 291.179688 " fill-opacity="1" fill-rule="evenodd"/></svg>