<svg xmlns="http://www.w3.org/2000/svg" xmlns:xlink="http://www.w3.org/1999/xlink" version="1.1" width="1000" height="1000" viewBox="0 0 1000 1000" xml:space="preserve">
<desc>Created with Fabric.js 3.5.0</desc>
<defs>
</defs>
<rect x="0" y="0" width="100%" height="100%" fill="rgba(255,255,255,0)"/>
<g transform="matrix(0.38 0 0 0.38 475 500)" id="184172">
<g style="" vector-effect="non-scaling-stroke">
		<g transform="matrix(28.5016 0 0 28.5016 79.5208 39.1312)">
<path style="stroke: none; stroke-width: 1; stroke-dasharray: none; stroke-linecap: butt; stroke-dashoffset: 0; stroke-linejoin: miter; stroke-miterlimit: 4; is-custom-font: none; font-file-url: none; fill: rgb(0,113,197); fill-rule: nonzero; opacity: 1;" transform=" translate(-39.5929, -26.4899)" d="m 78.676 15.258 c -3.696 -18.048 -38.738 -19.192 -61.324 -5.442 v 1.52 c 22.562 -11.602 54.566 -11.527 57.48 5.094 c 0.977 5.5 -2.121 11.23 -7.656 14.53 v 4.313 c 6.656 -2.441 13.484 -10.34 11.5 -20.015 m -41.056 31.59 c -15.58 1.437 -31.823 -0.828 -34.1 -13.004 c -1.114 -6.004 1.625 -12.371 5.253 -16.328 v -2.114 c -6.535 5.73 -10.078 12.985 -8.035 21.551 c 2.606 10.992 16.543 17.215 37.82 15.149 c 8.422 -0.817 19.438 -3.528 27.102 -7.735 v -5.976 c -6.957 4.144 -18.457 7.57 -28.039 8.457" stroke-linecap="round"/>
</g>
		<g transform="matrix(28.5016 0 0 28.5016 34.7772 -29.3852)">
<path style="stroke: none; stroke-width: 1; stroke-dasharray: none; stroke-linecap: butt; stroke-dashoffset: 0; stroke-linejoin: miter; stroke-miterlimit: 4; is-custom-font: none; font-file-url: none; fill: rgb(0,113,197); fill-rule: nonzero; opacity: 1;" transform=" translate(-38.023, -24.086)" d="m 64.398 12.633 h -4.085 v 18.195 c 0 2.133 1.03 3.988 4.085 4.285 z m -48.652 6.644 h -4.094 l -0.004 11.887 c 0 2.14 1.036 3.992 4.098 4.285 z m -4.094 -2.218 h 4.082 v -3.875 h -4.082 z m 28.563 18.203 c -3.305 0 -4.703 -2.301 -4.703 -4.567 v -15.785 h 4.047 v 4.363 h 3.05 v 3.274 h -3.05 v 7.898 c 0 0.926 0.437 1.438 1.402 1.438 h 1.648 v 3.379 z m 10.745 -12.907 c -1.386 0 -2.448 0.715 -2.901 1.676 c -0.262 0.578 -0.36 1.031 -0.387 1.742 h 6.238 c -0.078 -1.742 -0.867 -3.418 -2.95 -3.418 m -3.288 6.18 c 0 2.07 1.293 3.598 3.586 3.598 c 1.797 0 2.683 -0.5 3.722 -1.528 l 2.504 2.387 c -1.605 1.586 -3.289 2.547 -6.254 2.547 c -3.878 0 -7.59 -2.113 -7.59 -8.281 c 0 -5.274 3.247 -8.254 7.5 -8.254 c 4.325 0 6.81 3.488 6.81 8.07 v 1.461 h -10.279 m -20.925 -5.988 c 1.188 0 1.684 0.586 1.684 1.539 v 11.2 h 4.05 v -11.225 c 0 -2.273 -1.21 -4.78 -4.77 -4.78 l -8.366 -0.005 v 16.008 h 4.05 v -12.737 z" stroke-linecap="round"/>
</g>
</g>
</g>
</svg>