<svg xmlns="http://www.w3.org/2000/svg" xmlns:xlink="http://www.w3.org/1999/xlink" version="1.1" width="1000" height="1000" viewBox="0 0 1000 1000" xml:space="preserve">
<desc>Created with Fabric.js 3.5.0</desc>
<defs>
</defs>
<rect x="0" y="0" width="100%" height="100%" fill="rgba(255,255,255,0)"/>
<g transform="matrix(0.7031 0 0 0.7031 499.984 499.9888)" id="611612">
<g style="" vector-effect="non-scaling-stroke">
		<g transform="matrix(1 0 0 1 -3.1048 0.6035)">
<path style="stroke: none; stroke-width: 1; stroke-dasharray: none; stroke-linecap: butt; stroke-dashoffset: 0; stroke-linejoin: miter; stroke-miterlimit: 4; is-custom-font: none; font-file-url: none; fill: rgb(0,161,224); fill-rule: evenodd; opacity: 0.999;" transform=" translate(-636.8952, -448.6035)" d="M -0.5 565.5 C -0.5 544.833 -0.5 524.167 -0.5 503.5 C 11.3262 435.977 45.9928 383.811 103.5 347 C 74.4111 273.255 77.9111 201.088 114 130.5 C 156.868 57.0378 220.701 14.5378 305.5 3 C 397.141 -4.40948 471.641 27.4239 529 98.5 C 594.498 35.2496 671.332 15.7496 759.5 40 C 805.371 55.2143 842.871 82.0477 872 120.5 C 877.693 128.852 883.36 137.185 889 145.5 C 967.315 113.295 1044.81 115.129 1121.5 151 C 1208.68 197.583 1259.18 270.083 1273 368.5 C 1282.01 476.24 1243.84 562.74 1158.5 628 C 1093.5 672.246 1022.17 687.746 944.5 674.5 C 901.6 744.129 838.933 777.962 756.5 776 C 730.338 774.418 705.505 767.918 682 756.5 C 647.05 832.082 588.55 877.582 506.5 893 C 413.102 904.354 338.268 872.854 282 798.5 C 270.79 782.413 261.956 765.08 255.5 746.5 C 158.62 761.289 83.1202 728.289 29 647.5 C 14.0778 621.893 4.24444 594.559 -0.5 565.5 Z" stroke-linecap="round"/>
</g>
		<g transform="matrix(1 0 0 1 57.5 -25.3853)">
<path style="stroke: none; stroke-width: 1; stroke-dasharray: none; stroke-linecap: butt; stroke-dashoffset: 0; stroke-linejoin: miter; stroke-miterlimit: 4; is-custom-font: none; font-file-url: none; fill: rgb(253,254,253); fill-rule: evenodd; opacity: 1;" transform=" translate(-697.5, -422.6147)" d="M 733.5 313.5 C 742.998 313.088 752.331 314.088 761.5 316.5 C 759.5 322.833 757.5 329.167 755.5 335.5 C 732.28 330.03 720.28 339.363 719.5 363.5 C 727.84 363.334 736.173 363.5 744.5 364 C 744.957 364.414 745.291 364.914 745.5 365.5 C 744.354 371.399 743.021 377.233 741.5 383 C 732.84 383.5 724.173 383.666 715.5 383.5 C 709.189 422.531 701.856 461.364 693.5 500 C 684.961 524.618 667.628 534.951 641.5 531 C 638.756 530.197 636.089 529.197 633.5 528 C 633.682 521.762 635.348 515.762 638.5 510 C 642.611 510.469 646.777 510.969 651 511.5 C 657.869 511.732 663.203 509.065 667 503.5 C 669.39 498.997 671.39 494.331 673 489.5 C 679.438 454.476 685.938 419.476 692.5 384.5 C 686.279 383.815 680.112 383.148 674 382.5 C 674.128 376.401 675.128 370.401 677 364.5 C 683.112 363.852 689.279 363.185 695.5 362.5 C 697.196 350.245 701.363 338.911 708 328.5 C 714.977 320.767 723.477 315.767 733.5 313.5 Z" stroke-linecap="round"/>
</g>
		<g transform="matrix(1 0 0 1 -222.4775 -50.5001)">
<path style="stroke: none; stroke-width: 1; stroke-dasharray: none; stroke-linecap: butt; stroke-dashoffset: 0; stroke-linejoin: miter; stroke-miterlimit: 4; is-custom-font: none; font-file-url: none; fill: rgb(252,254,253); fill-rule: evenodd; opacity: 1;" transform=" translate(-417.5225, -397.4999)" d="M 406.5 316.5 C 414.167 316.5 421.833 316.5 429.5 316.5 C 429.667 370.168 429.5 423.834 429 477.5 C 421.333 478.833 413.667 478.833 406 477.5 C 405.171 423.763 405.338 370.096 406.5 316.5 Z" stroke-linecap="round"/>
</g>
		<g transform="matrix(1 0 0 1 -411.5438 -26.9355)">
<path style="stroke: none; stroke-width: 1; stroke-dasharray: none; stroke-linecap: butt; stroke-dashoffset: 0; stroke-linejoin: miter; stroke-miterlimit: 4; is-custom-font: none; font-file-url: none; fill: rgb(252,254,253); fill-rule: evenodd; opacity: 1;" transform=" translate(-228.4562, -421.0645)" d="M 217.5 361.5 C 235.504 359.5 252.504 362.667 268.5 371 C 269.022 371.561 269.355 372.228 269.5 373 C 267.47 378.091 265.636 383.258 264 388.5 C 263.439 389.022 262.772 389.355 262 389.5 C 248.332 381.831 233.832 379.331 218.5 382 C 208.713 388.17 208.046 395.17 216.5 403 C 230.58 408.471 244.58 414.138 258.5 420 C 269.372 426.912 273.872 436.745 272 449.5 C 268.282 469.539 256.115 480.039 235.5 481 C 217.473 482.228 200.806 478.062 185.5 468.5 C 185.167 467.5 184.833 466.5 184.5 465.5 C 185.893 460.819 187.393 456.153 189 451.5 C 189.519 450.484 190.353 449.818 191.5 449.5 C 198.623 454.06 206.29 457.56 214.5 460 C 222.445 461.488 230.445 461.822 238.5 461 C 246.69 458.448 250.19 452.948 249 444.5 C 247.542 442.04 245.709 439.873 243.5 438 C 230.089 433.197 216.756 428.197 203.5 423 C 190.855 415.435 185.688 404.268 188 389.5 C 192.192 374.14 202.025 364.807 217.5 361.5 Z" stroke-linecap="round"/>
</g>
		<g transform="matrix(1 0 0 1 -306.1336 -27.2885)">
<path style="stroke: none; stroke-width: 1; stroke-dasharray: none; stroke-linecap: butt; stroke-dashoffset: 0; stroke-linejoin: miter; stroke-miterlimit: 4; is-custom-font: none; font-file-url: none; fill: rgb(253,254,253); fill-rule: evenodd; opacity: 1;" transform=" translate(-333.8664, -420.7115)" d="M 323.5 361.5 C 335.717 360.718 347.717 361.885 359.5 365 C 372.99 371.135 380.156 381.635 381 396.5 C 381.5 422.165 381.667 447.831 381.5 473.5 C 361.807 478.623 341.807 480.79 321.5 480 C 294.337 476.188 282.837 460.688 287 433.5 C 293 417.567 304.5 408.4 321.5 406 C 333.852 405.296 346.185 405.463 358.5 406.5 C 360.395 395.453 356.395 387.62 346.5 383 C 330.028 379.442 314.361 381.609 299.5 389.5 C 295.93 384.023 293.763 378.023 293 371.5 C 302.462 365.765 312.629 362.432 323.5 361.5 Z" stroke-linecap="round"/>
</g>
		<g transform="matrix(1 0 0 1 -138.5039 -27.2412)">
<path style="stroke: none; stroke-width: 1; stroke-dasharray: none; stroke-linecap: butt; stroke-dashoffset: 0; stroke-linejoin: miter; stroke-miterlimit: 4; is-custom-font: none; font-file-url: none; fill: rgb(253,254,253); fill-rule: evenodd; opacity: 1;" transform=" translate(-501.4961, -420.7588)" d="M 551.5 426.5 C 526.167 426.5 500.833 426.5 475.5 426.5 C 475.216 428.415 475.549 430.081 476.5 431.5 C 478.69 452.036 490.19 461.702 511 460.5 C 521.753 460.122 532.253 458.622 542.5 456 C 544.691 460.903 546.691 465.903 548.5 471 C 547.48 473.026 545.813 474.359 543.5 475 C 522.157 482.286 500.823 482.286 479.5 475 C 463.758 466.916 454.591 454.082 452 436.5 C 448.076 415.932 451.743 396.932 463 379.5 C 482.148 360.219 504.315 356.053 529.5 367 C 541.763 375.287 549.263 386.787 552 401.5 C 552.823 410.01 552.657 418.344 551.5 426.5 Z" stroke-linecap="round"/>
</g>
		<g transform="matrix(1 0 0 1 -28.0987 -26.9877)">
<path style="stroke: none; stroke-width: 1; stroke-dasharray: none; stroke-linecap: butt; stroke-dashoffset: 0; stroke-linejoin: miter; stroke-miterlimit: 4; is-custom-font: none; font-file-url: none; fill: rgb(252,254,253); fill-rule: evenodd; opacity: 1;" transform=" translate(-611.9013, -421.0123)" d="M 600.5 361.5 C 618.504 359.5 635.504 362.667 651.5 371 C 652.022 371.561 652.355 372.228 652.5 373 C 650.47 378.091 648.636 383.258 647 388.5 C 646.439 389.022 645.772 389.355 645 389.5 C 631.337 381.833 616.837 379.333 601.5 382 C 592.186 387.53 591.186 394.197 598.5 402 C 600.67 403.586 603.004 404.92 605.5 406 C 616.73 409.409 627.73 413.409 638.5 418 C 656.112 429.267 660.279 444.434 651 463.5 C 644.753 473.067 635.92 478.567 624.5 480 C 603.959 483.322 585.126 479.155 568 467.5 C 568.476 462.049 569.809 456.716 572 451.5 C 572.519 450.484 573.353 449.818 574.5 449.5 C 581.623 454.06 589.29 457.56 597.5 460 C 605.436 461.53 613.436 461.863 621.5 461 C 629.69 458.448 633.19 452.948 632 444.5 C 630.542 442.04 628.709 439.873 626.5 438 C 613.1 433.2 599.767 428.2 586.5 423 C 573.855 415.435 568.688 404.268 571 389.5 C 575.192 374.14 585.025 364.807 600.5 361.5 Z" stroke-linecap="round"/>
</g>
		<g transform="matrix(1 0 0 1 160.4656 -27.2418)">
<path style="stroke: none; stroke-width: 1; stroke-dasharray: none; stroke-linecap: butt; stroke-dashoffset: 0; stroke-linejoin: miter; stroke-miterlimit: 4; is-custom-font: none; font-file-url: none; fill: rgb(253,254,253); fill-rule: evenodd; opacity: 1;" transform=" translate(-800.4656, -420.7582)" d="M 790.5 361.5 C 811.825 358.656 829.325 365.323 843 381.5 C 852.345 396.888 855.678 413.555 853 431.5 C 850.82 458.338 836.653 474.504 810.5 480 C 777.251 483.978 756.751 469.812 749 437.5 C 744.2 415.607 748.2 395.607 761 377.5 C 769.414 369.379 779.247 364.046 790.5 361.5 Z" stroke-linecap="round"/>
</g>
		<g transform="matrix(1 0 0 1 350.7373 -27.1988)">
<path style="stroke: none; stroke-width: 1; stroke-dasharray: none; stroke-linecap: butt; stroke-dashoffset: 0; stroke-linejoin: miter; stroke-miterlimit: 4; is-custom-font: none; font-file-url: none; fill: rgb(253,254,253); fill-rule: evenodd; opacity: 1;" transform=" translate(-990.7373, -420.8012)" d="M 988.5 361.5 C 1002.69 360.71 1016.69 361.876 1030.5 365 C 1032.57 365.118 1033.91 366.118 1034.5 368 C 1032.5 373.35 1030.5 378.683 1028.5 384 C 1024.45 383.991 1020.45 383.324 1016.5 382 C 990.348 376.838 975.181 387.338 971 413.5 C 969.358 425.988 971.692 437.654 978 448.5 C 985.287 456.656 994.454 460.656 1005.5 460.5 C 1013.65 459.862 1021.65 458.696 1029.5 457 C 1031.52 461.403 1033.36 465.903 1035 470.5 C 1035.72 472.112 1035.55 473.612 1034.5 475 C 1017.45 480.919 1000.11 481.919 982.5 478 C 960.929 470.058 949.095 454.558 947 431.5 C 943.547 409.374 949.38 390.207 964.5 374 C 971.895 368.471 979.895 364.304 988.5 361.5 Z" stroke-linecap="round"/>
</g>
		<g transform="matrix(1 0 0 1 453.4901 -27.0307)">
<path style="stroke: none; stroke-width: 1; stroke-dasharray: none; stroke-linecap: butt; stroke-dashoffset: 0; stroke-linejoin: miter; stroke-miterlimit: 4; is-custom-font: none; font-file-url: none; fill: rgb(252,254,253); fill-rule: evenodd; opacity: 1;" transform=" translate(-1093.4901, -420.9693)" d="M 1084.5 361.5 C 1097.33 360.255 1109.66 362.088 1121.5 367 C 1134.13 375.073 1141.63 386.573 1144 401.5 C 1144.67 409.833 1144.67 418.167 1144 426.5 C 1118.91 427.495 1093.74 427.828 1068.5 427.5 C 1068.06 445.212 1076.39 456.045 1093.5 460 C 1100.5 460.667 1107.5 460.667 1114.5 460 C 1121.46 458.177 1128.46 456.677 1135.5 455.5 C 1136.66 460.814 1138.33 465.98 1140.5 471 C 1140.36 471.772 1140.02 472.439 1139.5 473 C 1124.24 479.895 1108.24 482.228 1091.5 480 C 1061.33 476.164 1045.17 458.998 1043 428.5 C 1040.55 406.98 1046.72 388.48 1061.5 373 C 1068.43 367.533 1076.1 363.7 1084.5 361.5 Z" stroke-linecap="round"/>
</g>
		<g transform="matrix(1 0 0 1 267.5 -28.0642)">
<path style="stroke: none; stroke-width: 1; stroke-dasharray: none; stroke-linecap: butt; stroke-dashoffset: 0; stroke-linejoin: miter; stroke-miterlimit: 4; is-custom-font: none; font-file-url: none; fill: rgb(254,254,253); fill-rule: evenodd; opacity: 1;" transform=" translate(-907.5, -419.9358)" d="M 914.5 362.5 C 923.311 362.027 931.978 362.861 940.5 365 C 940.957 365.414 941.291 365.914 941.5 366.5 C 939.26 372.39 936.927 378.223 934.5 384 C 912.393 380.111 899.893 389.278 897 411.5 C 896.5 433.497 896.333 455.497 896.5 477.5 C 888.833 477.5 881.167 477.5 873.5 477.5 C 873.5 439.5 873.5 401.5 873.5 363.5 C 880.841 363.334 888.174 363.5 895.5 364 C 896.288 367.076 896.788 370.242 897 373.5 C 902.173 368.67 908.006 365.003 914.5 362.5 Z" stroke-linecap="round"/>
</g>
		<g transform="matrix(1 0 0 1 -137.5 -53.2363)">
<path style="stroke: none; stroke-width: 1; stroke-dasharray: none; stroke-linecap: butt; stroke-dashoffset: 0; stroke-linejoin: miter; stroke-miterlimit: 4; is-custom-font: none; font-file-url: none; fill: rgb(12,162,224); fill-rule: evenodd; opacity: 1;" transform=" translate(-502.5, -394.7638)" d="M 528.5 405.5 C 528.5 406.5 528.5 407.5 528.5 408.5 C 511.167 408.5 493.833 408.5 476.5 408.5 C 480.724 383.221 494.724 375.387 518.5 385 C 524.915 390.331 528.249 397.164 528.5 405.5 Z" stroke-linecap="round"/>
</g>
		<g transform="matrix(1 0 0 1 160.464 -26.684)">
<path style="stroke: none; stroke-width: 1; stroke-dasharray: none; stroke-linecap: butt; stroke-dashoffset: 0; stroke-linejoin: miter; stroke-miterlimit: 4; is-custom-font: none; font-file-url: none; fill: rgb(9,161,224); fill-rule: evenodd; opacity: 1;" transform=" translate(-800.464, -421.316)" d="M 792.5 381.5 C 812.637 378.802 824.471 387.468 828 407.5 C 829.589 421.166 828.256 434.499 824 447.5 C 817.424 458.868 807.59 463.368 794.5 461 C 787.968 459.46 782.801 455.96 779 450.5 C 773.941 441.151 771.774 431.151 772.5 420.5 C 771.216 406.51 775.55 394.677 785.5 385 C 787.925 383.787 790.259 382.621 792.5 381.5 Z" stroke-linecap="round"/>
</g>
		<g transform="matrix(1 0 0 1 454.5 -53.311)">
<path style="stroke: none; stroke-width: 1; stroke-dasharray: none; stroke-linecap: butt; stroke-dashoffset: 0; stroke-linejoin: miter; stroke-miterlimit: 4; is-custom-font: none; font-file-url: none; fill: rgb(11,162,224); fill-rule: evenodd; opacity: 1;" transform=" translate(-1094.5, -394.689)" d="M 1120.5 405.5 C 1120.5 406.5 1120.5 407.5 1120.5 408.5 C 1103.17 408.5 1085.83 408.5 1068.5 408.5 C 1070.96 388.862 1081.96 379.695 1101.5 381 C 1113.67 384.667 1120 392.834 1120.5 405.5 Z" stroke-linecap="round"/>
</g>
		<g transform="matrix(1 0 0 1 -136.9552 -40.4384)">
<path style="stroke: none; stroke-width: 1; stroke-dasharray: none; stroke-linecap: butt; stroke-dashoffset: 0; stroke-linejoin: miter; stroke-miterlimit: 4; is-custom-font: none; font-file-url: none; fill: rgb(155,217,242); fill-rule: evenodd; opacity: 1;" transform=" translate(-503.0448, -407.5616)" d="M 528.5 405.5 C 529.434 406.568 529.768 407.901 529.5 409.5 C 511.659 409.83 493.992 409.497 476.5 408.5 C 493.833 408.5 511.167 408.5 528.5 408.5 C 528.5 407.5 528.5 406.5 528.5 405.5 Z" stroke-linecap="round"/>
</g>
		<g transform="matrix(1 0 0 1 455.0449 -40.4384)">
<path style="stroke: none; stroke-width: 1; stroke-dasharray: none; stroke-linecap: butt; stroke-dashoffset: 0; stroke-linejoin: miter; stroke-miterlimit: 4; is-custom-font: none; font-file-url: none; fill: rgb(152,216,241); fill-rule: evenodd; opacity: 1;" transform=" translate(-1095.0449, -407.5616)" d="M 1120.5 405.5 C 1121.43 406.568 1121.77 407.901 1121.5 409.5 C 1103.66 409.83 1085.99 409.497 1068.5 408.5 C 1085.83 408.5 1103.17 408.5 1120.5 408.5 C 1120.5 407.5 1120.5 406.5 1120.5 405.5 Z" stroke-linecap="round"/>
</g>
		<g transform="matrix(1 0 0 1 -305.8776 -5.5363)">
<path style="stroke: none; stroke-width: 1; stroke-dasharray: none; stroke-linecap: butt; stroke-dashoffset: 0; stroke-linejoin: miter; stroke-miterlimit: 4; is-custom-font: none; font-file-url: none; fill: rgb(19,163,224); fill-rule: evenodd; opacity: 1;" transform=" translate(-334.1224, -442.4637)" d="M 328.5 423.5 C 338.438 423.402 348.271 424.069 358 425.5 C 358.82 436.743 358.653 447.91 357.5 459 C 346.941 461.312 336.275 461.979 325.5 461 C 312.011 457.529 307.177 449.029 311 435.5 C 315.117 428.868 320.95 424.868 328.5 423.5 Z" stroke-linecap="round"/>
</g>
		<g transform="matrix(1 0 0 1 -126.549 -19)">
<path style="stroke: none; stroke-width: 1; stroke-dasharray: none; stroke-linecap: butt; stroke-dashoffset: 0; stroke-linejoin: miter; stroke-miterlimit: 4; is-custom-font: none; font-file-url: none; fill: rgb(180,227,245); fill-rule: evenodd; opacity: 1;" transform=" translate(-513.451, -429)" d="M 551.5 426.5 C 526.672 427.498 501.672 427.831 476.5 427.5 C 476.5 428.833 476.5 430.167 476.5 431.5 C 475.549 430.081 475.216 428.415 475.5 426.5 C 500.833 426.5 526.167 426.5 551.5 426.5 Z" stroke-linecap="round"/>
</g>
</g>
</g>
</svg>