<?xml version="1.0" encoding="UTF-8"?>
<!DOCTYPE svg PUBLIC "-//W3C//DTD SVG 1.1//EN" "http://www.w3.org/Graphics/SVG/1.1/DTD/svg11.dtd">
<svg xmlns="http://www.w3.org/2000/svg" version="1.1" width="1000px" height="1000px" style="shape-rendering:geometricPrecision; text-rendering:geometricPrecision; image-rendering:optimizeQuality; fill-rule:evenodd; clip-rule:evenodd" xmlns:xlink="http://www.w3.org/1999/xlink">
<g><path style="opacity:0.981" fill="#00f0e9" d="M 652.5,81.5 C 652.167,82.1667 651.833,82.8333 651.5,83.5C 615.5,83.5 579.5,83.5 543.5,83.5C 543.667,285.167 543.5,486.834 543,688.5C 534.447,745.047 502.947,781.88 448.5,799C 399.413,809.113 357.579,796.28 323,760.5C 320.642,757.778 318.809,754.778 317.5,751.5C 364.26,772.878 408.594,768.711 450.5,739C 479.937,715.077 495.937,684.077 498.5,646C 498.496,446.606 498.496,247.106 498.5,47.5C 549.167,47.5 599.833,47.5 650.5,47.5C 650.2,58.9016 650.867,70.2349 652.5,81.5 Z"/></g>
<g><path style="opacity:0.96" fill="#fc004c" d="M 652.5,81.5 C 666.079,81.177 679.579,81.5103 693,82.5C 693.747,136.269 711.913,182.936 747.5,222.5C 747.5,222.833 747.5,223.167 747.5,223.5C 743.437,221.632 739.437,219.465 735.5,217C 690.435,183.129 662.435,138.629 651.5,83.5C 651.833,82.8333 652.167,82.1667 652.5,81.5 Z"/></g>
<g><path style="opacity:1" fill="#000000" d="M 651.5,83.5 C 662.435,138.629 690.435,183.129 735.5,217C 739.437,219.465 743.437,221.632 747.5,223.5C 753.605,231.44 760.605,238.607 768.5,245C 794.301,266.065 823.635,279.898 856.5,286.5C 856.5,325.5 856.5,364.5 856.5,403.5C 781.167,403.382 712.833,382.049 651.5,339.5C 651.5,338.833 651.167,338.5 650.5,338.5C 650.44,337.957 650.107,337.624 649.5,337.5C 648.5,441.498 648.167,545.498 648.5,649.5C 648.5,653.5 648.5,657.5 648.5,661.5C 636.761,767.189 583.427,843.689 488.5,891C 459.407,903.69 429.074,911.523 397.5,914.5C 381.501,915.809 365.501,915.809 349.5,914.5C 318.246,911.548 288.246,903.715 259.5,891C 246.62,884.396 233.953,877.563 221.5,870.5C 221.167,870.5 220.833,870.5 220.5,870.5C 220.649,869.448 220.483,868.448 220,867.5C 177.75,822.806 152.75,769.806 145,708.5C 136.465,595.636 178.631,507.469 271.5,444C 302.39,425.058 335.723,412.558 371.5,406.5C 377.72,406.043 383.72,405.043 389.5,403.5C 397.17,403.222 404.836,402.889 412.5,402.5C 412.5,402.833 412.5,403.167 412.5,403.5C 411.501,441.996 411.168,480.663 411.5,519.5C 410.167,519.5 408.833,519.5 407.5,519.5C 346.049,506.257 298.215,525.923 264,578.5C 238.868,630.1 243.868,678.433 279,723.5C 288.673,733.847 299.506,742.681 311.5,750C 313.345,751.128 315.345,751.628 317.5,751.5C 318.809,754.778 320.642,757.778 323,760.5C 357.579,796.28 399.413,809.113 448.5,799C 502.947,781.88 534.447,745.047 543,688.5C 543.5,486.834 543.667,285.167 543.5,83.5C 579.5,83.5 615.5,83.5 651.5,83.5 Z"/></g>
<g><path style="opacity:0.962" fill="#00ede6" d="M 747.5,222.5 C 780.924,243.694 817.59,254.028 857.5,253.5C 857.5,264.5 857.5,275.5 857.5,286.5C 857.167,286.5 856.833,286.5 856.5,286.5C 823.635,279.898 794.301,266.065 768.5,245C 760.605,238.607 753.605,231.44 747.5,223.5C 747.5,223.167 747.5,222.833 747.5,222.5 Z"/></g>
<g><path style="opacity:0.982" fill="#fd004d" d="M 856.5,286.5 C 856.833,286.5 857.167,286.5 857.5,286.5C 871.422,288.447 885.422,289.447 899.5,289.5C 899.5,340.167 899.5,390.833 899.5,441.5C 824.203,440.788 755.703,419.121 694,376.5C 693.667,482.5 693.333,588.5 693,694.5C 687.104,772.963 654.604,837.797 595.5,889C 533.462,938.885 462.462,959.552 382.5,951C 334.171,944.239 290.505,926.572 251.5,898C 240.478,889.982 230.478,880.815 221.5,870.5C 233.953,877.563 246.62,884.396 259.5,891C 288.246,903.715 318.246,911.548 349.5,914.5C 350.952,915.302 352.618,915.802 354.5,916C 367.167,916.667 379.833,916.667 392.5,916C 394.382,915.802 396.048,915.302 397.5,914.5C 429.074,911.523 459.407,903.69 488.5,891C 583.427,843.689 636.761,767.189 648.5,661.5C 649.321,658.359 649.821,655.025 650,651.5C 650.167,547.333 650.667,443.333 651.5,339.5C 712.833,382.049 781.167,403.382 856.5,403.5C 856.5,364.5 856.5,325.5 856.5,286.5 Z"/></g>
<g><path style="opacity:0.914" fill="#480317" d="M 650.5,338.5 C 649.833,442.167 649.167,545.833 648.5,649.5C 648.167,545.498 648.5,441.498 649.5,337.5C 650.107,337.624 650.44,337.957 650.5,338.5 Z"/></g>
<g><path style="opacity:0.949" fill="#d7003f" d="M 650.5,338.5 C 651.167,338.5 651.5,338.833 651.5,339.5C 650.667,443.333 650.167,547.333 650,651.5C 649.821,655.025 649.321,658.359 648.5,661.5C 648.5,657.5 648.5,653.5 648.5,649.5C 649.167,545.833 649.833,442.167 650.5,338.5 Z"/></g>
<g><path style="opacity:0.991" fill="#00f0e9" d="M 413.5,401.5 C 412.833,401.5 412.5,401.833 412.5,402.5C 404.836,402.889 397.17,403.222 389.5,403.5C 383.217,403.585 377.217,404.585 371.5,406.5C 335.723,412.558 302.39,425.058 271.5,444C 178.631,507.469 136.465,595.636 145,708.5C 152.75,769.806 177.75,822.806 220,867.5C 220.483,868.448 220.649,869.448 220.5,870.5C 128.847,804.138 89.0141,714.138 101,600.5C 116.52,510.544 163.687,443.044 242.5,398C 296.115,369.477 352.948,359.643 413,368.5C 413.5,379.495 413.667,390.495 413.5,401.5 Z"/></g>
<g><path style="opacity:0.98" fill="#fd004c" d="M 413.5,401.5 C 427.062,401.1 440.562,401.766 454,403.5C 455.326,403.755 456.326,404.422 457,405.5C 457.667,455.833 457.667,506.167 457,556.5C 456.692,557.308 456.192,557.975 455.5,558.5C 419.032,546.725 384.366,550.891 351.5,571C 313.944,596.09 294.277,631.423 292.5,677C 293.485,698.786 298.985,719.286 309,738.5C 312.087,742.737 314.92,747.07 317.5,751.5C 315.345,751.628 313.345,751.128 311.5,750C 299.506,742.681 288.673,733.847 279,723.5C 243.868,678.433 238.868,630.1 264,578.5C 298.215,525.923 346.049,506.257 407.5,519.5C 408.919,520.451 410.585,520.784 412.5,520.5C 412.5,481.5 412.5,442.5 412.5,403.5C 412.5,403.167 412.5,402.833 412.5,402.5C 412.5,401.833 412.833,401.5 413.5,401.5 Z"/></g>
<g><path style="opacity:0.918" fill="#00817d" d="M 389.5,403.5 C 383.72,405.043 377.72,406.043 371.5,406.5C 377.217,404.585 383.217,403.585 389.5,403.5 Z"/></g>
<g><path style="opacity:0.882" fill="#550116" d="M 412.5,403.5 C 412.5,442.5 412.5,481.5 412.5,520.5C 410.585,520.784 408.919,520.451 407.5,519.5C 408.833,519.5 410.167,519.5 411.5,519.5C 411.168,480.663 411.501,441.996 412.5,403.5 Z"/></g>
<g><path style="opacity:0.982" fill="#b40036" d="M 349.5,914.5 C 365.501,915.809 381.501,915.809 397.5,914.5C 396.048,915.302 394.382,915.802 392.5,916C 379.833,916.667 367.167,916.667 354.5,916C 352.618,915.802 350.952,915.302 349.5,914.5 Z"/></g>
</svg>
