<svg xmlns="http://www.w3.org/2000/svg" xmlns:xlink="http://www.w3.org/1999/xlink" version="1.1" width="1000" height="1000" viewBox="0 0 1000 1000" xml:space="preserve">
<desc>Created with Fabric.js 3.5.0</desc>
<defs>
</defs>
<rect x="0" y="0" width="100%" height="100%" fill="rgba(255,255,255,0)"/>
<g transform="matrix(1 0 0 1 500 500)" id="932144">
<g style="" vector-effect="non-scaling-stroke">
		<g transform="matrix(1 0 0 1 -0.5 -2.5)">
<path style="stroke: none; stroke-width: 1; stroke-dasharray: none; stroke-linecap: butt; stroke-dashoffset: 0; stroke-linejoin: miter; stroke-miterlimit: 4; is-custom-font: none; font-file-url: none; fill: rgb(254,254,255); fill-rule: evenodd; opacity: 0.004;" transform=" translate(-449.5, -447.5)" d="M -0.5 -0.5 C 299.5 -0.5 599.5 -0.5 899.5 -0.5 C 899.5 298.167 899.5 596.833 899.5 895.5 C 599.5 895.5 299.5 895.5 -0.5 895.5 C -0.5 596.833 -0.5 298.167 -0.5 -0.5 Z" stroke-linecap="round"/>
</g>
		<g transform="matrix(1 0 0 1 307.5 -355.75)">
<path style="stroke: none; stroke-width: 1; stroke-dasharray: none; stroke-linecap: butt; stroke-dashoffset: 0; stroke-linejoin: miter; stroke-miterlimit: 4; is-custom-font: none; font-file-url: none; fill: rgb(50,57,214); fill-rule: evenodd; opacity: 0.922;" transform=" translate(-757.5, -94.25)" d="M 767.5 91.5 C 762.702 90.9319 758.702 92.4319 755.5 96 C 752.898 97.1396 750.231 97.9729 747.5 98.5 C 753.149 93.9877 759.482 91.1544 766.5 90 C 767.056 90.3826 767.389 90.8826 767.5 91.5 Z" stroke-linecap="round"/>
</g>
		<g transform="matrix(1 0 0 1 -40.9609 -17.5)">
<path style="stroke: none; stroke-width: 1; stroke-dasharray: none; stroke-linecap: butt; stroke-dashoffset: 0; stroke-linejoin: miter; stroke-miterlimit: 4; is-custom-font: none; font-file-url: none; fill: rgb(49,34,253); fill-rule: evenodd; opacity: 1;" transform=" translate(-409.0391, -432.5)" d="M 366.5 110.5 C 366.828 113.172 368.328 114.839 371 115.5 C 371.333 228.167 371.667 340.833 372 453.5 C 372.198 455.382 372.698 457.048 373.5 458.5 C 375.755 495.949 388.421 529.283 411.5 558.5 C 412.184 561.028 413.518 563.195 415.5 565 C 414.833 566.333 413.833 567.333 412.5 568 C 414.313 567.954 415.979 568.12 417.5 568.5 C 418.429 569.689 418.762 571.022 418.5 572.5 C 422.425 573.241 425.425 575.408 427.5 579 C 428.448 579.483 429.448 579.649 430.5 579.5 C 459.92 606.044 494.253 623.378 533.5 631.5 C 534.659 633.377 536.326 633.877 538.5 633 C 539.713 630.313 540.38 627.48 540.5 624.5 C 545.466 610.939 549.8 597.272 553.5 583.5 C 552.332 592.159 552.332 600.826 553.5 609.5 C 550.724 609.089 550.057 609.922 551.5 612 C 551.37 613.059 550.87 613.892 550 614.5 C 548.434 610.765 547.267 610.765 546.5 614.5 C 546.967 617.148 548.134 619.481 550 621.5 C 554.057 615.865 555.557 609.698 554.5 603 C 555.126 602.25 555.626 601.416 556 600.5 C 556.667 601.833 557.333 601.833 558 600.5 C 558.684 599.216 558.517 598.049 557.5 597 C 558.428 596.612 559.095 595.945 559.5 595 C 557.208 591.565 557.041 588.065 559 584.5 C 559.333 584.833 559.667 585.167 560 585.5 C 562.208 582.15 562.708 578.65 561.5 575 C 562.227 573.601 562.727 572.101 563 570.5 C 563.49 571.793 563.657 573.127 563.5 574.5 C 564.5 574.5 565.5 574.5 566.5 574.5 C 565.96 569.706 565.793 564.706 566 559.5 C 566.667 563.5 567.333 563.5 568 559.5 C 568.41 554.491 568.91 549.491 569.5 544.5 C 568.552 540.438 568.219 536.438 568.5 532.5 C 569.296 519.859 569.796 507.193 570 494.5 C 570.333 497.5 570.667 500.5 571 503.5 C 574.049 490.351 575.215 477.017 574.5 463.5 C 573.5 463.5 572.5 463.5 571.5 463.5 C 571.5 460.833 571.5 458.167 571.5 455.5 C 572.5 455.5 573.5 455.5 574.5 455.5 C 574.253 448.112 574.753 440.779 576 433.5 C 576.333 440.167 576.667 446.833 577 453.5 C 577.998 450.972 578.831 450.972 579.5 453.5 C 580.008 460.897 581.008 468.231 582.5 475.5 C 582.213 477.486 581.547 479.32 580.5 481 C 580.801 488.905 581.801 496.571 583.5 504 C 581.221 507.396 581.054 510.562 583 513.5 C 583.667 512.833 584.333 512.167 585 511.5 C 585.389 500.823 585.889 490.156 586.5 479.5 C 585.5 479.5 584.5 479.5 583.5 479.5 C 583.493 475.525 584.493 471.859 586.5 468.5 C 586.368 466.399 585.368 464.899 583.5 464 C 587.247 459.091 588.247 453.591 586.5 447.5 C 587.001 440.817 587.668 434.151 588.5 427.5 C 590.016 426.196 590.682 426.696 590.5 429 C 590.755 448.44 590.755 467.606 590.5 486.5 C 591.16 497.489 591.994 508.489 593 519.5 C 593.667 516.833 594.333 514.167 595 511.5 C 595.214 531.514 595.714 551.514 596.5 571.5 C 596.449 573.1 596.116 574.6 595.5 576 C 596.715 578.096 597.549 577.929 598 575.5 C 598.333 575.833 598.667 576.167 599 576.5 C 599.333 523.167 599.667 469.833 600 416.5 C 600.333 416.167 600.667 415.833 601 415.5 C 601.333 420.833 601.667 426.167 602 431.5 C 602.5 423.507 602.666 415.507 602.5 407.5 C 603.167 447.833 603.833 488.167 604.5 528.5 C 604.87 550.57 604.037 572.57 602 594.5 C 599.545 606.529 597.045 618.529 594.5 630.5 C 601.241 630.962 607.241 629.296 612.5 625.5 C 612.833 625.5 613.167 625.5 613.5 625.5 C 618.57 625.075 623.57 624.241 628.5 623 C 637.561 618.47 646.561 613.97 655.5 609.5 C 669.619 602.274 683.286 594.274 696.5 585.5 C 698.823 584.222 701.323 583.222 704 582.5 C 706.073 582.761 708.073 582.761 710 582.5 C 711.997 581.328 713.83 579.995 715.5 578.5 C 718.492 578.809 719.825 580.476 719.5 583.5 C 717.856 583.286 716.356 583.62 715 584.5 C 714.383 585.449 714.549 586.282 715.5 587 C 712.993 589.576 710.66 592.243 708.5 595 C 708.957 595.414 709.291 595.914 709.5 596.5 C 707.704 597.141 706.204 598.141 705 599.5 C 703.312 597.152 701.478 596.985 699.5 599 C 699.833 599.333 700.167 599.667 700.5 600 C 699.5 603.667 697.167 606 693.5 607 C 695.107 608.049 695.773 609.549 695.5 611.5 C 698.434 612.288 701.434 612.954 704.5 613.5 C 712.635 609.969 713.801 610.969 708 616.5 C 707.517 617.448 707.351 618.448 707.5 619.5 C 704.938 620.371 702.272 620.371 699.5 619.5 C 699.5 620.833 699.5 622.167 699.5 623.5 C 695.455 623.642 691.621 623.642 688 623.5 C 687.514 627.987 685.514 628.654 682 625.5 C 680.949 630.634 677.449 633.967 671.5 635.5 C 671.33 636.822 671.663 637.989 672.5 639 C 668.641 639.109 665.975 640.942 664.5 644.5 C 663.749 643.624 663.249 642.624 663 641.5 C 661.282 642.85 659.448 644.017 657.5 645 C 658.668 646.406 658.335 647.572 656.5 648.5 C 657.59 649.609 657.59 650.609 656.5 651.5 C 653.788 649.74 650.788 649.073 647.5 649.5 C 647.703 651.39 647.037 652.89 645.5 654 C 646.167 654.333 646.833 654.667 647.5 655 C 644.332 655.582 643.999 656.582 646.5 658 C 643.855 659.287 642.855 661.453 643.5 664.5 C 641.938 664.733 640.605 665.4 639.5 666.5 C 639.5 665.5 639.5 664.5 639.5 663.5 C 642.558 663.374 642.891 661.874 640.5 659 C 641.973 658.29 642.64 657.124 642.5 655.5 C 638.062 654.425 636.062 656.092 636.5 660.5 C 634.54 661.138 632.707 661.138 631 660.5 C 630.517 661.448 630.351 662.448 630.5 663.5 C 629.167 663.5 627.833 663.5 626.5 663.5 C 626.716 665.681 625.883 667.347 624 668.5 C 623.667 667.5 623.333 666.5 623 665.5 C 617.8 669.18 611.967 671.513 605.5 672.5 C 604.5 674.5 603.5 676.5 602.5 678.5 C 599.914 679.48 597.247 679.813 594.5 679.5 C 594.778 681.346 594.111 682.68 592.5 683.5 C 589.702 682.047 586.702 681.047 583.5 680.5 C 586.086 679.52 588.753 679.187 591.5 679.5 C 591.5 678.167 591.5 676.833 591.5 675.5 C 583.344 676.874 575.178 678.207 567 679.5 C 559.992 679.494 554.326 676.828 550 671.5 C 548.22 673.346 546.22 675.013 544 676.5 C 543.517 677.448 543.351 678.448 543.5 679.5 C 542.5 679.5 541.5 679.5 540.5 679.5 C 540.5 678.5 540.5 677.5 540.5 676.5 C 536.276 674.942 532.276 672.942 528.5 670.5 C 528.833 669.5 529.5 668.833 530.5 668.5 C 531.609 669.59 532.609 669.59 533.5 668.5 C 532.5 667.5 531.5 666.5 530.5 665.5 C 528.418 667.601 526.584 669.935 525 672.5 C 524.5 672 524 671.5 523.5 671 C 527.223 669.635 527.223 667.968 523.5 666 C 524.328 665.085 525.328 664.419 526.5 664 C 519.833 664.532 513.166 664.032 506.5 662.5 C 505.833 662.833 505.167 663.167 504.5 663.5 C 503.904 662.284 503.737 660.951 504 659.5 C 503.261 660.574 502.261 661.241 501 661.5 C 491.492 659.284 482.326 657.284 473.5 655.5 C 468.975 656.564 464.809 655.564 461 652.5 C 460.689 651.258 461.189 650.258 462.5 649.5 C 460.159 648.288 457.993 648.622 456 650.5 C 455.25 649.874 454.416 649.374 453.5 649 C 455.087 648.138 456.754 647.471 458.5 647 C 456.579 646.64 454.912 645.806 453.5 644.5 C 451.941 645.447 450.274 646.113 448.5 646.5 C 446.823 645.813 445.156 645.146 443.5 644.5 C 443.179 642.952 442.179 642.285 440.5 642.5 C 440.281 641.325 440.614 640.325 441.5 639.5 C 443.409 638.652 445.409 638.318 447.5 638.5 C 447.5 636.833 447.5 635.167 447.5 633.5 C 444.482 633.665 441.482 633.498 438.5 633 C 437.167 631.667 437.167 630.333 438.5 629 C 437.033 627.902 436.199 626.402 436 624.5 C 435 625.167 434 625.833 433 626.5 C 431 624.5 429 622.5 427 620.5 C 426.667 620.833 426.333 621.167 426 621.5 C 425.51 620.207 425.343 618.873 425.5 617.5 C 422.305 618.039 419.805 617.039 418 614.5 C 417.667 614.833 417.333 615.167 417 615.5 C 416 613.833 414.667 612.5 413 611.5 C 412.508 610.451 412.674 609.451 413.5 608.5 C 411.799 608.81 410.132 608.31 408.5 607 C 408.833 606.667 409.167 606.333 409.5 606 C 408.062 605.781 406.729 605.281 405.5 604.5 C 404.359 603.575 404.359 602.741 405.5 602 C 404.24 600.887 403.073 600.72 402 601.5 C 400.915 600.707 399.748 600.04 398.5 599.5 C 392.415 602.154 392.081 601.154 397.5 596.5 C 395.371 594.344 393.038 592.677 390.5 591.5 C 390.034 589.799 390.034 588.299 390.5 587 C 388.69 585.39 386.69 584.223 384.5 583.5 C 383.774 579.352 381.607 576.352 378 574.5 C 377.316 573.216 377.483 572.049 378.5 571 C 376.941 570.02 375.274 569.187 373.5 568.5 C 372.167 567.5 372.167 566.5 373.5 565.5 C 372.5 564.5 371.5 563.5 370.5 562.5 C 369.28 562.887 368.613 563.72 368.5 565 C 369.205 566.422 369.539 567.755 369.5 569 C 366.706 569.024 365.039 567.524 364.5 564.5 C 365.922 561.654 365.256 559.32 362.5 557.5 C 361.808 558.025 361.308 558.692 361 559.5 C 358.512 555.789 357.012 552.455 356.5 549.5 C 357.5 549.5 358.5 549.5 359.5 549.5 C 359.5 548.5 359.5 547.5 359.5 546.5 C 357.857 546.48 356.524 547.147 355.5 548.5 C 354.422 546.539 353.089 544.872 351.5 543.5 C 343.403 528.494 337.736 512.494 334.5 495.5 C 333.552 486.773 332.385 478.106 331 469.5 C 330.667 460.833 330.333 452.167 330 443.5 C 329.833 342.666 329.333 241.999 328.5 141.5 C 326.901 141.232 325.568 141.566 324.5 142.5 C 317.403 147.558 310.07 152.392 302.5 157 C 249.509 187.829 196.509 218.663 143.5 249.5 C 142.334 356.999 142.167 464.666 143 572.5 C 143.522 575.281 144.689 577.615 146.5 579.5 C 162.974 652.286 204.641 704.953 271.5 737.5 C 262.252 734.425 253.085 731.092 244 727.5 C 243.5 727.667 243 727.833 242.5 728 C 245.154 730.072 244.82 731.739 241.5 733 C 242.624 733.249 243.624 733.749 244.5 734.5 C 242.149 734.98 239.815 735.314 237.5 735.5 C 232.763 733.259 228.429 730.425 224.5 727 C 225.711 726.107 225.711 725.274 224.5 724.5 C 223.707 724.931 222.873 725.265 222 725.5 C 220.263 724.38 218.429 723.38 216.5 722.5 C 215.249 725.879 216.249 728.546 219.5 730.5 C 221.396 731.466 223.396 731.799 225.5 731.5 C 225.167 735.833 227.167 737.833 231.5 737.5 C 231.5 738.833 231.5 740.167 231.5 741.5 C 233.604 741.201 235.604 741.534 237.5 742.5 C 236.624 743.251 235.624 743.751 234.5 744 C 235.337 745.011 235.67 746.178 235.5 747.5 C 239.334 748.823 243.334 749.823 247.5 750.5 C 244.291 751.787 241.125 751.787 238 750.5 C 236.933 751.191 235.766 751.691 234.5 752 C 236.772 752.941 238.772 754.274 240.5 756 C 242.134 756.494 243.801 756.66 245.5 756.5 C 245.5 757.5 245.5 758.5 245.5 759.5 C 247.927 759.523 250.26 760.023 252.5 761 C 252.833 762 253.167 763 253.5 764 C 256.882 764.176 260.215 764.676 263.5 765.5 C 263.291 766.086 262.957 766.586 262.5 767 C 264.256 767.202 265.922 767.702 267.5 768.5 C 265.672 769.795 263.672 770.795 261.5 771.5 C 265.81 776.078 264.144 777.578 256.5 776 C 256.833 775.667 257.167 775.333 257.5 775 C 255.285 774.31 253.118 773.476 251 772.5 C 250.167 772.833 249.333 773.167 248.5 773.5 C 250.826 774.145 252.493 775.478 253.5 777.5 C 209.178 758.357 173.011 729.023 145 689.5 C 125.083 660.288 111.25 628.288 103.5 593.5 C 103.706 590.505 103.04 587.838 101.5 585.5 C 100.573 579.866 99.9067 574.199 99.5 568.5 C 98.4039 453.503 98.2372 338.503 99 223.5 C 99.7083 222.619 100.542 221.953 101.5 221.5 C 100.337 336.46 100.171 451.46 101 566.5 C 101.52 574.666 102.853 582.666 105 590.5 C 105.371 586.238 106.204 582.071 107.5 578 C 107.37 576.941 106.87 576.108 106 575.5 C 105.839 566.783 105.173 558.116 104 549.5 C 103.18 556.118 102.68 556.118 102.5 549.5 C 102.288 546.989 102.955 544.822 104.5 543 C 102.48 540.71 102.48 538.21 104.5 535.5 C 106.46 543.386 107.794 551.386 108.5 559.5 C 109.806 560.912 110.64 562.579 111 564.5 C 112.609 563.853 114.109 563.02 115.5 562 C 110.897 559.259 110.897 556.093 115.5 552.5 C 114.617 551.452 113.95 550.285 113.5 549 C 114.829 547.34 115.829 545.507 116.5 543.5 C 115.594 539.492 114.594 535.492 113.5 531.5 C 114.578 518.147 114.244 504.813 112.5 491.5 C 114.498 475.529 114.832 459.529 113.5 443.5 C 115.69 415.529 116.023 387.529 114.5 359.5 C 115.084 335.803 116.084 312.136 117.5 288.5 C 117.352 282.953 117.019 277.453 116.5 272 C 117.167 271.667 117.833 271.333 118.5 271 C 117.643 270.311 116.977 269.478 116.5 268.5 C 117.695 267.033 117.695 265.533 116.5 264 C 118.095 257.295 119.095 250.461 119.5 243.5 C 118.128 240.668 117.128 237.668 116.5 234.5 C 117.453 232.545 118.787 230.878 120.5 229.5 C 121.192 230.025 121.692 230.692 122 231.5 C 123.252 229.999 124.252 228.332 125 226.5 C 125.333 226.833 125.667 227.167 126 227.5 C 127.852 224.892 127.686 222.559 125.5 220.5 C 127.791 220.123 129.958 220.123 132 220.5 C 133.585 219.624 134.585 218.291 135 216.5 C 136.073 217.28 137.24 217.113 138.5 216 C 138.167 215.667 137.833 215.333 137.5 215 C 140.363 213.636 142.363 211.47 143.5 208.5 C 148.817 207.157 148.817 205.823 143.5 204.5 C 139.596 206.907 135.596 206.907 131.5 204.5 C 128.941 206.233 126.275 207.733 123.5 209 C 124.76 210.814 124.76 212.647 123.5 214.5 C 121.224 215.213 118.891 215.713 116.5 216 C 115.663 217.011 115.33 218.178 115.5 219.5 C 114.167 219.5 112.833 219.5 111.5 219.5 C 111.778 221.346 111.111 222.68 109.5 223.5 C 107.979 223.12 106.313 222.954 104.5 223 C 106.927 221.446 106.927 220.279 104.5 219.5 C 104.5 219.167 104.5 218.833 104.5 218.5 C 177.469 175.013 250.469 131.513 323.5 88 C 325.5 87.3333 327.5 87.3333 329.5 88 C 341.719 95.7256 354.052 103.226 366.5 110.5 Z" stroke-linecap="round"/>
</g>
		<g transform="matrix(1 0 0 1 237 -192.5585)">
<path style="stroke: none; stroke-width: 1; stroke-dasharray: none; stroke-linecap: butt; stroke-dashoffset: 0; stroke-linejoin: miter; stroke-miterlimit: 4; is-custom-font: none; font-file-url: none; fill: rgb(49,34,252); fill-rule: evenodd; opacity: 1;" transform=" translate(-687, -257.4415)" d="M 767.5 91.5 C 775.836 95.6653 783.836 100.332 791.5 105.5 C 794.297 108.12 797.297 110.62 800.5 113 C 799.289 113.893 799.289 114.726 800.5 115.5 C 805.711 114.106 808.378 116.106 808.5 121.5 C 804.371 119.551 800.038 118.717 795.5 119 C 797.037 120.11 797.703 121.61 797.5 123.5 C 798.833 123.5 800.167 123.5 801.5 123.5 C 799.278 129.847 799.945 136.014 803.5 142 C 801.934 144.93 801.1 148.097 801 151.5 C 800.667 150.167 800.333 148.833 800 147.5 C 799.289 149.899 799.456 152.232 800.5 154.5 C 800.023 157.836 799.023 161.002 797.5 164 C 799.228 188.75 799.228 197.917 797.5 191.5 C 796.5 191.5 795.5 191.5 794.5 191.5 C 794.06 204.661 793.727 217.828 793.5 231 C 795.207 252.266 795.873 273.599 795.5 295 C 794.744 319.159 794.244 343.325 794 367.5 C 791.133 381.702 790.133 396.035 791 410.5 C 791.333 402.5 791.667 394.5 792 386.5 C 792.638 387.609 793.138 388.775 793.5 390 C 792.281 401.152 792.281 412.319 793.5 423.5 C 791.5 423.5 789.5 423.5 787.5 423.5 C 787.5 402.167 787.5 380.833 787.5 359.5 C 788.5 359.5 789.5 359.5 790.5 359.5 C 790.334 364.844 790.501 370.177 791 375.5 C 791.833 355.5 792.667 335.5 793.5 315.5 C 792.666 306.165 791.833 296.832 791 287.5 C 790.667 292.5 790.333 297.5 790 302.5 C 789.899 293.258 789.066 284.092 787.5 275 C 787.717 240.725 787.717 206.559 787.5 172.5 C 789.312 164.532 791.479 164.532 794 172.5 C 795.748 168.984 795.915 165.317 794.5 161.5 C 793.167 160.833 791.833 160.167 790.5 159.5 C 789.167 160.167 787.833 160.833 786.5 161.5 C 785.459 159.009 784.626 159.009 784 161.5 C 783.667 161.167 783.333 160.833 783 160.5 C 783.871 165.391 784.371 170.391 784.5 175.5 C 784.483 186.075 783.817 186.075 782.5 175.5 C 781.668 185.483 781.168 195.483 781 205.5 C 780.667 191.833 780.333 178.167 780 164.5 C 779.5 163.5 779 162.5 778.5 161.5 C 779.219 158.687 779.886 155.854 780.5 153 C 779.057 148.963 778.224 144.797 778 140.5 C 776.419 137.447 774.086 136.78 771 138.5 C 769.915 137.707 768.748 137.04 767.5 136.5 C 767.036 137.636 766.702 138.636 766.5 139.5 C 765.833 139.5 765.167 139.5 764.5 139.5 C 721.668 162.083 678.668 184.416 635.5 206.5 C 632.113 207.018 628.779 207.851 625.5 209 C 624.027 209.71 623.36 210.876 623.5 212.5 C 620.513 213.258 617.513 214.091 614.5 215 C 612.894 218.305 610.227 219.805 606.5 219.5 C 606.5 220.5 606.5 221.5 606.5 222.5 C 603.09 222.384 601.756 224.05 602.5 227.5 C 601.839 228.718 601.172 230.051 600.5 231.5 C 598.855 229.075 597.689 226.408 597 223.5 C 596.667 225.833 596.333 228.167 596 230.5 C 592.757 225.184 591.257 225.85 591.5 232.5 C 591.54 234.429 591.873 236.262 592.5 238 C 590.986 240.587 590.32 243.42 590.5 246.5 C 591.466 255.155 591.633 263.821 591 272.5 C 587.624 274.759 587.79 276.759 591.5 278.5 C 590.383 279.949 589.716 281.616 589.5 283.5 C 590.493 287.442 591.16 291.442 591.5 295.5 C 590.281 304.795 589.281 314.128 588.5 323.5 C 589.06 343.449 589.06 363.449 588.5 383.5 C 588.098 372.206 587.098 361.04 585.5 350 C 586.394 348.604 587.061 347.104 587.5 345.5 C 586.992 338.103 585.992 330.769 584.5 323.5 C 585.342 320.371 586.008 317.204 586.5 314 C 584.833 301.678 584.5 289.345 585.5 277 C 582.847 266.521 582.847 256.021 585.5 245.5 C 584.974 242.728 584.141 240.062 583 237.5 C 582.5 238 582 238.5 581.5 239 C 581.916 247.035 581.916 255.202 581.5 263.5 C 582.168 271.505 582.834 279.505 583.5 287.5 C 582.167 287.5 580.833 287.5 579.5 287.5 C 579.199 298.706 579.532 309.872 580.5 321 C 580.022 323.226 579.355 325.392 578.5 327.5 C 576.209 323.668 575.876 319.668 577.5 315.5 C 577.14 313.392 576.473 311.392 575.5 309.5 C 577.013 305.329 577.679 300.996 577.5 296.5 C 576.884 277.912 576.551 259.412 576.5 241 C 577.996 235.328 578.496 229.495 578 223.5 C 578.889 224.888 579.389 224.722 579.5 223 C 578.061 218.841 577.061 214.508 576.5 210 C 577.289 208.374 578.289 206.874 579.5 205.5 C 582.101 203.582 584.601 202.249 587 201.5 C 587.492 200.451 587.326 199.451 586.5 198.5 C 588.193 197.772 589.693 196.772 591 195.5 C 591.284 197.886 592.284 198.552 594 197.5 C 593.513 195.956 593.013 194.29 592.5 192.5 C 594.977 192.949 596.977 192.283 598.5 190.5 C 598.113 189.28 597.28 188.613 596 188.5 C 592.455 190.001 591.955 189.501 594.5 187 C 597.121 186.061 599.788 185.228 602.5 184.5 C 600.429 183.024 599.429 181.024 599.5 178.5 C 596.309 179.092 593.309 180.259 590.5 182 C 589.62 183.356 589.286 184.856 589.5 186.5 C 582.233 186.624 575.567 188.79 569.5 193 C 568.207 193.49 566.873 193.657 565.5 193.5 C 625.822 161.338 686.488 129.671 747.5 98.5 C 750.231 97.9729 752.898 97.1396 755.5 96 C 758.702 92.4319 762.702 90.9319 767.5 91.5 Z" stroke-linecap="round"/>
</g>
		<g transform="matrix(1 0 0 1 230.0313 -65.5)">
<path style="stroke: none; stroke-width: 1; stroke-dasharray: none; stroke-linecap: butt; stroke-dashoffset: 0; stroke-linejoin: miter; stroke-miterlimit: 4; is-custom-font: none; font-file-url: none; fill: rgb(254,254,255); fill-rule: evenodd; opacity: 0.004;" transform=" translate(-680.0313, -384.5)" d="M 764.5 139.5 C 764.667 250.167 764.5 360.834 764 471.5 C 760.41 492.438 753.91 512.438 744.5 531.5 C 740.121 537.901 735.954 544.568 732 551.5 C 727.333 556.833 722.667 562.167 718 567.5 C 710.643 573.364 703.476 579.364 696.5 585.5 C 683.286 594.274 669.619 602.274 655.5 609.5 C 641.503 615.051 627.503 620.385 613.5 625.5 C 613.167 625.5 612.833 625.5 612.5 625.5 C 606.586 626.08 600.92 627.414 595.5 629.5 C 600.211 613.493 603.378 597.16 605 580.5 C 605.5 546.835 605.667 513.168 605.5 479.5 C 604.845 394.502 604.512 309.502 604.5 224.5 C 605.167 223.833 605.833 223.167 606.5 222.5 C 616.657 217.924 626.323 212.591 635.5 206.5 C 678.668 184.416 721.668 162.083 764.5 139.5 Z" stroke-linecap="round"/>
</g>
		<g transform="matrix(1 0 0 1 -118.0514 -1.5654)">
<path style="stroke: none; stroke-width: 1; stroke-dasharray: none; stroke-linecap: butt; stroke-dashoffset: 0; stroke-linejoin: miter; stroke-miterlimit: 4; is-custom-font: none; font-file-url: none; fill: rgb(254,254,255); fill-rule: evenodd; opacity: 0.004;" transform=" translate(-331.9485, -448.4346)" d="M 324.5 142.5 C 325.5 142.5 326.5 142.5 327.5 142.5 C 327.5 144.833 327.5 147.167 327.5 149.5 C 326.334 249.332 326.168 349.332 327 449.5 C 327.191 451.708 327.691 453.708 328.5 455.5 C 329.119 469.171 331.119 482.505 334.5 495.5 C 337.736 512.494 343.403 528.494 351.5 543.5 C 354.441 550.715 357.941 557.715 362 564.5 C 379.702 592.335 401.869 616.169 428.5 636 C 433.23 639.364 438.23 642.197 443.5 644.5 C 446.754 647.471 450.42 649.971 454.5 652 C 474.98 663.039 496.647 670.873 519.5 675.5 C 520.583 676.365 520.749 677.365 520 678.5 C 515.019 683.316 510.185 688.316 505.5 693.5 C 501.833 696.5 498.5 699.833 495.5 703.5 C 481.241 714.307 466.241 724.141 450.5 733 C 436.366 738.787 422.032 744.12 407.5 749 C 399.902 749.856 392.569 751.356 385.5 753.5 C 366.138 754.929 346.805 754.596 327.5 752.5 C 308.252 750.02 289.585 745.02 271.5 737.5 C 204.641 704.953 162.974 652.286 146.5 579.5 C 145.227 572.228 144.394 564.895 144 557.5 C 143.5 454.834 143.333 352.167 143.5 249.5 C 196.509 218.663 249.509 187.829 302.5 157 C 310.07 152.392 317.403 147.558 324.5 142.5 Z" stroke-linecap="round"/>
</g>
		<g transform="matrix(1 0 0 1 -123.5 -155.5447)">
<path style="stroke: none; stroke-width: 1; stroke-dasharray: none; stroke-linecap: butt; stroke-dashoffset: 0; stroke-linejoin: miter; stroke-miterlimit: 4; is-custom-font: none; font-file-url: none; fill: rgb(112,101,248); fill-rule: evenodd; opacity: 0.146;" transform=" translate(-326.5, -294.4552)" d="M 324.5 142.5 C 325.568 141.566 326.901 141.232 328.5 141.5 C 328.5 243.5 328.5 345.5 328.5 447.5 C 327.501 348.335 327.167 249.001 327.5 149.5 C 327.5 147.167 327.5 144.833 327.5 142.5 C 326.5 142.5 325.5 142.5 324.5 142.5 Z" stroke-linecap="round"/>
</g>
		<g transform="matrix(1 0 0 1 171 -235.5)">
<path style="stroke: none; stroke-width: 1; stroke-dasharray: none; stroke-linecap: butt; stroke-dashoffset: 0; stroke-linejoin: miter; stroke-miterlimit: 4; is-custom-font: none; font-file-url: none; fill: rgb(55,42,222); fill-rule: evenodd; opacity: 0.949;" transform=" translate(-621, -214.5)" d="M 635.5 206.5 C 626.323 212.591 616.657 217.924 606.5 222.5 C 606.5 221.5 606.5 220.5 606.5 219.5 C 610.227 219.805 612.894 218.305 614.5 215 C 617.513 214.091 620.513 213.258 623.5 212.5 C 623.36 210.876 624.027 209.71 625.5 209 C 628.779 207.851 632.113 207.018 635.5 206.5 Z" stroke-linecap="round"/>
</g>
		<g transform="matrix(1 0 0 1 -326.0151 -52.5)">
<path style="stroke: none; stroke-width: 1; stroke-dasharray: none; stroke-linecap: butt; stroke-dashoffset: 0; stroke-linejoin: miter; stroke-miterlimit: 4; is-custom-font: none; font-file-url: none; fill: rgb(56,28,254); fill-rule: evenodd; opacity: 1;" transform=" translate(-123.9849, -397.5)" d="M 101.5 221.5 C 102.71 221.068 103.71 220.401 104.5 219.5 C 106.927 220.279 106.927 221.446 104.5 223 C 106.313 222.954 107.979 223.12 109.5 223.5 C 111.111 222.68 111.778 221.346 111.5 219.5 C 112.833 219.5 114.167 219.5 115.5 219.5 C 115.33 218.178 115.663 217.011 116.5 216 C 118.891 215.713 121.224 215.213 123.5 214.5 C 124.76 212.647 124.76 210.814 123.5 209 C 126.275 207.733 128.941 206.233 131.5 204.5 C 135.596 206.907 139.596 206.907 143.5 204.5 C 148.817 205.823 148.817 207.157 143.5 208.5 C 142.363 211.47 140.363 213.636 137.5 215 C 137.833 215.333 138.167 215.667 138.5 216 C 137.24 217.113 136.073 217.28 135 216.5 C 134.585 218.291 133.585 219.624 132 220.5 C 129.958 220.123 127.791 220.123 125.5 220.5 C 127.686 222.559 127.852 224.892 126 227.5 C 125.667 227.167 125.333 226.833 125 226.5 C 124.252 228.332 123.252 229.999 122 231.5 C 121.692 230.692 121.192 230.025 120.5 229.5 C 118.787 230.878 117.453 232.545 116.5 234.5 C 117.128 237.668 118.128 240.668 119.5 243.5 C 119.095 250.461 118.095 257.295 116.5 264 C 117.695 265.533 117.695 267.033 116.5 268.5 C 116.977 269.478 117.643 270.311 118.5 271 C 117.833 271.333 117.167 271.667 116.5 272 C 117.019 277.453 117.352 282.953 117.5 288.5 C 116.084 312.136 115.084 335.803 114.5 359.5 C 116.023 387.529 115.69 415.529 113.5 443.5 C 114.832 459.529 114.498 475.529 112.5 491.5 C 114.244 504.813 114.578 518.147 113.5 531.5 C 114.594 535.492 115.594 539.492 116.5 543.5 C 115.829 545.507 114.829 547.34 113.5 549 C 113.95 550.285 114.617 551.452 115.5 552.5 C 110.897 556.093 110.897 559.259 115.5 562 C 114.109 563.02 112.609 563.853 111 564.5 C 110.64 562.579 109.806 560.912 108.5 559.5 C 107.794 551.386 106.46 543.386 104.5 535.5 C 102.48 538.21 102.48 540.71 104.5 543 C 102.955 544.822 102.288 546.989 102.5 549.5 C 102.68 556.118 103.18 556.118 104 549.5 C 105.173 558.116 105.839 566.783 106 575.5 C 106.87 576.108 107.37 576.941 107.5 578 C 106.204 582.071 105.371 586.238 105 590.5 C 102.853 582.666 101.52 574.666 101 566.5 C 100.171 451.46 100.337 336.46 101.5 221.5 Z" stroke-linecap="round"/>
</g>
		<g transform="matrix(1 0 0 1 124.5311 -50)">
<path style="stroke: none; stroke-width: 1; stroke-dasharray: none; stroke-linecap: butt; stroke-dashoffset: 0; stroke-linejoin: miter; stroke-miterlimit: 4; is-custom-font: none; font-file-url: none; fill: rgb(48,31,254); fill-rule: evenodd; opacity: 1;" transform=" translate(-574.5311, -400)" d="M 602.5 227.5 C 602.5 287.5 602.5 347.5 602.5 407.5 C 602.666 415.507 602.5 423.507 602 431.5 C 601.667 426.167 601.333 420.833 601 415.5 C 600.667 415.833 600.333 416.167 600 416.5 C 599.667 469.833 599.333 523.167 599 576.5 C 598.667 576.167 598.333 575.833 598 575.5 C 597.549 577.929 596.715 578.096 595.5 576 C 596.116 574.6 596.449 573.1 596.5 571.5 C 595.714 551.514 595.214 531.514 595 511.5 C 594.333 514.167 593.667 516.833 593 519.5 C 591.994 508.489 591.16 497.489 590.5 486.5 C 590.755 467.606 590.755 448.44 590.5 429 C 590.682 426.696 590.016 426.196 588.5 427.5 C 587.668 434.151 587.001 440.817 586.5 447.5 C 588.247 453.591 587.247 459.091 583.5 464 C 585.368 464.899 586.368 466.399 586.5 468.5 C 584.493 471.859 583.493 475.525 583.5 479.5 C 584.5 479.5 585.5 479.5 586.5 479.5 C 585.889 490.156 585.389 500.823 585 511.5 C 584.333 512.167 583.667 512.833 583 513.5 C 581.054 510.562 581.221 507.396 583.5 504 C 581.801 496.571 580.801 488.905 580.5 481 C 581.547 479.32 582.213 477.486 582.5 475.5 C 581.008 468.231 580.008 460.897 579.5 453.5 C 578.831 450.972 577.998 450.972 577 453.5 C 576.667 446.833 576.333 440.167 576 433.5 C 574.753 440.779 574.253 448.112 574.5 455.5 C 573.5 455.5 572.5 455.5 571.5 455.5 C 571.5 458.167 571.5 460.833 571.5 463.5 C 572.5 463.5 573.5 463.5 574.5 463.5 C 575.215 477.017 574.049 490.351 571 503.5 C 570.667 500.5 570.333 497.5 570 494.5 C 569.796 507.193 569.296 519.859 568.5 532.5 C 568.219 536.438 568.552 540.438 569.5 544.5 C 568.91 549.491 568.41 554.491 568 559.5 C 567.333 563.5 566.667 563.5 566 559.5 C 565.793 564.706 565.96 569.706 566.5 574.5 C 565.5 574.5 564.5 574.5 563.5 574.5 C 563.657 573.127 563.49 571.793 563 570.5 C 562.727 572.101 562.227 573.601 561.5 575 C 562.708 578.65 562.208 582.15 560 585.5 C 559.667 585.167 559.333 584.833 559 584.5 C 557.041 588.065 557.208 591.565 559.5 595 C 559.095 595.945 558.428 596.612 557.5 597 C 558.517 598.049 558.684 599.216 558 600.5 C 557.333 601.833 556.667 601.833 556 600.5 C 555.626 601.416 555.126 602.25 554.5 603 C 555.557 609.698 554.057 615.865 550 621.5 C 548.134 619.481 546.967 617.148 546.5 614.5 C 547.267 610.765 548.434 610.765 550 614.5 C 550.87 613.892 551.37 613.059 551.5 612 C 550.057 609.922 550.724 609.089 553.5 609.5 C 552.332 600.826 552.332 592.159 553.5 583.5 C 553.5 583.167 553.5 582.833 553.5 582.5 C 554.15 582.196 554.817 581.863 555.5 581.5 C 556.29 572.714 557.79 564.047 560 555.5 C 559.468 436.503 559.468 317.503 560 198.5 C 562.374 197.369 564.208 195.702 565.5 193.5 C 566.873 193.657 568.207 193.49 569.5 193 C 575.567 188.79 582.233 186.624 589.5 186.5 C 589.286 184.856 589.62 183.356 590.5 182 C 593.309 180.259 596.309 179.092 599.5 178.5 C 599.429 181.024 600.429 183.024 602.5 184.5 C 599.788 185.228 597.121 186.061 594.5 187 C 591.955 189.501 592.455 190.001 596 188.5 C 597.28 188.613 598.113 189.28 598.5 190.5 C 596.977 192.283 594.977 192.949 592.5 192.5 C 593.013 194.29 593.513 195.956 594 197.5 C 592.284 198.552 591.284 197.886 591 195.5 C 589.693 196.772 588.193 197.772 586.5 198.5 C 587.326 199.451 587.492 200.451 587 201.5 C 584.601 202.249 582.101 203.582 579.5 205.5 C 578.289 206.874 577.289 208.374 576.5 210 C 577.061 214.508 578.061 218.841 579.5 223 C 579.389 224.722 578.889 224.888 578 223.5 C 578.496 229.495 577.996 235.328 576.5 241 C 576.551 259.412 576.884 277.912 577.5 296.5 C 577.679 300.996 577.013 305.329 575.5 309.5 C 576.473 311.392 577.14 313.392 577.5 315.5 C 575.876 319.668 576.209 323.668 578.5 327.5 C 579.355 325.392 580.022 323.226 580.5 321 C 579.532 309.872 579.199 298.706 579.5 287.5 C 580.833 287.5 582.167 287.5 583.5 287.5 C 582.834 279.505 582.168 271.505 581.5 263.5 C 581.916 255.202 581.916 247.035 581.5 239 C 582 238.5 582.5 238 583 237.5 C 584.141 240.062 584.974 242.728 585.5 245.5 C 582.847 256.021 582.847 266.521 585.5 277 C 584.5 289.345 584.833 301.678 586.5 314 C 586.008 317.204 585.342 320.371 584.5 323.5 C 585.992 330.769 586.992 338.103 587.5 345.5 C 587.061 347.104 586.394 348.604 585.5 350 C 587.098 361.04 588.098 372.206 588.5 383.5 C 589.06 363.449 589.06 343.449 588.5 323.5 C 589.281 314.128 590.281 304.795 591.5 295.5 C 591.16 291.442 590.493 287.442 589.5 283.5 C 589.716 281.616 590.383 279.949 591.5 278.5 C 587.79 276.759 587.624 274.759 591 272.5 C 591.633 263.821 591.466 255.155 590.5 246.5 C 590.32 243.42 590.986 240.587 592.5 238 C 591.873 236.262 591.54 234.429 591.5 232.5 C 591.257 225.85 592.757 225.184 596 230.5 C 596.333 228.167 596.667 225.833 597 223.5 C 597.689 226.408 598.855 229.075 600.5 231.5 C 601.172 230.051 601.839 228.718 602.5 227.5 Z" stroke-linecap="round"/>
</g>
		<g transform="matrix(1 0 0 1 108.9687 -75.0066)">
<path style="stroke: none; stroke-width: 1; stroke-dasharray: none; stroke-linecap: butt; stroke-dashoffset: 0; stroke-linejoin: miter; stroke-miterlimit: 4; is-custom-font: none; font-file-url: none; fill: rgb(87,94,241); fill-rule: evenodd; opacity: 0.247;" transform=" translate(-558.9687, -374.9934)" d="M 560.5 195.5 C 560.217 196.289 559.717 196.956 559 197.5 C 558.833 316.667 558.333 435.667 557.5 554.5 C 557.333 435.166 557.5 315.833 558 196.5 C 558.671 195.748 559.504 195.414 560.5 195.5 Z" stroke-linecap="round"/>
</g>
		<g transform="matrix(1 0 0 1 -79.9687 -165.5)">
<path style="stroke: none; stroke-width: 1; stroke-dasharray: none; stroke-linecap: butt; stroke-dashoffset: 0; stroke-linejoin: miter; stroke-miterlimit: 4; is-custom-font: none; font-file-url: none; fill: rgb(87,76,227); fill-rule: evenodd; opacity: 1;" transform=" translate(-370.0313, -284.5)" d="M 366.5 110.5 C 369.075 111.568 371.242 113.235 373 115.5 C 373.5 229.833 373.667 344.166 373.5 458.5 C 372.698 457.048 372.198 455.382 372 453.5 C 371.667 340.833 371.333 228.167 371 115.5 C 368.328 114.839 366.828 113.172 366.5 110.5 Z" stroke-linecap="round"/>
</g>
		<g transform="matrix(1 0 0 1 305.5313 -114.5)">
<path style="stroke: none; stroke-width: 1; stroke-dasharray: none; stroke-linecap: butt; stroke-dashoffset: 0; stroke-linejoin: miter; stroke-miterlimit: 4; is-custom-font: none; font-file-url: none; fill: rgb(74,64,229); fill-rule: evenodd; opacity: 1;" transform=" translate(-755.5313, -335.5)" d="M 764.5 139.5 C 765.167 139.5 765.833 139.5 766.5 139.5 C 766.667 250.834 766.5 362.167 766 473.5 C 764.792 479.355 763.959 485.355 763.5 491.5 C 764.167 492.833 764.833 494.167 765.5 495.5 C 764.1 497.925 762.934 497.592 762 494.5 C 757.883 503.367 754.383 512.534 751.5 522 C 755.338 521.58 755.504 522.747 752 525.5 C 751 525.5 750 525.5 749 525.5 C 748.536 526.094 748.369 526.761 748.5 527.5 C 747.607 529.297 746.274 530.63 744.5 531.5 C 753.91 512.438 760.41 492.438 764 471.5 C 764.5 360.834 764.667 250.167 764.5 139.5 Z" stroke-linecap="round"/>
</g>
		<g transform="matrix(1 0 0 1 -122.5101 -147.5)">
<path style="stroke: none; stroke-width: 1; stroke-dasharray: none; stroke-linecap: butt; stroke-dashoffset: 0; stroke-linejoin: miter; stroke-miterlimit: 4; is-custom-font: none; font-file-url: none; fill: rgb(212,211,255); fill-rule: evenodd; opacity: 0.255;" transform=" translate(-327.49, -302.5)" d="M 327.5 149.5 C 327.167 249.001 327.501 348.335 328.5 447.5 C 328.5 450.167 328.5 452.833 328.5 455.5 C 327.691 453.708 327.191 451.708 327 449.5 C 326.168 349.332 326.334 249.332 327.5 149.5 Z" stroke-linecap="round"/>
</g>
		<g transform="matrix(1 0 0 1 -118.5 -131.5)">
<path style="stroke: none; stroke-width: 1; stroke-dasharray: none; stroke-linecap: butt; stroke-dashoffset: 0; stroke-linejoin: miter; stroke-miterlimit: 4; is-custom-font: none; font-file-url: none; fill: rgb(36,21,226); fill-rule: evenodd; opacity: 1;" transform=" translate(-331.5, -318.5)" d="M 328.5 141.5 C 329.333 241.999 329.833 342.666 330 443.5 C 330.333 452.167 330.667 460.833 331 469.5 C 332.385 478.106 333.552 486.773 334.5 495.5 C 331.119 482.505 329.119 469.171 328.5 455.5 C 328.5 452.833 328.5 450.167 328.5 447.5 C 328.5 345.5 328.5 243.5 328.5 141.5 Z" stroke-linecap="round"/>
</g>
		<g transform="matrix(1 0 0 1 327.5313 -121.7794)">
<path style="stroke: none; stroke-width: 1; stroke-dasharray: none; stroke-linecap: butt; stroke-dashoffset: 0; stroke-linejoin: miter; stroke-miterlimit: 4; is-custom-font: none; font-file-url: none; fill: rgb(50,32,254); fill-rule: evenodd; opacity: 1;" transform=" translate(-777.5313, -328.2206)" d="M 808.5 121.5 C 808.667 233.5 808.5 345.5 808 457.5 C 806.923 468.93 805.757 479.597 804.5 489.5 C 801.834 499.124 799.167 508.79 796.5 518.5 C 795.761 518.631 795.094 518.464 794.5 518 C 795.576 516.274 795.743 514.441 795 512.5 C 794 515.167 793 515.167 792 512.5 C 790.513 513.253 790.346 514.086 791.5 515 C 790.584 515.374 789.75 515.874 789 516.5 C 789.181 510.837 788.014 510.504 785.5 515.5 C 784.086 514.376 782.586 513.376 781 512.5 C 777.312 514.198 776.145 516.865 777.5 520.5 C 775.309 522.208 774.976 524.208 776.5 526.5 C 776.081 527.672 775.415 528.672 774.5 529.5 C 772.885 528.846 771.218 528.346 769.5 528 C 770.167 527.667 770.833 527.333 771.5 527 C 769.842 526.275 769.342 525.108 770 523.5 C 770.333 523.833 770.667 524.167 771 524.5 C 771.614 522.121 771.947 519.788 772 517.5 C 770.249 516.826 768.583 516.493 767 516.5 C 766.527 519.951 767.027 523.285 768.5 526.5 C 765.527 528.472 762.861 530.805 760.5 533.5 C 759.544 532.135 758.878 530.635 758.5 529 C 759.829 527.34 760.829 525.507 761.5 523.5 C 760.998 522.479 760.332 522.312 759.5 523 C 757.294 526.039 755.294 529.206 753.5 532.5 C 748.974 530.34 748.308 531.674 751.5 536.5 C 749.926 537.631 748.259 537.798 746.5 537 C 747.61 533.951 748.277 530.784 748.5 527.5 C 748.369 526.761 748.536 526.094 749 525.5 C 750 525.5 751 525.5 752 525.5 C 755.504 522.747 755.338 521.58 751.5 522 C 754.383 512.534 757.883 503.367 762 494.5 C 762.934 497.592 764.1 497.925 765.5 495.5 C 764.833 494.167 764.167 492.833 763.5 491.5 C 763.959 485.355 764.792 479.355 766 473.5 C 766.5 362.167 766.667 250.834 766.5 139.5 C 766.702 138.636 767.036 137.636 767.5 136.5 C 768.748 137.04 769.915 137.707 771 138.5 C 774.086 136.78 776.419 137.447 778 140.5 C 778.224 144.797 779.057 148.963 780.5 153 C 779.886 155.854 779.219 158.687 778.5 161.5 C 779 162.5 779.5 163.5 780 164.5 C 780.333 178.167 780.667 191.833 781 205.5 C 781.168 195.483 781.668 185.483 782.5 175.5 C 783.817 186.075 784.483 186.075 784.5 175.5 C 784.371 170.391 783.871 165.391 783 160.5 C 783.333 160.833 783.667 161.167 784 161.5 C 784.626 159.009 785.459 159.009 786.5 161.5 C 787.833 160.833 789.167 160.167 790.5 159.5 C 791.833 160.167 793.167 160.833 794.5 161.5 C 795.915 165.317 795.748 168.984 794 172.5 C 791.479 164.532 789.312 164.532 787.5 172.5 C 787.717 206.559 787.717 240.725 787.5 275 C 789.066 284.092 789.899 293.258 790 302.5 C 790.333 297.5 790.667 292.5 791 287.5 C 791.833 296.832 792.666 306.165 793.5 315.5 C 792.667 335.5 791.833 355.5 791 375.5 C 790.501 370.177 790.334 364.844 790.5 359.5 C 789.5 359.5 788.5 359.5 787.5 359.5 C 787.5 380.833 787.5 402.167 787.5 423.5 C 789.5 423.5 791.5 423.5 793.5 423.5 C 792.281 412.319 792.281 401.152 793.5 390 C 793.138 388.775 792.638 387.609 792 386.5 C 791.667 394.5 791.333 402.5 791 410.5 C 790.133 396.035 791.133 381.702 794 367.5 C 794.244 343.325 794.744 319.159 795.5 295 C 795.873 273.599 795.207 252.266 793.5 231 C 793.727 217.828 794.06 204.661 794.5 191.5 C 795.5 191.5 796.5 191.5 797.5 191.5 C 799.228 197.917 799.228 188.75 797.5 164 C 799.023 161.002 800.023 157.836 800.5 154.5 C 799.456 152.232 799.289 149.899 800 147.5 C 800.333 148.833 800.667 150.167 801 151.5 C 801.1 148.097 801.934 144.93 803.5 142 C 799.945 136.014 799.278 129.847 801.5 123.5 C 800.167 123.5 798.833 123.5 797.5 123.5 C 797.703 121.61 797.037 120.11 795.5 119 C 800.038 118.717 804.371 119.551 808.5 121.5 Z" stroke-linecap="round"/>
</g>
		<g transform="matrix(1 0 0 1 351.0001 -152.5)">
<path style="stroke: none; stroke-width: 1; stroke-dasharray: none; stroke-linecap: butt; stroke-dashoffset: 0; stroke-linejoin: miter; stroke-miterlimit: 4; is-custom-font: none; font-file-url: none; fill: rgb(60,53,220); fill-rule: evenodd; opacity: 0.993;" transform=" translate(-801.0001, -297.5)" d="M 791.5 105.5 C 797.556 109.281 803.723 112.948 810 116.5 C 810.667 231.167 810.667 345.833 810 460.5 C 809.025 467.491 808.192 474.491 807.5 481.5 C 806.883 481.611 806.383 481.944 806 482.5 C 805.814 485.036 805.314 487.369 804.5 489.5 C 805.757 479.597 806.923 468.93 808 457.5 C 808.5 345.5 808.667 233.5 808.5 121.5 C 808.378 116.106 805.711 114.106 800.5 115.5 C 799.289 114.726 799.289 113.893 800.5 113 C 797.297 110.62 794.297 108.12 791.5 105.5 Z" stroke-linecap="round"/>
</g>
		<g transform="matrix(1 0 0 1 109.5 -62)">
<path style="stroke: none; stroke-width: 1; stroke-dasharray: none; stroke-linecap: butt; stroke-dashoffset: 0; stroke-linejoin: miter; stroke-miterlimit: 4; is-custom-font: none; font-file-url: none; fill: rgb(32,31,231); fill-rule: evenodd; opacity: 1;" transform=" translate(-559.5, -388)" d="M 565.5 193.5 C 564.208 195.702 562.374 197.369 560 198.5 C 559.468 317.503 559.468 436.503 560 555.5 C 557.79 564.047 556.29 572.714 555.5 581.5 C 554.817 581.863 554.15 582.196 553.5 582.5 C 555.222 573.222 556.556 563.889 557.5 554.5 C 558.333 435.667 558.833 316.667 559 197.5 C 559.717 196.956 560.217 196.289 560.5 195.5 C 561.93 194.463 563.597 193.796 565.5 193.5 Z" stroke-linecap="round"/>
</g>
		<g transform="matrix(1 0 0 1 -349.5 -56.5)">
<path style="stroke: none; stroke-width: 1; stroke-dasharray: none; stroke-linecap: butt; stroke-dashoffset: 0; stroke-linejoin: miter; stroke-miterlimit: 4; is-custom-font: none; font-file-url: none; fill: rgb(85,80,231); fill-rule: evenodd; opacity: 0.751;" transform=" translate(-100.5, -393.5)" d="M 104.5 218.5 C 104.5 218.833 104.5 219.167 104.5 219.5 C 103.71 220.401 102.71 221.068 101.5 221.5 C 100.542 221.953 99.7083 222.619 99 223.5 C 98.2372 338.503 98.4039 453.503 99.5 568.5 C 98.1804 556.354 97.3471 544.021 97 531.5 C 96.3333 429.167 96.3333 326.833 97 224.5 C 98.1764 220.979 100.676 218.979 104.5 218.5 Z" stroke-linecap="round"/>
</g>
		<g transform="matrix(1 0 0 1 154.4001 -74.5029)">
<path style="stroke: none; stroke-width: 1; stroke-dasharray: none; stroke-linecap: butt; stroke-dashoffset: 0; stroke-linejoin: miter; stroke-miterlimit: 4; is-custom-font: none; font-file-url: none; fill: rgb(27,29,223); fill-rule: evenodd; opacity: 1;" transform=" translate(-604.4001, -375.4972)" d="M 606.5 222.5 C 605.833 223.167 605.167 223.833 604.5 224.5 C 603.475 309.334 603.475 394.334 604.5 479.5 C 604.5 495.833 604.5 512.167 604.5 528.5 C 603.833 488.167 603.167 447.833 602.5 407.5 C 602.5 347.5 602.5 287.5 602.5 227.5 C 601.756 224.05 603.09 222.384 606.5 222.5 Z" stroke-linecap="round"/>
</g>
		<g transform="matrix(1 0 0 1 154.6157 -98)">
<path style="stroke: none; stroke-width: 1; stroke-dasharray: none; stroke-linecap: butt; stroke-dashoffset: 0; stroke-linejoin: miter; stroke-miterlimit: 4; is-custom-font: none; font-file-url: none; fill: rgb(103,110,237); fill-rule: evenodd; opacity: 0.973;" transform=" translate(-604.6156, -352)" d="M 604.5 224.5 C 604.512 309.502 604.845 394.502 605.5 479.5 C 605.167 479.5 604.833 479.5 604.5 479.5 C 603.475 394.334 603.475 309.334 604.5 224.5 Z" stroke-linecap="round"/>
</g>
		<g transform="matrix(1 0 0 1 -305.5103 -35.5)">
<path style="stroke: none; stroke-width: 1; stroke-dasharray: none; stroke-linecap: butt; stroke-dashoffset: 0; stroke-linejoin: miter; stroke-miterlimit: 4; is-custom-font: none; font-file-url: none; fill: rgb(58,71,224); fill-rule: evenodd; opacity: 0.852;" transform=" translate(-144.4898, -414.5)" d="M 143.5 249.5 C 143.333 352.167 143.5 454.834 144 557.5 C 144.394 564.895 145.227 572.228 146.5 579.5 C 144.689 577.615 143.522 575.281 143 572.5 C 142.167 464.666 142.334 356.999 143.5 249.5 Z" stroke-linecap="round"/>
</g>
		<g transform="matrix(1 0 0 1 352 51.5)">
<path style="stroke: none; stroke-width: 1; stroke-dasharray: none; stroke-linecap: butt; stroke-dashoffset: 0; stroke-linejoin: miter; stroke-miterlimit: 4; is-custom-font: none; font-file-url: none; fill: rgb(60,55,215); fill-rule: evenodd; opacity: 0.616;" transform=" translate(-802, -501.5)" d="M 807.5 481.5 C 805.297 495.35 801.631 508.683 796.5 521.5 C 796.5 520.5 796.5 519.5 796.5 518.5 C 799.167 508.79 801.834 499.124 804.5 489.5 C 805.314 487.369 805.814 485.036 806 482.5 C 806.383 481.944 806.883 481.611 807.5 481.5 Z" stroke-linecap="round"/>
</g>
		<g transform="matrix(1 0 0 1 269.9051 141.2929)">
<path style="stroke: none; stroke-width: 1; stroke-dasharray: none; stroke-linecap: butt; stroke-dashoffset: 0; stroke-linejoin: miter; stroke-miterlimit: 4; is-custom-font: none; font-file-url: none; fill: rgb(47,38,252); fill-rule: evenodd; opacity: 1;" transform=" translate(-719.9052, -591.2929)" d="M 796.5 518.5 C 796.5 519.5 796.5 520.5 796.5 521.5 C 787.57 549.705 773.237 574.705 753.5 596.5 C 752.504 596.586 751.671 596.252 751 595.5 C 750.517 596.448 750.351 597.448 750.5 598.5 C 747.09 598.384 745.756 600.05 746.5 603.5 C 745.178 603.67 744.011 603.337 743 602.5 C 742.316 603.784 742.483 604.951 743.5 606 C 740.192 608.718 736.859 611.552 733.5 614.5 C 732.571 615.689 732.238 617.022 732.5 618.5 C 731.127 618.343 729.793 618.51 728.5 619 C 728.833 619.333 729.167 619.667 729.5 620 C 726.389 620.444 723.723 621.777 721.5 624 C 721.957 624.414 722.291 624.914 722.5 625.5 C 721.311 626.429 719.978 626.762 718.5 626.5 C 718.5 627.833 718.5 629.167 718.5 630.5 C 715.873 631.092 713.206 631.425 710.5 631.5 C 710.532 634.076 709.865 636.409 708.5 638.5 C 695.833 647.505 682.5 655.505 668.5 662.5 C 665.422 663.202 662.422 664.202 659.5 665.5 C 656.1 664.808 653.433 666.142 651.5 669.5 C 649.955 670.452 648.288 670.785 646.5 670.5 C 646.227 668.549 646.893 667.049 648.5 666 C 646.848 664.934 645.181 664.434 643.5 664.5 C 642.855 661.453 643.855 659.287 646.5 658 C 643.999 656.582 644.332 655.582 647.5 655 C 646.833 654.667 646.167 654.333 645.5 654 C 647.037 652.89 647.703 651.39 647.5 649.5 C 650.788 649.073 653.788 649.74 656.5 651.5 C 657.59 650.609 657.59 649.609 656.5 648.5 C 658.335 647.572 658.668 646.406 657.5 645 C 659.448 644.017 661.282 642.85 663 641.5 C 663.249 642.624 663.749 643.624 664.5 644.5 C 665.975 640.942 668.641 639.109 672.5 639 C 671.663 637.989 671.33 636.822 671.5 635.5 C 677.449 633.967 680.949 630.634 682 625.5 C 685.514 628.654 687.514 627.987 688 623.5 C 691.621 623.642 695.455 623.642 699.5 623.5 C 699.5 622.167 699.5 620.833 699.5 619.5 C 702.272 620.371 704.938 620.371 707.5 619.5 C 707.351 618.448 707.517 617.448 708 616.5 C 713.801 610.969 712.635 609.969 704.5 613.5 C 701.434 612.954 698.434 612.288 695.5 611.5 C 695.773 609.549 695.107 608.049 693.5 607 C 697.167 606 699.5 603.667 700.5 600 C 700.167 599.667 699.833 599.333 699.5 599 C 701.478 596.985 703.312 597.152 705 599.5 C 706.204 598.141 707.704 597.141 709.5 596.5 C 709.291 595.914 708.957 595.414 708.5 595 C 710.66 592.243 712.993 589.576 715.5 587 C 714.549 586.282 714.383 585.449 715 584.5 C 716.356 583.62 717.856 583.286 719.5 583.5 C 719.825 580.476 718.492 578.809 715.5 578.5 C 713.83 579.995 711.997 581.328 710 582.5 C 708.073 582.761 706.073 582.761 704 582.5 C 701.323 583.222 698.823 584.222 696.5 585.5 C 703.476 579.364 710.643 573.364 718 567.5 C 722.667 562.167 727.333 556.833 732 551.5 C 735.954 544.568 740.121 537.901 744.5 531.5 C 746.274 530.63 747.607 529.297 748.5 527.5 C 748.277 530.784 747.61 533.951 746.5 537 C 748.259 537.798 749.926 537.631 751.5 536.5 C 748.308 531.674 748.974 530.34 753.5 532.5 C 755.294 529.206 757.294 526.039 759.5 523 C 760.332 522.312 760.998 522.479 761.5 523.5 C 760.829 525.507 759.829 527.34 758.5 529 C 758.878 530.635 759.544 532.135 760.5 533.5 C 762.861 530.805 765.527 528.472 768.5 526.5 C 767.027 523.285 766.527 519.951 767 516.5 C 768.583 516.493 770.249 516.826 772 517.5 C 771.947 519.788 771.614 522.121 771 524.5 C 770.667 524.167 770.333 523.833 770 523.5 C 769.342 525.108 769.842 526.275 771.5 527 C 770.833 527.333 770.167 527.667 769.5 528 C 771.218 528.346 772.885 528.846 774.5 529.5 C 775.415 528.672 776.081 527.672 776.5 526.5 C 774.976 524.208 775.309 522.208 777.5 520.5 C 776.145 516.865 777.312 514.198 781 512.5 C 782.586 513.376 784.086 514.376 785.5 515.5 C 788.014 510.504 789.181 510.837 789 516.5 C 789.75 515.874 790.584 515.374 791.5 515 C 790.346 514.086 790.513 513.253 792 512.5 C 793 515.167 794 515.167 795 512.5 C 795.743 514.441 795.576 516.274 794.5 518 C 795.094 518.464 795.761 518.631 796.5 518.5 Z" stroke-linecap="round"/>
</g>
		<g transform="matrix(1 0 0 1 -29 119.0264)">
<path style="stroke: none; stroke-width: 1; stroke-dasharray: none; stroke-linecap: butt; stroke-dashoffset: 0; stroke-linejoin: miter; stroke-miterlimit: 4; is-custom-font: none; font-file-url: none; fill: rgb(53,45,228); fill-rule: evenodd; opacity: 1;" transform=" translate(-421, -569.0264)" d="M 411.5 558.5 C 418.058 565.27 424.391 572.27 430.5 579.5 C 429.448 579.649 428.448 579.483 427.5 579 C 425.425 575.408 422.425 573.241 418.5 572.5 C 418.762 571.022 418.429 569.689 417.5 568.5 C 415.979 568.12 414.313 567.954 412.5 568 C 413.833 567.333 414.833 566.333 415.5 565 C 413.518 563.195 412.184 561.028 411.5 558.5 Z" stroke-linecap="round"/>
</g>
		<g transform="matrix(1 0 0 1 -50.5 144)">
<path style="stroke: none; stroke-width: 1; stroke-dasharray: none; stroke-linecap: butt; stroke-dashoffset: 0; stroke-linejoin: miter; stroke-miterlimit: 4; is-custom-font: none; font-file-url: none; fill: rgb(48,39,248); fill-rule: evenodd; opacity: 1;" transform=" translate(-399.5, -594)" d="M 351.5 543.5 C 353.089 544.872 354.422 546.539 355.5 548.5 C 356.524 547.147 357.857 546.48 359.5 546.5 C 359.5 547.5 359.5 548.5 359.5 549.5 C 358.5 549.5 357.5 549.5 356.5 549.5 C 357.012 552.455 358.512 555.789 361 559.5 C 361.308 558.692 361.808 558.025 362.5 557.5 C 365.256 559.32 365.922 561.654 364.5 564.5 C 365.039 567.524 366.706 569.024 369.5 569 C 369.539 567.755 369.205 566.422 368.5 565 C 368.613 563.72 369.28 562.887 370.5 562.5 C 371.5 563.5 372.5 564.5 373.5 565.5 C 372.167 566.5 372.167 567.5 373.5 568.5 C 375.274 569.187 376.941 570.02 378.5 571 C 377.483 572.049 377.316 573.216 378 574.5 C 381.607 576.352 383.774 579.352 384.5 583.5 C 386.69 584.223 388.69 585.39 390.5 587 C 390.034 588.299 390.034 589.799 390.5 591.5 C 393.038 592.677 395.371 594.344 397.5 596.5 C 392.081 601.154 392.415 602.154 398.5 599.5 C 399.748 600.04 400.915 600.707 402 601.5 C 403.073 600.72 404.24 600.887 405.5 602 C 404.359 602.741 404.359 603.575 405.5 604.5 C 406.729 605.281 408.062 605.781 409.5 606 C 409.167 606.333 408.833 606.667 408.5 607 C 410.132 608.31 411.799 608.81 413.5 608.5 C 412.674 609.451 412.508 610.451 413 611.5 C 414.667 612.5 416 613.833 417 615.5 C 417.333 615.167 417.667 614.833 418 614.5 C 419.805 617.039 422.305 618.039 425.5 617.5 C 425.343 618.873 425.51 620.207 426 621.5 C 426.333 621.167 426.667 620.833 427 620.5 C 429 622.5 431 624.5 433 626.5 C 434 625.833 435 625.167 436 624.5 C 436.199 626.402 437.033 627.902 438.5 629 C 437.167 630.333 437.167 631.667 438.5 633 C 441.482 633.498 444.482 633.665 447.5 633.5 C 447.5 635.167 447.5 636.833 447.5 638.5 C 445.409 638.318 443.409 638.652 441.5 639.5 C 440.614 640.325 440.281 641.325 440.5 642.5 C 442.179 642.285 443.179 642.952 443.5 644.5 C 438.23 642.197 433.23 639.364 428.5 636 C 401.869 616.169 379.702 592.335 362 564.5 C 357.941 557.715 354.441 550.715 351.5 543.5 Z" stroke-linecap="round"/>
</g>
		<g transform="matrix(1 0 0 1 -347.4818 139.5)">
<path style="stroke: none; stroke-width: 1; stroke-dasharray: none; stroke-linecap: butt; stroke-dashoffset: 0; stroke-linejoin: miter; stroke-miterlimit: 4; is-custom-font: none; font-file-url: none; fill: rgb(164,172,248); fill-rule: evenodd; opacity: 0.016;" transform=" translate(-102.5182, -589.5)" d="M 101.5 585.5 C 103.04 587.838 103.706 590.505 103.5 593.5 C 102.232 591.095 101.565 588.428 101.5 585.5 Z" stroke-linecap="round"/>
</g>
		<g transform="matrix(1 0 0 1 153.5 105.0376)">
<path style="stroke: none; stroke-width: 1; stroke-dasharray: none; stroke-linecap: butt; stroke-dashoffset: 0; stroke-linejoin: miter; stroke-miterlimit: 4; is-custom-font: none; font-file-url: none; fill: rgb(64,57,223); fill-rule: evenodd; opacity: 0.929;" transform=" translate(-603.5, -555.0376)" d="M 604.5 479.5 C 604.833 479.5 605.167 479.5 605.5 479.5 C 605.667 513.168 605.5 546.835 605 580.5 C 603.378 597.16 600.211 613.493 595.5 629.5 C 600.92 627.414 606.586 626.08 612.5 625.5 C 607.241 629.296 601.241 630.962 594.5 630.5 C 597.045 618.529 599.545 606.529 602 594.5 C 604.037 572.57 604.87 550.57 604.5 528.5 C 604.5 512.167 604.5 495.833 604.5 479.5 Z" stroke-linecap="round"/>
</g>
		<g transform="matrix(1 0 0 1 281 167)">
<path style="stroke: none; stroke-width: 1; stroke-dasharray: none; stroke-linecap: butt; stroke-dashoffset: 0; stroke-linejoin: miter; stroke-miterlimit: 4; is-custom-font: none; font-file-url: none; fill: rgb(53,45,223); fill-rule: evenodd; opacity: 0.981;" transform=" translate(-731, -617)" d="M 753.5 596.5 C 741.061 613.273 726.061 627.273 708.5 638.5 C 709.865 636.409 710.532 634.076 710.5 631.5 C 713.206 631.425 715.873 631.092 718.5 630.5 C 718.5 629.167 718.5 627.833 718.5 626.5 C 719.978 626.762 721.311 626.429 722.5 625.5 C 722.291 624.914 721.957 624.414 721.5 624 C 723.723 621.777 726.389 620.444 729.5 620 C 729.167 619.667 728.833 619.333 728.5 619 C 729.793 618.51 731.127 618.343 732.5 618.5 C 732.238 617.022 732.571 615.689 733.5 614.5 C 736.859 611.552 740.192 608.718 743.5 606 C 742.483 604.951 742.316 603.784 743 602.5 C 744.011 603.337 745.178 603.67 746.5 603.5 C 745.756 600.05 747.09 598.384 750.5 598.5 C 750.351 597.448 750.517 596.448 751 595.5 C 751.671 596.252 752.504 596.586 753.5 596.5 Z" stroke-linecap="round"/>
</g>
		<g transform="matrix(1 0 0 1 184.5 167.5)">
<path style="stroke: none; stroke-width: 1; stroke-dasharray: none; stroke-linecap: butt; stroke-dashoffset: 0; stroke-linejoin: miter; stroke-miterlimit: 4; is-custom-font: none; font-file-url: none; fill: rgb(35,40,214); fill-rule: evenodd; opacity: 0.949;" transform=" translate(-634.5, -617.5)" d="M 655.5 609.5 C 646.561 613.97 637.561 618.47 628.5 623 C 623.57 624.241 618.57 625.075 613.5 625.5 C 627.503 620.385 641.503 615.051 655.5 609.5 Z" stroke-linecap="round"/>
</g>
		<g transform="matrix(1 0 0 1 87 178.9595)">
<path style="stroke: none; stroke-width: 1; stroke-dasharray: none; stroke-linecap: butt; stroke-dashoffset: 0; stroke-linejoin: miter; stroke-miterlimit: 4; is-custom-font: none; font-file-url: none; fill: rgb(82,79,223); fill-rule: evenodd; opacity: 0.839;" transform=" translate(-537, -628.9595)" d="M 540.5 624.5 C 540.38 627.48 539.713 630.313 538.5 633 C 536.326 633.877 534.659 633.377 533.5 631.5 C 534.873 631.657 536.207 631.49 537.5 631 C 538.132 628.585 539.132 626.418 540.5 624.5 Z" stroke-linecap="round"/>
</g>
		<g transform="matrix(1 0 0 1 49 264)">
<path style="stroke: none; stroke-width: 1; stroke-dasharray: none; stroke-linecap: butt; stroke-dashoffset: 0; stroke-linejoin: miter; stroke-miterlimit: 4; is-custom-font: none; font-file-url: none; fill: rgb(46,38,252); fill-rule: evenodd; opacity: 1;" transform=" translate(-499, -714)" d="M 443.5 644.5 C 445.156 645.146 446.823 645.813 448.5 646.5 C 450.274 646.113 451.941 645.447 453.5 644.5 C 454.912 645.806 456.579 646.64 458.5 647 C 456.754 647.471 455.087 648.138 453.5 649 C 454.416 649.374 455.25 649.874 456 650.5 C 457.993 648.622 460.159 648.288 462.5 649.5 C 461.189 650.258 460.689 651.258 461 652.5 C 464.809 655.564 468.975 656.564 473.5 655.5 C 482.326 657.284 491.492 659.284 501 661.5 C 502.261 661.241 503.261 660.574 504 659.5 C 503.737 660.951 503.904 662.284 504.5 663.5 C 505.167 663.167 505.833 662.833 506.5 662.5 C 513.166 664.032 519.833 664.532 526.5 664 C 525.328 664.419 524.328 665.085 523.5 666 C 527.223 667.968 527.223 669.635 523.5 671 C 524 671.5 524.5 672 525 672.5 C 526.584 669.935 528.418 667.601 530.5 665.5 C 531.5 666.5 532.5 667.5 533.5 668.5 C 532.609 669.59 531.609 669.59 530.5 668.5 C 529.5 668.833 528.833 669.5 528.5 670.5 C 532.276 672.942 536.276 674.942 540.5 676.5 C 540.5 677.5 540.5 678.5 540.5 679.5 C 541.5 679.5 542.5 679.5 543.5 679.5 C 543.351 678.448 543.517 677.448 544 676.5 C 546.22 675.013 548.22 673.346 550 671.5 C 554.326 676.828 559.992 679.494 567 679.5 C 575.178 678.207 583.344 676.874 591.5 675.5 C 591.5 676.833 591.5 678.167 591.5 679.5 C 588.753 679.187 586.086 679.52 583.5 680.5 C 586.702 681.047 589.702 682.047 592.5 683.5 C 594.111 682.68 594.778 681.346 594.5 679.5 C 597.247 679.813 599.914 679.48 602.5 678.5 C 603.5 676.5 604.5 674.5 605.5 672.5 C 611.967 671.513 617.8 669.18 623 665.5 C 623.333 666.5 623.667 667.5 624 668.5 C 625.883 667.347 626.716 665.681 626.5 663.5 C 627.833 663.5 629.167 663.5 630.5 663.5 C 630.351 662.448 630.517 661.448 631 660.5 C 632.707 661.138 634.54 661.138 636.5 660.5 C 636.062 656.092 638.062 654.425 642.5 655.5 C 642.64 657.124 641.973 658.29 640.5 659 C 642.891 661.874 642.558 663.374 639.5 663.5 C 639.5 664.5 639.5 665.5 639.5 666.5 C 641.628 669.13 643.961 671.63 646.5 674 C 644.741 674.798 643.074 674.631 641.5 673.5 C 642.855 672.325 642.688 671.325 641 670.5 C 639.649 672.019 638.149 673.352 636.5 674.5 C 638.007 675.739 639.174 675.405 640 673.5 C 640.374 674.416 640.874 675.25 641.5 676 C 636.974 677.757 632.474 679.591 628 681.5 C 625.837 679.445 623.337 678.612 620.5 679 C 621.833 680 623.167 681 624.5 682 C 623.437 683.188 622.103 683.688 620.5 683.5 C 620.719 682.325 620.386 681.325 619.5 680.5 C 619.167 681 618.833 681.5 618.5 682 C 619.615 683.235 619.615 684.402 618.5 685.5 C 621.044 686.937 621.044 688.437 618.5 690 C 616.579 690.36 614.912 691.194 613.5 692.5 C 612.833 692.167 612.167 691.833 611.5 691.5 C 611.167 692.167 610.833 692.833 610.5 693.5 C 608.941 692.926 607.441 692.26 606 691.5 C 605.405 692.899 605.572 694.232 606.5 695.5 C 603.446 698.024 600.113 700.024 596.5 701.5 C 594.53 702.961 592.863 704.627 591.5 706.5 C 584.542 710.432 577.542 714.432 570.5 718.5 C 568.396 718.201 566.396 718.534 564.5 719.5 C 562.882 721.316 560.882 722.649 558.5 723.5 C 557.808 722.975 557.308 722.308 557 721.5 C 556.097 722.701 554.931 723.535 553.5 724 C 553.957 724.414 554.291 724.914 554.5 725.5 C 552.704 726.141 551.204 727.141 550 728.5 C 548.997 725.844 547.33 724.844 545 725.5 C 543.97 723.224 542.47 722.557 540.5 723.5 C 541.885 724.551 542.885 725.884 543.5 727.5 C 542.045 729.22 541.212 731.22 541 733.5 C 538.526 734.465 536.026 734.632 533.5 734 C 532.289 735.113 532.289 736.28 533.5 737.5 C 531.276 738.78 529.276 738.447 527.5 736.5 C 526.5 737 525.5 737.5 524.5 738 C 529.729 739.985 529.396 741.152 523.5 741.5 C 523.5 740.167 523.5 738.833 523.5 737.5 C 517.438 737.525 517.105 738.692 522.5 741 C 520.816 745.605 517.149 748.272 511.5 749 C 511.833 749.333 512.167 749.667 512.5 750 C 509.509 750.145 507.842 751.645 507.5 754.5 C 507.167 754.5 506.833 754.5 506.5 754.5 C 502.956 755.112 499.623 756.279 496.5 758 C 493.703 759.743 491.37 761.91 489.5 764.5 C 476.422 772.754 462.422 779.087 447.5 783.5 C 448.398 782.842 449.398 782.176 450.5 781.5 C 449.5 780.833 448.5 780.167 447.5 779.5 C 449.933 777.946 452.6 777.28 455.5 777.5 C 455.5 776.5 455.5 775.5 455.5 774.5 C 451.397 773.769 447.897 774.769 445 777.5 C 443.301 776.594 441.467 776.261 439.5 776.5 C 440.371 773.289 442.371 770.956 445.5 769.5 C 446.672 769.919 447.672 770.585 448.5 771.5 C 449.472 769.364 451.139 768.197 453.5 768 C 451.369 767.457 449.369 766.624 447.5 765.5 C 448.595 758.334 450.261 758.001 452.5 764.5 C 453.452 762.955 453.785 761.288 453.5 759.5 C 457.167 759.5 460.833 759.5 464.5 759.5 C 464.784 756.746 465.451 754.08 466.5 751.5 C 467.149 753.624 467.983 755.624 469 757.5 C 469.49 756.207 469.657 754.873 469.5 753.5 C 472.518 753.665 475.518 753.498 478.5 753 C 479.991 750.903 480.991 748.57 481.5 746 C 478.674 742.975 475.674 742.808 472.5 745.5 C 472.167 745.167 471.833 744.833 471.5 744.5 C 472.39 743.289 472.39 741.955 471.5 740.5 C 473.146 738.945 473.479 737.279 472.5 735.5 C 474.826 734.61 477.159 734.443 479.5 735 C 477.845 733.556 477.178 731.722 477.5 729.5 C 479.942 729.646 480.609 728.813 479.5 727 C 477.965 726.504 476.465 726.67 475 727.5 C 474.333 726.833 473.667 726.167 473 725.5 C 469.82 726.839 467.986 729.173 467.5 732.5 C 468.552 732.351 469.552 732.517 470.5 733 C 468.231 735.023 465.564 735.856 462.5 735.5 C 462.657 736.873 462.49 738.207 462 739.5 C 461.667 739.167 461.333 738.833 461 738.5 C 458.8 740.831 456.8 740.831 455 738.5 C 454.51 739.793 454.343 741.127 454.5 742.5 C 451.402 742.413 451.068 742.913 453.5 744 C 452.521 746.403 451.021 747.236 449 746.5 C 448.632 747.91 447.799 748.91 446.5 749.5 C 444.809 747.744 442.809 747.244 440.5 748 C 440.36 749.264 440.36 750.431 440.5 751.5 C 437.823 750.926 435.157 750.259 432.5 749.5 C 433.711 748.28 433.711 747.113 432.5 746 C 434.135 745.46 435.468 745.96 436.5 747.5 C 439.461 746.817 439.795 745.984 437.5 745 C 451.033 738.158 450.7 736.491 436.5 740 C 435.027 740.71 434.36 741.876 434.5 743.5 C 424.05 744.626 414.05 747.459 404.5 752 C 397.348 752.573 390.348 753.906 383.5 756 C 372.659 756.825 361.992 756.659 351.5 755.5 C 361.506 755.666 371.506 755.5 381.5 755 C 383.058 754.79 384.391 754.29 385.5 753.5 C 392.569 751.356 399.902 749.856 407.5 749 C 422.032 744.12 436.366 738.787 450.5 733 C 466.241 724.141 481.241 714.307 495.5 703.5 C 498.603 701.577 501.603 699.41 504.5 697 C 505.337 695.989 505.67 694.822 505.5 693.5 C 510.185 688.316 515.019 683.316 520 678.5 C 520.749 677.365 520.583 676.365 519.5 675.5 C 496.647 670.873 474.98 663.039 454.5 652 C 450.42 649.971 446.754 647.471 443.5 644.5 Z" stroke-linecap="round"/>
</g>
		<g transform="matrix(1 0 0 1 180 234.5)">
<path style="stroke: none; stroke-width: 1; stroke-dasharray: none; stroke-linecap: butt; stroke-dashoffset: 0; stroke-linejoin: miter; stroke-miterlimit: 4; is-custom-font: none; font-file-url: none; fill: rgb(49,38,234); fill-rule: evenodd; opacity: 1;" transform=" translate(-630, -684.5)" d="M 668.5 662.5 C 642.875 677.098 617.209 691.765 591.5 706.5 C 592.863 704.627 594.53 702.961 596.5 701.5 C 600.113 700.024 603.446 698.024 606.5 695.5 C 605.572 694.232 605.405 692.899 606 691.5 C 607.441 692.26 608.941 692.926 610.5 693.5 C 610.833 692.833 611.167 692.167 611.5 691.5 C 612.167 691.833 612.833 692.167 613.5 692.5 C 614.912 691.194 616.579 690.36 618.5 690 C 621.044 688.437 621.044 686.937 618.5 685.5 C 619.615 684.402 619.615 683.235 618.5 682 C 618.833 681.5 619.167 681 619.5 680.5 C 620.386 681.325 620.719 682.325 620.5 683.5 C 622.103 683.688 623.437 683.188 624.5 682 C 623.167 681 621.833 680 620.5 679 C 623.337 678.612 625.837 679.445 628 681.5 C 632.474 679.591 636.974 677.757 641.5 676 C 640.874 675.25 640.374 674.416 640 673.5 C 639.174 675.405 638.007 675.739 636.5 674.5 C 638.149 673.352 639.649 672.019 641 670.5 C 642.688 671.325 642.855 672.325 641.5 673.5 C 643.074 674.631 644.741 674.798 646.5 674 C 643.961 671.63 641.628 669.13 639.5 666.5 C 640.605 665.4 641.938 664.733 643.5 664.5 C 645.181 664.434 646.848 664.934 648.5 666 C 646.893 667.049 646.227 668.549 646.5 670.5 C 648.288 670.785 649.955 670.452 651.5 669.5 C 653.433 666.142 656.1 664.808 659.5 665.5 C 662.422 664.202 665.422 663.202 668.5 662.5 Z" stroke-linecap="round"/>
</g>
		<g transform="matrix(1 0 0 1 50.5215 248.5)">
<path style="stroke: none; stroke-width: 1; stroke-dasharray: none; stroke-linecap: butt; stroke-dashoffset: 0; stroke-linejoin: miter; stroke-miterlimit: 4; is-custom-font: none; font-file-url: none; fill: rgb(60,69,214); fill-rule: evenodd; opacity: 0.569;" transform=" translate(-500.5215, -698.5)" d="M 505.5 693.5 C 505.67 694.822 505.337 695.989 504.5 697 C 501.603 699.41 498.603 701.577 495.5 703.5 C 498.5 699.833 501.833 696.5 505.5 693.5 Z" stroke-linecap="round"/>
</g>
		<g transform="matrix(1 0 0 1 -101.2607 310.5001)">
<path style="stroke: none; stroke-width: 1; stroke-dasharray: none; stroke-linecap: butt; stroke-dashoffset: 0; stroke-linejoin: miter; stroke-miterlimit: 4; is-custom-font: none; font-file-url: none; fill: rgb(45,32,253); fill-rule: evenodd; opacity: 1;" transform=" translate(-348.7393, -760.5001)" d="M 271.5 737.5 C 289.585 745.02 308.252 750.02 327.5 752.5 C 328.263 753.268 329.263 753.768 330.5 754 C 337.5 754.577 344.5 755.077 351.5 755.5 C 361.992 756.659 372.659 756.825 383.5 756 C 390.348 753.906 397.348 752.573 404.5 752 C 414.05 747.459 424.05 744.626 434.5 743.5 C 434.36 741.876 435.027 740.71 436.5 740 C 450.7 736.491 451.033 738.158 437.5 745 C 439.795 745.984 439.461 746.817 436.5 747.5 C 435.468 745.96 434.135 745.46 432.5 746 C 433.711 747.113 433.711 748.28 432.5 749.5 C 435.157 750.259 437.823 750.926 440.5 751.5 C 440.36 750.431 440.36 749.264 440.5 748 C 442.809 747.244 444.809 747.744 446.5 749.5 C 447.799 748.91 448.632 747.91 449 746.5 C 451.021 747.236 452.521 746.403 453.5 744 C 451.068 742.913 451.402 742.413 454.5 742.5 C 454.343 741.127 454.51 739.793 455 738.5 C 456.8 740.831 458.8 740.831 461 738.5 C 461.333 738.833 461.667 739.167 462 739.5 C 462.49 738.207 462.657 736.873 462.5 735.5 C 465.564 735.856 468.231 735.023 470.5 733 C 469.552 732.517 468.552 732.351 467.5 732.5 C 467.986 729.173 469.82 726.839 473 725.5 C 473.667 726.167 474.333 726.833 475 727.5 C 476.465 726.67 477.965 726.504 479.5 727 C 480.609 728.813 479.942 729.646 477.5 729.5 C 477.178 731.722 477.845 733.556 479.5 735 C 477.159 734.443 474.826 734.61 472.5 735.5 C 473.479 737.279 473.146 738.945 471.5 740.5 C 472.39 741.955 472.39 743.289 471.5 744.5 C 471.833 744.833 472.167 745.167 472.5 745.5 C 475.674 742.808 478.674 742.975 481.5 746 C 480.991 748.57 479.991 750.903 478.5 753 C 475.518 753.498 472.518 753.665 469.5 753.5 C 469.657 754.873 469.49 756.207 469 757.5 C 467.983 755.624 467.149 753.624 466.5 751.5 C 465.451 754.08 464.784 756.746 464.5 759.5 C 460.833 759.5 457.167 759.5 453.5 759.5 C 453.785 761.288 453.452 762.955 452.5 764.5 C 450.261 758.001 448.595 758.334 447.5 765.5 C 449.369 766.624 451.369 767.457 453.5 768 C 451.139 768.197 449.472 769.364 448.5 771.5 C 447.672 770.585 446.672 769.919 445.5 769.5 C 442.371 770.956 440.371 773.289 439.5 776.5 C 441.467 776.261 443.301 776.594 445 777.5 C 447.897 774.769 451.397 773.769 455.5 774.5 C 455.5 775.5 455.5 776.5 455.5 777.5 C 452.6 777.28 449.933 777.946 447.5 779.5 C 448.5 780.167 449.5 780.833 450.5 781.5 C 449.398 782.176 448.398 782.842 447.5 783.5 C 445.879 785.117 443.879 786.284 441.5 787 C 431.335 790.2 421.001 792.7 410.5 794.5 C 399.805 795.431 389.138 796.597 378.5 798 C 363.167 798.667 347.833 798.667 332.5 798 C 325.591 796.509 318.591 795.676 311.5 795.5 C 291.182 792.323 271.849 786.323 253.5 777.5 C 252.493 775.478 250.826 774.145 248.5 773.5 C 249.333 773.167 250.167 772.833 251 772.5 C 253.118 773.476 255.285 774.31 257.5 775 C 257.167 775.333 256.833 775.667 256.5 776 C 264.144 777.578 265.81 776.078 261.5 771.5 C 263.672 770.795 265.672 769.795 267.5 768.5 C 265.922 767.702 264.256 767.202 262.5 767 C 262.957 766.586 263.291 766.086 263.5 765.5 C 260.215 764.676 256.882 764.176 253.5 764 C 253.167 763 252.833 762 252.5 761 C 250.26 760.023 247.927 759.523 245.5 759.5 C 245.5 758.5 245.5 757.5 245.5 756.5 C 243.801 756.66 242.134 756.494 240.5 756 C 238.772 754.274 236.772 752.941 234.5 752 C 235.766 751.691 236.933 751.191 238 750.5 C 241.125 751.787 244.291 751.787 247.5 750.5 C 243.334 749.823 239.334 748.823 235.5 747.5 C 235.67 746.178 235.337 745.011 234.5 744 C 235.624 743.751 236.624 743.251 237.5 742.5 C 235.604 741.534 233.604 741.201 231.5 741.5 C 231.5 740.167 231.5 738.833 231.5 737.5 C 227.167 737.833 225.167 735.833 225.5 731.5 C 223.396 731.799 221.396 731.466 219.5 730.5 C 216.249 728.546 215.249 725.879 216.5 722.5 C 218.429 723.38 220.263 724.38 222 725.5 C 222.873 725.265 223.707 724.931 224.5 724.5 C 225.711 725.274 225.711 726.107 224.5 727 C 228.429 730.425 232.763 733.259 237.5 735.5 C 239.815 735.314 242.149 734.98 244.5 734.5 C 243.624 733.749 242.624 733.249 241.5 733 C 244.82 731.739 245.154 730.072 242.5 728 C 243 727.833 243.5 727.667 244 727.5 C 253.085 731.092 262.252 734.425 271.5 737.5 Z" stroke-linecap="round"/>
</g>
		<g transform="matrix(1 0 0 1 89 286.4469)">
<path style="stroke: none; stroke-width: 1; stroke-dasharray: none; stroke-linecap: butt; stroke-dashoffset: 0; stroke-linejoin: miter; stroke-miterlimit: 4; is-custom-font: none; font-file-url: none; fill: rgb(52,42,232); fill-rule: evenodd; opacity: 0.999;" transform=" translate(-539, -736.447)" d="M 570.5 718.5 C 549.562 730.399 528.562 742.399 507.5 754.5 C 507.842 751.645 509.509 750.145 512.5 750 C 512.167 749.667 511.833 749.333 511.5 749 C 517.149 748.272 520.816 745.605 522.5 741 C 517.105 738.692 517.438 737.525 523.5 737.5 C 523.5 738.833 523.5 740.167 523.5 741.5 C 529.396 741.152 529.729 739.985 524.5 738 C 525.5 737.5 526.5 737 527.5 736.5 C 529.276 738.447 531.276 738.78 533.5 737.5 C 532.289 736.28 532.289 735.113 533.5 734 C 536.026 734.632 538.526 734.465 541 733.5 C 541.212 731.22 542.045 729.22 543.5 727.5 C 542.885 725.884 541.885 724.551 540.5 723.5 C 542.47 722.557 543.97 723.224 545 725.5 C 547.33 724.844 548.997 725.844 550 728.5 C 551.204 727.141 552.704 726.141 554.5 725.5 C 554.291 724.914 553.957 724.414 553.5 724 C 554.931 723.535 556.097 722.701 557 721.5 C 557.308 722.308 557.808 722.975 558.5 723.5 C 560.882 722.649 562.882 721.316 564.5 719.5 C 566.396 718.534 568.396 718.201 570.5 718.5 Z" stroke-linecap="round"/>
</g>
		<g transform="matrix(1 0 0 1 -93.5 304.0311)">
<path style="stroke: none; stroke-width: 1; stroke-dasharray: none; stroke-linecap: butt; stroke-dashoffset: 0; stroke-linejoin: miter; stroke-miterlimit: 4; is-custom-font: none; font-file-url: none; fill: rgb(29,41,197); fill-rule: evenodd; opacity: 0.831;" transform=" translate(-356.5, -754.0311)" d="M 327.5 752.5 C 346.805 754.596 366.138 754.929 385.5 753.5 C 384.391 754.29 383.058 754.79 381.5 755 C 371.506 755.5 361.506 755.666 351.5 755.5 C 344.5 755.077 337.5 754.577 330.5 754 C 329.263 753.768 328.263 753.268 327.5 752.5 Z" stroke-linecap="round"/>
</g>
		<g transform="matrix(1 0 0 1 48 309.5)">
<path style="stroke: none; stroke-width: 1; stroke-dasharray: none; stroke-linecap: butt; stroke-dashoffset: 0; stroke-linejoin: miter; stroke-miterlimit: 4; is-custom-font: none; font-file-url: none; fill: rgb(59,48,208); fill-rule: evenodd; opacity: 0.643;" transform=" translate(-498, -759.5)" d="M 506.5 754.5 C 501.001 758.084 495.334 761.417 489.5 764.5 C 491.37 761.91 493.703 759.743 496.5 758 C 499.623 756.279 502.956 755.112 506.5 754.5 Z" stroke-linecap="round"/>
</g>
		<g transform="matrix(1 0 0 1 -89 347.1121)">
<path style="stroke: none; stroke-width: 1; stroke-dasharray: none; stroke-linecap: butt; stroke-dashoffset: 0; stroke-linejoin: miter; stroke-miterlimit: 4; is-custom-font: none; font-file-url: none; fill: rgb(48,40,216); fill-rule: evenodd; opacity: 0.884;" transform=" translate(-361, -797.1121)" d="M 410.5 794.5 C 393.048 798.704 375.215 800.371 357 799.5 C 341.495 800.265 326.329 798.932 311.5 795.5 C 318.591 795.676 325.591 796.509 332.5 798 C 347.833 798.667 363.167 798.667 378.5 798 C 389.138 796.597 399.805 795.431 410.5 794.5 Z" stroke-linecap="round"/>
</g>
</g>
</g>
</svg>