<svg xmlns="http://www.w3.org/2000/svg" xmlns:xlink="http://www.w3.org/1999/xlink" version="1.1" width="1000" height="1000" viewBox="0 0 1000 1000" xml:space="preserve">
<desc>Created with Fabric.js 3.5.0</desc>
<defs>
</defs>
<rect x="0" y="0" width="100%" height="100%" fill="rgba(255,255,255,0)"/>
<g transform="matrix(0.9989 0 0 0.9989 500.0045 500.0043)" id="4864">
<g style="" vector-effect="non-scaling-stroke">
		<g transform="matrix(1 0 0 1 -1 -299.9301)">
<path style="stroke: none; stroke-width: 1; stroke-dasharray: none; stroke-linecap: butt; stroke-dashoffset: 0; stroke-linejoin: miter; stroke-miterlimit: 4; is-custom-font: none; font-file-url: none; fill: rgb(0,0,0); fill-rule: evenodd; opacity: 0.943;" transform=" translate(-449.5, -128.5699)" d="M 448.5 -0.5 C 449.167 -0.5 449.833 -0.5 450.5 -0.5 C 477.24 85.3861 503.573 171.386 529.5 257.5 C 527.167 257.5 524.833 257.5 522.5 257.5 C 498.629 198.751 474.462 140.085 450 81.5 C 425.133 139.24 400.799 197.24 377 255.5 C 374.894 257.291 372.394 257.958 369.5 257.5 C 395.833 171.5 422.167 85.5 448.5 -0.5 Z" stroke-linecap="round"/>
</g>
		<g transform="matrix(1 0 0 1 -1.0251 86.4991)">
<path style="stroke: none; stroke-width: 1; stroke-dasharray: none; stroke-linecap: butt; stroke-dashoffset: 0; stroke-linejoin: miter; stroke-miterlimit: 4; is-custom-font: none; font-file-url: none; fill: rgb(0,0,0); fill-rule: evenodd; opacity: 0.983;" transform=" translate(-449.4749, -514.9991)" d="M 98.5 268.5 C 193.5 268.5 288.5 268.5 383.5 268.5 C 383.808 270.924 383.474 273.257 382.5 275.5 C 354.502 289.496 343.669 311.829 350 342.5 C 352.071 350.381 354.738 358.048 358 365.5 C 388.288 430.373 418.955 495.039 450 559.5 C 479.394 496.379 509.06 433.379 539 370.5 C 546.128 356.319 550.295 341.319 551.5 325.5 C 551.109 308.884 544.442 295.384 531.5 285 C 526.923 281.46 522.09 278.294 517 275.5 C 516.503 273.19 516.337 270.857 516.5 268.5 C 611.167 268.5 705.833 268.5 800.5 268.5 C 800.663 270.857 800.497 273.19 800 275.5 C 788.098 283.401 777.431 292.734 768 303.5 C 759.879 314.295 752.545 325.628 746 337.5 C 678.954 478.258 612.454 619.258 546.5 760.5 C 481.932 761.831 417.432 761.831 353 760.5 C 288 622.5 223 484.5 158 346.5 C 147.821 324.967 134.321 305.8 117.5 289 C 111.641 284.308 105.641 279.808 99.5 275.5 C 98.5258 273.257 98.1924 270.924 98.5 268.5 Z" stroke-linecap="round"/>
</g>
		<g transform="matrix(1 0 0 1 -206.5 -132)">
<path style="stroke: none; stroke-width: 1; stroke-dasharray: none; stroke-linecap: butt; stroke-dashoffset: 0; stroke-linejoin: miter; stroke-miterlimit: 4; is-custom-font: none; font-file-url: none; fill: rgb(155,130,85); fill-rule: evenodd; opacity: 1;" transform=" translate(-244, -296.5)" d="M 328.5 297.5 C 272.002 296.501 215.336 296.168 158.5 296.5 C 186.096 295.829 214.429 295.496 243.5 295.5 C 272.167 295.833 300.833 296.167 329.5 296.5 C 329.376 297.107 329.043 297.44 328.5 297.5 Z" stroke-linecap="round"/>
</g>
		<g transform="matrix(1 0 0 1 205.5 -132)">
<path style="stroke: none; stroke-width: 1; stroke-dasharray: none; stroke-linecap: butt; stroke-dashoffset: 0; stroke-linejoin: miter; stroke-miterlimit: 4; is-custom-font: none; font-file-url: none; fill: rgb(155,130,85); fill-rule: evenodd; opacity: 1;" transform=" translate(-656, -296.5)" d="M 740.5 297.5 C 684.002 296.501 627.336 296.168 570.5 296.5 C 598.096 295.829 626.429 295.496 655.5 295.5 C 684.167 295.833 712.833 296.167 741.5 296.5 C 741.376 297.107 741.043 297.44 740.5 297.5 Z" stroke-linecap="round"/>
</g>
		<g transform="matrix(1 0 0 1 -1 86.9377)">
<path style="stroke: none; stroke-width: 1; stroke-dasharray: none; stroke-linecap: butt; stroke-dashoffset: 0; stroke-linejoin: miter; stroke-miterlimit: 4; is-custom-font: none; font-file-url: none; fill: rgb(207,174,113); fill-rule: evenodd; opacity: 1;" transform=" translate(-449.5, -515.4377)" d="M 158.5 296.5 C 215.336 296.168 272.002 296.501 328.5 297.5 C 320.913 310.462 318.413 324.462 321 339.5 C 323.044 349.008 325.71 358.341 329 367.5 C 368.609 453.386 408.775 539.053 449.5 624.5 C 489.94 539.287 530.106 453.954 570 368.5 C 578.197 349.856 580.53 330.523 577 310.5 C 575.079 305.661 572.912 300.994 570.5 296.5 C 627.336 296.168 684.002 296.501 740.5 297.5 C 725.991 317.832 713.491 339.498 703 362.5 C 644.833 486.167 586.667 609.833 528.5 733.5 C 475.833 734.833 423.167 734.833 370.5 733.5 C 311.645 608.8 253.145 484.134 195 359.5 C 184.856 337.195 172.689 316.195 158.5 296.5 Z" stroke-linecap="round"/>
</g>
		<g transform="matrix(1 0 0 1 -349.25 -29.5)">
<path style="stroke: none; stroke-width: 1; stroke-dasharray: none; stroke-linecap: butt; stroke-dashoffset: 0; stroke-linejoin: miter; stroke-miterlimit: 4; is-custom-font: none; font-file-url: none; fill: rgb(0,0,0); fill-rule: evenodd; opacity: 0.948;" transform=" translate(-101.25, -399)" d="M -0.5 327.5 C -0.5 327.167 -0.5 326.833 -0.5 326.5 C 44.5023 326.732 89.5023 327.232 134.5 328 C 137.96 333.752 141.293 339.585 144.5 345.5 C 121.9 348.2 99.2334 350.367 76.5 352 C 116.76 386.382 156.927 420.882 197 455.5 C 199.822 460.647 201.822 465.98 203 471.5 C 135.225 423.368 67.3919 375.368 -0.5 327.5 Z" stroke-linecap="round"/>
</g>
		<g transform="matrix(1 0 0 1 347.75 -29.5)">
<path style="stroke: none; stroke-width: 1; stroke-dasharray: none; stroke-linecap: butt; stroke-dashoffset: 0; stroke-linejoin: miter; stroke-miterlimit: 4; is-custom-font: none; font-file-url: none; fill: rgb(0,0,0); fill-rule: evenodd; opacity: 0.948;" transform=" translate(-798.25, -399)" d="M 900.5 326.5 C 900.5 326.833 900.5 327.167 900.5 327.5 C 832.231 375.255 764.064 423.255 696 471.5 C 697.565 464.863 700.398 458.696 704.5 453 C 744.128 419.708 783.461 386.041 822.5 352 C 799.822 350.11 777.155 348.11 754.5 346 C 757.633 340.038 760.967 334.205 764.5 328.5 C 809.824 327.223 855.158 326.556 900.5 326.5 Z" stroke-linecap="round"/>
</g>
		<g transform="matrix(1 0 0 1 -200 296)">
<path style="stroke: none; stroke-width: 1; stroke-dasharray: none; stroke-linecap: butt; stroke-dashoffset: 0; stroke-linejoin: miter; stroke-miterlimit: 4; is-custom-font: none; font-file-url: none; fill: rgb(0,0,0); fill-rule: evenodd; opacity: 0.945;" transform=" translate(-250.5, -724.5)" d="M 172.5 856.5 C 172.167 856.5 171.833 856.5 171.5 856.5 C 200.241 768.111 230.074 680.111 261 592.5 C 262.739 594.71 263.906 597.21 264.5 600 C 248.781 663.37 233.948 726.87 220 790.5 C 254.667 769.167 289.333 747.833 324 726.5 C 326.306 729.912 328.14 733.579 329.5 737.5 C 277.316 777.418 224.983 817.085 172.5 856.5 Z" stroke-linecap="round"/>
</g>
		<g transform="matrix(1 0 0 1 198.5 296)">
<path style="stroke: none; stroke-width: 1; stroke-dasharray: none; stroke-linecap: butt; stroke-dashoffset: 0; stroke-linejoin: miter; stroke-miterlimit: 4; is-custom-font: none; font-file-url: none; fill: rgb(0,0,0); fill-rule: evenodd; opacity: 0.945;" transform=" translate(-649, -724.5)" d="M 728.5 856.5 C 728.167 856.5 727.833 856.5 727.5 856.5 C 674.852 816.858 622.185 777.191 569.5 737.5 C 571.333 733.833 573.167 730.167 575 726.5 C 610.102 748.119 645.269 769.286 680.5 790 C 665.252 726.507 649.919 663.007 634.5 599.5 C 635.58 597.004 636.914 594.67 638.5 592.5 C 669.097 680.291 699.097 768.291 728.5 856.5 Z" stroke-linecap="round"/>
</g>
</g>
</g>
</svg>