<svg xmlns="http://www.w3.org/2000/svg" xmlns:xlink="http://www.w3.org/1999/xlink" version="1.1" width="1000" height="1000" viewBox="0 0 1000 1000" xml:space="preserve">
<desc>Created with Fabric.js 3.5.0</desc>
<defs>
</defs>
<rect x="0" y="0" width="100%" height="100%" fill="rgba(255,255,255,0)"/>
<g transform="matrix(0.32 0 0 0.32 500 500)" id="735353">
<g style="" vector-effect="non-scaling-stroke">
		<g transform="matrix(12.9698 0 0 12.9698 0.0034 0.0034)">
<path style="stroke: none; stroke-width: 1; stroke-dasharray: none; stroke-linecap: butt; stroke-dashoffset: 0; stroke-linejoin: miter; stroke-miterlimit: 4; is-custom-font: none; font-file-url: none; fill: rgb(255,255,255); fill-rule: evenodd; opacity: 1;" transform=" translate(-96.378, -96.378)" d="M 0 0 h 192.756 v 192.756 H 0 V 0 z" stroke-linecap="round"/>
</g>
		<g transform="matrix(12.9698 0 0 12.9698 0.0029 -589.935)">
<path style="stroke: none; stroke-width: 1; stroke-dasharray: none; stroke-linecap: butt; stroke-dashoffset: 0; stroke-linejoin: miter; stroke-miterlimit: 4; is-custom-font: none; font-file-url: none; fill: rgb(136,145,184); fill-rule: evenodd; opacity: 1;" transform=" translate(-96.378, -50.8925)" d="M 84.751 50.867 c -0.282 0.018 -5.562 -0.028 -8.344 0.007 c -0.599 0.669 0.599 1.232 0.494 2.043 c -3.028 1.091 -4.472 -1.62 -5.563 -3.556 c -0.071 -0.493 -0.862 -1.32 -1.039 -1.778 l 11.354 0.018 l 0.071 -27.144 l -62.209 -0.07 l -0.141 0.316 v 27.32 l 17.99 0.071 c 5.879 8.59 11.583 17.286 16.97 26.123 l -2.289 1.267 L 35.85 51.121 l -19.592 -0.017 l 0.053 -33.675 l 0.528 -0.246 h 67.895 l 0.017 33.684 z M 176.498 17.217 l -0.053 33.622 l -19.451 0.035 c -7.463 11.266 -14.857 22.532 -22.566 33.728 c -1.021 -0.986 -1.656 -2.464 -1.021 -3.802 c 7.111 -11.125 14.717 -21.969 22.074 -32.953 h 17.215 l 0.529 -0.089 V 20.457 l -65.607 -0.07 c 0 1.496 -0.035 25.26 0 27.461 h 12.869 v 0.738 c -2.641 3.592 -4.367 7.535 -6.83 11.162 c -0.986 -0.212 -3.592 -0.529 -2.289 -2.29 l 3.803 -6.054 l -0.494 -0.529 h -9.893 l -0.527 -0.738 l -0.07 -32.953 h 71.82 l 0.491 0.033 z" stroke-linecap="round"/>
</g>
		<g transform="matrix(12.9698 0 0 12.9698 -3.1879 -596.5498)">
<path style="stroke: none; stroke-width: 1; stroke-dasharray: none; stroke-linecap: butt; stroke-dashoffset: 0; stroke-linejoin: miter; stroke-miterlimit: 4; is-custom-font: none; font-file-url: none; fill: rgb(26,59,115); fill-rule: evenodd; opacity: 1;" transform=" translate(-96.132, -50.3825)" d="M 78.414 23.555 v 20.947 c -0.546 0 -9.083 0 -13.414 0.035 c 0.704 3.521 3.872 6.689 5.563 10.141 C 68.626 61.19 62.395 67 56.622 70.661 C 50.707 61.93 44.968 53.41 38.877 44.537 c -5.316 -0.07 -14.875 -0.035 -16.283 -0.035 l 0.053 -20.489 l 0.774 -0.493 H 77.92 l 0.494 0.035 z M 169.668 44.502 c -1.084 -0.028 -14.346 0 -15.982 0.035 c -7.324 10.915 -14.682 21.793 -22.039 32.708 c -1.408 -4.472 -9.225 0.176 -7.111 -6.337 c -1.199 -1.866 -3.381 -3.521 -5.564 -4.049 c -1.232 -1.268 -2.781 -3.134 -2.781 -4.823 c 3.416 -5.739 6.936 -11.443 10.141 -17.252 l -15.455 -0.017 V 24.013 l 0.492 -0.493 h 58.301 v 20.982 h -0.002 z" stroke-linecap="round"/>
</g>
		<g transform="matrix(12.9698 0 0 12.9698 -16.1067 -16.6124)">
<path style="stroke: none; stroke-width: 1; stroke-dasharray: none; stroke-linecap: butt; stroke-dashoffset: 0; stroke-linejoin: miter; stroke-miterlimit: 4; is-custom-font: none; font-file-url: none; fill: rgb(26,59,115); fill-rule: evenodd; opacity: 1;" transform=" translate(-95.136, -95.097)" d="M 88.553 61.542 c 1.971 -1.127 4.049 -1.938 6.337 -2.289 c 6.371 -1.408 12.955 -0.141 17.744 3.802 c 3.027 1.901 2.498 7.041 6.83 6.583 c 1.162 0.387 2.428 1.619 2.816 2.781 c 1.09 1.971 -2.5 5.14 1.514 4.823 c 2.535 -1.057 5.07 0.492 6.09 2.781 c 0.951 2.429 1.092 5.14 2.535 7.358 c 1.092 1.125 -0.105 3.168 0.986 4.294 c 2.43 -1.478 2.604 -4.153 4.084 -5.808 c 2.676 2.076 3.133 5.069 3.52 8.097 c 0.74 0.95 1.443 0.281 2.289 0.774 c -0.035 14.611 -10.844 27.636 -23.307 34.22 c -8.133 3.52 -19.539 5.174 -28.129 1.514 c -1.69 -0.246 -2.712 1.197 -4.049 1.76 c -5.634 2.43 -13.132 3.204 -18.518 -0.246 c -7.042 -4.154 -8.521 -12.217 -7.605 -20.032 l 1.021 -3.027 c -4.964 -8.309 -10.773 -16.266 -15.737 -24.574 c 1.337 -4.366 6.055 -5.95 9.4 -8.133 c 2.112 -0.844 4.365 -1.302 6.337 -2.534 c -0.845 -0.739 -2.078 -1.127 -2.535 -2.289 c 5.175 -3.943 10.35 -9.013 12.921 -14.927 c 4.646 -2.324 8.132 2.816 12.181 4.295 c 0.951 0.6 2.008 0.918 3.275 0.777 z" stroke-linecap="round"/>
</g>
		<g transform="matrix(12.9698 0 0 12.9698 -76.9389 -69.9115)">
<path style="stroke: none; stroke-width: 1; stroke-dasharray: none; stroke-linecap: butt; stroke-dashoffset: 0; stroke-linejoin: miter; stroke-miterlimit: 4; is-custom-font: none; font-file-url: none; fill: rgb(255,255,255); fill-rule: evenodd; opacity: 1;" transform=" translate(-90.4457, -90.9876)" d="M 85.279 64.323 c 3.274 0.282 5.914 -2.465 9.365 -2.535 c 5.069 -0.634 11.758 -1.584 14.963 3.273 c 0.387 1.62 -0.494 2.888 -1.797 3.557 c -0.633 0.282 -1.584 0.422 -1.76 1.268 l 0.492 0.528 l 11.16 1.268 c 1.479 0.387 1.443 2.183 1.021 3.274 l -0.773 0.774 l -16.725 -0.774 c -0.949 0.492 -1.689 1.513 -2.533 2.288 c -0.389 2.323 0.387 4.4 2.287 5.562 c 2.008 0.177 3.908 0.74 6.092 0.529 c 0.809 2.394 -1.127 4.471 -3.062 5.808 c -1.164 0.599 -2.5 0.81 -3.557 1.796 c 0.949 0.844 2.711 0.528 3.803 0.247 c 8.096 -1.832 14.504 -11.513 23.588 -7.113 c 1.936 1.479 1.619 4.226 1.268 6.337 c -2.887 8.204 -13.941 1.938 -19.504 6.337 c -7.992 6.479 -11.268 16.195 -20.033 22.322 c -3.873 3.062 -8.661 4.646 -13.942 3.556 c -3.661 -0.599 -6.619 -3.732 -7.851 -7.112 c -3.31 -7.956 4.436 -12.569 6.337 -19.011 c 0.141 -0.775 -0.176 -1.303 -0.774 -1.76 c -1.021 0.176 -0.916 1.302 -1.268 2.005 c -2.218 3.346 -6.055 4.93 -8.097 8.134 c -4.19 -6.514 -8.45 -12.957 -12.428 -19.54 c -0.387 -2.535 2.604 -3.45 4.049 -4.787 a 33.567 33.567 0 0 1 8.625 -3.063 c -1.268 4.224 -1.338 10.104 2.535 12.919 c 0.916 -0.915 0.106 -2.393 0 -3.52 c 0.035 -6.056 3.098 -11.301 8.379 -14.716 c 2.746 -1.198 5.386 -2.677 8.591 -2.781 l 0.528 -0.775 c -2.007 -1.902 -4.155 -3.451 -6.584 -4.295 c -2.042 2.535 -3.696 5.914 -6.865 7.358 c -1.867 0.035 -3.767 0.104 -5.07 -1.268 c 3.45 -3.274 6.584 -7.781 9.646 -11.407 c 3.803 0.494 6.479 3.767 9.894 5.317 z" stroke-linecap="round"/>
</g>
		<g transform="matrix(12.9698 0 0 12.9698 2.749 -248.8523)">
<path style="stroke: none; stroke-width: 1; stroke-dasharray: none; stroke-linecap: butt; stroke-dashoffset: 0; stroke-linejoin: miter; stroke-miterlimit: 4; is-custom-font: none; font-file-url: none; fill: rgb(26,59,115); fill-rule: evenodd; opacity: 1;" transform=" translate(-96.5899, -77.1909)" d="M 100.453 72.175 c -2.605 1.759 -3.908 4.858 -3.273 7.851 c 0.809 0.669 1.268 1.479 1.76 2.288 c -1.443 0.598 -2.817 -0.599 -4.049 -1.267 c -1.057 -1.373 -2.676 -2.817 -2.007 -4.578 c 1.091 -2.745 3.555 -4.119 6.337 -4.541 c 0.386 0.07 0.986 -0.212 1.232 0.247 z" stroke-linecap="round"/>
</g>
		<g transform="matrix(12.9698 0 0 12.9698 263.5788 83.8051)">
<path style="stroke: none; stroke-width: 1; stroke-dasharray: none; stroke-linecap: butt; stroke-dashoffset: 0; stroke-linejoin: miter; stroke-miterlimit: 4; is-custom-font: none; font-file-url: none; fill: rgb(255,255,255); fill-rule: evenodd; opacity: 1;" transform=" translate(-116.7005, -102.8395)" d="M 103.762 77.491 c -0.527 0.95 -1.09 2.183 -0.492 3.309 c -0.773 0.07 -0.281 -0.81 -0.773 -1.021 c 0.245 -0.845 0.175 -2.254 1.265 -2.288 z M 114.148 78.019 c -3.064 0.316 -6.057 5.879 -8.873 1.761 c -0.598 -1.338 0.986 -1.409 1.516 -2.043 c 2.535 -0.07 4.928 0.141 7.357 0.282 z M 117.951 78.265 c -1.654 1.478 -3.557 3.309 -6.092 3.273 c 1.903 -1.477 4.084 -2.182 6.092 -3.273 z M 121.752 79.004 c -0.211 0.81 -0.633 1.76 -1.514 2.042 h -1.76 c 0.422 -1.232 1.655 -2.605 3.274 -2.042 z M 137.982 93.967 c -1.373 0.387 -3.203 0.387 -4.576 0 c 1.76 -1.127 2.992 -2.923 4.084 -4.542 c 0.914 0.95 0.317 3.028 0.492 4.542 z M 139.004 96.502 c -1.232 11.829 -10.352 23.552 -21.793 27.391 c -5.176 1.936 -11.619 0.844 -16.477 -1.021 c -1.76 2.147 -3.908 4.365 -6.337 5.316 c 6.618 -8.062 10.421 -17.287 15.21 -26.124 c 6.934 -8.696 19.291 -4.471 29.397 -5.562 z" stroke-linecap="round"/>
</g>
		<g transform="matrix(12.9698 0 0 12.9698 7.1869 747.7012)">
<path style="stroke: none; stroke-width: 1; stroke-dasharray: none; stroke-linecap: butt; stroke-dashoffset: 0; stroke-linejoin: miter; stroke-miterlimit: 4; is-custom-font: none; font-file-url: none; fill: rgb(136,145,184); fill-rule: evenodd; opacity: 1;" transform=" translate(-96.932, -154.0275)" d="M 118.971 132.481 c 0.74 1.797 -0.457 4.578 1.021 5.846 h 23.799 l 0.035 37.229 l -60.342 0.018 l -33.446 -0.018 v -37.494 l 22.813 0.018 c 0.035 -1.69 1.901 -1.162 3.028 -1.267 c 1.231 1.267 -0.212 2.71 0.246 4.294 l -22.99 -0.052 l -0.069 0.827 v 29.889 l 0.527 0.529 h 87.417 l -0.035 -30.665 l -24.82 -0.053 l 0.035 -8.08 c 0.775 -0.668 1.796 -0.773 2.781 -1.021 z" stroke-linecap="round"/>
</g>
		<g transform="matrix(12.9698 0 0 12.9698 10.5452 710.0433)">
<path style="stroke: none; stroke-width: 1; stroke-dasharray: none; stroke-linecap: butt; stroke-dashoffset: 0; stroke-linejoin: miter; stroke-miterlimit: 4; is-custom-font: none; font-file-url: none; fill: rgb(26,59,115); fill-rule: evenodd; opacity: 1;" transform=" translate(-97.1909, -151.124)" d="M 112.635 134.278 v 10.121 l 0.773 0.018 h 23.801 l 0.527 0.158 v 24.381 l -0.527 0.034 H 56.656 c -0.035 -0.21 0.035 -24.238 0 -24.855 l 22.778 0.036 c 0.528 -2.288 -0.036 -5.07 0.494 -7.357 c 4.189 -0.036 7.745 -1.62 11.16 -3.556 c 6.584 1.83 14.611 2.392 21.547 1.02 z" stroke-linecap="round"/>
</g>
</g>
</g>
</svg>