<svg xmlns="http://www.w3.org/2000/svg" xmlns:xlink="http://www.w3.org/1999/xlink" version="1.1" width="1000" height="1000" viewBox="0 0 1000 1000" xml:space="preserve">
<desc>Created with Fabric.js 3.5.0</desc>
<defs>
</defs>
<rect x="0" y="0" width="100%" height="100%" fill="rgba(255,255,255,0)"/>
<g transform="matrix(0.3 0 0 0.3 500 500)" id="954055">
<g style="" vector-effect="non-scaling-stroke">
		<g transform="matrix(1 0 0 1 1034.5 -0.5)">
<path style="stroke: none; stroke-width: 1; stroke-dasharray: none; stroke-linecap: butt; stroke-dashoffset: 0; stroke-linejoin: miter; stroke-miterlimit: 4; is-custom-font: none; font-file-url: none; fill: rgb(119,229,219); fill-rule: evenodd; opacity: 0.998;" transform=" translate(-2284.5, -1096.5)" d="M 2069.5 -0.5 C 2071.17 -0.5 2072.83 -0.5 2074.5 -0.5 C 2215.94 36.611 2357.61 73.2777 2499.5 109.5 C 2499.5 767.833 2499.5 1426.17 2499.5 2084.5 C 2357.58 2120.26 2215.91 2156.59 2074.5 2193.5 C 2072.83 2193.5 2071.17 2193.5 2069.5 2193.5 C 2069.5 1462.17 2069.5 730.833 2069.5 -0.5 Z" stroke-linecap="round"/>
</g>
		<g transform="matrix(1 0 0 1 -1036 -0.5)">
<path style="stroke: none; stroke-width: 1; stroke-dasharray: none; stroke-linecap: butt; stroke-dashoffset: 0; stroke-linejoin: miter; stroke-miterlimit: 4; is-custom-font: none; font-file-url: none; fill: rgb(50,89,180); fill-rule: evenodd; opacity: 0.999;" transform=" translate(-214, -1096.5)" d="M -0.5 113.5 C 142.356 150.964 285.356 187.964 428.5 224.5 C 428.5 806.167 428.5 1387.83 428.5 1969.5 C 285.363 2005.7 142.363 2042.37 -0.5 2079.5 C -0.5 1424.17 -0.5 768.833 -0.5 113.5 Z" stroke-linecap="round"/>
</g>
		<g transform="matrix(1 0 0 1 353.063 181.5)">
<path style="stroke: none; stroke-width: 1; stroke-dasharray: none; stroke-linecap: butt; stroke-dashoffset: 0; stroke-linejoin: miter; stroke-miterlimit: 4; is-custom-font: none; font-file-url: none; fill: rgb(0,199,209); fill-rule: evenodd; opacity: 0.999;" transform=" translate(-1603.063, -1278.5)" d="M 1815.5 699.5 C 1816.5 699.5 1817.5 699.5 1818.5 699.5 C 1818.83 1085.5 1818.5 1471.5 1817.5 1857.5 C 1674.54 1820.34 1531.54 1783.34 1388.5 1746.5 C 1387.17 1434.5 1387.17 1122.5 1388.5 810.5 C 1530.99 773.629 1673.32 736.629 1815.5 699.5 Z" stroke-linecap="round"/>
</g>
		<g transform="matrix(1 0 0 1 -356 463)">
<path style="stroke: none; stroke-width: 1; stroke-dasharray: none; stroke-linecap: butt; stroke-dashoffset: 0; stroke-linejoin: miter; stroke-miterlimit: 4; is-custom-font: none; font-file-url: none; fill: rgb(60,140,255); fill-rule: evenodd; opacity: 0.998;" transform=" translate(-894, -1560)" d="M 679.5 981.5 C 822.536 1018.01 965.536 1054.68 1108.5 1091.5 C 1108.5 1403.83 1108.5 1716.17 1108.5 2028.5 C 965.536 2065.32 822.536 2101.99 679.5 2138.5 C 679.5 1752.83 679.5 1367.17 679.5 981.5 Z" stroke-linecap="round"/>
</g>
</g>
</g>
</svg>