<svg xmlns="http://www.w3.org/2000/svg" xmlns:xlink="http://www.w3.org/1999/xlink" version="1.1" width="1000" height="1000" viewBox="0 0 1000 1000" xml:space="preserve">
<desc>Created with Fabric.js 3.5.0</desc>
<defs>
</defs>
<rect x="0" y="0" width="100%" height="100%" fill="rgba(255,255,255,0)"/>
<g transform="matrix(0.3846 0 0 0.3846 499.98 499.9862)" id="78495">
<g style="" vector-effect="non-scaling-stroke">
		<g transform="matrix(1 0 0 1 553.5013 -0.9987)">
<path style="stroke: none; stroke-width: 1; stroke-dasharray: none; stroke-linecap: butt; stroke-dashoffset: 0; stroke-linejoin: miter; stroke-miterlimit: 4; is-custom-font: none; font-file-url: none; fill: rgb(7,70,148); fill-rule: evenodd; opacity: 0.999;" transform=" translate(-1853.5013, -899.0012)" d="M 1490.5 1607.5 C 1515.23 1617.03 1539.9 1626.86 1564.5 1637 C 1580.68 1643.06 1597.02 1648.73 1613.5 1654 C 1626.44 1657.24 1636.94 1653.74 1645 1643.5 C 1648.33 1637.18 1650.66 1630.52 1652 1623.5 C 1654.75 1598.46 1653.59 1573.63 1648.5 1549 C 1648.83 1548.5 1649.17 1548 1649.5 1547.5 C 1693.17 1573.33 1736.83 1599.17 1780.5 1625 C 1835.44 1651.41 1854.27 1635.24 1837 1576.5 C 1825.19 1544.88 1811.19 1514.21 1795 1484.5 C 1769.02 1433.86 1742.02 1383.86 1714 1334.5 C 1697.26 1309.92 1675.76 1290.92 1649.5 1277.5 C 1649.5 1267.5 1649.5 1257.5 1649.5 1247.5 C 1651.1 1239.86 1652.43 1232.19 1653.5 1224.5 C 1653.07 1216.34 1651.73 1208.34 1649.5 1200.5 C 1649.5 1187.17 1649.5 1173.83 1649.5 1160.5 C 1666.05 1141.04 1674.72 1118.38 1675.5 1092.5 C 1709.85 1092.89 1744.18 1092.39 1778.5 1091 C 1789.48 1090.57 1800.14 1088.57 1810.5 1085 C 1811.57 1084.26 1812.24 1083.26 1812.5 1082 C 1809.56 1056.39 1803.39 1031.56 1794 1007.5 C 1765.03 935.228 1730.03 866.228 1689 800.5 C 1676.65 785.324 1663.49 770.991 1649.5 757.5 C 1649.5 745.833 1649.5 734.167 1649.5 722.5 C 1649.5 717.167 1649.5 711.833 1649.5 706.5 C 1649.67 619.833 1649.5 533.166 1649 446.5 C 1568.5 316 1488 185.5 1407.5 55 C 1593.17 54.3333 1778.83 54.3333 1964.5 55 C 2084.36 66.6458 2177.53 122.146 2244 221.5 C 2275.92 272.586 2294.25 328.253 2299 388.5 C 2299.67 731.167 2299.67 1073.83 2299 1416.5 C 2285.02 1550.37 2218.19 1647.54 2098.5 1708 C 2054.14 1728.76 2007.47 1740.42 1958.5 1743 C 1774.83 1743.67 1591.17 1743.67 1407.5 1743 C 1435.42 1697.93 1463.09 1652.76 1490.5 1607.5 Z" stroke-linecap="round"/>
</g>
		<g transform="matrix(1 0 0 1 -473.5 -1.0638)">
<path style="stroke: none; stroke-width: 1; stroke-dasharray: none; stroke-linecap: butt; stroke-dashoffset: 0; stroke-linejoin: miter; stroke-miterlimit: 4; is-custom-font: none; font-file-url: none; fill: rgb(7,70,148); fill-rule: evenodd; opacity: 0.998;" transform=" translate(-826.5, -898.9363)" d="M 1226.5 262.5 C 1225.09 262.973 1224.43 263.973 1224.5 265.5 C 1223.83 265.5 1223.5 265.833 1223.5 266.5 C 1222.83 266.5 1222.5 266.833 1222.5 267.5 C 1222.5 267.833 1222.5 268.167 1222.5 268.5 C 1221.83 268.5 1221.5 268.833 1221.5 269.5 C 1205.93 290.956 1191.6 313.29 1178.5 336.5 C 1177.5 336.833 1176.5 337.167 1175.5 337.5 C 1130.21 328.591 1084.54 325.758 1038.5 329 C 921.903 340.354 835.736 397.187 780 499.5 C 743.863 569.791 724.196 644.458 721 723.5 C 718.645 794.726 732.312 862.726 762 927.5 C 781.459 970.451 805.459 1010.45 834 1047.5 C 840.649 1058.07 842.649 1069.4 840 1081.5 C 824.787 1100.13 817.287 1121.63 817.5 1146 C 817.177 1162.57 820.343 1178.4 827 1193.5 C 838.724 1205.5 841.724 1219.5 836 1235.5 C 832.857 1242.96 828.357 1249.46 822.5 1255 C 808.921 1257.58 800.088 1265.42 796 1278.5 C 795.161 1287.22 795.495 1295.89 797 1304.5 C 801.905 1311.97 806.571 1319.63 811 1327.5 C 816.32 1343.71 810.487 1353.38 793.5 1356.5 C 746.942 1419.37 726.775 1490.03 733 1568.5 C 734.624 1586.2 737.457 1603.7 741.5 1621 C 741.85 1622.26 742.517 1622.59 743.5 1622 C 832.439 1556.7 930.106 1508.03 1036.5 1476 C 1062.14 1469.83 1088.14 1467.83 1114.5 1470 C 1140.77 1471.66 1166.77 1475.16 1192.5 1480.5 C 1245.64 1568.11 1299.31 1655.45 1353.5 1742.5 C 1002.17 1743.83 650.833 1743.83 299.5 1742.5 C 379.416 1612.33 459.583 1482.33 540 1352.5 C 540.667 1050.17 540.667 747.833 540 445.5 C 459.292 315.401 379.125 185.068 299.5 54.5 C 650.834 54.1667 1002.17 54.5 1353.5 55.5 C 1310.89 124.389 1268.56 193.389 1226.5 262.5 Z" stroke-linecap="round"/>
</g>
		<g transform="matrix(1 0 0 1 -18.0317 18.7637)">
<path style="stroke: none; stroke-width: 1; stroke-dasharray: none; stroke-linecap: butt; stroke-dashoffset: 0; stroke-linejoin: miter; stroke-miterlimit: 4; is-custom-font: none; font-file-url: none; fill: rgb(253,253,254); fill-rule: evenodd; opacity: 0.995;" transform=" translate(-1281.9683, -918.7637)" d="M 1649.5 706.5 C 1649.5 711.833 1649.5 717.167 1649.5 722.5 C 1647.8 732.565 1646.13 742.731 1644.5 753 C 1646.04 754.707 1647.7 756.207 1649.5 757.5 C 1663.49 770.991 1676.65 785.324 1689 800.5 C 1730.03 866.228 1765.03 935.228 1794 1007.5 C 1803.39 1031.56 1809.56 1056.39 1812.5 1082 C 1812.24 1083.26 1811.57 1084.26 1810.5 1085 C 1800.14 1088.57 1789.48 1090.57 1778.5 1091 C 1744.18 1092.39 1709.85 1092.89 1675.5 1092.5 C 1674.72 1118.38 1666.05 1141.04 1649.5 1160.5 C 1642.5 1164.99 1634.84 1167.82 1626.5 1169 C 1635.96 1178.28 1643.63 1188.78 1649.5 1200.5 C 1651.73 1208.34 1653.07 1216.34 1653.5 1224.5 C 1652.43 1232.19 1651.1 1239.86 1649.5 1247.5 C 1645.3 1256.05 1639.97 1263.88 1633.5 1271 C 1638.79 1273.26 1644.12 1275.43 1649.5 1277.5 C 1675.76 1290.92 1697.26 1309.92 1714 1334.5 C 1742.02 1383.86 1769.02 1433.86 1795 1484.5 C 1811.19 1514.21 1825.19 1544.88 1837 1576.5 C 1854.27 1635.24 1835.44 1651.41 1780.5 1625 C 1736.83 1599.17 1693.17 1573.33 1649.5 1547.5 C 1649.17 1548 1648.83 1548.5 1648.5 1549 C 1653.59 1573.63 1654.75 1598.46 1652 1623.5 C 1650.66 1630.52 1648.33 1637.18 1645 1643.5 C 1636.94 1653.74 1626.44 1657.24 1613.5 1654 C 1597.02 1648.73 1580.68 1643.06 1564.5 1637 C 1539.9 1626.86 1515.23 1617.03 1490.5 1607.5 C 1427.14 1578.82 1365.47 1546.99 1305.5 1512 C 1268.46 1499.16 1230.79 1488.66 1192.5 1480.5 C 1166.77 1475.16 1140.77 1471.66 1114.5 1470 C 1088.14 1467.83 1062.14 1469.83 1036.5 1476 C 930.106 1508.03 832.439 1556.7 743.5 1622 C 742.517 1622.59 741.85 1622.26 741.5 1621 C 737.457 1603.7 734.624 1586.2 733 1568.5 C 726.775 1490.03 746.942 1419.37 793.5 1356.5 C 810.487 1353.38 816.32 1343.71 811 1327.5 C 806.571 1319.63 801.905 1311.97 797 1304.5 C 795.495 1295.89 795.161 1287.22 796 1278.5 C 800.088 1265.42 808.921 1257.58 822.5 1255 C 828.357 1249.46 832.857 1242.96 836 1235.5 C 841.724 1219.5 838.724 1205.5 827 1193.5 C 820.343 1178.4 817.177 1162.57 817.5 1146 C 817.287 1121.63 824.787 1100.13 840 1081.5 C 842.649 1069.4 840.649 1058.07 834 1047.5 C 805.459 1010.45 781.459 970.451 762 927.5 C 732.312 862.726 718.645 794.726 721 723.5 C 724.196 644.458 743.863 569.791 780 499.5 C 835.736 397.187 921.903 340.354 1038.5 329 C 1084.54 325.758 1130.21 328.591 1175.5 337.5 C 1176.5 337.167 1177.5 336.833 1178.5 336.5 C 1191.6 313.29 1205.93 290.956 1221.5 269.5 C 1222.17 269.5 1222.5 269.167 1222.5 268.5 C 1222.5 268.167 1222.5 267.833 1222.5 267.5 C 1223.17 267.5 1223.5 267.167 1223.5 266.5 C 1224.17 266.5 1224.5 266.167 1224.5 265.5 C 1225.91 265.027 1226.57 264.027 1226.5 262.5 C 1235.6 252.229 1244.93 242.063 1254.5 232 C 1271.38 214.892 1290.71 201.225 1312.5 191 C 1326.81 184.505 1341.81 181.671 1357.5 182.5 C 1349.7 240.36 1341.7 298.194 1333.5 356 C 1333.91 356.945 1334.57 357.612 1335.5 358 C 1341.07 359.046 1346.57 360.213 1352 361.5 C 1362.2 326.171 1369.2 290.171 1373 253.5 C 1402.75 270.943 1421.42 296.61 1429 330.5 C 1431.16 341.056 1432.32 351.723 1432.5 362.5 C 1431.87 374.221 1431.04 385.888 1430 397.5 C 1471.64 421.8 1506.31 453.8 1534 493.5 C 1568.4 543.308 1593.4 597.642 1609 656.5 C 1622.36 673.355 1635.86 690.022 1649.5 706.5 Z" stroke-linecap="round"/>
</g>
		<g transform="matrix(1 0 0 1 -19.8787 10.815)">
<path style="stroke: none; stroke-width: 1; stroke-dasharray: none; stroke-linecap: butt; stroke-dashoffset: 0; stroke-linejoin: miter; stroke-miterlimit: 4; is-custom-font: none; font-file-url: none; fill: rgb(8,70,148); fill-rule: evenodd; opacity: 1;" transform=" translate(-1280.1213, -910.815)" d="M 1334.5 202.5 C 1335.38 202.369 1336.04 202.702 1336.5 203.5 C 1322.25 237.943 1312.75 273.609 1308 310.5 C 1306.05 333.46 1309.72 355.46 1319 376.5 C 1328.71 390.549 1340.55 392.382 1354.5 382 C 1359.8 378.425 1364.63 374.258 1369 369.5 C 1380.91 346.853 1387.91 323.52 1390 299.5 C 1406.89 334.521 1414.89 371.521 1414 410.5 C 1461.56 442.33 1499.56 482.997 1528 532.5 C 1544.96 562.359 1558.62 593.693 1569 626.5 C 1583.89 657.299 1600.56 686.966 1619 715.5 C 1619.67 717.167 1619.67 718.833 1619 720.5 C 1615.4 731.141 1611.9 741.808 1608.5 752.5 C 1629.49 773.986 1650.65 795.32 1672 816.5 C 1707.14 892.918 1742.47 969.251 1778 1045.5 C 1782.69 1059.63 1777.85 1068.47 1763.5 1072 C 1726.49 1071.44 1689.49 1070.27 1652.5 1068.5 C 1654.91 1080.79 1655.07 1093.13 1653 1105.5 C 1647.86 1120.97 1637.36 1130.47 1621.5 1134 C 1615.5 1134.83 1609.5 1135.67 1603.5 1136.5 C 1599.83 1141.83 1596.17 1147.17 1592.5 1152.5 C 1606.18 1168.51 1617.35 1186.18 1626 1205.5 C 1627.46 1211.1 1627.79 1216.76 1627 1222.5 C 1625.08 1224.96 1622.75 1226.96 1620 1228.5 C 1613.06 1241.06 1602.56 1248.89 1588.5 1252 C 1621.18 1278.01 1652.02 1306.18 1681 1336.5 C 1687.58 1344.65 1693.91 1352.99 1700 1361.5 C 1704.96 1371.34 1709.63 1381.34 1714 1391.5 C 1744.25 1447.67 1774.25 1504.01 1804 1560.5 C 1808.52 1569.48 1809.85 1578.81 1808 1588.5 C 1806.83 1589.67 1805.67 1590.83 1804.5 1592 C 1796.83 1593.26 1789.5 1592.26 1782.5 1589 C 1702.45 1546.97 1621.12 1507.64 1538.5 1471 C 1505.92 1456.14 1472.08 1445.31 1437 1438.5 C 1431.13 1438.8 1430.13 1441.14 1434 1445.5 C 1440.38 1451.6 1447.21 1457.1 1454.5 1462 C 1509.62 1486.65 1564.79 1511.15 1620 1535.5 C 1625.43 1555.12 1627.43 1575.12 1626 1595.5 C 1624.39 1616.04 1613.89 1623.2 1594.5 1617 C 1500.92 1568.25 1404.92 1524.92 1306.5 1487 C 1280.2 1477.12 1253.53 1468.46 1226.5 1461 C 1206.51 1457.97 1186.84 1453.63 1167.5 1448 C 1117.39 1440.59 1067.72 1442.92 1018.5 1455 C 952.57 1471.42 889.903 1496.09 830.5 1529 C 813.371 1538.63 796.371 1548.47 779.5 1558.5 C 768.318 1507.72 775.485 1459.38 801 1413.5 C 810.108 1398.28 820.442 1383.95 832 1370.5 C 843.96 1357.87 856.46 1346.03 869.5 1335 C 860.66 1320.49 854.16 1304.99 850 1288.5 C 847.124 1275.54 852.124 1268.21 865 1266.5 C 869.514 1266.88 874.014 1267.38 878.5 1268 C 886.56 1270.41 894.56 1272.91 902.5 1275.5 C 906.338 1292.85 915.004 1307.35 928.5 1319 C 958.029 1341.29 991.362 1353.29 1028.5 1355 C 979.32 1316.84 932.82 1275.34 889 1230.5 C 881.621 1222.12 874.621 1213.46 868 1204.5 C 863.789 1198.28 860.455 1191.62 858 1184.5 C 856.55 1168.19 856.217 1151.86 857 1135.5 C 858.213 1123.51 862.713 1113.01 870.5 1104 C 876.199 1099.87 882.532 1098.54 889.5 1100 C 895.317 1101.94 900.983 1104.27 906.5 1107 C 959.348 1145.25 1012.68 1182.75 1066.5 1219.5 C 1068.74 1219.43 1069.74 1218.26 1069.5 1216 C 1063.86 1203.68 1055.86 1193.01 1045.5 1184 C 995.088 1152.34 948.588 1115.51 906 1073.5 C 900.283 1066.78 894.95 1059.78 890 1052.5 C 807.448 980.066 761.448 888.733 752 778.5 C 749.466 726.771 755.466 676.105 770 626.5 C 778.232 556.721 805.898 496.054 853 444.5 C 901.191 396.989 959.024 368.489 1026.5 359 C 1056.35 354.721 1086.35 353.388 1116.5 355 C 1131.53 355.589 1145.53 359.589 1158.5 367 C 1161.37 369.537 1163.87 372.37 1166 375.5 C 1167.73 384.985 1165.39 393.318 1159 400.5 C 1148.01 410.29 1143.18 422.623 1144.5 437.5 C 1144 458.161 1153.33 472.328 1172.5 480 C 1178.07 482.285 1183.74 484.285 1189.5 486 C 1205.8 487.052 1215.97 479.552 1220 463.5 C 1226.31 410.953 1237.98 359.619 1255 309.5 C 1264.77 281.611 1278.44 255.944 1296 232.5 C 1306.42 219.231 1319.25 209.231 1334.5 202.5 Z" stroke-linecap="round"/>
</g>
		<g transform="matrix(1 0 0 1 -273.2362 -87.5264)">
<path style="stroke: none; stroke-width: 1; stroke-dasharray: none; stroke-linecap: butt; stroke-dashoffset: 0; stroke-linejoin: miter; stroke-miterlimit: 4; is-custom-font: none; font-file-url: none; fill: rgb(252,252,253); fill-rule: evenodd; opacity: 1;" transform=" translate(-1026.7638, -812.4736)" d="M 975.5 489.5 C 976.552 489.351 977.552 489.517 978.5 490 C 976.159 495.566 975.159 501.399 975.5 507.5 C 977.324 530.804 984.824 552.138 998 571.5 C 1008.34 586.51 1020.17 600.344 1033.5 613 C 1044.54 619.704 1054.04 628.204 1062 638.5 C 1080.98 663.13 1098.98 688.464 1116 714.5 C 1117.87 723.362 1118.87 732.362 1119 741.5 C 1119.67 751.167 1119.67 760.833 1119 770.5 C 1118.91 778.685 1116.24 780.018 1111 774.5 C 1102.44 757.491 1095.44 739.824 1090 721.5 C 1073.38 691.2 1052.55 664.034 1027.5 640 C 1017.08 632.914 1007.91 624.414 1000 614.5 C 986.108 596.06 974.774 576.06 966 554.5 C 940.932 630.22 931.932 707.887 939 787.5 C 951.155 897.645 997.655 990.145 1078.5 1065 C 1089.21 1074.05 1100.21 1082.71 1111.5 1091 C 1115.06 1091.12 1117.23 1089.29 1118 1085.5 C 1123.92 1065.92 1127.58 1045.92 1129 1025.5 C 1130.82 1003.14 1132.49 980.807 1134 958.5 C 1144.93 988.548 1148.93 1019.55 1146 1051.5 C 1144.35 1077.73 1139.68 1103.4 1132 1128.5 C 1131.48 1131.25 1130.32 1133.58 1128.5 1135.5 C 1095.51 1118.69 1066.34 1096.69 1041 1069.5 C 974.373 996.901 933.373 911.568 918 813.5 C 908.973 765.565 905.306 717.232 907 668.5 C 909.386 624.696 918.386 582.363 934 541.5 C 940.988 525.01 950.821 510.51 963.5 498 C 967.68 495.304 971.68 492.47 975.5 489.5 Z" stroke-linecap="round"/>
</g>
		<g transform="matrix(1 0 0 1 55.941 -359.4922)">
<path style="stroke: none; stroke-width: 1; stroke-dasharray: none; stroke-linecap: butt; stroke-dashoffset: 0; stroke-linejoin: miter; stroke-miterlimit: 4; is-custom-font: none; font-file-url: none; fill: rgb(252,252,253); fill-rule: evenodd; opacity: 1;" transform=" translate(-1355.941, -540.5079)" d="M 1274.5 583.5 C 1273.51 577.69 1273.18 571.69 1273.5 565.5 C 1274.83 542.68 1283.83 523.513 1300.5 508 C 1312.13 499.508 1325.13 496.175 1339.5 498 C 1365.87 502.568 1390.21 512.235 1412.5 527 C 1421.17 533 1429.83 539 1438.5 545 C 1410.68 540.312 1382.68 536.646 1354.5 534 C 1344.45 532.069 1335.12 533.735 1326.5 539 C 1307.16 551.51 1289.83 566.343 1274.5 583.5 Z" stroke-linecap="round"/>
</g>
		<g transform="matrix(1 0 0 1 -26.495 -325)">
<path style="stroke: none; stroke-width: 1; stroke-dasharray: none; stroke-linecap: butt; stroke-dashoffset: 0; stroke-linejoin: miter; stroke-miterlimit: 4; is-custom-font: none; font-file-url: none; fill: rgb(133,163,202); fill-rule: evenodd; opacity: 1;" transform=" translate(-1273.505, -575)" d="M 1273.5 565.5 C 1273.18 571.69 1273.51 577.69 1274.5 583.5 C 1274.44 584.043 1274.11 584.376 1273.5 584.5 C 1272.18 578.012 1272.18 571.678 1273.5 565.5 Z" stroke-linecap="round"/>
</g>
		<g transform="matrix(1 0 0 1 147.3756 -203.699)">
<path style="stroke: none; stroke-width: 1; stroke-dasharray: none; stroke-linecap: butt; stroke-dashoffset: 0; stroke-linejoin: miter; stroke-miterlimit: 4; is-custom-font: none; font-file-url: none; fill: rgb(253,254,254); fill-rule: evenodd; opacity: 1;" transform=" translate(-1447.3755, -696.301)" d="M 1374.5 593.5 C 1415.79 597.206 1453.79 610.373 1488.5 633 C 1532.24 664.711 1547.08 706.878 1533 759.5 C 1530 769.84 1525.83 779.674 1520.5 789 C 1509.6 796.412 1497.6 799.745 1484.5 799 C 1477.9 794.909 1474.9 788.909 1475.5 781 C 1476.27 775.515 1476.94 770.015 1477.5 764.5 C 1476.21 752.14 1472.05 740.806 1465 730.5 C 1460.22 723.383 1455.05 716.55 1449.5 710 C 1437.4 713.778 1425.06 717.112 1412.5 720 C 1407.18 720.684 1401.84 721.184 1396.5 721.5 C 1396.25 713 1399.08 705.666 1405 699.5 C 1411.97 692.19 1419.81 686.023 1428.5 681 C 1412.5 662.333 1396.5 643.667 1380.5 625 C 1371.88 621.045 1364.38 615.545 1358 608.5 C 1355.52 604.22 1356.36 600.72 1360.5 598 C 1365.18 596.17 1369.85 594.67 1374.5 593.5 Z" stroke-linecap="round"/>
</g>
		<g transform="matrix(1 0 0 1 -268.0738 -117.5689)">
<path style="stroke: none; stroke-width: 1; stroke-dasharray: none; stroke-linecap: butt; stroke-dashoffset: 0; stroke-linejoin: miter; stroke-miterlimit: 4; is-custom-font: none; font-file-url: none; fill: rgb(252,252,253); fill-rule: evenodd; opacity: 1;" transform=" translate(-1031.9262, -782.4311)" d="M 971.5 631.5 C 976.013 633.021 979.847 635.688 983 639.5 C 990.333 648.833 997.667 658.167 1005 667.5 C 1032.92 719.008 1060.59 770.674 1088 822.5 C 1088.67 823.833 1088.67 825.167 1088 826.5 C 1066.01 851.577 1067.67 874.91 1093 896.5 C 1094.06 908.171 1092.73 919.505 1089 930.5 C 1087.47 933.087 1085.31 933.92 1082.5 933 C 1080.36 931.692 1078.36 930.192 1076.5 928.5 C 1070.38 918.558 1063.54 909.225 1056 900.5 C 1049.88 880.788 1048.88 860.788 1053 840.5 C 1054.34 833.954 1055.84 827.454 1057.5 821 C 1033.8 774.437 1009.97 727.937 986 681.5 C 979.332 666.662 974.165 651.329 970.5 635.5 C 970.623 634.075 970.957 632.742 971.5 631.5 Z" stroke-linecap="round"/>
</g>
		<g transform="matrix(1 0 0 1 164.6614 232.2154)">
<path style="stroke: none; stroke-width: 1; stroke-dasharray: none; stroke-linecap: butt; stroke-dashoffset: 0; stroke-linejoin: miter; stroke-miterlimit: 4; is-custom-font: none; font-file-url: none; fill: rgb(254,254,254); fill-rule: evenodd; opacity: 1;" transform=" translate(-1464.6613, -1132.2154)" d="M 1571.5 1425.5 C 1564.83 1425.33 1558.16 1425.5 1551.5 1426 C 1552.9 1426.41 1554.23 1426.91 1555.5 1427.5 C 1582.42 1436.29 1608.09 1447.79 1632.5 1462 C 1635.18 1463.84 1636.85 1466.34 1637.5 1469.5 C 1637.41 1471.43 1636.41 1472.59 1634.5 1473 C 1623.53 1474.92 1612.53 1474.92 1601.5 1473 C 1550.03 1458.51 1499.7 1440.84 1450.5 1420 C 1384.08 1392.41 1318.41 1363.08 1253.5 1332 C 1192.63 1260.03 1172.47 1177.86 1193 1085.5 C 1200.39 1056.39 1211.39 1028.72 1226 1002.5 C 1234.61 988.894 1243.61 975.56 1253 962.5 C 1268.49 931.824 1266.83 902.158 1248 873.5 C 1233.1 814.4 1248.6 804.9 1294.5 845 C 1346.34 883.231 1403.34 893.231 1465.5 875 C 1496 865.169 1524.16 851.002 1550 832.5 C 1563.7 836.041 1577.53 838.541 1591.5 840 C 1582.91 832.076 1576.74 822.576 1573 811.5 C 1570.05 792.778 1577.55 786.278 1595.5 792 C 1613.05 801.539 1628.21 814.039 1641 829.5 C 1674.67 895.5 1708.33 961.5 1742 1027.5 C 1746.95 1039.62 1743.11 1046.62 1730.5 1048.5 C 1720.52 1046.95 1710.52 1045.61 1700.5 1044.5 C 1698.62 1026.45 1689.28 1013.95 1672.5 1007 C 1651.3 998.607 1629.3 995.274 1606.5 997 C 1567.33 1015.06 1561.5 1007.89 1589 975.5 C 1600.33 964.167 1611.67 952.833 1623 941.5 C 1624.37 939.63 1625.53 937.63 1626.5 935.5 C 1622.31 934.17 1618.31 934.67 1614.5 937 C 1596.51 945.989 1579.18 955.989 1562.5 967 C 1537.83 980.403 1511.49 988.403 1483.5 991 C 1460.52 992.193 1437.52 992.859 1414.5 993 C 1391.43 996.967 1376.26 1010.13 1369 1032.5 C 1365.93 1042.26 1363.93 1052.26 1363 1062.5 C 1362.22 1078.86 1362.55 1095.19 1364 1111.5 C 1366.31 1128.37 1369.64 1145.04 1374 1161.5 C 1375.92 1167.6 1378.42 1173.43 1381.5 1179 C 1383.37 1179.71 1384.87 1179.21 1386 1177.5 C 1386.79 1174.53 1387.46 1171.53 1388 1168.5 C 1387.73 1157.84 1387.73 1147.18 1388 1136.5 C 1389.12 1130.09 1391.96 1124.59 1396.5 1120 C 1399.06 1117.72 1402.06 1116.55 1405.5 1116.5 C 1470.65 1130.84 1530.82 1156.5 1586 1193.5 C 1591.38 1199.93 1594.88 1207.26 1596.5 1215.5 C 1596.26 1222.58 1592.59 1226.75 1585.5 1228 C 1581.33 1228.17 1577.17 1228.33 1573 1228.5 C 1559.96 1228.02 1547.13 1226.52 1534.5 1224 C 1524.67 1229.5 1521.5 1237.66 1525 1248.5 C 1526.53 1251.52 1528.7 1254.02 1531.5 1256 C 1556.31 1270.49 1580.31 1286.15 1603.5 1303 C 1622.56 1320.05 1639.39 1338.88 1654 1359.5 C 1656.17 1362.55 1656.84 1365.88 1656 1369.5 C 1654.94 1370.1 1653.77 1370.43 1652.5 1370.5 C 1637.6 1365.55 1623.6 1358.72 1610.5 1350 C 1600.32 1343.08 1590.32 1335.91 1580.5 1328.5 C 1579.48 1329 1579.31 1329.67 1580 1330.5 C 1595.42 1344.58 1609.42 1359.92 1622 1376.5 C 1626 1381.56 1627.34 1387.22 1626 1393.5 C 1625.17 1394.33 1624.33 1395.17 1623.5 1396 C 1614.86 1397.93 1606.19 1397.93 1597.5 1396 C 1585.94 1393.03 1574.61 1389.7 1563.5 1386 C 1569.78 1389.95 1575.78 1394.28 1581.5 1399 C 1597.42 1414.99 1594.09 1423.83 1571.5 1425.5 Z" stroke-linecap="round"/>
</g>
		<g transform="matrix(1 0 0 1 17.033 156.153)">
<path style="stroke: none; stroke-width: 1; stroke-dasharray: none; stroke-linecap: butt; stroke-dashoffset: 0; stroke-linejoin: miter; stroke-miterlimit: 4; is-custom-font: none; font-file-url: none; fill: rgb(12,71,148); fill-rule: evenodd; opacity: 1;" transform=" translate(-1317.033, -1056.153)" d="M 1317.5 977.5 C 1325.7 975.4 1331.53 978.066 1335 985.5 C 1337.38 994.353 1338.05 1003.35 1337 1012.5 C 1334.68 1015.78 1333.35 1019.44 1333 1023.5 C 1332.06 1032.64 1331.56 1041.81 1331.5 1051 C 1332.74 1079.21 1334.24 1107.37 1336 1135.5 C 1323.4 1127.56 1314.4 1116.56 1309 1102.5 C 1303.76 1088.22 1300.1 1073.56 1298 1058.5 C 1296.55 1036.52 1296.21 1014.52 1297 992.5 C 1303.45 986.864 1310.29 981.864 1317.5 977.5 Z" stroke-linecap="round"/>
</g>
		<g transform="matrix(1 0 0 1 279.955 152.4647)">
<path style="stroke: none; stroke-width: 1; stroke-dasharray: none; stroke-linecap: butt; stroke-dashoffset: 0; stroke-linejoin: miter; stroke-miterlimit: 4; is-custom-font: none; font-file-url: none; fill: rgb(251,252,253); fill-rule: evenodd; opacity: 1;" transform=" translate(-1579.955, -1052.4648)" d="M 1545.5 1011.5 C 1562.91 1010.67 1566.24 1017.17 1555.5 1031 C 1574.8 1028.95 1594.13 1026.79 1613.5 1024.5 C 1626.52 1025.07 1639.52 1025.9 1652.5 1027 C 1656.28 1027.59 1659.94 1028.59 1663.5 1030 C 1667.38 1032.13 1667.38 1034.46 1663.5 1037 C 1650.69 1042.16 1637.52 1045.99 1624 1048.5 C 1621.87 1063.6 1619.21 1078.6 1616 1093.5 C 1613.87 1089.07 1610.7 1085.57 1606.5 1083 C 1586.29 1070.7 1564.96 1060.7 1542.5 1053 C 1526.11 1047.59 1509.78 1042.09 1493.5 1036.5 C 1505.34 1029.41 1517.34 1022.58 1529.5 1016 C 1534.94 1014.48 1540.27 1012.98 1545.5 1011.5 Z" stroke-linecap="round"/>
</g>
		<g transform="matrix(1 0 0 1 200.2095 199.9681)">
<path style="stroke: none; stroke-width: 1; stroke-dasharray: none; stroke-linecap: butt; stroke-dashoffset: 0; stroke-linejoin: miter; stroke-miterlimit: 4; is-custom-font: none; font-file-url: none; fill: rgb(253,253,254); fill-rule: evenodd; opacity: 1;" transform=" translate(-1500.2095, -1099.968)" d="M 1432.5 1047.5 C 1437.84 1047.33 1443.18 1047.5 1448.5 1048 C 1496.01 1065.67 1543.68 1082.84 1591.5 1099.5 C 1583.04 1117.48 1573.88 1135.15 1564 1152.5 C 1516.21 1132.07 1468.38 1111.74 1420.5 1091.5 C 1412.14 1082.78 1408.3 1072.45 1409 1060.5 C 1411.43 1055.02 1415.6 1051.52 1421.5 1050 C 1425.31 1049.2 1428.98 1048.37 1432.5 1047.5 Z" stroke-linecap="round"/>
</g>
		<g transform="matrix(1 0 0 1 261.5 526.4681)">
<path style="stroke: none; stroke-width: 1; stroke-dasharray: none; stroke-linecap: butt; stroke-dashoffset: 0; stroke-linejoin: miter; stroke-miterlimit: 4; is-custom-font: none; font-file-url: none; fill: rgb(105,142,189); fill-rule: evenodd; opacity: 1;" transform=" translate(-1561.5, -1426.468)" d="M 1571.5 1425.5 C 1566.17 1426.17 1560.83 1426.83 1555.5 1427.5 C 1554.23 1426.91 1552.9 1426.41 1551.5 1426 C 1558.16 1425.5 1564.83 1425.33 1571.5 1425.5 Z" stroke-linecap="round"/>
</g>
		<g transform="matrix(1 0 0 1 923.9695 803)">
<path style="stroke: none; stroke-width: 1; stroke-dasharray: none; stroke-linecap: butt; stroke-dashoffset: 0; stroke-linejoin: miter; stroke-miterlimit: 4; is-custom-font: none; font-file-url: none; fill: rgb(6,69,148); fill-rule: evenodd; opacity: 0.382;" transform=" translate(-2223.9695, -1703)" d="M 2223.5 1697.5 C 2224.64 1700.98 2224.81 1704.64 2224 1708.5 C 2223.5 1704.85 2223.33 1701.18 2223.5 1697.5 Z" stroke-linecap="round"/>
</g>
</g>
</g>
</svg>