<svg xmlns="http://www.w3.org/2000/svg" xmlns:xlink="http://www.w3.org/1999/xlink" width="1080" zoomAndPan="magnify" viewBox="0 0 810 809.999993" height="1080" preserveAspectRatio="xMidYMid meet" version="1.0"><path fill="#34a853" d="M 404.886719 95.070312 C 405.929688 95.074219 406.976562 95.078125 408.058594 95.082031 C 425.101562 95.132812 441.648438 95.992188 458.441406 98.96875 C 459.390625 99.132812 460.34375 99.300781 461.320312 99.46875 C 502.488281 106.8125 541.757812 122.75 576.214844 146.429688 C 577.101562 147.039062 577.101562 147.039062 578.011719 147.65625 C 585.011719 152.484375 591.691406 157.640625 598.1875 163.128906 C 599.277344 164.035156 600.371094 164.941406 601.460938 165.847656 C 602.585938 166.789062 603.710938 167.730469 604.835938 168.675781 C 605.367188 169.121094 605.90625 169.5625 606.457031 170.015625 C 609.191406 172.339844 610.613281 173.917969 612.25 177.191406 C 583.246094 206.195312 554.242188 235.199219 524.359375 265.082031 C 520.394531 263.496094 519.09375 262.734375 516.230469 259.921875 C 482.632812 228.867188 437.117188 218.617188 392.617188 220.101562 C 385.121094 220.402344 377.871094 221.296875 370.550781 222.894531 C 369.773438 223.0625 368.992188 223.226562 368.191406 223.394531 C 336.457031 230.339844 308.652344 245.480469 284.417969 266.839844 C 283.679688 267.472656 282.9375 268.105469 282.175781 268.761719 C 277.824219 272.515625 274.035156 276.492188 270.355469 280.902344 C 269.695312 281.65625 269.042969 282.417969 268.363281 283.195312 C 258.773438 294.367188 250.78125 306.523438 243.988281 319.574219 C 243.660156 320.203125 243.332031 320.832031 242.996094 321.480469 C 220.390625 365.324219 217.402344 415.097656 232.03125 461.882812 C 247.289062 508.890625 280.496094 548.183594 324.421875 570.84375 C 368.605469 592.984375 419.964844 596.183594 467.015625 581.054688 C 506.855469 567.386719 539.9375 541.402344 558.75 503.402344 C 564.003906 492.488281 567.097656 481.730469 570.0625 469.867188 C 515.535156 469.578125 461.007812 469.285156 404.828125 468.988281 C 404.828125 429.253906 404.828125 389.519531 404.828125 348.578125 C 501.121094 348.578125 597.414062 348.578125 696.625 348.578125 C 705.632812 384.597656 704.800781 426.339844 699.261719 462.835938 C 699.109375 463.878906 698.960938 464.917969 698.804688 465.988281 C 691.347656 516.429688 672.894531 567.160156 640.375 606.976562 C 639.710938 607.8125 639.042969 608.644531 638.355469 609.503906 C 633.941406 614.988281 629.304688 620.238281 624.554688 625.433594 C 623.753906 626.328125 622.953125 627.222656 622.15625 628.113281 C 618.179688 632.535156 614.1875 636.816406 609.621094 640.644531 C 607.605469 642.347656 605.675781 644.128906 603.734375 645.921875 C 586.871094 661.039062 567.34375 673.1875 547.210938 683.441406 C 546.566406 683.773438 545.925781 684.101562 545.265625 684.441406 C 507.058594 703.835938 462.117188 714.210938 419.320312 714.382812 C 418.300781 714.390625 417.277344 714.394531 416.222656 714.394531 C 414.066406 714.40625 411.910156 714.414062 409.746094 714.414062 C 406.53125 714.421875 403.308594 714.449219 400.089844 714.476562 C 381.402344 714.5625 363.070312 712.871094 344.730469 709.203125 C 343.605469 708.984375 342.472656 708.757812 341.308594 708.527344 C 298.25 699.785156 257.378906 681.316406 222.015625 655.316406 C 221.460938 654.910156 220.910156 654.507812 220.34375 654.089844 C 202.84375 641.148438 186.046875 626.171875 171.917969 609.613281 C 171.230469 608.820312 170.535156 608.03125 169.816406 607.214844 C 158.804688 594.558594 149.027344 580.859375 140.277344 566.546875 C 139.65625 565.535156 139.65625 565.535156 139.023438 564.496094 C 112.703125 521.0625 95.503906 468.691406 95.273438 417.574219 C 95.269531 416.632812 95.265625 415.703125 95.257812 414.734375 C 95.238281 411.722656 95.238281 408.71875 95.234375 405.707031 C 95.234375 404.167969 95.234375 404.167969 95.234375 402.597656 C 95.246094 387.640625 95.566406 373.015625 98.089844 358.246094 C 98.246094 357.324219 98.394531 356.402344 98.546875 355.449219 C 103.203125 327.496094 111.367188 300.34375 123.578125 274.75 C 123.851562 274.171875 124.128906 273.597656 124.410156 273.003906 C 126.402344 268.855469 128.476562 264.757812 130.609375 260.6875 C 130.964844 260.007812 131.324219 259.320312 131.691406 258.621094 C 143.351562 236.503906 157.726562 215.90625 174.554688 197.40625 C 175.070312 196.835938 175.578125 196.273438 176.105469 195.6875 C 187.382812 183.277344 199.261719 171.714844 212.652344 161.601562 C 214.070312 160.523438 215.464844 159.417969 216.855469 158.316406 C 254.359375 128.746094 299.742188 108.898438 346.542969 100.011719 C 347.808594 99.773438 347.808594 99.773438 349.097656 99.527344 C 352.136719 98.984375 355.1875 98.519531 358.246094 98.089844 C 359.027344 97.980469 359.808594 97.871094 360.609375 97.757812 C 375.398438 95.734375 389.964844 94.988281 404.886719 95.070312 Z M 404.886719 95.070312 " fill-opacity="1" fill-rule="nonzero"/><path fill="#ea4334" d="M 404.886719 95.070312 C 405.929688 95.074219 406.976562 95.078125 408.058594 95.082031 C 425.101562 95.132812 441.648438 95.992188 458.441406 98.96875 C 459.390625 99.132812 460.34375 99.300781 461.320312 99.46875 C 502.488281 106.8125 541.757812 122.75 576.214844 146.429688 C 577.101562 147.039062 577.101562 147.039062 578.011719 147.65625 C 585.011719 152.484375 591.691406 157.640625 598.1875 163.128906 C 599.277344 164.035156 600.371094 164.941406 601.460938 165.847656 C 602.585938 166.789062 603.710938 167.730469 604.835938 168.675781 C 605.367188 169.121094 605.90625 169.5625 606.457031 170.015625 C 609.191406 172.339844 610.613281 173.917969 612.25 177.191406 C 583.246094 206.195312 554.242188 235.199219 524.359375 265.082031 C 520.394531 263.496094 519.09375 262.734375 516.230469 259.921875 C 482.632812 228.867188 437.117188 218.617188 392.617188 220.101562 C 385.121094 220.402344 377.871094 221.296875 370.550781 222.894531 C 369.773438 223.0625 368.992188 223.226562 368.191406 223.394531 C 336.457031 230.339844 308.652344 245.480469 284.417969 266.839844 C 283.679688 267.472656 282.9375 268.105469 282.175781 268.761719 C 277.824219 272.515625 274.035156 276.492188 270.355469 280.902344 C 269.695312 281.65625 269.042969 282.417969 268.363281 283.195312 C 258.773438 294.367188 250.78125 306.523438 243.988281 319.574219 C 243.660156 320.203125 243.332031 320.832031 242.996094 321.480469 C 221.90625 362.386719 217.804688 408.5625 229.414062 452.835938 C 230.296875 456.4375 230.992188 460.078125 231.683594 463.714844 C 226.050781 468.402344 220.347656 472.914062 214.46875 477.28125 C 208.820312 481.503906 203.289062 485.882812 197.726562 490.21875 C 194.996094 492.351562 192.261719 494.472656 189.527344 496.601562 C 184.230469 500.714844 178.945312 504.828125 173.675781 508.980469 C 168.40625 513.125 163.128906 517.246094 157.835938 521.355469 C 154.367188 524.046875 150.90625 526.738281 147.457031 529.453125 C 146.761719 529.996094 146.066406 530.539062 145.347656 531.109375 C 144.027344 532.140625 142.710938 533.171875 141.402344 534.210938 C 137.0625 537.601562 132.589844 540.703125 127.972656 543.695312 C 107.527344 505.960938 95.464844 460.53125 95.273438 417.574219 C 95.269531 416.632812 95.265625 415.703125 95.257812 414.734375 C 95.238281 411.722656 95.238281 408.71875 95.234375 405.707031 C 95.234375 404.167969 95.234375 404.167969 95.234375 402.597656 C 95.246094 387.640625 95.566406 373.015625 98.089844 358.246094 C 98.246094 357.324219 98.394531 356.402344 98.546875 355.449219 C 103.203125 327.496094 111.367188 300.34375 123.578125 274.75 C 123.851562 274.171875 124.128906 273.597656 124.410156 273.003906 C 126.402344 268.855469 128.476562 264.757812 130.609375 260.6875 C 130.964844 260.007812 131.324219 259.320312 131.691406 258.621094 C 143.351562 236.503906 157.726562 215.90625 174.554688 197.40625 C 175.070312 196.835938 175.578125 196.273438 176.105469 195.6875 C 187.382812 183.277344 199.261719 171.714844 212.652344 161.601562 C 214.070312 160.523438 215.464844 159.417969 216.855469 158.316406 C 254.359375 128.746094 299.742188 108.898438 346.542969 100.011719 C 347.808594 99.773438 347.808594 99.773438 349.097656 99.527344 C 352.136719 98.984375 355.1875 98.519531 358.246094 98.089844 C 359.027344 97.980469 359.808594 97.871094 360.609375 97.757812 C 375.398438 95.734375 389.964844 94.988281 404.886719 95.070312 Z M 404.886719 95.070312 " fill-opacity="1" fill-rule="nonzero"/><path fill="#4185f3" d="M 404.828125 348.578125 C 501.121094 348.578125 597.414062 348.578125 696.625 348.578125 C 705.632812 384.597656 704.800781 426.339844 699.261719 462.835938 C 699.109375 463.878906 698.960938 464.917969 698.804688 465.988281 C 691.347656 516.429688 672.894531 567.160156 640.375 606.976562 C 639.710938 607.8125 639.042969 608.644531 638.355469 609.503906 C 633.941406 614.988281 629.304688 620.238281 624.554688 625.433594 C 623.722656 626.355469 622.894531 627.277344 622.0625 628.203125 C 621.210938 629.148438 620.359375 630.097656 619.5 631.039062 C 618.335938 632.324219 618.335938 632.324219 617.152344 633.640625 C 615.050781 635.8125 612.898438 637.671875 610.492188 639.496094 C 607.996094 638.328125 605.890625 637.011719 603.730469 635.308594 C 603.105469 634.820312 602.492188 634.339844 601.847656 633.835938 C 601.183594 633.3125 600.519531 632.785156 599.832031 632.246094 C 598.402344 631.125 596.976562 630 595.546875 628.882812 C 594.816406 628.304688 594.082031 627.734375 593.335938 627.144531 C 589.980469 624.507812 586.613281 621.898438 583.246094 619.28125 C 581.933594 618.257812 580.621094 617.238281 579.308594 616.222656 C 578.332031 615.460938 578.332031 615.460938 577.335938 614.683594 C 575.300781 613.097656 573.261719 611.511719 571.226562 609.925781 C 565.429688 605.417969 559.628906 600.910156 553.804688 596.429688 C 545.164062 589.796875 536.578125 583.085938 527.988281 576.394531 C 527.292969 575.851562 526.589844 575.304688 525.867188 574.742188 C 524.542969 573.707031 523.214844 572.671875 521.886719 571.640625 C 517.769531 568.425781 513.605469 565.273438 509.417969 562.152344 C 510.921875 558.851562 512.429688 557.539062 515.457031 555.503906 C 521.246094 551.4375 526.285156 546.804688 531.390625 541.9375 C 532.023438 541.347656 532.65625 540.765625 533.308594 540.160156 C 552.964844 521.414062 563.617188 495.664062 570.0625 469.867188 C 515.535156 469.578125 461.007812 469.285156 404.828125 468.988281 C 404.828125 429.253906 404.828125 389.519531 404.828125 348.578125 Z M 404.828125 348.578125 " fill-opacity="1" fill-rule="nonzero"/><path fill="#fabb05" d="M 127.972656 265.960938 C 133.578125 269.425781 138.679688 273.414062 143.789062 277.558594 C 147.824219 280.8125 151.929688 283.964844 156.097656 287.054688 C 161.335938 290.945312 166.460938 294.953125 171.546875 299.050781 C 175.867188 302.53125 180.246094 305.921875 184.648438 309.292969 C 188.335938 312.113281 191.988281 314.964844 195.648438 317.816406 C 200.179688 321.34375 204.714844 324.871094 209.273438 328.363281 C 210.152344 329.046875 211.042969 329.726562 211.949219 330.433594 C 214.34375 332.277344 216.757812 334.09375 219.175781 335.910156 C 220.632812 337.023438 222.089844 338.132812 223.554688 339.242188 C 224.257812 339.769531 224.960938 340.289062 225.683594 340.824219 C 226.664062 341.574219 226.664062 341.574219 227.65625 342.335938 C 228.246094 342.777344 228.832031 343.222656 229.433594 343.671875 C 231.082031 345.34375 231.453125 346.253906 231.683594 348.578125 C 231.34375 350.570312 231.34375 350.570312 230.714844 352.757812 C 230.480469 353.574219 230.253906 354.386719 230.019531 355.226562 C 229.769531 356.09375 229.527344 356.964844 229.265625 357.863281 C 226.765625 367.019531 224.941406 376.074219 223.773438 385.492188 C 223.660156 386.40625 223.542969 387.3125 223.425781 388.257812 C 223.15625 390.851562 223 393.425781 222.894531 396.039062 C 222.871094 396.628906 222.847656 397.21875 222.824219 397.824219 C 222.171875 416.527344 224.675781 434.773438 229.414062 452.835938 C 230.296875 456.4375 230.992188 460.078125 231.683594 463.714844 C 226.050781 468.402344 220.347656 472.914062 214.46875 477.28125 C 208.820312 481.503906 203.289062 485.882812 197.726562 490.21875 C 194.996094 492.351562 192.261719 494.472656 189.527344 496.601562 C 184.230469 500.714844 178.945312 504.828125 173.675781 508.980469 C 168.40625 513.125 163.128906 517.246094 157.835938 521.355469 C 154.367188 524.046875 150.90625 526.738281 147.457031 529.453125 C 146.761719 529.996094 146.066406 530.539062 145.347656 531.109375 C 144.027344 532.140625 142.710938 533.171875 141.402344 534.210938 C 137.0625 537.601562 132.589844 540.703125 127.972656 543.695312 C 107.527344 505.960938 95.464844 460.53125 95.273438 417.574219 C 95.269531 416.632812 95.265625 415.703125 95.257812 414.734375 C 95.238281 411.722656 95.238281 408.71875 95.234375 405.707031 C 95.234375 404.683594 95.234375 403.65625 95.234375 402.597656 C 95.246094 387.640625 95.566406 373.015625 98.089844 358.246094 C 98.316406 356.859375 98.316406 356.859375 98.546875 355.449219 C 103.738281 324.269531 113.320312 294.003906 127.972656 265.960938 Z M 127.972656 265.960938 " fill-opacity="1" fill-rule="nonzero"/></svg>