<?xml version="1.0" encoding="UTF-8"?>
<!DOCTYPE svg PUBLIC "-//W3C//DTD SVG 1.1//EN" "http://www.w3.org/Graphics/SVG/1.1/DTD/svg11.dtd">
<svg xmlns="http://www.w3.org/2000/svg" version="1.1" width="1000px" height="1000px" style="shape-rendering:geometricPrecision; text-rendering:geometricPrecision; image-rendering:optimizeQuality; fill-rule:evenodd; clip-rule:evenodd" xmlns:xlink="http://www.w3.org/1999/xlink">
<g><path style="opacity:0.993" fill="#00f1ea" d="M 642.5,108.5 C 642.5,108.833 642.5,109.167 642.5,109.5C 608.5,109.5 574.5,109.5 540.5,109.5C 540.667,297.5 540.5,485.5 540,673.5C 533.101,730.058 502.267,765.891 447.5,781C 443.168,781.583 438.835,782.083 434.5,782.5C 423.148,782.627 411.815,782.294 400.5,781.5C 372.739,775.7 349.572,762.033 331,740.5C 330.209,739.255 329.709,737.922 329.5,736.5C 382.787,759.009 429.621,749.676 470,708.5C 486.509,688.641 496.009,665.807 498.5,640C 498.491,452.22 498.491,264.053 498.5,75.5C 546.167,75.5 593.833,75.5 641.5,75.5C 641.316,86.5233 641.649,97.5233 642.5,108.5 Z"/></g>
<g><path style="opacity:0.957" fill="#fc004c" d="M 642.5,108.5 C 655.5,108.5 668.5,108.5 681.5,108.5C 680.894,144.486 689.727,177.82 708,208.5C 715.218,219.561 723.051,230.228 731.5,240.5C 708.748,227.588 689.915,210.254 675,188.5C 658.314,164.623 647.48,138.29 642.5,109.5C 642.5,109.167 642.5,108.833 642.5,108.5 Z"/></g>
<g><path style="opacity:1" fill="#000000" d="M 642.5,109.5 C 647.48,138.29 658.314,164.623 675,188.5C 689.915,210.254 708.748,227.588 731.5,240.5C 735.233,245.74 739.566,250.574 744.5,255C 766.896,274.201 792.23,288.201 820.5,297C 825.122,298.156 829.789,298.99 834.5,299.5C 834.5,336.167 834.5,372.833 834.5,409.5C 763.247,409.189 698.58,388.855 640.5,348.5C 639.667,450.498 639.167,552.498 639,654.5C 628.333,744.377 584.167,812.211 506.5,858C 474.587,874.98 440.587,885.147 404.5,888.5C 389.168,889.807 373.834,889.807 358.5,888.5C 315.052,884.098 275.052,870.098 238.5,846.5C 238.167,846.5 237.833,846.5 237.5,846.5C 237.719,845.325 237.386,844.325 236.5,843.5C 184.401,786.889 160.901,719.889 166,642.5C 179.039,541.825 231.539,470.325 323.5,428C 353.699,416.184 385.032,409.684 417.5,408.5C 417.5,445.167 417.5,481.833 417.5,518.5C 374.539,507.095 336.205,515.595 302.5,544C 264.965,580.97 254.798,624.47 272,674.5C 283.121,702.782 302.287,723.448 329.5,736.5C 329.709,737.922 330.209,739.255 331,740.5C 349.572,762.033 372.739,775.7 400.5,781.5C 406.754,783.054 413.254,783.72 420,783.5C 425.012,783.499 429.845,783.166 434.5,782.5C 438.835,782.083 443.168,781.583 447.5,781C 502.267,765.891 533.101,730.058 540,673.5C 540.5,485.5 540.667,297.5 540.5,109.5C 574.5,109.5 608.5,109.5 642.5,109.5 Z"/></g>
<g><path style="opacity:0.972" fill="#00eee7" d="M 731.5,240.5 C 747.043,249.313 763.377,256.48 780.5,262C 798.539,266.775 816.872,269.275 835.5,269.5C 835.5,279.5 835.5,289.5 835.5,299.5C 835.167,299.5 834.833,299.5 834.5,299.5C 829.789,298.99 825.122,298.156 820.5,297C 792.23,288.201 766.896,274.201 744.5,255C 739.566,250.574 735.233,245.74 731.5,240.5 Z"/></g>
<g><path style="opacity:0.981" fill="#fd004d" d="M 834.5,299.5 C 834.833,299.5 835.167,299.5 835.5,299.5C 848.367,302.031 861.367,303.031 874.5,302.5C 874.5,350.167 874.5,397.833 874.5,445.5C 811.687,444.052 753.354,427.552 699.5,396C 693.719,392.03 687.886,388.197 682,384.5C 681.667,483.833 681.333,583.167 681,682.5C 673.604,768.996 634.104,836.33 562.5,884.5C 494.374,926.233 421.708,935.733 344.5,913C 305.8,900.325 271.8,879.992 242.5,852C 241.335,850.008 240.002,848.175 238.5,846.5C 275.052,870.098 315.052,884.098 358.5,888.5C 359.952,889.302 361.618,889.802 363.5,890C 375.833,890.667 388.167,890.667 400.5,890C 402.058,889.79 403.391,889.29 404.5,888.5C 440.587,885.147 474.587,874.98 506.5,858C 584.167,812.211 628.333,744.377 639,654.5C 639.167,552.498 639.667,450.498 640.5,348.5C 698.58,388.855 763.247,409.189 834.5,409.5C 834.5,372.833 834.5,336.167 834.5,299.5 Z"/></g>
<g><path style="opacity:0.991" fill="#00f0e9" d="M 418.5,407.5 C 418.5,408.167 418.167,408.5 417.5,408.5C 385.032,409.684 353.699,416.184 323.5,428C 231.539,470.325 179.039,541.825 166,642.5C 160.901,719.889 184.401,786.889 236.5,843.5C 237.386,844.325 237.719,845.325 237.5,846.5C 174.082,802.169 136.582,741.502 125,664.5C 116.766,583.373 139.933,513.039 194.5,453.5C 195.325,452.614 196.325,452.281 197.5,452.5C 201.885,446.606 206.885,441.106 212.5,436C 272.233,386.713 340.9,366.546 418.5,375.5C 418.5,386.167 418.5,396.833 418.5,407.5 Z"/></g>
<g><path style="opacity:0.978" fill="#fd004d" d="M 418.5,407.5 C 430.501,407.909 442.501,408.409 454.5,409C 456.101,409.273 457.601,409.773 459,410.5C 459.667,458.167 459.667,505.833 459,553.5C 408.419,540.918 365.753,553.918 331,592.5C 297.958,640.19 297.458,688.19 329.5,736.5C 302.287,723.448 283.121,702.782 272,674.5C 254.798,624.47 264.965,580.97 302.5,544C 336.205,515.595 374.539,507.095 417.5,518.5C 417.5,481.833 417.5,445.167 417.5,408.5C 418.167,408.5 418.5,408.167 418.5,407.5 Z"/></g>
<g><path style="opacity:0.937" fill="#00a29c" d="M 400.5,781.5 C 411.815,782.294 423.148,782.627 434.5,782.5C 429.845,783.166 425.012,783.499 420,783.5C 413.254,783.72 406.754,783.054 400.5,781.5 Z"/></g>
<g><path style="opacity:0.985" fill="#b20035" d="M 358.5,888.5 C 373.834,889.807 389.168,889.807 404.5,888.5C 403.391,889.29 402.058,889.79 400.5,890C 388.167,890.667 375.833,890.667 363.5,890C 361.618,889.802 359.952,889.302 358.5,888.5 Z"/></g>
</svg>
