<svg xmlns="http://www.w3.org/2000/svg" xmlns:xlink="http://www.w3.org/1999/xlink" width="1080" zoomAndPan="magnify" viewBox="0 0 810 809.999993" height="1080" preserveAspectRatio="xMidYMid meet" version="1.0"><defs><clipPath id="fbe21aebb6"><path d="M 30.203125 110 L 159 110 L 159 700 L 30.203125 700 Z M 30.203125 110 " clip-rule="nonzero"/></clipPath><clipPath id="50a5542067"><path d="M 650 76 L 779.453125 76 L 779.453125 734 L 650 734 Z M 650 76 " clip-rule="nonzero"/></clipPath></defs><g clip-path="url(#fbe21aebb6)"><path fill="#325ab4" d="M 158.667969 666.292969 L 30.203125 699.277344 L 30.203125 110.515625 L 158.667969 143.75 Z M 158.667969 666.292969 " fill-opacity="1" fill-rule="nonzero"/></g><path fill="#3c8cff" d="M 362.492188 684.015625 L 234.035156 717.242188 L 234.035156 370.4375 L 362.492188 403.664062 Z M 362.492188 684.015625 " fill-opacity="1" fill-rule="nonzero"/><path fill="#00c8d2" d="M 446.425781 319.246094 L 575.132812 286.011719 L 575.132812 632.816406 L 446.425781 599.589844 Z M 446.425781 319.246094 " fill-opacity="1" fill-rule="nonzero"/><g clip-path="url(#50a5542067)"><path fill="#78e6dc" d="M 779.453125 700.753906 L 650.742188 733.734375 L 650.742188 76.058594 L 779.453125 109.285156 Z M 779.453125 700.753906 " fill-opacity="1" fill-rule="nonzero"/></g></svg>