<svg xmlns="http://www.w3.org/2000/svg" xmlns:xlink="http://www.w3.org/1999/xlink" width="1080" zoomAndPan="magnify" viewBox="0 0 810 809.999993" height="1080" preserveAspectRatio="xMidYMid meet" version="1.0"><defs><clipPath id="3874318e0b"><path d="M 29.8125 29.8125 L 779.8125 29.8125 L 779.8125 779.8125 L 29.8125 779.8125 Z M 29.8125 29.8125 " clip-rule="nonzero"/></clipPath></defs><g clip-path="url(#3874318e0b)"><path fill="#000000" d="M 29.8125 29.8125 L 779.8125 29.8125 L 779.8125 779.8125 L 29.8125 779.8125 Z M 29.8125 29.8125 " fill-opacity="1" fill-rule="nonzero"/></g><path fill="#ffffff" d="M 196.527344 476.890625 L 277.515625 476.890625 L 277.515625 487.410156 L 196.527344 487.410156 Z M 196.527344 476.890625 " fill-opacity="1" fill-rule="nonzero"/><path fill="#ffffff" d="M 196.527344 454.804688 L 277.515625 454.804688 L 277.515625 465.324219 L 196.527344 465.324219 Z M 196.527344 454.804688 " fill-opacity="1" fill-rule="nonzero"/><path fill="#ffffff" d="M 219.671875 432.714844 L 254.378906 432.714844 L 254.378906 443.234375 L 219.671875 443.234375 Z M 219.671875 432.714844 " fill-opacity="1" fill-rule="nonzero"/><path fill="#ffffff" d="M 219.671875 410.628906 L 254.378906 410.628906 L 254.378906 421.144531 L 219.671875 421.144531 Z M 219.671875 410.628906 " fill-opacity="1" fill-rule="nonzero"/><path fill="#ffffff" d="M 219.671875 388.539062 L 254.378906 388.539062 L 254.378906 399.054688 L 219.671875 399.054688 Z M 219.671875 388.539062 " fill-opacity="1" fill-rule="nonzero"/><path fill="#ffffff" d="M 219.671875 366.449219 L 254.378906 366.449219 L 254.378906 376.964844 L 219.671875 376.964844 Z M 219.671875 366.449219 " fill-opacity="1" fill-rule="nonzero"/><path fill="#ffffff" d="M 196.527344 344.363281 L 277.515625 344.363281 L 277.515625 354.878906 L 196.527344 354.878906 Z M 196.527344 344.363281 " fill-opacity="1" fill-rule="nonzero"/><path fill="#ffffff" d="M 196.527344 322.277344 L 277.515625 322.277344 L 277.515625 332.792969 L 196.527344 332.792969 Z M 196.527344 322.277344 " fill-opacity="1" fill-rule="nonzero"/><path fill="#ffffff" d="M 289.082031 476.890625 L 289.082031 487.410156 L 374.277344 487.410156 C 384.757812 487.414062 394.898438 483.691406 402.875 476.890625 Z M 289.082031 476.890625 " fill-opacity="1" fill-rule="nonzero"/><path fill="#ffffff" d="M 289.082031 454.804688 L 289.082031 465.324219 L 412.53125 465.324219 C 414.441406 462.015625 415.917969 458.480469 416.914062 454.804688 Z M 289.082031 454.804688 " fill-opacity="1" fill-rule="nonzero"/><path fill="#ffffff" d="M 312.222656 432.714844 L 346.9375 432.714844 L 346.9375 443.234375 L 312.222656 443.234375 Z M 312.222656 432.714844 " fill-opacity="1" fill-rule="nonzero"/><path fill="#ffffff" d="M 403.65625 410.628906 L 312.222656 410.628906 L 312.222656 421.144531 L 412.144531 421.144531 C 409.867188 417.222656 407.003906 413.675781 403.65625 410.628906 Z M 403.65625 410.628906 " fill-opacity="1" fill-rule="nonzero"/><path fill="#ffffff" d="M 312.222656 388.539062 L 312.222656 399.054688 L 404.035156 399.054688 C 407.382812 396.007812 410.246094 392.460938 412.527344 388.539062 Z M 312.222656 388.539062 " fill-opacity="1" fill-rule="nonzero"/><path fill="#ffffff" d="M 416.914062 354.878906 C 415.917969 351.199219 414.441406 347.667969 412.53125 344.363281 L 289.082031 344.363281 L 289.082031 354.878906 Z M 416.914062 354.878906 " fill-opacity="1" fill-rule="nonzero"/><path fill="#ffffff" d="M 402.875 332.792969 C 394.898438 325.992188 384.757812 322.265625 374.277344 322.277344 L 289.082031 322.277344 L 289.082031 332.792969 Z M 402.875 332.792969 " fill-opacity="1" fill-rule="nonzero"/><path fill="#ffffff" d="M 312.222656 366.449219 L 346.9375 366.449219 L 346.9375 376.964844 L 312.222656 376.964844 Z M 312.222656 366.449219 " fill-opacity="1" fill-rule="nonzero"/><path fill="#ffffff" d="M 379.542969 376.964844 L 417.164062 376.964844 C 418.015625 373.527344 418.449219 369.992188 418.449219 366.449219 L 379.542969 366.449219 Z M 379.542969 376.964844 " fill-opacity="1" fill-rule="nonzero"/><path fill="#ffffff" d="M 379.542969 432.714844 L 379.542969 443.234375 L 418.449219 443.234375 C 418.449219 439.691406 418.015625 436.152344 417.164062 432.714844 Z M 379.542969 432.714844 " fill-opacity="1" fill-rule="nonzero"/><path fill="#ffffff" d="M 493.128906 322.21875 L 427.917969 322.21875 L 427.917969 332.734375 L 496.78125 332.734375 Z M 493.128906 322.21875 " fill-opacity="1" fill-rule="nonzero"/><path fill="#ffffff" d="M 427.917969 476.882812 L 485.785156 476.882812 L 485.785156 487.410156 L 427.917969 487.410156 Z M 427.917969 476.882812 " fill-opacity="1" fill-rule="nonzero"/><path fill="#ffffff" d="M 427.917969 454.789062 L 485.785156 454.789062 L 485.785156 465.3125 L 427.917969 465.3125 Z M 427.917969 454.789062 " fill-opacity="1" fill-rule="nonzero"/><path fill="#ffffff" d="M 451.066406 432.691406 L 485.785156 432.691406 L 485.785156 443.214844 L 451.066406 443.214844 Z M 451.066406 432.691406 " fill-opacity="1" fill-rule="nonzero"/><path fill="#ffffff" d="M 451.066406 410.597656 L 485.785156 410.597656 L 485.785156 421.121094 L 451.066406 421.121094 Z M 451.066406 410.597656 " fill-opacity="1" fill-rule="nonzero"/><path fill="#ffffff" d="M 555.230469 476.882812 L 613.097656 476.882812 L 613.097656 487.410156 L 555.230469 487.410156 Z M 555.230469 476.882812 " fill-opacity="1" fill-rule="nonzero"/><path fill="#ffffff" d="M 555.230469 454.789062 L 613.097656 454.789062 L 613.097656 465.3125 L 555.230469 465.3125 Z M 555.230469 454.789062 " fill-opacity="1" fill-rule="nonzero"/><path fill="#ffffff" d="M 555.230469 432.691406 L 589.953125 432.691406 L 589.953125 443.214844 L 555.230469 443.214844 Z M 555.230469 432.691406 " fill-opacity="1" fill-rule="nonzero"/><path fill="#ffffff" d="M 555.230469 410.597656 L 589.953125 410.597656 L 589.953125 421.121094 L 555.230469 421.121094 Z M 555.230469 410.597656 " fill-opacity="1" fill-rule="nonzero"/><path fill="#ffffff" d="M 555.230469 399.027344 L 589.953125 399.027344 L 589.953125 388.507812 L 524.867188 388.507812 L 521.222656 399.027344 L 551.691406 399.027344 L 555.230469 389.007812 Z M 555.230469 399.027344 " fill-opacity="1" fill-rule="nonzero"/><path fill="#ffffff" d="M 516.148438 388.507812 L 451.066406 388.507812 L 451.066406 399.027344 L 485.789062 399.027344 L 485.789062 389.007812 L 489.324219 399.027344 L 519.796875 399.027344 Z M 516.148438 388.507812 " fill-opacity="1" fill-rule="nonzero"/><path fill="#ffffff" d="M 589.953125 366.414062 L 532.53125 366.414062 L 528.882812 376.933594 L 589.953125 376.933594 Z M 589.953125 366.414062 " fill-opacity="1" fill-rule="nonzero"/><path fill="#ffffff" d="M 547.863281 322.21875 L 544.214844 332.742188 L 613.097656 332.742188 L 613.097656 322.21875 Z M 547.863281 322.21875 " fill-opacity="1" fill-rule="nonzero"/><path fill="#ffffff" d="M 520.488281 487.410156 L 524.207031 476.882812 L 516.8125 476.882812 Z M 520.488281 487.410156 " fill-opacity="1" fill-rule="nonzero"/><path fill="#ffffff" d="M 512.726562 465.3125 L 528.285156 465.3125 L 532.003906 454.789062 L 509.011719 454.789062 Z M 512.726562 465.3125 " fill-opacity="1" fill-rule="nonzero"/><path fill="#ffffff" d="M 504.929688 443.214844 L 536.089844 443.214844 L 539.800781 432.691406 L 501.214844 432.691406 Z M 504.929688 443.214844 " fill-opacity="1" fill-rule="nonzero"/><path fill="#ffffff" d="M 497.128906 421.121094 L 543.894531 421.121094 L 547.605469 410.597656 L 493.414062 410.597656 Z M 497.128906 421.121094 " fill-opacity="1" fill-rule="nonzero"/><path fill="#ffffff" d="M 451.066406 376.933594 L 512.136719 376.933594 L 508.480469 366.414062 L 451.066406 366.414062 Z M 451.066406 376.933594 " fill-opacity="1" fill-rule="nonzero"/><path fill="#ffffff" d="M 536.546875 354.835938 L 613.097656 354.835938 L 613.097656 344.316406 L 540.203125 344.316406 Z M 536.546875 354.835938 " fill-opacity="1" fill-rule="nonzero"/><path fill="#ffffff" d="M 500.820312 344.316406 L 427.917969 344.316406 L 427.917969 354.835938 L 504.464844 354.835938 Z M 500.820312 344.316406 " fill-opacity="1" fill-rule="nonzero"/></svg>