<svg xmlns="http://www.w3.org/2000/svg" xmlns:xlink="http://www.w3.org/1999/xlink" version="1.1" width="1000" height="1000" viewBox="0 0 1000 1000" xml:space="preserve">
<desc>Created with Fabric.js 3.5.0</desc>
<defs>
</defs>
<rect x="0" y="0" width="100%" height="100%" fill="rgba(255,255,255,0)"/>
<g transform="matrix(1.2255 0 0 1.2255 500.006 500.0034)" id="442522">
<g style="" vector-effect="non-scaling-stroke">
		<g transform="matrix(1 0 0 1 -174.9245 -190.9862)">
<path style="stroke: none; stroke-width: 1; stroke-dasharray: none; stroke-linecap: butt; stroke-dashoffset: 0; stroke-linejoin: miter; stroke-miterlimit: 4; is-custom-font: none; font-file-url: none; fill: rgb(134,143,183); fill-rule: evenodd; opacity: 0.998;" transform=" translate(-437.0755, -153.0138)" d="M 551.5 114.5 C 552.497 95.674 552.83 76.674 552.5 57.5 C 475.5 57.5 398.5 57.5 321.5 57.5 C 321.168 91.6708 321.502 125.671 322.5 159.5 C 344.843 159.167 367.177 159.5 389.5 160.5 C 410.59 191.428 431.09 222.761 451 254.5 C 451.667 255.833 451.667 257.167 451 258.5 C 447.942 261.062 444.609 262.062 441 261.5 C 421.624 231.914 402.124 202.414 382.5 173 C 357.928 172.828 333.428 172.328 309 171.5 C 308.31 129.493 308.643 87.4927 310 45.5 C 395.096 44.5016 480.263 44.1683 565.5 44.5 C 565.5 86.8333 565.5 129.167 565.5 171.5 C 554.828 171.333 544.161 171.5 533.5 172 C 538.269 176.955 537.269 179.789 530.5 180.5 C 527.137 179.985 524.137 178.652 521.5 176.5 C 516.496 171.155 512.496 165.155 509.5 158.5 C 523.484 157.501 537.484 157.167 551.5 157.5 C 551.5 143.167 551.5 128.833 551.5 114.5 Z" stroke-linecap="round"/>
</g>
		<g transform="matrix(1 0 0 1 158.9687 -174)">
<path style="stroke: none; stroke-width: 1; stroke-dasharray: none; stroke-linecap: butt; stroke-dashoffset: 0; stroke-linejoin: miter; stroke-miterlimit: 4; is-custom-font: none; font-file-url: none; fill: rgb(132,142,182); fill-rule: evenodd; opacity: 0.996;" transform=" translate(-770.9687, -170)" d="M 635.5 44.5 C 725.833 44.5 816.167 44.5 906.5 44.5 C 906.5 86.8333 906.5 129.167 906.5 171.5 C 882.164 171.333 857.831 171.5 833.5 172 C 808.791 209.253 783.957 246.419 759 283.5 C 755.921 287.324 753.088 291.324 750.5 295.5 C 747.574 295.477 745.407 293.81 744 290.5 C 743.333 287.5 743.333 284.5 744 281.5 C 770.717 240.121 798.217 199.287 826.5 159 C 848.497 158.5 870.497 158.333 892.5 158.5 C 892.5 125.167 892.5 91.8333 892.5 58.5 C 811.833 58.5 731.167 58.5 650.5 58.5 C 650.5 91.8333 650.5 125.167 650.5 158.5 C 666.167 158.5 681.833 158.5 697.5 158.5 C 697.66 160.199 697.494 161.866 697 163.5 C 690.833 173.667 684.667 183.833 678.5 194 C 678.833 194.333 679.167 194.667 679.5 195 C 676.311 197.903 673.477 201.069 671 204.5 C 665.967 204.709 662.467 202.542 660.5 198 C 665.454 189.388 670.788 181.055 676.5 173 C 663.642 171.85 650.642 171.017 637.5 170.5 C 637.192 169.692 636.692 169.025 636 168.5 C 635.5 127.168 635.333 85.8347 635.5 44.5 Z" stroke-linecap="round"/>
</g>
		<g transform="matrix(1 0 0 1 -175.0005 -235.5)">
<path style="stroke: none; stroke-width: 1; stroke-dasharray: none; stroke-linecap: butt; stroke-dashoffset: 0; stroke-linejoin: miter; stroke-miterlimit: 4; is-custom-font: none; font-file-url: none; fill: rgb(101,117,160); fill-rule: evenodd; opacity: 0.118;" transform=" translate(-436.9995, -108.5)" d="M 551.5 114.5 C 551.5 95.8333 551.5 77.1667 551.5 58.5 C 475.167 58.5 398.833 58.5 322.5 58.5 C 322.5 92.1667 322.5 125.833 322.5 159.5 C 321.502 125.671 321.168 91.6708 321.5 57.5 C 398.5 57.5 475.5 57.5 552.5 57.5 C 552.83 76.674 552.497 95.674 551.5 114.5 Z" stroke-linecap="round"/>
</g>
		<g transform="matrix(1 0 0 1 -175.3088 -187.5)">
<path style="stroke: none; stroke-width: 1; stroke-dasharray: none; stroke-linecap: butt; stroke-dashoffset: 0; stroke-linejoin: miter; stroke-miterlimit: 4; is-custom-font: none; font-file-url: none; fill: rgb(28,59,116); fill-rule: evenodd; opacity: 1;" transform=" translate(-436.6912, -156.5)" d="M 335.5 67.5 C 404.167 67.5 472.833 67.5 541.5 67.5 C 541.667 94.1687 541.5 120.835 541 147.5 C 529.333 148.833 517.667 148.833 506 147.5 C 501.548 148.141 497.048 148.808 492.5 149.5 C 494.059 153.619 495.893 157.619 498 161.5 C 503.166 168.495 507.833 175.828 512 183.5 C 512.17 185.845 511.837 188.179 511 190.5 C 504.058 204.961 494.558 217.628 482.5 228.5 C 475.167 234.167 467.833 239.833 460.5 245.5 C 437.766 213.045 415.266 180.378 393 147.5 C 372.851 147.965 352.684 147.965 332.5 147.5 C 331.334 121.381 331.667 95.3813 333.5 69.5 C 334.522 69.1445 335.189 68.4778 335.5 67.5 Z" stroke-linecap="round"/>
</g>
		<g transform="matrix(1 0 0 1 158.4426 -175.5623)">
<path style="stroke: none; stroke-width: 1; stroke-dasharray: none; stroke-linecap: butt; stroke-dashoffset: 0; stroke-linejoin: miter; stroke-miterlimit: 4; is-custom-font: none; font-file-url: none; fill: rgb(26,59,115); fill-rule: evenodd; opacity: 1;" transform=" translate(-770.4426, -168.4377)" d="M 879.5 67.5 C 879.5 93.8333 879.5 120.167 879.5 146.5 C 859.472 145.846 839.805 146.512 820.5 148.5 C 793.906 189.361 766.573 229.694 738.5 269.5 C 736.968 265.801 734.301 263.301 730.5 262 C 724.757 261.37 719.09 260.37 713.5 259 C 711.951 257.786 710.785 256.286 710 254.5 C 710.108 250.843 710.108 247.177 710 243.5 C 704.358 237.014 697.525 232.348 689.5 229.5 C 685.653 225.821 682.819 221.488 681 216.5 C 680.245 213.697 680.578 211.03 682 208.5 C 693.959 188.749 705.793 168.916 717.5 149 C 716.552 148.517 715.552 148.351 714.5 148.5 C 697.008 147.503 679.341 147.17 661.5 147.5 C 661.185 121.122 661.518 94.7889 662.5 68.5 C 734.665 67.5008 806.998 67.1674 879.5 67.5 Z" stroke-linecap="round"/>
</g>
		<g transform="matrix(1 0 0 1 75.4687 -235.4873)">
<path style="stroke: none; stroke-width: 1; stroke-dasharray: none; stroke-linecap: butt; stroke-dashoffset: 0; stroke-linejoin: miter; stroke-miterlimit: 4; is-custom-font: none; font-file-url: none; fill: rgb(68,91,141); fill-rule: evenodd; opacity: 0.635;" transform=" translate(-687.4687, -108.5127)" d="M 662.5 68.5 C 661.518 94.7889 661.185 121.122 661.5 147.5 C 679.341 147.17 697.008 147.503 714.5 148.5 C 696.709 148.534 678.709 148.534 660.5 148.5 C 660.333 122.165 660.5 95.8312 661 69.5 C 661.383 68.944 661.883 68.6107 662.5 68.5 Z" stroke-linecap="round"/>
</g>
		<g transform="matrix(1 0 0 1 238.5093 -236)">
<path style="stroke: none; stroke-width: 1; stroke-dasharray: none; stroke-linecap: butt; stroke-dashoffset: 0; stroke-linejoin: miter; stroke-miterlimit: 4; is-custom-font: none; font-file-url: none; fill: rgb(82,100,147); fill-rule: evenodd; opacity: 0.924;" transform=" translate(-850.5093, -108)" d="M 879.5 67.5 C 880.664 93.9968 880.83 120.664 880 147.5 C 860.354 147.833 840.52 148.167 820.5 148.5 C 839.805 146.512 859.472 145.846 879.5 146.5 C 879.5 120.167 879.5 93.8333 879.5 67.5 Z" stroke-linecap="round"/>
</g>
		<g transform="matrix(1 0 0 1 -9.0542 -9.1408)">
<path style="stroke: none; stroke-width: 1; stroke-dasharray: none; stroke-linecap: butt; stroke-dashoffset: 0; stroke-linejoin: miter; stroke-miterlimit: 4; is-custom-font: none; font-file-url: none; fill: rgb(30,61,117); fill-rule: evenodd; opacity: 1;" transform=" translate(-602.9458, -334.8592)" d="M 523.5 188.5 C 529.7 188.016 535.7 188.849 541.5 191 C 550.566 197.195 559.899 202.862 569.5 208 C 573.167 208.667 576.833 208.667 580.5 208 C 604.303 196.623 628.636 195.623 653.5 205 C 660.53 208.69 667.03 213.19 673 218.5 C 676.439 225.518 680.606 232.018 685.5 238 C 702.666 239.824 708.333 248.824 702.5 265 C 703.167 265.667 703.833 266.333 704.5 267 C 709.816 266.737 715.149 266.737 720.5 267 C 724.758 268.384 728.258 270.884 731 274.5 C 734.59 286.469 738.923 298.136 744 309.5 C 742.828 321.749 745.495 323.083 752 313.5 C 753.945 308.635 756.445 304.135 759.5 300 C 762.093 300.546 764.26 302.046 766 304.5 C 770.837 312.507 773.837 321.174 775 330.5 C 777.333 331.167 779.667 331.833 782 332.5 C 782.421 357.569 775.754 380.569 762 401.5 C 741.951 432.148 714.451 454.315 679.5 468 C 656.444 474.626 632.778 476.292 608.5 473 C 602.056 470.963 595.556 469.13 589 467.5 C 583.509 469.329 578.343 471.829 573.5 475 C 552.426 483.469 531.092 483.469 509.5 475 C 489.657 463.213 478.824 445.713 477 422.5 C 475.327 410.041 476.827 398.041 481.5 386.5 C 462.832 356.493 443.665 326.826 424 297.5 C 423.377 292.067 425.044 287.4 429 283.5 C 431.537 280.628 434.37 278.128 437.5 276 C 444.801 271.68 452.134 267.347 459.5 263 C 466.723 260.926 473.723 258.259 480.5 255 C 476.557 253.39 473.557 250.723 471.5 247 C 491.963 232.207 508.13 213.707 520 191.5 C 521.145 190.364 522.312 189.364 523.5 188.5 Z" stroke-linecap="round"/>
</g>
		<g transform="matrix(1 0 0 1 -26.2607 -24.6894)">
<path style="stroke: none; stroke-width: 1; stroke-dasharray: none; stroke-linecap: butt; stroke-dashoffset: 0; stroke-linejoin: miter; stroke-miterlimit: 4; is-custom-font: none; font-file-url: none; fill: rgb(253,253,254); fill-rule: evenodd; opacity: 1;" transform=" translate(-585.7393, -319.3106)" d="M 529.5 200.5 C 540.816 203.658 550.816 209.158 559.5 217 C 564.798 220.757 570.465 221.423 576.5 219 C 597.67 209.262 619.67 206.929 642.5 212 C 648.074 214.194 652.574 217.694 656 222.5 C 657.369 227.437 656.203 231.604 652.5 235 C 649.523 236.318 646.69 237.818 644 239.5 C 643.493 240.996 643.993 242.163 645.5 243 C 659.474 244.83 673.474 246.497 687.5 248 C 690.516 249.529 691.849 252.029 691.5 255.5 C 691.881 258.325 690.881 260.491 688.5 262 C 666.834 261.633 645.168 261.3 623.5 261 C 612.813 270.558 613.147 279.891 624.5 289 C 632.077 290.708 639.743 291.541 647.5 291.5 C 648.411 299.769 645.411 306.269 638.5 311 C 634.251 313.194 629.918 315.194 625.5 317 C 623.043 318.512 623.043 319.846 625.5 321 C 632.728 321.154 639.728 319.82 646.5 317 C 660.328 309.587 673.995 301.92 687.5 294 C 699.017 288.468 710.683 288.135 722.5 293 C 729.499 297.649 731.999 304.149 730 312.5 C 728.626 324.207 722.126 331.041 710.5 333 C 697.541 334.211 684.541 334.878 671.5 335 C 667.123 335.188 663.123 336.521 659.5 339 C 653.407 343.089 647.907 347.922 643 353.5 C 631.282 368.216 619.949 383.216 609 398.5 C 599.001 411.171 587.168 421.671 573.5 430 C 558.236 438.181 542.236 440.181 525.5 436 C 511.361 429.587 502.528 418.754 499 403.5 C 498.182 397.098 498.516 390.765 500 384.5 C 506.564 371.704 513.898 359.37 522 347.5 C 524.156 343.738 524.823 339.738 524 335.5 C 523.163 333.993 521.996 333.493 520.5 334 C 518.552 337.957 516.386 341.791 514 345.5 C 504.373 353.126 495.373 361.46 487 370.5 C 471.168 346.839 455.834 322.839 441 298.5 C 440.448 295.581 441.115 292.914 443 290.5 C 455.811 279.346 470.645 272.346 487.5 269.5 C 484.147 283.12 484.981 296.454 490 309.5 C 491.715 311.759 493.548 313.926 495.5 316 C 496.448 316.483 497.448 316.649 498.5 316.5 C 494.999 278.008 511.665 252.841 548.5 241 C 552.469 240.147 556.469 239.481 560.5 239 C 561.357 238.311 562.023 237.478 562.5 236.5 C 555.532 229.678 547.532 224.345 538.5 220.5 C 534.768 224.949 531.268 229.616 528 234.5 C 524.034 239.291 519.534 243.458 514.5 247 C 509.833 247.667 505.167 247.667 500.5 247 C 497.71 246.439 495.377 245.106 493.5 243 C 506.461 229.548 518.461 215.381 529.5 200.5 Z" stroke-linecap="round"/>
</g>
		<g transform="matrix(1 0 0 1 -3.5 -76.5466)">
<path style="stroke: none; stroke-width: 1; stroke-dasharray: none; stroke-linecap: butt; stroke-dashoffset: 0; stroke-linejoin: miter; stroke-miterlimit: 4; is-custom-font: none; font-file-url: none; fill: rgb(33,63,118); fill-rule: evenodd; opacity: 1;" transform=" translate(-608.5, -267.4535)" d="M 615.5 248.5 C 617.924 248.192 620.257 248.526 622.5 249.5 C 608.979 260.196 606.979 272.529 616.5 286.5 C 604.201 286.889 596.867 280.889 594.5 268.5 C 595.185 262.298 598.185 257.464 603.5 254 C 607.481 251.838 611.481 250.005 615.5 248.5 Z" stroke-linecap="round"/>
</g>
		<g transform="matrix(1 0 0 1 44.25 -66.9795)">
<path style="stroke: none; stroke-width: 1; stroke-dasharray: none; stroke-linecap: butt; stroke-dashoffset: 0; stroke-linejoin: miter; stroke-miterlimit: 4; is-custom-font: none; font-file-url: none; fill: rgb(245,246,249); fill-rule: evenodd; opacity: 1;" transform=" translate(-656.25, -277.0205)" d="M 645.5 270.5 C 654.192 270.169 662.859 270.502 671.5 271.5 C 666.171 274.163 661.171 277.33 656.5 281 C 647.197 286.246 642.03 283.746 641 273.5 C 642.652 272.601 644.152 271.601 645.5 270.5 Z" stroke-linecap="round"/>
</g>
		<g transform="matrix(1 0 0 1 20.5524 -68.5)">
<path style="stroke: none; stroke-width: 1; stroke-dasharray: none; stroke-linecap: butt; stroke-dashoffset: 0; stroke-linejoin: miter; stroke-miterlimit: 4; is-custom-font: none; font-file-url: none; fill: rgb(208,213,226); fill-rule: evenodd; opacity: 0.992;" transform=" translate(-632.5524, -275.5)" d="M 633.5 269.5 C 634.043 269.56 634.376 269.893 634.5 270.5 C 632.938 273.974 632.105 277.64 632 281.5 C 629.73 277.048 630.23 273.048 633.5 269.5 Z" stroke-linecap="round"/>
</g>
		<g transform="matrix(1 0 0 1 83.5 -65.3767)">
<path style="stroke: none; stroke-width: 1; stroke-dasharray: none; stroke-linecap: butt; stroke-dashoffset: 0; stroke-linejoin: miter; stroke-miterlimit: 4; is-custom-font: none; font-file-url: none; fill: rgb(244,245,248); fill-rule: evenodd; opacity: 1;" transform=" translate(-695.5, -278.6233)" d="M 696.5 274.5 C 698.167 274.5 699.833 274.5 701.5 274.5 C 700.5 281.652 696.5 284.152 689.5 282 C 691.361 278.975 693.694 276.475 696.5 274.5 Z" stroke-linecap="round"/>
</g>
		<g transform="matrix(1 0 0 1 64 -65.75)">
<path style="stroke: none; stroke-width: 1; stroke-dasharray: none; stroke-linecap: butt; stroke-dashoffset: 0; stroke-linejoin: miter; stroke-miterlimit: 4; is-custom-font: none; font-file-url: none; fill: rgb(225,228,237); fill-rule: evenodd; opacity: 1;" transform=" translate(-676, -278.25)" d="M 685.5 272.5 C 686.043 272.56 686.376 272.893 686.5 273.5 C 680.767 279.7 673.767 283.2 665.5 284 C 672.098 279.873 678.765 276.04 685.5 272.5 Z" stroke-linecap="round"/>
</g>
		<g transform="matrix(1 0 0 1 142.0086 -21.0178)">
<path style="stroke: none; stroke-width: 1; stroke-dasharray: none; stroke-linecap: butt; stroke-dashoffset: 0; stroke-linejoin: miter; stroke-miterlimit: 4; is-custom-font: none; font-file-url: none; fill: rgb(239,240,245); fill-rule: evenodd; opacity: 1;" transform=" translate(-754.0086, -322.9823)" d="M 759.5 314.5 C 760.75 314.577 761.583 315.244 762 316.5 C 762.828 321.202 762.662 325.869 761.5 330.5 C 756.189 331.786 750.856 331.786 745.5 330.5 C 751.278 326.06 755.945 320.727 759.5 314.5 Z" stroke-linecap="round"/>
</g>
		<g transform="matrix(1 0 0 1 71.5 53.75)">
<path style="stroke: none; stroke-width: 1; stroke-dasharray: none; stroke-linecap: butt; stroke-dashoffset: 0; stroke-linejoin: miter; stroke-miterlimit: 4; is-custom-font: none; font-file-url: none; fill: rgb(253,253,254); fill-rule: evenodd; opacity: 1;" transform=" translate(-683.5, -397.75)" d="M 701.5 339.5 C 722.828 340.126 744.161 340.459 765.5 340.5 C 760.227 377.219 742.56 406.386 712.5 428 C 699.405 436.809 685.071 442.476 669.5 445 C 663.5 445.667 657.5 445.667 651.5 445 C 641.653 443.451 631.986 441.451 622.5 439 C 617.157 447.04 610.157 452.706 601.5 456 C 610.45 444.379 618.617 432.212 626 419.5 C 636.52 398.453 647.52 377.786 659 357.5 C 670.968 346.094 685.134 340.094 701.5 339.5 Z" stroke-linecap="round"/>
</g>
		<g transform="matrix(1 0 0 1 -3.0093 209.5313)">
<path style="stroke: none; stroke-width: 1; stroke-dasharray: none; stroke-linecap: butt; stroke-dashoffset: 0; stroke-linejoin: miter; stroke-miterlimit: 4; is-custom-font: none; font-file-url: none; fill: rgb(133,143,182); fill-rule: evenodd; opacity: 1;" transform=" translate(-608.9907, -553.5313)" d="M 690.5 472.5 C 691.79 473.058 692.623 474.058 693 475.5 C 693.333 480.5 693.667 485.5 694 490.5 C 694.309 491.766 694.809 492.933 695.5 494 C 725.165 494.5 754.831 494.667 784.5 494.5 C 784.5 541.167 784.5 587.833 784.5 634.5 C 667.833 634.667 551.166 634.5 434.5 634 C 433.336 587.571 433.17 541.071 434 494.5 C 462.434 493.837 490.934 493.171 519.5 492.5 C 521.224 489.47 523.891 488.137 527.5 488.5 C 530.325 488.119 532.491 489.119 534 491.5 C 534.718 495.478 534.218 499.311 532.5 503 C 532.735 503.873 533.069 504.707 533.5 505.5 C 504.841 506.5 476.174 506.833 447.5 506.5 C 447.17 544.406 447.504 582.239 448.5 620 C 556.499 620.5 664.499 620.667 772.5 620.5 C 772.5 583.167 772.5 545.833 772.5 508.5 C 741.833 508.5 711.167 508.5 680.5 508.5 C 680.333 497.828 680.5 487.161 681 476.5 C 683.888 474.288 687.055 472.954 690.5 472.5 Z" stroke-linecap="round"/>
</g>
		<g transform="matrix(1 0 0 1 -0.5602 199)">
<path style="stroke: none; stroke-width: 1; stroke-dasharray: none; stroke-linecap: butt; stroke-dashoffset: 0; stroke-linejoin: miter; stroke-miterlimit: 4; is-custom-font: none; font-file-url: none; fill: rgb(27,59,115); fill-rule: evenodd; opacity: 1;" transform=" translate(-611.4398, -543)" d="M 461.5 610.5 C 460.508 579.24 460.175 547.907 460.5 516.5 C 488.853 517.158 516.853 516.492 544.5 514.5 C 544.389 513.883 544.056 513.383 543.5 513 C 544.167 505 544.833 497 545.5 489 C 552.978 488.408 560.311 487.075 567.5 485 C 574.701 482.107 581.701 478.941 588.5 475.5 C 610.471 481.119 632.804 482.952 655.5 481 C 659.855 480.89 664.022 480.057 668 478.5 C 668.5 491.496 668.667 504.496 668.5 517.5 C 699.833 517.5 731.167 517.5 762.5 517.5 C 762.5 548.5 762.5 579.5 762.5 610.5 C 662.167 610.5 561.833 610.5 461.5 610.5 Z" stroke-linecap="round"/>
</g>
		<g transform="matrix(1 0 0 1 -110.5313 218.5)">
<path style="stroke: none; stroke-width: 1; stroke-dasharray: none; stroke-linecap: butt; stroke-dashoffset: 0; stroke-linejoin: miter; stroke-miterlimit: 4; is-custom-font: none; font-file-url: none; fill: rgb(60,83,134); fill-rule: evenodd; opacity: 0.972;" transform=" translate(-501.4687, -562.5)" d="M 544.5 514.5 C 516.853 516.492 488.853 517.158 460.5 516.5 C 460.175 547.907 460.508 579.24 461.5 610.5 C 460.5 610.5 459.5 610.5 458.5 610.5 C 458.333 579.165 458.5 547.832 459 516.5 C 487.5 515.829 516 515.163 544.5 514.5 Z" stroke-linecap="round"/>
</g>
</g>
</g>
</svg>