<svg xmlns="http://www.w3.org/2000/svg" xmlns:xlink="http://www.w3.org/1999/xlink" width="1080" zoomAndPan="magnify" viewBox="0 0 810 809.999993" height="1080" preserveAspectRatio="xMidYMid meet" version="1.0"><path fill="#34a853" d="M 405.066406 33.289062 C 406.324219 33.292969 407.582031 33.292969 408.875 33.296875 C 429.328125 33.367188 449.179688 34.398438 469.335938 37.96875 C 470.476562 38.167969 471.613281 38.363281 472.789062 38.566406 C 522.191406 47.386719 569.3125 66.507812 610.664062 94.921875 C 611.730469 95.652344 611.730469 95.652344 612.820312 96.398438 C 621.222656 102.1875 629.234375 108.371094 637.03125 114.960938 C 638.339844 116.046875 639.648438 117.132812 640.957031 118.21875 C 642.308594 119.351562 643.65625 120.484375 645.007812 121.617188 C 645.648438 122.148438 646.289062 122.679688 646.953125 123.230469 C 650.234375 126.015625 651.941406 127.90625 653.90625 131.835938 C 619.101562 166.640625 584.296875 201.445312 548.4375 237.304688 C 543.683594 235.402344 542.121094 234.484375 538.679688 231.109375 C 498.363281 193.851562 443.746094 181.546875 390.347656 183.324219 C 381.355469 183.683594 372.652344 184.757812 363.867188 186.679688 C 362.933594 186.878906 361.996094 187.078125 361.035156 187.28125 C 322.957031 195.609375 289.585938 213.78125 260.507812 239.414062 C 259.617188 240.175781 258.730469 240.933594 257.8125 241.71875 C 252.59375 246.226562 248.046875 250.996094 243.632812 256.289062 C 242.84375 257.195312 242.054688 258.105469 241.238281 259.042969 C 229.734375 272.445312 220.148438 287.035156 211.992188 302.695312 C 211.597656 303.449219 211.203125 304.203125 210.796875 304.980469 C 183.675781 357.59375 180.089844 417.324219 197.640625 473.464844 C 215.949219 529.878906 255.800781 577.027344 308.511719 604.214844 C 361.527344 630.789062 423.160156 634.625 479.628906 616.46875 C 527.433594 600.066406 567.128906 568.894531 589.710938 523.285156 C 596.011719 510.1875 599.722656 497.285156 603.28125 483.046875 C 537.847656 482.699219 472.414062 482.351562 405 481.992188 C 405 434.308594 405 386.628906 405 337.5 C 520.550781 337.5 636.101562 337.5 755.15625 337.5 C 765.960938 380.726562 764.96875 430.8125 758.320312 474.609375 C 758.140625 475.859375 757.957031 477.105469 757.773438 478.390625 C 748.820312 538.921875 726.683594 599.792969 687.65625 647.578125 C 686.855469 648.578125 686.058594 649.578125 685.234375 650.609375 C 679.933594 657.191406 674.375 663.492188 668.671875 669.726562 C 667.710938 670.796875 666.75 671.867188 665.792969 672.941406 C 661.019531 678.246094 656.230469 683.382812 650.75 687.976562 C 648.328125 690.023438 646.015625 692.164062 643.6875 694.3125 C 623.449219 712.453125 600.011719 727.03125 575.859375 739.335938 C 575.085938 739.730469 574.316406 740.128906 573.519531 740.535156 C 527.675781 763.808594 473.75 776.261719 422.394531 776.464844 C 421.167969 776.46875 419.9375 776.476562 418.671875 776.484375 C 416.082031 776.492188 413.492188 776.5 410.902344 776.503906 C 407.039062 776.511719 403.175781 776.546875 399.308594 776.578125 C 376.882812 776.679688 354.886719 774.652344 332.886719 770.25 C 331.53125 769.984375 330.175781 769.714844 328.777344 769.4375 C 277.105469 758.949219 228.0625 736.78125 185.625 705.585938 C 184.960938 705.097656 184.296875 704.613281 183.617188 704.109375 C 162.621094 688.585938 142.464844 670.613281 125.507812 650.742188 C 124.675781 649.792969 123.84375 648.84375 122.988281 647.867188 C 109.765625 632.675781 98.035156 616.238281 87.539062 599.0625 C 86.792969 597.84375 86.792969 597.84375 86.035156 596.601562 C 54.453125 544.476562 33.808594 481.632812 33.535156 420.292969 C 33.527344 419.167969 33.519531 418.042969 33.511719 416.886719 C 33.496094 413.277344 33.488281 409.664062 33.488281 406.054688 C 33.484375 404.207031 33.484375 404.207031 33.484375 402.320312 C 33.5 384.375 33.886719 366.832031 36.914062 349.101562 C 37.09375 347.992188 37.277344 346.886719 37.460938 345.746094 C 43.046875 312.203125 52.84375 279.613281 67.5 248.90625 C 67.828125 248.214844 68.160156 247.519531 68.5 246.808594 C 70.886719 241.832031 73.378906 236.917969 75.9375 232.03125 C 76.367188 231.210938 76.792969 230.394531 77.234375 229.550781 C 91.226562 203.011719 108.476562 178.292969 128.671875 156.09375 C 129.289062 155.414062 129.902344 154.734375 130.539062 154.03125 C 144.0625 139.136719 158.324219 125.261719 174.390625 113.125 C 176.085938 111.832031 177.761719 110.507812 179.433594 109.183594 C 224.4375 73.699219 278.890625 49.882812 335.0625 39.222656 C 336.578125 38.933594 336.578125 38.933594 338.121094 38.636719 C 341.773438 37.992188 345.429688 37.429688 349.101562 36.914062 C 350.035156 36.78125 350.972656 36.652344 351.933594 36.515625 C 369.683594 34.085938 387.160156 33.191406 405.066406 33.289062 Z M 405.066406 33.289062 " fill-opacity="1" fill-rule="nonzero"/><path fill="#ea4334" d="M 405.066406 33.289062 C 406.324219 33.292969 407.582031 33.292969 408.875 33.296875 C 429.328125 33.367188 449.179688 34.398438 469.335938 37.96875 C 470.476562 38.167969 471.613281 38.363281 472.789062 38.566406 C 522.191406 47.386719 569.3125 66.507812 610.664062 94.921875 C 611.730469 95.652344 611.730469 95.652344 612.820312 96.398438 C 621.222656 102.1875 629.234375 108.371094 637.03125 114.960938 C 638.339844 116.046875 639.648438 117.132812 640.957031 118.21875 C 642.308594 119.351562 643.65625 120.484375 645.007812 121.617188 C 645.648438 122.148438 646.289062 122.679688 646.953125 123.230469 C 650.234375 126.015625 651.941406 127.90625 653.90625 131.835938 C 619.101562 166.640625 584.296875 201.445312 548.4375 237.304688 C 543.683594 235.402344 542.121094 234.484375 538.679688 231.109375 C 498.363281 193.851562 443.746094 181.546875 390.347656 183.324219 C 381.355469 183.683594 372.652344 184.757812 363.867188 186.679688 C 362.933594 186.878906 361.996094 187.078125 361.035156 187.28125 C 322.957031 195.609375 289.585938 213.78125 260.507812 239.414062 C 259.617188 240.175781 258.730469 240.933594 257.8125 241.71875 C 252.59375 246.226562 248.046875 250.996094 243.632812 256.289062 C 242.84375 257.195312 242.054688 258.105469 241.238281 259.042969 C 229.734375 272.445312 220.148438 287.035156 211.992188 302.695312 C 211.597656 303.449219 211.203125 304.203125 210.796875 304.980469 C 185.492188 354.066406 180.570312 409.484375 194.5 462.613281 C 195.5625 466.929688 196.398438 471.296875 197.226562 475.664062 C 190.46875 481.289062 183.621094 486.703125 176.566406 491.945312 C 169.785156 497.011719 163.148438 502.261719 156.476562 507.46875 C 153.199219 510.023438 149.917969 512.574219 146.636719 515.125 C 140.285156 520.058594 133.9375 525.003906 127.617188 529.980469 C 121.296875 534.953125 114.957031 539.898438 108.605469 544.832031 C 104.445312 548.058594 100.292969 551.292969 96.152344 554.546875 C 95.316406 555.203125 94.480469 555.855469 93.621094 556.53125 C 92.039062 557.769531 90.460938 559.011719 88.886719 560.257812 C 83.683594 564.324219 78.3125 568.046875 72.773438 571.640625 C 48.234375 526.359375 33.761719 471.84375 33.535156 420.292969 C 33.527344 419.167969 33.519531 418.042969 33.511719 416.886719 C 33.496094 413.277344 33.488281 409.664062 33.488281 406.054688 C 33.484375 404.207031 33.484375 404.207031 33.484375 402.320312 C 33.5 384.375 33.886719 366.832031 36.914062 349.101562 C 37.09375 347.992188 37.277344 346.886719 37.460938 345.746094 C 43.046875 312.203125 52.84375 279.613281 67.5 248.90625 C 67.828125 248.214844 68.160156 247.519531 68.5 246.808594 C 70.886719 241.832031 73.378906 236.917969 75.9375 232.03125 C 76.367188 231.210938 76.792969 230.394531 77.234375 229.550781 C 91.226562 203.011719 108.476562 178.292969 128.671875 156.09375 C 129.289062 155.414062 129.902344 154.734375 130.539062 154.03125 C 144.0625 139.136719 158.324219 125.261719 174.390625 113.125 C 176.085938 111.832031 177.761719 110.507812 179.433594 109.183594 C 224.4375 73.699219 278.890625 49.882812 335.0625 39.222656 C 336.578125 38.933594 336.578125 38.933594 338.121094 38.636719 C 341.773438 37.992188 345.429688 37.429688 349.101562 36.914062 C 350.035156 36.78125 350.972656 36.652344 351.933594 36.515625 C 369.683594 34.085938 387.160156 33.191406 405.066406 33.289062 Z M 405.066406 33.289062 " fill-opacity="1" fill-rule="nonzero"/><path fill="#4185f3" d="M 405 337.5 C 520.550781 337.5 636.101562 337.5 755.15625 337.5 C 765.960938 380.726562 764.96875 430.8125 758.320312 474.609375 C 758.140625 475.859375 757.957031 477.105469 757.773438 478.390625 C 748.820312 538.921875 726.683594 599.792969 687.65625 647.578125 C 686.855469 648.578125 686.058594 649.578125 685.234375 650.609375 C 679.933594 657.191406 674.375 663.496094 668.671875 669.726562 C 667.675781 670.835938 666.675781 671.941406 665.679688 673.050781 C 664.65625 674.183594 663.632812 675.316406 662.605469 676.449219 C 661.210938 677.996094 661.210938 677.996094 659.789062 679.574219 C 657.265625 682.179688 654.683594 684.410156 651.796875 686.601562 C 648.800781 685.199219 646.277344 683.621094 643.679688 681.574219 C 642.9375 680.992188 642.191406 680.410156 641.421875 679.808594 C 640.625 679.179688 639.828125 678.550781 639.007812 677.898438 C 637.292969 676.554688 635.574219 675.207031 633.859375 673.863281 C 632.984375 673.175781 632.105469 672.484375 631.203125 671.777344 C 627.179688 668.617188 623.140625 665.480469 619.101562 662.34375 C 617.527344 661.117188 615.949219 659.894531 614.375 658.667969 C 613.203125 657.757812 613.203125 657.757812 612.003906 656.824219 C 609.5625 654.925781 607.121094 653.023438 604.679688 651.121094 C 597.722656 645.703125 590.761719 640.292969 583.769531 634.921875 C 573.402344 626.960938 563.101562 618.914062 552.792969 610.878906 C 551.953125 610.222656 551.113281 609.570312 550.246094 608.894531 C 548.65625 607.65625 547.0625 606.414062 545.472656 605.171875 C 540.527344 601.320312 535.535156 597.535156 530.507812 593.789062 C 532.316406 589.832031 534.121094 588.253906 537.757812 585.8125 C 544.699219 580.925781 550.746094 575.375 556.875 569.53125 C 557.636719 568.828125 558.394531 568.121094 559.179688 567.398438 C 582.761719 544.90625 595.542969 514 603.28125 483.046875 C 537.847656 482.699219 472.414062 482.351562 405 481.992188 C 405 434.308594 405 386.628906 405 337.5 Z M 405 337.5 " fill-opacity="1" fill-rule="nonzero"/><path fill="#fabb05" d="M 72.773438 238.359375 C 79.503906 242.519531 85.621094 247.300781 91.753906 252.273438 C 96.597656 256.1875 101.523438 259.960938 106.523438 263.671875 C 112.808594 268.339844 118.960938 273.148438 125.058594 278.0625 C 130.242188 282.242188 135.5 286.3125 140.789062 290.359375 C 145.207031 293.742188 149.59375 297.167969 153.984375 300.585938 C 159.421875 304.820312 164.867188 309.046875 170.332031 313.242188 C 171.390625 314.0625 172.453125 314.878906 173.546875 315.722656 C 176.417969 317.933594 179.316406 320.117188 182.214844 322.296875 C 183.964844 323.628906 185.71875 324.960938 187.46875 326.292969 C 188.3125 326.921875 189.15625 327.550781 190.027344 328.199219 C 191.199219 329.09375 191.199219 329.09375 192.398438 330.011719 C 193.101562 330.539062 193.804688 331.070312 194.527344 331.613281 C 196.503906 333.617188 196.953125 334.710938 197.226562 337.5 C 196.816406 339.886719 196.816406 339.886719 196.054688 342.515625 C 195.785156 343.492188 195.511719 344.472656 195.230469 345.480469 C 194.929688 346.523438 194.632812 347.566406 194.324219 348.640625 C 191.324219 359.625 189.136719 370.5 187.734375 381.796875 C 187.59375 382.890625 187.457031 383.984375 187.3125 385.109375 C 186.992188 388.230469 186.804688 391.320312 186.679688 394.453125 C 186.652344 395.160156 186.621094 395.867188 186.59375 396.59375 C 185.8125 419.039062 188.816406 440.933594 194.5 462.613281 C 195.5625 466.929688 196.398438 471.296875 197.226562 475.664062 C 190.46875 481.289062 183.621094 486.703125 176.566406 491.945312 C 169.785156 497.011719 163.148438 502.261719 156.476562 507.46875 C 153.199219 510.023438 149.917969 512.574219 146.636719 515.125 C 140.285156 520.058594 133.9375 525.003906 127.617188 529.980469 C 121.296875 534.953125 114.957031 539.898438 108.605469 544.832031 C 104.445312 548.058594 100.292969 551.292969 96.152344 554.546875 C 95.316406 555.203125 94.480469 555.855469 93.621094 556.53125 C 92.039062 557.769531 90.460938 559.011719 88.886719 560.257812 C 83.683594 564.324219 78.3125 568.046875 72.773438 571.640625 C 48.234375 526.359375 33.761719 471.84375 33.535156 420.292969 C 33.527344 419.167969 33.519531 418.042969 33.511719 416.886719 C 33.496094 413.277344 33.488281 409.664062 33.488281 406.054688 C 33.484375 404.820312 33.484375 403.589844 33.484375 402.320312 C 33.5 384.375 33.886719 366.832031 36.914062 349.101562 C 37.1875 347.441406 37.1875 347.441406 37.460938 345.746094 C 43.691406 308.328125 55.1875 272.011719 72.773438 238.359375 Z M 72.773438 238.359375 " fill-opacity="1" fill-rule="nonzero"/></svg>