<svg xmlns="http://www.w3.org/2000/svg" xmlns:xlink="http://www.w3.org/1999/xlink" width="1080" zoomAndPan="magnify" viewBox="0 0 810 809.999993" height="1080" preserveAspectRatio="xMidYMid meet" version="1.0"><path fill="#fefeff" d="M -64.398438 -64.398438 C 248.101562 -64.398438 560.601562 -64.398438 873.101562 -64.398438 C 873.101562 246.710938 873.101562 557.824219 873.101562 868.933594 C 560.601562 868.933594 248.101562 868.933594 -64.398438 868.933594 C -64.398438 557.824219 -64.398438 246.710938 -64.398438 -64.398438 Z M -64.398438 -64.398438 " fill-opacity="0.004" fill-rule="evenodd"/><path fill="#3239d6" d="M 735.601562 31.433594 C 730.601562 30.84375 726.4375 32.40625 723.101562 36.121094 C 720.390625 37.308594 717.613281 38.175781 714.769531 38.726562 C 720.652344 34.027344 727.25 31.074219 734.558594 29.871094 C 735.136719 30.269531 735.484375 30.792969 735.601562 31.433594 Z M 735.601562 31.433594 " fill-opacity="0.922" fill-rule="evenodd"/><path fill="#3122fd" d="M 317.894531 51.226562 C 318.234375 54.007812 319.796875 55.746094 322.582031 56.433594 C 322.925781 173.796875 323.273438 291.15625 323.621094 408.519531 C 323.828125 410.476562 324.347656 412.214844 325.183594 413.726562 C 327.535156 452.734375 340.726562 487.457031 364.769531 517.894531 C 365.480469 520.527344 366.871094 522.785156 368.933594 524.664062 C 368.238281 526.050781 367.199219 527.09375 365.808594 527.789062 C 367.699219 527.742188 369.433594 527.914062 371.019531 528.308594 C 371.984375 529.546875 372.332031 530.9375 372.058594 532.476562 C 376.148438 533.246094 379.273438 535.503906 381.433594 539.246094 C 382.421875 539.75 383.464844 539.921875 384.558594 539.769531 C 415.207031 567.417969 450.96875 585.472656 491.851562 593.933594 C 493.058594 595.890625 494.792969 596.410156 497.058594 595.496094 C 498.324219 592.699219 499.019531 589.746094 499.144531 586.644531 C 504.316406 572.515625 508.832031 558.28125 512.683594 543.933594 C 511.46875 552.953125 511.46875 561.980469 512.683594 571.019531 C 509.792969 570.589844 509.097656 571.457031 510.601562 573.621094 C 510.464844 574.726562 509.945312 575.59375 509.039062 576.226562 C 507.40625 572.335938 506.191406 572.335938 505.394531 576.226562 C 505.878906 578.984375 507.09375 581.414062 509.039062 583.519531 C 513.265625 577.648438 514.828125 571.222656 513.726562 564.246094 C 514.378906 563.464844 514.898438 562.597656 515.289062 561.644531 C 515.984375 563.03125 516.675781 563.03125 517.371094 561.644531 C 518.085938 560.304688 517.910156 559.089844 516.851562 557.996094 C 517.816406 557.59375 518.511719 556.898438 518.933594 555.914062 C 516.546875 552.335938 516.371094 548.691406 518.414062 544.976562 C 518.761719 545.324219 519.109375 545.671875 519.457031 546.019531 C 521.753906 542.527344 522.277344 538.882812 521.019531 535.082031 C 521.773438 533.621094 522.296875 532.058594 522.582031 530.394531 C 523.089844 531.738281 523.265625 533.128906 523.101562 534.558594 C 524.144531 534.558594 525.183594 534.558594 526.226562 534.558594 C 525.664062 529.566406 525.488281 524.355469 525.707031 518.933594 C 526.398438 523.101562 527.09375 523.101562 527.789062 518.933594 C 528.214844 513.714844 528.738281 508.507812 529.351562 503.308594 C 528.363281 499.078125 528.015625 494.910156 528.308594 490.808594 C 529.136719 477.640625 529.660156 464.449219 529.871094 451.226562 C 530.21875 454.351562 530.566406 457.476562 530.914062 460.601562 C 534.089844 446.902344 535.304688 433.015625 534.558594 418.933594 C 533.519531 418.933594 532.476562 418.933594 531.433594 418.933594 C 531.433594 416.15625 531.433594 413.378906 531.433594 410.601562 C 532.476562 410.601562 533.519531 410.601562 534.558594 410.601562 C 534.300781 402.90625 534.824219 395.265625 536.121094 387.683594 C 536.46875 394.628906 536.816406 401.574219 537.164062 408.519531 C 538.203125 405.882812 539.070312 405.882812 539.769531 408.519531 C 540.296875 416.222656 541.339844 423.863281 542.894531 431.433594 C 542.59375 433.503906 541.898438 435.414062 540.808594 437.164062 C 541.121094 445.398438 542.164062 453.382812 543.933594 461.121094 C 541.558594 464.660156 541.386719 467.957031 543.414062 471.019531 C 544.109375 470.324219 544.800781 469.628906 545.496094 468.933594 C 545.902344 457.8125 546.421875 446.699219 547.058594 435.601562 C 546.019531 435.601562 544.976562 435.601562 543.933594 435.601562 C 543.925781 431.460938 544.96875 427.640625 547.058594 424.144531 C 546.921875 421.953125 545.878906 420.390625 543.933594 419.457031 C 547.835938 414.339844 548.878906 408.613281 547.058594 402.269531 C 547.582031 395.304688 548.277344 388.363281 549.144531 381.433594 C 550.722656 380.074219 551.414062 380.597656 551.226562 382.996094 C 551.492188 403.246094 551.492188 423.210938 551.226562 442.894531 C 551.914062 454.339844 552.78125 465.796875 553.832031 477.269531 C 554.523438 474.488281 555.21875 471.710938 555.914062 468.933594 C 556.136719 489.78125 556.65625 510.617188 557.476562 531.433594 C 557.421875 533.101562 557.074219 534.664062 556.433594 536.121094 C 557.699219 538.304688 558.570312 538.132812 559.039062 535.601562 C 559.386719 535.949219 559.734375 536.296875 560.082031 536.644531 C 560.425781 481.085938 560.773438 425.53125 561.121094 369.976562 C 561.46875 369.628906 561.816406 369.28125 562.164062 368.933594 C 562.511719 374.488281 562.859375 380.046875 563.207031 385.601562 C 563.726562 377.273438 563.898438 368.941406 563.726562 360.601562 C 564.421875 402.613281 565.113281 444.628906 565.808594 486.644531 C 566.195312 509.632812 565.328125 532.550781 563.207031 555.394531 C 560.648438 567.921875 558.042969 580.421875 555.394531 592.894531 C 562.414062 593.375 568.664062 591.636719 574.144531 587.683594 C 574.488281 587.683594 574.835938 587.683594 575.183594 587.683594 C 580.464844 587.242188 585.675781 586.371094 590.808594 585.082031 C 600.246094 580.363281 609.621094 575.675781 618.933594 571.019531 C 633.640625 563.492188 647.878906 555.15625 661.644531 546.019531 C 664.0625 544.6875 666.667969 543.644531 669.457031 542.894531 C 671.613281 543.164062 673.699219 543.164062 675.707031 542.894531 C 677.785156 541.671875 679.695312 540.285156 681.433594 538.726562 C 684.550781 539.046875 685.941406 540.785156 685.601562 543.933594 C 683.886719 543.710938 682.324219 544.058594 680.914062 544.976562 C 680.269531 545.964844 680.445312 546.832031 681.433594 547.582031 C 678.824219 550.261719 676.394531 553.042969 674.144531 555.914062 C 674.617188 556.34375 674.964844 556.867188 675.183594 557.476562 C 673.3125 558.144531 671.75 559.183594 670.496094 560.601562 C 668.738281 558.15625 666.828125 557.980469 664.769531 560.082031 C 665.113281 560.425781 665.460938 560.773438 665.808594 561.121094 C 664.769531 564.941406 662.335938 567.371094 658.519531 568.414062 C 660.191406 569.507812 660.886719 571.070312 660.601562 573.101562 C 663.65625 573.921875 666.78125 574.617188 669.976562 575.183594 C 678.449219 571.507812 679.664062 572.546875 673.621094 578.308594 C 673.117188 579.296875 672.945312 580.339844 673.101562 581.433594 C 670.433594 582.339844 667.65625 582.339844 664.769531 581.433594 C 664.769531 582.824219 664.769531 584.210938 664.769531 585.601562 C 660.554688 585.75 656.558594 585.75 652.789062 585.601562 C 652.28125 590.273438 650.199219 590.96875 646.539062 587.683594 C 645.445312 593.03125 641.796875 596.503906 635.601562 598.101562 C 635.425781 599.476562 635.769531 600.695312 636.644531 601.746094 C 632.621094 601.859375 629.847656 603.769531 628.308594 607.476562 C 627.527344 606.5625 627.007812 605.523438 626.746094 604.351562 C 624.957031 605.757812 623.046875 606.972656 621.019531 607.996094 C 622.234375 609.460938 621.886719 610.675781 619.976562 611.644531 C 621.113281 612.796875 621.113281 613.839844 619.976562 614.769531 C 617.152344 612.933594 614.027344 612.238281 610.601562 612.683594 C 610.8125 614.652344 610.117188 616.214844 608.519531 617.371094 C 609.210938 617.71875 609.90625 618.066406 610.601562 618.414062 C 607.300781 619.019531 606.953125 620.0625 609.558594 621.539062 C 606.804688 622.878906 605.761719 625.136719 606.433594 628.308594 C 604.808594 628.550781 603.417969 629.246094 602.269531 630.394531 C 602.269531 629.351562 602.269531 628.308594 602.269531 627.269531 C 605.453125 627.136719 605.800781 625.574219 603.308594 622.582031 C 604.84375 621.839844 605.539062 620.625 605.394531 618.933594 C 600.769531 617.816406 598.6875 619.550781 599.144531 624.144531 C 597.101562 624.808594 595.191406 624.808594 593.414062 624.144531 C 592.910156 625.128906 592.738281 626.171875 592.894531 627.269531 C 591.503906 627.269531 590.113281 627.269531 588.726562 627.269531 C 588.949219 629.539062 588.082031 631.273438 586.121094 632.476562 C 585.773438 631.433594 585.425781 630.394531 585.082031 629.351562 C 579.664062 633.183594 573.585938 635.613281 566.851562 636.644531 C 565.808594 638.726562 564.769531 640.808594 563.726562 642.894531 C 561.03125 643.914062 558.253906 644.261719 555.394531 643.933594 C 555.683594 645.855469 554.988281 647.246094 553.308594 648.101562 C 550.394531 646.585938 547.269531 645.546875 543.933594 644.976562 C 546.628906 643.957031 549.40625 643.609375 552.269531 643.933594 C 552.269531 642.546875 552.269531 641.15625 552.269531 639.769531 C 543.773438 641.199219 535.265625 642.585938 526.746094 643.933594 C 519.445312 643.929688 513.542969 641.152344 509.039062 635.601562 C 507.183594 637.523438 505.101562 639.261719 502.789062 640.808594 C 502.285156 641.796875 502.113281 642.839844 502.269531 643.933594 C 501.226562 643.933594 500.183594 643.933594 499.144531 643.933594 C 499.144531 642.894531 499.144531 641.851562 499.144531 640.808594 C 494.742188 639.1875 490.574219 637.101562 486.644531 634.558594 C 486.988281 633.519531 487.683594 632.824219 488.726562 632.476562 C 489.882812 633.613281 490.921875 633.613281 491.851562 632.476562 C 490.808594 631.433594 489.769531 630.394531 488.726562 629.351562 C 486.558594 631.539062 484.648438 633.972656 482.996094 636.644531 C 482.476562 636.121094 481.957031 635.601562 481.433594 635.082031 C 485.3125 633.660156 485.3125 631.921875 481.433594 629.871094 C 482.296875 628.917969 483.339844 628.226562 484.558594 627.789062 C 477.613281 628.34375 470.667969 627.820312 463.726562 626.226562 C 463.03125 626.574219 462.335938 626.921875 461.644531 627.269531 C 461.023438 626 460.847656 624.613281 461.121094 623.101562 C 460.351562 624.21875 459.308594 624.914062 457.996094 625.183594 C 448.09375 622.875 438.542969 620.792969 429.351562 618.933594 C 424.636719 620.042969 420.296875 619 416.332031 615.808594 C 416.007812 614.515625 416.527344 613.472656 417.894531 612.683594 C 415.453125 611.421875 413.199219 611.769531 411.121094 613.726562 C 410.339844 613.074219 409.472656 612.554688 408.519531 612.164062 C 410.171875 611.265625 411.90625 610.570312 413.726562 610.082031 C 411.726562 609.707031 409.988281 608.835938 408.519531 607.476562 C 406.894531 608.460938 405.15625 609.15625 403.308594 609.558594 C 401.5625 608.84375 399.824219 608.148438 398.101562 607.476562 C 397.765625 605.863281 396.726562 605.167969 394.976562 605.394531 C 394.746094 604.167969 395.09375 603.128906 396.019531 602.269531 C 398.007812 601.382812 400.089844 601.035156 402.269531 601.226562 C 402.269531 599.488281 402.269531 597.753906 402.269531 596.019531 C 399.125 596.191406 396 596.015625 392.894531 595.496094 C 391.503906 594.109375 391.503906 592.71875 392.894531 591.332031 C 391.363281 590.1875 390.496094 588.625 390.289062 586.644531 C 389.246094 587.335938 388.207031 588.03125 387.164062 588.726562 C 385.082031 586.644531 382.996094 584.558594 380.914062 582.476562 C 380.566406 582.824219 380.21875 583.171875 379.871094 583.519531 C 379.363281 582.171875 379.1875 580.78125 379.351562 579.351562 C 376.023438 579.914062 373.417969 578.871094 371.539062 576.226562 C 371.191406 576.574219 370.84375 576.921875 370.496094 577.269531 C 369.457031 575.53125 368.066406 574.144531 366.332031 573.101562 C 365.816406 572.007812 365.992188 570.964844 366.851562 569.976562 C 365.078125 570.300781 363.34375 569.777344 361.644531 568.414062 C 361.988281 568.066406 362.335938 567.71875 362.683594 567.371094 C 361.1875 567.144531 359.796875 566.621094 358.519531 565.808594 C 357.328125 564.847656 357.328125 563.976562 358.519531 563.207031 C 357.207031 562.046875 355.988281 561.871094 354.871094 562.683594 C 353.742188 561.859375 352.527344 561.164062 351.226562 560.601562 C 344.886719 563.367188 344.539062 562.324219 350.183594 557.476562 C 347.964844 555.230469 345.535156 553.492188 342.894531 552.269531 C 342.40625 550.496094 342.40625 548.933594 342.894531 547.582031 C 341.007812 545.902344 338.925781 544.6875 336.644531 543.933594 C 335.886719 539.613281 333.628906 536.488281 329.871094 534.558594 C 329.160156 533.222656 329.332031 532.007812 330.394531 530.914062 C 328.769531 529.894531 327.03125 529.023438 325.183594 528.308594 C 323.796875 527.269531 323.796875 526.226562 325.183594 525.183594 C 324.144531 524.144531 323.101562 523.101562 322.058594 522.058594 C 320.789062 522.460938 320.09375 523.332031 319.976562 524.664062 C 320.710938 526.144531 321.058594 527.535156 321.019531 528.832031 C 318.105469 528.855469 316.371094 527.292969 315.808594 524.144531 C 317.289062 521.179688 316.597656 518.746094 313.726562 516.851562 C 313.003906 517.398438 312.484375 518.09375 312.164062 518.933594 C 309.570312 515.070312 308.007812 511.597656 307.476562 508.519531 C 308.519531 508.519531 309.558594 508.519531 310.601562 508.519531 C 310.601562 507.476562 310.601562 506.433594 310.601562 505.394531 C 308.890625 505.371094 307.5 506.066406 306.433594 507.476562 C 305.3125 505.433594 303.921875 503.695312 302.269531 502.269531 C 293.832031 486.636719 287.929688 469.96875 284.558594 452.269531 C 283.570312 443.175781 282.355469 434.148438 280.914062 425.183594 C 280.566406 416.15625 280.21875 407.128906 279.871094 398.101562 C 279.699219 293.066406 279.175781 188.203125 278.308594 83.519531 C 276.644531 83.238281 275.253906 83.585938 274.144531 84.558594 C 266.75 89.828125 259.113281 94.863281 251.226562 99.664062 C 196.027344 131.777344 140.820312 163.894531 85.601562 196.019531 C 84.386719 307.996094 84.210938 420.148438 85.082031 532.476562 C 85.625 535.371094 86.839844 537.804688 88.726562 539.769531 C 105.886719 615.585938 149.289062 670.449219 218.933594 704.351562 C 209.300781 701.148438 199.753906 697.675781 190.289062 693.933594 C 189.769531 694.109375 189.246094 694.28125 188.726562 694.457031 C 191.492188 696.613281 191.144531 698.351562 187.683594 699.664062 C 188.855469 699.921875 189.898438 700.445312 190.808594 701.226562 C 188.359375 701.726562 185.929688 702.074219 183.519531 702.269531 C 178.582031 699.933594 174.070312 696.980469 169.976562 693.414062 C 171.238281 692.484375 171.238281 691.617188 169.976562 690.808594 C 169.148438 691.257812 168.28125 691.605469 167.371094 691.851562 C 165.5625 690.683594 163.652344 689.644531 161.644531 688.726562 C 160.339844 692.246094 161.382812 695.023438 164.769531 697.058594 C 166.742188 698.066406 168.824219 698.414062 171.019531 698.101562 C 170.671875 702.613281 172.753906 704.699219 177.269531 704.351562 C 177.269531 705.738281 177.269531 707.128906 177.269531 708.519531 C 179.460938 708.207031 181.542969 708.554688 183.519531 709.558594 C 182.605469 710.339844 181.5625 710.863281 180.394531 711.121094 C 181.265625 712.175781 181.613281 713.390625 181.433594 714.769531 C 185.429688 716.144531 189.59375 717.1875 193.933594 717.894531 C 190.589844 719.234375 187.292969 719.234375 184.039062 717.894531 C 182.925781 718.613281 181.710938 719.132812 180.394531 719.457031 C 182.757812 720.433594 184.84375 721.824219 186.644531 723.621094 C 188.34375 724.136719 190.082031 724.308594 191.851562 724.144531 C 191.851562 725.183594 191.851562 726.226562 191.851562 727.269531 C 194.378906 727.292969 196.808594 727.8125 199.144531 728.832031 C 199.488281 729.871094 199.835938 730.914062 200.183594 731.957031 C 203.707031 732.136719 207.179688 732.660156 210.601562 733.519531 C 210.382812 734.128906 210.035156 734.648438 209.558594 735.082031 C 211.386719 735.289062 213.125 735.8125 214.769531 736.644531 C 212.863281 737.992188 210.78125 739.035156 208.519531 739.769531 C 213.007812 744.535156 211.273438 746.097656 203.308594 744.457031 C 203.65625 744.109375 204.003906 743.761719 204.351562 743.414062 C 202.042969 742.695312 199.785156 741.824219 197.582031 740.808594 C 196.710938 741.15625 195.84375 741.503906 194.976562 741.851562 C 197.398438 742.523438 199.136719 743.910156 200.183594 746.019531 C 154.015625 726.078125 116.339844 695.519531 87.164062 654.351562 C 66.417969 623.921875 52.007812 590.589844 43.933594 554.351562 C 44.148438 551.230469 43.457031 548.453125 41.851562 546.019531 C 40.886719 540.148438 40.191406 534.246094 39.769531 528.308594 C 38.625 408.519531 38.453125 288.730469 39.246094 168.933594 C 39.984375 168.015625 40.851562 167.324219 41.851562 166.851562 C 40.640625 286.601562 40.464844 406.394531 41.332031 526.226562 C 41.871094 534.730469 43.261719 543.066406 45.496094 551.226562 C 45.882812 546.785156 46.75 542.445312 48.101562 538.207031 C 47.964844 537.101562 47.445312 536.234375 46.539062 535.601562 C 46.371094 526.519531 45.675781 517.492188 44.457031 508.519531 C 43.601562 515.410156 43.082031 515.410156 42.894531 508.519531 C 42.671875 505.902344 43.367188 503.644531 44.976562 501.746094 C 42.871094 499.363281 42.871094 496.757812 44.976562 493.933594 C 47.019531 502.148438 48.40625 510.480469 49.144531 518.933594 C 50.503906 520.40625 51.371094 522.140625 51.746094 524.144531 C 53.421875 523.46875 54.984375 522.601562 56.433594 521.539062 C 51.640625 518.683594 51.640625 515.386719 56.433594 511.644531 C 55.515625 510.550781 54.820312 509.335938 54.351562 507.996094 C 55.734375 506.269531 56.777344 504.359375 57.476562 502.269531 C 56.53125 498.09375 55.492188 493.925781 54.351562 489.769531 C 55.472656 475.859375 55.125 461.96875 53.308594 448.101562 C 55.390625 431.464844 55.738281 414.796875 54.351562 398.101562 C 56.632812 368.964844 56.980469 339.796875 55.394531 310.601562 C 56 285.917969 57.042969 261.261719 58.519531 236.644531 C 58.363281 230.863281 58.015625 225.136719 57.476562 219.457031 C 58.171875 219.109375 58.863281 218.761719 59.558594 218.414062 C 58.667969 217.695312 57.972656 216.828125 57.476562 215.808594 C 58.722656 214.28125 58.722656 212.71875 57.476562 211.121094 C 59.136719 204.136719 60.179688 197.019531 60.601562 189.769531 C 59.171875 186.816406 58.128906 183.691406 57.476562 180.394531 C 58.46875 178.355469 59.859375 176.621094 61.644531 175.183594 C 62.363281 175.730469 62.882812 176.425781 63.207031 177.269531 C 64.507812 175.703125 65.550781 173.96875 66.332031 172.058594 C 66.675781 172.40625 67.023438 172.753906 67.371094 173.101562 C 69.300781 170.382812 69.128906 167.953125 66.851562 165.808594 C 69.238281 165.417969 71.496094 165.417969 73.621094 165.808594 C 75.273438 164.898438 76.316406 163.507812 76.746094 161.644531 C 77.863281 162.457031 79.082031 162.28125 80.394531 161.121094 C 80.046875 160.773438 79.699219 160.425781 79.351562 160.082031 C 82.332031 158.660156 84.417969 156.402344 85.601562 153.308594 C 91.140625 151.910156 91.140625 150.519531 85.601562 149.144531 C 81.535156 151.648438 77.367188 151.648438 73.101562 149.144531 C 70.433594 150.949219 67.660156 152.511719 64.769531 153.832031 C 66.082031 155.71875 66.082031 157.628906 64.769531 159.558594 C 62.398438 160.300781 59.964844 160.824219 57.476562 161.121094 C 56.605469 162.175781 56.257812 163.390625 56.433594 164.769531 C 55.046875 164.769531 53.65625 164.769531 52.269531 164.769531 C 52.558594 166.691406 51.863281 168.082031 50.183594 168.933594 C 48.601562 168.539062 46.863281 168.367188 44.976562 168.414062 C 47.503906 166.792969 47.503906 165.578125 44.976562 164.769531 C 44.976562 164.421875 44.976562 164.074219 44.976562 163.726562 C 120.984375 118.425781 197.027344 73.113281 273.101562 27.789062 C 275.183594 27.09375 277.269531 27.09375 279.351562 27.789062 C 292.078125 35.835938 304.925781 43.648438 317.894531 51.226562 Z M 317.894531 51.226562 " fill-opacity="1" fill-rule="evenodd"/><path fill="#3122fc" d="M 735.601562 31.433594 C 744.285156 35.773438 752.617188 40.632812 760.601562 46.019531 C 763.515625 48.746094 766.640625 51.351562 769.976562 53.832031 C 768.714844 54.761719 768.714844 55.628906 769.976562 56.433594 C 775.402344 54.980469 778.183594 57.066406 778.308594 62.683594 C 774.007812 60.652344 769.496094 59.785156 764.769531 60.082031 C 766.367188 61.238281 767.0625 62.800781 766.851562 64.769531 C 768.238281 64.769531 769.628906 64.769531 771.019531 64.769531 C 768.703125 71.378906 769.398438 77.804688 773.101562 84.039062 C 771.46875 87.089844 770.601562 90.390625 770.496094 93.933594 C 770.148438 92.546875 769.800781 91.15625 769.457031 89.769531 C 768.714844 92.265625 768.886719 94.695312 769.976562 97.058594 C 769.480469 100.535156 768.4375 103.832031 766.851562 106.957031 C 768.652344 132.738281 768.652344 142.285156 766.851562 135.601562 C 765.808594 135.601562 764.769531 135.601562 763.726562 135.601562 C 763.269531 149.308594 762.921875 163.027344 762.683594 176.746094 C 764.460938 198.898438 765.15625 221.121094 764.769531 243.414062 C 763.980469 268.578125 763.460938 293.753906 763.207031 318.933594 C 760.21875 333.726562 759.175781 348.660156 760.082031 363.726562 C 760.425781 355.394531 760.773438 347.058594 761.121094 338.726562 C 761.785156 339.882812 762.308594 341.097656 762.683594 342.371094 C 761.414062 353.988281 761.414062 365.621094 762.683594 377.269531 C 760.601562 377.269531 758.519531 377.269531 756.433594 377.269531 C 756.433594 355.046875 756.433594 332.824219 756.433594 310.601562 C 757.476562 310.601562 758.519531 310.601562 759.558594 310.601562 C 759.386719 316.167969 759.558594 321.722656 760.082031 327.269531 C 760.949219 306.433594 761.816406 285.601562 762.683594 264.769531 C 761.816406 255.042969 760.949219 245.320312 760.082031 235.601562 C 759.734375 240.808594 759.386719 246.019531 759.039062 251.226562 C 758.933594 241.597656 758.066406 232.050781 756.433594 222.582031 C 756.660156 186.878906 756.660156 151.289062 756.433594 115.808594 C 758.320312 107.507812 760.578125 107.507812 763.207031 115.808594 C 765.027344 112.148438 765.199219 108.328125 763.726562 104.351562 C 762.335938 103.65625 760.949219 102.960938 759.558594 102.269531 C 758.171875 102.960938 756.78125 103.65625 755.394531 104.351562 C 754.308594 101.757812 753.441406 101.757812 752.789062 104.351562 C 752.441406 104.003906 752.09375 103.65625 751.746094 103.308594 C 752.652344 108.402344 753.175781 113.613281 753.308594 118.933594 C 753.292969 129.949219 752.597656 129.949219 751.226562 118.933594 C 750.359375 129.332031 749.839844 139.75 749.664062 150.183594 C 749.316406 135.949219 748.96875 121.710938 748.621094 107.476562 C 748.101562 106.433594 747.582031 105.394531 747.058594 104.351562 C 747.808594 101.421875 748.503906 98.46875 749.144531 95.496094 C 747.640625 91.292969 746.773438 86.953125 746.539062 82.476562 C 744.890625 79.296875 742.460938 78.601562 739.246094 80.394531 C 738.117188 79.566406 736.902344 78.871094 735.601562 78.308594 C 735.117188 79.492188 734.769531 80.535156 734.558594 81.433594 C 733.863281 81.433594 733.171875 81.433594 732.476562 81.433594 C 687.859375 104.957031 643.066406 128.222656 598.101562 151.226562 C 594.574219 151.765625 591.101562 152.632812 587.683594 153.832031 C 586.148438 154.570312 585.457031 155.785156 585.601562 157.476562 C 582.488281 158.265625 579.363281 159.132812 576.226562 160.082031 C 574.554688 163.523438 571.773438 165.085938 567.894531 164.769531 C 567.894531 165.808594 567.894531 166.851562 567.894531 167.894531 C 564.339844 167.773438 562.949219 169.507812 563.726562 173.101562 C 563.039062 174.371094 562.34375 175.757812 561.644531 177.269531 C 559.929688 174.742188 558.714844 171.964844 557.996094 168.933594 C 557.648438 171.363281 557.300781 173.796875 556.957031 176.226562 C 553.578125 170.6875 552.015625 171.382812 552.269531 178.308594 C 552.308594 180.320312 552.65625 182.226562 553.308594 184.039062 C 551.730469 186.734375 551.039062 189.683594 551.226562 192.894531 C 552.230469 201.910156 552.40625 210.933594 551.746094 219.976562 C 548.230469 222.328125 548.402344 224.414062 552.269531 226.226562 C 551.105469 227.734375 550.410156 229.472656 550.183594 231.433594 C 551.21875 235.539062 551.914062 239.707031 552.269531 243.933594 C 550.996094 253.617188 549.957031 263.339844 549.144531 273.101562 C 549.726562 293.882812 549.726562 314.714844 549.144531 335.601562 C 548.722656 323.835938 547.683594 312.207031 546.019531 300.707031 C 546.949219 299.25 547.644531 297.6875 548.101562 296.019531 C 547.570312 288.3125 546.53125 280.671875 544.976562 273.101562 C 545.851562 269.839844 546.546875 266.542969 547.058594 263.207031 C 545.324219 250.371094 544.976562 237.523438 546.019531 224.664062 C 543.253906 213.746094 543.253906 202.808594 546.019531 191.851562 C 545.46875 188.964844 544.601562 186.1875 543.414062 183.519531 C 542.894531 184.039062 542.371094 184.558594 541.851562 185.082031 C 542.285156 193.449219 542.285156 201.957031 541.851562 210.601562 C 542.546875 218.941406 543.242188 227.273438 543.933594 235.601562 C 542.546875 235.601562 541.15625 235.601562 539.769531 235.601562 C 539.453125 247.273438 539.800781 258.90625 540.808594 270.496094 C 540.3125 272.816406 539.617188 275.070312 538.726562 277.269531 C 536.339844 273.277344 535.992188 269.109375 537.683594 264.769531 C 537.308594 262.570312 536.613281 260.488281 535.601562 258.519531 C 537.175781 254.171875 537.871094 249.660156 537.683594 244.976562 C 537.042969 225.613281 536.695312 206.34375 536.644531 187.164062 C 538.199219 181.253906 538.722656 175.179688 538.207031 168.933594 C 539.132812 170.378906 539.652344 170.207031 539.769531 168.414062 C 538.269531 164.082031 537.226562 159.566406 536.644531 154.871094 C 537.464844 153.179688 538.507812 151.617188 539.769531 150.183594 C 542.476562 148.1875 545.082031 146.796875 547.582031 146.019531 C 548.09375 144.925781 547.917969 143.882812 547.058594 142.894531 C 548.824219 142.132812 550.386719 141.09375 551.746094 139.769531 C 552.042969 142.253906 553.085938 142.945312 554.871094 141.851562 C 554.363281 140.242188 553.84375 138.507812 553.308594 136.644531 C 555.890625 137.109375 557.972656 136.417969 559.558594 134.558594 C 559.15625 133.289062 558.289062 132.59375 556.957031 132.476562 C 553.261719 134.039062 552.742188 133.519531 555.394531 130.914062 C 558.121094 129.933594 560.902344 129.066406 563.726562 128.308594 C 561.570312 126.773438 560.527344 124.6875 560.601562 122.058594 C 557.277344 122.675781 554.152344 123.890625 551.226562 125.707031 C 550.308594 127.117188 549.960938 128.679688 550.183594 130.394531 C 542.613281 130.523438 535.671875 132.777344 529.351562 137.164062 C 528.003906 137.675781 526.613281 137.847656 525.183594 137.683594 C 588.019531 104.183594 651.214844 71.195312 714.769531 38.726562 C 717.613281 38.175781 720.390625 37.308594 723.101562 36.121094 C 726.4375 32.40625 730.601562 30.84375 735.601562 31.433594 Z M 735.601562 31.433594 " fill-opacity="1" fill-rule="evenodd"/><path fill="#fefeff" d="M 732.476562 81.433594 C 732.648438 196.710938 732.476562 311.992188 731.957031 427.269531 C 728.214844 449.078125 721.445312 469.910156 711.644531 489.769531 C 707.082031 496.433594 702.742188 503.378906 698.621094 510.601562 C 693.761719 516.15625 688.898438 521.710938 684.039062 527.269531 C 676.375 533.375 668.910156 539.625 661.644531 546.019531 C 647.878906 555.15625 633.640625 563.492188 618.933594 571.019531 C 604.355469 576.800781 589.769531 582.355469 575.183594 587.683594 C 574.835938 587.683594 574.488281 587.683594 574.144531 587.683594 C 567.980469 588.289062 562.082031 589.679688 556.433594 591.851562 C 561.339844 575.175781 564.640625 558.164062 566.332031 540.808594 C 566.851562 505.742188 567.023438 470.671875 566.851562 435.601562 C 566.167969 347.0625 565.820312 258.519531 565.808594 169.976562 C 566.503906 169.28125 567.199219 168.585938 567.894531 167.894531 C 578.472656 163.125 588.542969 157.570312 598.101562 151.226562 C 643.066406 128.222656 687.859375 104.957031 732.476562 81.433594 Z M 732.476562 81.433594 " fill-opacity="0.004" fill-rule="evenodd"/><path fill="#fefeff" d="M 274.144531 84.558594 C 275.183594 84.558594 276.226562 84.558594 277.269531 84.558594 C 277.269531 86.988281 277.269531 89.421875 277.269531 91.851562 C 276.054688 195.84375 275.878906 300.007812 276.746094 404.351562 C 276.945312 406.652344 277.464844 408.734375 278.308594 410.601562 C 278.953125 424.839844 281.039062 438.730469 284.558594 452.269531 C 287.929688 469.96875 293.832031 486.636719 302.269531 502.269531 C 305.332031 509.785156 308.976562 517.074219 313.207031 524.144531 C 331.644531 553.136719 354.734375 577.964844 382.476562 598.621094 C 387.402344 602.125 392.613281 605.078125 398.101562 607.476562 C 401.492188 610.570312 405.308594 613.175781 409.558594 615.289062 C 430.894531 626.789062 453.460938 634.949219 477.269531 639.769531 C 478.394531 640.667969 478.570312 641.710938 477.789062 642.894531 C 472.601562 647.910156 467.566406 653.117188 462.683594 658.519531 C 458.863281 661.644531 455.394531 665.113281 452.269531 668.933594 C 437.414062 680.191406 421.789062 690.433594 405.394531 699.664062 C 390.667969 705.691406 375.738281 711.246094 360.601562 716.332031 C 352.6875 717.222656 345.046875 718.785156 337.683594 721.019531 C 317.515625 722.507812 297.378906 722.160156 277.269531 719.976562 C 257.21875 717.394531 237.773438 712.183594 218.933594 704.351562 C 149.289062 670.449219 105.886719 615.585938 88.726562 539.769531 C 87.398438 532.191406 86.53125 524.554688 86.121094 516.851562 C 85.601562 409.90625 85.425781 302.960938 85.601562 196.019531 C 140.820312 163.894531 196.027344 131.777344 251.226562 99.664062 C 259.113281 94.863281 266.75 89.828125 274.144531 84.558594 Z M 274.144531 84.558594 " fill-opacity="0.004" fill-rule="evenodd"/><path fill="#7065f8" d="M 274.144531 84.558594 C 275.253906 83.585938 276.644531 83.238281 278.308594 83.519531 C 278.308594 189.769531 278.308594 296.019531 278.308594 402.269531 C 277.269531 298.972656 276.921875 195.496094 277.269531 91.851562 C 277.269531 89.421875 277.269531 86.988281 277.269531 84.558594 C 276.226562 84.558594 275.183594 84.558594 274.144531 84.558594 Z M 274.144531 84.558594 " fill-opacity="0.146" fill-rule="evenodd"/><path fill="#372ade" d="M 598.101562 151.226562 C 588.542969 157.570312 578.472656 163.125 567.894531 167.894531 C 567.894531 166.851562 567.894531 165.808594 567.894531 164.769531 C 571.773438 165.085938 574.554688 163.523438 576.226562 160.082031 C 579.363281 159.132812 582.488281 158.265625 585.601562 157.476562 C 585.457031 155.785156 586.148438 154.570312 587.683594 153.832031 C 591.101562 152.632812 594.574219 151.765625 598.101562 151.226562 Z M 598.101562 151.226562 " fill-opacity="0.949" fill-rule="evenodd"/><path fill="#381cfe" d="M 41.851562 166.851562 C 43.113281 166.402344 44.152344 165.707031 44.976562 164.769531 C 47.503906 165.578125 47.503906 166.792969 44.976562 168.414062 C 46.863281 168.367188 48.601562 168.539062 50.183594 168.933594 C 51.863281 168.082031 52.558594 166.691406 52.269531 164.769531 C 53.65625 164.769531 55.046875 164.769531 56.433594 164.769531 C 56.257812 163.390625 56.605469 162.175781 57.476562 161.121094 C 59.964844 160.824219 62.398438 160.300781 64.769531 159.558594 C 66.082031 157.628906 66.082031 155.71875 64.769531 153.832031 C 67.660156 152.511719 70.433594 150.949219 73.101562 149.144531 C 77.367188 151.648438 81.535156 151.648438 85.601562 149.144531 C 91.140625 150.519531 91.140625 151.910156 85.601562 153.308594 C 84.417969 156.402344 82.332031 158.660156 79.351562 160.082031 C 79.699219 160.425781 80.046875 160.773438 80.394531 161.121094 C 79.082031 162.28125 77.863281 162.457031 76.746094 161.644531 C 76.316406 163.507812 75.273438 164.898438 73.621094 165.808594 C 71.496094 165.417969 69.238281 165.417969 66.851562 165.808594 C 69.128906 167.953125 69.300781 170.382812 67.371094 173.101562 C 67.023438 172.753906 66.675781 172.40625 66.332031 172.058594 C 65.550781 173.96875 64.507812 175.703125 63.207031 177.269531 C 62.882812 176.425781 62.363281 175.730469 61.644531 175.183594 C 59.859375 176.621094 58.46875 178.355469 57.476562 180.394531 C 58.128906 183.691406 59.171875 186.816406 60.601562 189.769531 C 60.179688 197.019531 59.136719 204.136719 57.476562 211.121094 C 58.722656 212.71875 58.722656 214.28125 57.476562 215.808594 C 57.972656 216.828125 58.667969 217.695312 59.558594 218.414062 C 58.863281 218.761719 58.171875 219.109375 57.476562 219.457031 C 58.015625 225.136719 58.363281 230.863281 58.519531 236.644531 C 57.042969 261.261719 56 285.917969 55.394531 310.601562 C 56.980469 339.796875 56.632812 368.964844 54.351562 398.101562 C 55.738281 414.796875 55.390625 431.464844 53.308594 448.101562 C 55.125 461.96875 55.472656 475.859375 54.351562 489.769531 C 55.492188 493.925781 56.53125 498.09375 57.476562 502.269531 C 56.777344 504.359375 55.734375 506.269531 54.351562 507.996094 C 54.820312 509.335938 55.515625 510.550781 56.433594 511.644531 C 51.640625 515.386719 51.640625 518.683594 56.433594 521.539062 C 54.984375 522.601562 53.421875 523.46875 51.746094 524.144531 C 51.371094 522.140625 50.503906 520.40625 49.144531 518.933594 C 48.40625 510.480469 47.019531 502.148438 44.976562 493.933594 C 42.871094 496.757812 42.871094 499.363281 44.976562 501.746094 C 43.367188 503.644531 42.671875 505.902344 42.894531 508.519531 C 43.082031 515.410156 43.601562 515.410156 44.457031 508.519531 C 45.675781 517.492188 46.371094 526.519531 46.539062 535.601562 C 47.445312 536.234375 47.964844 537.101562 48.101562 538.207031 C 46.75 542.445312 45.882812 546.785156 45.496094 551.226562 C 43.261719 543.066406 41.871094 534.730469 41.332031 526.226562 C 40.464844 406.394531 40.640625 286.601562 41.851562 166.851562 Z M 41.851562 166.851562 " fill-opacity="1" fill-rule="evenodd"/><path fill="#301ffe" d="M 563.726562 173.101562 C 563.726562 235.601562 563.726562 298.101562 563.726562 360.601562 C 563.898438 368.941406 563.726562 377.273438 563.207031 385.601562 C 562.859375 380.046875 562.511719 374.488281 562.164062 368.933594 C 561.816406 369.28125 561.46875 369.628906 561.121094 369.976562 C 560.773438 425.53125 560.425781 481.085938 560.082031 536.644531 C 559.734375 536.296875 559.386719 535.949219 559.039062 535.601562 C 558.570312 538.132812 557.699219 538.304688 556.433594 536.121094 C 557.074219 534.664062 557.421875 533.101562 557.476562 531.433594 C 556.65625 510.617188 556.136719 489.78125 555.914062 468.933594 C 555.21875 471.710938 554.523438 474.488281 553.832031 477.269531 C 552.78125 465.796875 551.914062 454.339844 551.226562 442.894531 C 551.492188 423.210938 551.492188 403.246094 551.226562 382.996094 C 551.414062 380.597656 550.722656 380.074219 549.144531 381.433594 C 548.277344 388.363281 547.582031 395.304688 547.058594 402.269531 C 548.878906 408.613281 547.835938 414.339844 543.933594 419.457031 C 545.878906 420.390625 546.921875 421.953125 547.058594 424.144531 C 544.96875 427.640625 543.925781 431.460938 543.933594 435.601562 C 544.976562 435.601562 546.019531 435.601562 547.058594 435.601562 C 546.421875 446.699219 545.902344 457.8125 545.496094 468.933594 C 544.800781 469.628906 544.109375 470.324219 543.414062 471.019531 C 541.386719 467.957031 541.558594 464.660156 543.933594 461.121094 C 542.164062 453.382812 541.121094 445.398438 540.808594 437.164062 C 541.898438 435.414062 542.59375 433.503906 542.894531 431.433594 C 541.339844 423.863281 540.296875 416.222656 539.769531 408.519531 C 539.070312 405.882812 538.203125 405.882812 537.164062 408.519531 C 536.816406 401.574219 536.46875 394.628906 536.121094 387.683594 C 534.824219 395.265625 534.300781 402.90625 534.558594 410.601562 C 533.519531 410.601562 532.476562 410.601562 531.433594 410.601562 C 531.433594 413.378906 531.433594 416.15625 531.433594 418.933594 C 532.476562 418.933594 533.519531 418.933594 534.558594 418.933594 C 535.304688 433.015625 534.089844 446.902344 530.914062 460.601562 C 530.566406 457.476562 530.21875 454.351562 529.871094 451.226562 C 529.660156 464.449219 529.136719 477.640625 528.308594 490.808594 C 528.015625 494.910156 528.363281 499.078125 529.351562 503.308594 C 528.738281 508.507812 528.214844 513.714844 527.789062 518.933594 C 527.09375 523.101562 526.398438 523.101562 525.707031 518.933594 C 525.488281 524.355469 525.664062 529.566406 526.226562 534.558594 C 525.183594 534.558594 524.144531 534.558594 523.101562 534.558594 C 523.265625 533.128906 523.089844 531.738281 522.582031 530.394531 C 522.296875 532.058594 521.773438 533.621094 521.019531 535.082031 C 522.277344 538.882812 521.753906 542.527344 519.457031 546.019531 C 519.109375 545.671875 518.761719 545.324219 518.414062 544.976562 C 516.371094 548.691406 516.546875 552.335938 518.933594 555.914062 C 518.511719 556.898438 517.816406 557.59375 516.851562 557.996094 C 517.910156 559.089844 518.085938 560.304688 517.371094 561.644531 C 516.675781 563.03125 515.984375 563.03125 515.289062 561.644531 C 514.898438 562.597656 514.378906 563.464844 513.726562 564.246094 C 514.828125 571.222656 513.265625 577.648438 509.039062 583.519531 C 507.09375 581.414062 505.878906 578.984375 505.394531 576.226562 C 506.191406 572.335938 507.40625 572.335938 509.039062 576.226562 C 509.945312 575.59375 510.464844 574.726562 510.601562 573.621094 C 509.097656 571.457031 509.792969 570.589844 512.683594 571.019531 C 511.46875 561.980469 511.46875 552.953125 512.683594 543.933594 C 512.683594 543.585938 512.683594 543.238281 512.683594 542.894531 C 513.363281 542.574219 514.054688 542.230469 514.769531 541.851562 C 515.589844 532.699219 517.152344 523.671875 519.457031 514.769531 C 518.902344 390.8125 518.902344 266.855469 519.457031 142.894531 C 521.929688 141.714844 523.839844 139.976562 525.183594 137.683594 C 526.613281 137.847656 528.003906 137.675781 529.351562 137.164062 C 535.671875 132.777344 542.613281 130.523438 550.183594 130.394531 C 549.960938 128.679688 550.308594 127.117188 551.226562 125.707031 C 554.152344 123.890625 557.277344 122.675781 560.601562 122.058594 C 560.527344 124.6875 561.570312 126.773438 563.726562 128.308594 C 560.902344 129.066406 558.121094 129.933594 555.394531 130.914062 C 552.742188 133.519531 553.261719 134.039062 556.957031 132.476562 C 558.289062 132.59375 559.15625 133.289062 559.558594 134.558594 C 557.972656 136.417969 555.890625 137.109375 553.308594 136.644531 C 553.84375 138.507812 554.363281 140.242188 554.871094 141.851562 C 553.085938 142.945312 552.042969 142.253906 551.746094 139.769531 C 550.386719 141.09375 548.824219 142.132812 547.058594 142.894531 C 547.917969 143.882812 548.09375 144.925781 547.582031 146.019531 C 545.082031 146.796875 542.476562 148.1875 539.769531 150.183594 C 538.507812 151.617188 537.464844 153.179688 536.644531 154.871094 C 537.226562 159.566406 538.269531 164.082031 539.769531 168.414062 C 539.652344 170.207031 539.132812 170.378906 538.207031 168.933594 C 538.722656 175.179688 538.199219 181.253906 536.644531 187.164062 C 536.695312 206.34375 537.042969 225.613281 537.683594 244.976562 C 537.871094 249.660156 537.175781 254.171875 535.601562 258.519531 C 536.613281 260.488281 537.308594 262.570312 537.683594 264.769531 C 535.992188 269.109375 536.339844 273.277344 538.726562 277.269531 C 539.617188 275.070312 540.3125 272.816406 540.808594 270.496094 C 539.800781 258.90625 539.453125 247.273438 539.769531 235.601562 C 541.15625 235.601562 542.546875 235.601562 543.933594 235.601562 C 543.242188 227.273438 542.546875 218.941406 541.851562 210.601562 C 542.285156 201.957031 542.285156 193.449219 541.851562 185.082031 C 542.371094 184.558594 542.894531 184.039062 543.414062 183.519531 C 544.601562 186.1875 545.46875 188.964844 546.019531 191.851562 C 543.253906 202.808594 543.253906 213.746094 546.019531 224.664062 C 544.976562 237.523438 545.324219 250.371094 547.058594 263.207031 C 546.546875 266.542969 545.851562 269.839844 544.976562 273.101562 C 546.53125 280.671875 547.570312 288.3125 548.101562 296.019531 C 547.644531 297.6875 546.949219 299.25 546.019531 300.707031 C 547.683594 312.207031 548.722656 323.835938 549.144531 335.601562 C 549.726562 314.714844 549.726562 293.882812 549.144531 273.101562 C 549.957031 263.339844 550.996094 253.617188 552.269531 243.933594 C 551.914062 239.707031 551.21875 235.539062 550.183594 231.433594 C 550.410156 229.472656 551.105469 227.734375 552.269531 226.226562 C 548.402344 224.414062 548.230469 222.328125 551.746094 219.976562 C 552.40625 210.933594 552.230469 201.910156 551.226562 192.894531 C 551.039062 189.683594 551.730469 186.734375 553.308594 184.039062 C 552.65625 182.226562 552.308594 180.320312 552.269531 178.308594 C 552.015625 171.382812 553.578125 170.6875 556.957031 176.226562 C 557.300781 173.796875 557.648438 171.363281 557.996094 168.933594 C 558.714844 171.964844 559.929688 174.742188 561.644531 177.269531 C 562.34375 175.757812 563.039062 174.371094 563.726562 173.101562 Z M 563.726562 173.101562 " fill-opacity="1" fill-rule="evenodd"/><path fill="#575ef1" d="M 519.976562 139.769531 C 519.679688 140.589844 519.160156 141.285156 518.414062 141.851562 C 518.238281 265.984375 517.71875 389.941406 516.851562 513.726562 C 516.675781 389.417969 516.851562 265.113281 517.371094 140.808594 C 518.070312 140.027344 518.9375 139.679688 519.976562 139.769531 Z M 519.976562 139.769531 " fill-opacity="0.247" fill-rule="evenodd"/><path fill="#574ce3" d="M 317.894531 51.226562 C 320.574219 52.339844 322.832031 54.074219 324.664062 56.433594 C 325.183594 175.53125 325.359375 294.628906 325.183594 413.726562 C 324.347656 412.214844 323.828125 410.476562 323.621094 408.519531 C 323.273438 291.15625 322.925781 173.796875 322.582031 56.433594 C 319.796875 55.746094 318.234375 54.007812 317.894531 51.226562 Z M 317.894531 51.226562 " fill-opacity="1" fill-rule="evenodd"/><path fill="#4a40e5" d="M 732.476562 81.433594 C 733.171875 81.433594 733.863281 81.433594 734.558594 81.433594 C 734.734375 197.40625 734.558594 313.378906 734.039062 429.351562 C 732.78125 435.449219 731.914062 441.699219 731.433594 448.101562 C 732.128906 449.488281 732.824219 450.878906 733.519531 452.269531 C 732.058594 454.792969 730.84375 454.445312 729.871094 451.226562 C 725.582031 460.460938 721.9375 470.011719 718.933594 479.871094 C 722.933594 479.433594 723.105469 480.648438 719.457031 483.519531 C 718.414062 483.519531 717.371094 483.519531 716.332031 483.519531 C 715.847656 484.136719 715.671875 484.832031 715.808594 485.601562 C 714.878906 487.472656 713.492188 488.863281 711.644531 489.769531 C 721.445312 469.910156 728.214844 449.078125 731.957031 427.269531 C 732.476562 311.992188 732.648438 196.710938 732.476562 81.433594 Z M 732.476562 81.433594 " fill-opacity="1" fill-rule="evenodd"/><path fill="#d4d3ff" d="M 277.269531 91.851562 C 276.921875 195.496094 277.269531 298.972656 278.308594 402.269531 C 278.308594 405.046875 278.308594 407.824219 278.308594 410.601562 C 277.464844 408.734375 276.945312 406.652344 276.746094 404.351562 C 275.878906 300.007812 276.054688 195.84375 277.269531 91.851562 Z M 277.269531 91.851562 " fill-opacity="0.255" fill-rule="evenodd"/><path fill="#2415e2" d="M 278.308594 83.519531 C 279.175781 188.203125 279.699219 293.066406 279.871094 398.101562 C 280.21875 407.128906 280.566406 416.15625 280.914062 425.183594 C 282.355469 434.148438 283.570312 443.175781 284.558594 452.269531 C 281.039062 438.730469 278.953125 424.839844 278.308594 410.601562 C 278.308594 407.824219 278.308594 405.046875 278.308594 402.269531 C 278.308594 296.019531 278.308594 189.769531 278.308594 83.519531 Z M 278.308594 83.519531 " fill-opacity="1" fill-rule="evenodd"/><path fill="#3220fe" d="M 778.308594 62.683594 C 778.484375 179.351562 778.308594 296.019531 777.789062 412.683594 C 776.667969 424.589844 775.453125 435.703125 774.144531 446.019531 C 771.367188 456.042969 768.585938 466.113281 765.808594 476.226562 C 765.039062 476.363281 764.34375 476.1875 763.726562 475.707031 C 764.847656 473.90625 765.019531 471.996094 764.246094 469.976562 C 763.207031 472.753906 762.164062 472.753906 761.121094 469.976562 C 759.574219 470.761719 759.398438 471.628906 760.601562 472.582031 C 759.648438 472.96875 758.777344 473.492188 757.996094 474.144531 C 758.183594 468.242188 756.96875 467.898438 754.351562 473.101562 C 752.878906 471.929688 751.316406 470.886719 749.664062 469.976562 C 745.820312 471.746094 744.605469 474.523438 746.019531 478.308594 C 743.734375 480.089844 743.386719 482.171875 744.976562 484.558594 C 744.539062 485.78125 743.847656 486.820312 742.894531 487.683594 C 741.210938 487.003906 739.472656 486.480469 737.683594 486.121094 C 738.378906 485.773438 739.074219 485.425781 739.769531 485.082031 C 738.039062 484.324219 737.519531 483.109375 738.207031 481.433594 C 738.550781 481.78125 738.898438 482.128906 739.246094 482.476562 C 739.886719 479.996094 740.234375 477.566406 740.289062 475.183594 C 738.464844 474.480469 736.730469 474.136719 735.082031 474.144531 C 734.585938 477.738281 735.109375 481.210938 736.644531 484.558594 C 733.546875 486.613281 730.769531 489.042969 728.308594 491.851562 C 727.3125 490.429688 726.621094 488.867188 726.226562 487.164062 C 727.609375 485.433594 728.652344 483.523438 729.351562 481.433594 C 728.828125 480.371094 728.132812 480.195312 727.269531 480.914062 C 724.96875 484.078125 722.886719 487.378906 721.019531 490.808594 C 716.304688 488.558594 715.609375 489.949219 718.933594 494.976562 C 717.292969 496.152344 715.558594 496.328125 713.726562 495.496094 C 714.882812 492.320312 715.578125 489.023438 715.808594 485.601562 C 715.671875 484.832031 715.847656 484.136719 716.332031 483.519531 C 717.371094 483.519531 718.414062 483.519531 719.457031 483.519531 C 723.105469 480.648438 722.933594 479.433594 718.933594 479.871094 C 721.9375 470.011719 725.582031 460.460938 729.871094 451.226562 C 730.84375 454.445312 732.058594 454.792969 733.519531 452.269531 C 732.824219 450.878906 732.128906 449.488281 731.433594 448.101562 C 731.914062 441.699219 732.78125 435.449219 734.039062 429.351562 C 734.558594 313.378906 734.734375 197.40625 734.558594 81.433594 C 734.769531 80.535156 735.117188 79.492188 735.601562 78.308594 C 736.902344 78.871094 738.117188 79.566406 739.246094 80.394531 C 742.460938 78.601562 744.890625 79.296875 746.539062 82.476562 C 746.773438 86.953125 747.640625 91.292969 749.144531 95.496094 C 748.503906 98.46875 747.808594 101.421875 747.058594 104.351562 C 747.582031 105.394531 748.101562 106.433594 748.621094 107.476562 C 748.96875 121.710938 749.316406 135.949219 749.664062 150.183594 C 749.839844 139.75 750.359375 129.332031 751.226562 118.933594 C 752.597656 129.949219 753.292969 129.949219 753.308594 118.933594 C 753.175781 113.613281 752.652344 108.402344 751.746094 103.308594 C 752.09375 103.65625 752.441406 104.003906 752.789062 104.351562 C 753.441406 101.757812 754.308594 101.757812 755.394531 104.351562 C 756.78125 103.65625 758.171875 102.960938 759.558594 102.269531 C 760.949219 102.960938 762.335938 103.65625 763.726562 104.351562 C 765.199219 108.328125 765.027344 112.148438 763.207031 115.808594 C 760.578125 107.507812 758.320312 107.507812 756.433594 115.808594 C 756.660156 151.289062 756.660156 186.878906 756.433594 222.582031 C 758.066406 232.050781 758.933594 241.597656 759.039062 251.226562 C 759.386719 246.019531 759.734375 240.808594 760.082031 235.601562 C 760.949219 245.320312 761.816406 255.042969 762.683594 264.769531 C 761.816406 285.601562 760.949219 306.433594 760.082031 327.269531 C 759.558594 321.722656 759.386719 316.167969 759.558594 310.601562 C 758.519531 310.601562 757.476562 310.601562 756.433594 310.601562 C 756.433594 332.824219 756.433594 355.046875 756.433594 377.269531 C 758.519531 377.269531 760.601562 377.269531 762.683594 377.269531 C 761.414062 365.621094 761.414062 353.988281 762.683594 342.371094 C 762.308594 341.097656 761.785156 339.882812 761.121094 338.726562 C 760.773438 347.058594 760.425781 355.394531 760.082031 363.726562 C 759.175781 348.660156 760.21875 333.726562 763.207031 318.933594 C 763.460938 293.753906 763.980469 268.578125 764.769531 243.414062 C 765.15625 221.121094 764.460938 198.898438 762.683594 176.746094 C 762.921875 163.027344 763.269531 149.308594 763.726562 135.601562 C 764.769531 135.601562 765.808594 135.601562 766.851562 135.601562 C 768.652344 142.285156 768.652344 132.738281 766.851562 106.957031 C 768.4375 103.832031 769.480469 100.535156 769.976562 97.058594 C 768.886719 94.695312 768.714844 92.265625 769.457031 89.769531 C 769.800781 91.15625 770.148438 92.546875 770.496094 93.933594 C 770.601562 90.390625 771.46875 87.089844 773.101562 84.039062 C 769.398438 77.804688 768.703125 71.378906 771.019531 64.769531 C 769.628906 64.769531 768.238281 64.769531 766.851562 64.769531 C 767.0625 62.800781 766.367188 61.238281 764.769531 60.082031 C 769.496094 59.785156 774.007812 60.652344 778.308594 62.683594 Z M 778.308594 62.683594 " fill-opacity="1" fill-rule="evenodd"/><path fill="#3c35dc" d="M 760.601562 46.019531 C 766.910156 49.957031 773.332031 53.777344 779.871094 57.476562 C 780.566406 176.921875 780.566406 296.363281 779.871094 415.808594 C 778.855469 423.089844 777.988281 430.382812 777.269531 437.683594 C 776.625 437.800781 776.105469 438.148438 775.707031 438.726562 C 775.511719 441.367188 774.992188 443.796875 774.144531 446.019531 C 775.453125 435.703125 776.667969 424.589844 777.789062 412.683594 C 778.308594 296.019531 778.484375 179.351562 778.308594 62.683594 C 778.183594 57.066406 775.402344 54.980469 769.976562 56.433594 C 768.714844 55.628906 768.714844 54.761719 769.976562 53.832031 C 766.640625 51.351562 763.515625 48.746094 760.601562 46.019531 Z M 760.601562 46.019531 " fill-opacity="0.993" fill-rule="evenodd"/><path fill="#201fe7" d="M 525.183594 137.683594 C 523.839844 139.976562 521.929688 141.714844 519.457031 142.894531 C 518.902344 266.855469 518.902344 390.8125 519.457031 514.769531 C 517.152344 523.671875 515.589844 532.699219 514.769531 541.851562 C 514.054688 542.230469 513.363281 542.574219 512.683594 542.894531 C 514.476562 533.226562 515.867188 523.507812 516.851562 513.726562 C 517.71875 389.941406 518.238281 265.984375 518.414062 141.851562 C 519.160156 141.285156 519.679688 140.589844 519.976562 139.769531 C 521.464844 138.6875 523.203125 137.992188 525.183594 137.683594 Z M 525.183594 137.683594 " fill-opacity="1" fill-rule="evenodd"/><path fill="#5550e7" d="M 44.976562 163.726562 C 44.976562 164.074219 44.976562 164.421875 44.976562 164.769531 C 44.152344 165.707031 43.113281 166.402344 41.851562 166.851562 C 40.851562 167.324219 39.984375 168.015625 39.246094 168.933594 C 38.453125 288.730469 38.625 408.519531 39.769531 528.308594 C 38.394531 515.65625 37.523438 502.808594 37.164062 489.769531 C 36.46875 383.171875 36.46875 276.574219 37.164062 169.976562 C 38.390625 166.308594 40.992188 164.226562 44.976562 163.726562 Z M 44.976562 163.726562 " fill-opacity="0.751" fill-rule="evenodd"/><path fill="#1b1ddf" d="M 567.894531 167.894531 C 567.199219 168.585938 566.503906 169.28125 565.808594 169.976562 C 564.742188 258.34375 564.742188 346.886719 565.808594 435.601562 C 565.808594 452.613281 565.808594 469.628906 565.808594 486.644531 C 565.113281 444.628906 564.421875 402.613281 563.726562 360.601562 C 563.726562 298.101562 563.726562 235.601562 563.726562 173.101562 C 562.949219 169.507812 564.339844 167.773438 567.894531 167.894531 Z M 567.894531 167.894531 " fill-opacity="1" fill-rule="evenodd"/><path fill="#676eed" d="M 565.808594 169.976562 C 565.820312 258.519531 566.167969 347.0625 566.851562 435.601562 C 566.503906 435.601562 566.15625 435.601562 565.808594 435.601562 C 564.742188 346.886719 564.742188 258.34375 565.808594 169.976562 Z M 565.808594 169.976562 " fill-opacity="0.973" fill-rule="evenodd"/><path fill="#3a47e0" d="M 85.601562 196.019531 C 85.425781 302.960938 85.601562 409.90625 86.121094 516.851562 C 86.53125 524.554688 87.398438 532.191406 88.726562 539.769531 C 86.839844 537.804688 85.625 535.371094 85.082031 532.476562 C 84.210938 420.148438 84.386719 307.996094 85.601562 196.019531 Z M 85.601562 196.019531 " fill-opacity="0.852" fill-rule="evenodd"/><path fill="#3c37d7" d="M 777.269531 437.683594 C 774.972656 452.113281 771.152344 466 765.808594 479.351562 C 765.808594 478.308594 765.808594 477.269531 765.808594 476.226562 C 768.585938 466.113281 771.367188 456.042969 774.144531 446.019531 C 774.992188 443.796875 775.511719 441.367188 775.707031 438.726562 C 776.105469 438.148438 776.625 437.800781 777.269531 437.683594 Z M 777.269531 437.683594 " fill-opacity="0.616" fill-rule="evenodd"/><path fill="#2f26fc" d="M 765.808594 476.226562 C 765.808594 477.269531 765.808594 478.308594 765.808594 479.351562 C 756.507812 508.730469 741.578125 534.773438 721.019531 557.476562 C 719.980469 557.566406 719.113281 557.21875 718.414062 556.433594 C 717.910156 557.421875 717.738281 558.464844 717.894531 559.558594 C 714.339844 559.4375 712.949219 561.175781 713.726562 564.769531 C 712.347656 564.945312 711.132812 564.597656 710.082031 563.726562 C 709.367188 565.0625 709.542969 566.277344 710.601562 567.371094 C 707.15625 570.203125 703.683594 573.15625 700.183594 576.226562 C 699.214844 577.464844 698.871094 578.851562 699.144531 580.394531 C 697.710938 580.230469 696.324219 580.402344 694.976562 580.914062 C 695.324219 581.261719 695.671875 581.609375 696.019531 581.957031 C 692.777344 582.417969 690 583.804688 687.683594 586.121094 C 688.160156 586.554688 688.507812 587.074219 688.726562 587.683594 C 687.488281 588.652344 686.097656 589 684.558594 588.726562 C 684.558594 590.113281 684.558594 591.503906 684.558594 592.894531 C 681.824219 593.507812 679.042969 593.855469 676.226562 593.933594 C 676.257812 596.617188 675.566406 599.046875 674.144531 601.226562 C 660.949219 610.605469 647.058594 618.941406 632.476562 626.226562 C 629.269531 626.957031 626.144531 628 623.101562 629.351562 C 619.558594 628.628906 616.78125 630.019531 614.769531 633.519531 C 613.160156 634.507812 611.421875 634.855469 609.558594 634.558594 C 609.273438 632.527344 609.96875 630.964844 611.644531 629.871094 C 609.921875 628.761719 608.183594 628.242188 606.433594 628.308594 C 605.761719 625.136719 606.804688 622.878906 609.558594 621.539062 C 606.953125 620.0625 607.300781 619.019531 610.601562 618.414062 C 609.90625 618.066406 609.210938 617.71875 608.519531 617.371094 C 610.117188 616.214844 610.8125 614.652344 610.601562 612.683594 C 614.027344 612.238281 617.152344 612.933594 619.976562 614.769531 C 621.113281 613.839844 621.113281 612.796875 619.976562 611.644531 C 621.886719 610.675781 622.234375 609.460938 621.019531 607.996094 C 623.046875 606.972656 624.957031 605.757812 626.746094 604.351562 C 627.007812 605.523438 627.527344 606.5625 628.308594 607.476562 C 629.847656 603.769531 632.621094 601.859375 636.644531 601.746094 C 635.769531 600.695312 635.425781 599.476562 635.601562 598.101562 C 641.796875 596.503906 645.445312 593.03125 646.539062 587.683594 C 650.199219 590.96875 652.28125 590.273438 652.789062 585.601562 C 656.558594 585.75 660.554688 585.75 664.769531 585.601562 C 664.769531 584.210938 664.769531 582.824219 664.769531 581.433594 C 667.65625 582.339844 670.433594 582.339844 673.101562 581.433594 C 672.945312 580.339844 673.117188 579.296875 673.621094 578.308594 C 679.664062 572.546875 678.449219 571.507812 669.976562 575.183594 C 666.78125 574.617188 663.65625 573.921875 660.601562 573.101562 C 660.886719 571.070312 660.191406 569.507812 658.519531 568.414062 C 662.335938 567.371094 664.769531 564.941406 665.808594 561.121094 C 665.460938 560.773438 665.113281 560.425781 664.769531 560.082031 C 666.828125 557.980469 668.738281 558.15625 670.496094 560.601562 C 671.75 559.183594 673.3125 558.144531 675.183594 557.476562 C 674.964844 556.867188 674.617188 556.34375 674.144531 555.914062 C 676.394531 553.042969 678.824219 550.261719 681.433594 547.582031 C 680.445312 546.832031 680.269531 545.964844 680.914062 544.976562 C 682.324219 544.058594 683.886719 543.710938 685.601562 543.933594 C 685.941406 540.785156 684.550781 539.046875 681.433594 538.726562 C 679.695312 540.285156 677.785156 541.671875 675.707031 542.894531 C 673.699219 543.164062 671.613281 543.164062 669.457031 542.894531 C 666.667969 543.644531 664.0625 544.6875 661.644531 546.019531 C 668.910156 539.625 676.375 533.375 684.039062 527.269531 C 688.898438 521.710938 693.761719 516.15625 698.621094 510.601562 C 702.742188 503.378906 707.082031 496.433594 711.644531 489.769531 C 713.492188 488.863281 714.878906 487.472656 715.808594 485.601562 C 715.578125 489.023438 714.882812 492.320312 713.726562 495.496094 C 715.558594 496.328125 717.292969 496.152344 718.933594 494.976562 C 715.609375 489.949219 716.304688 488.558594 721.019531 490.808594 C 722.886719 487.378906 724.96875 484.078125 727.269531 480.914062 C 728.132812 480.195312 728.828125 480.371094 729.351562 481.433594 C 728.652344 483.523438 727.609375 485.433594 726.226562 487.164062 C 726.621094 488.867188 727.3125 490.429688 728.308594 491.851562 C 730.769531 489.042969 733.546875 486.613281 736.644531 484.558594 C 735.109375 481.210938 734.585938 477.738281 735.082031 474.144531 C 736.730469 474.136719 738.464844 474.480469 740.289062 475.183594 C 740.234375 477.566406 739.886719 479.996094 739.246094 482.476562 C 738.898438 482.128906 738.550781 481.78125 738.207031 481.433594 C 737.519531 483.109375 738.039062 484.324219 739.769531 485.082031 C 739.074219 485.425781 738.378906 485.773438 737.683594 486.121094 C 739.472656 486.480469 741.210938 487.003906 742.894531 487.683594 C 743.847656 486.820312 744.539062 485.78125 744.976562 484.558594 C 743.386719 482.171875 743.734375 480.089844 746.019531 478.308594 C 744.605469 474.523438 745.820312 471.746094 749.664062 469.976562 C 751.316406 470.886719 752.878906 471.929688 754.351562 473.101562 C 756.96875 467.898438 758.183594 468.242188 757.996094 474.144531 C 758.777344 473.492188 759.648438 472.96875 760.601562 472.582031 C 759.398438 471.628906 759.574219 470.761719 761.121094 469.976562 C 762.164062 472.753906 763.207031 472.753906 764.246094 469.976562 C 765.019531 471.996094 764.847656 473.90625 763.726562 475.707031 C 764.34375 476.1875 765.039062 476.363281 765.808594 476.226562 Z M 765.808594 476.226562 " fill-opacity="1" fill-rule="evenodd"/><path fill="#352de4" d="M 364.769531 517.894531 C 371.597656 524.945312 378.195312 532.238281 384.558594 539.769531 C 383.464844 539.921875 382.421875 539.75 381.433594 539.246094 C 379.273438 535.503906 376.148438 533.246094 372.058594 532.476562 C 372.332031 530.9375 371.984375 529.546875 371.019531 528.308594 C 369.433594 527.914062 367.699219 527.742188 365.808594 527.789062 C 367.199219 527.09375 368.238281 526.050781 368.933594 524.664062 C 366.871094 522.785156 365.480469 520.527344 364.769531 517.894531 Z M 364.769531 517.894531 " fill-opacity="1" fill-rule="evenodd"/><path fill="#3027f8" d="M 302.269531 502.269531 C 303.921875 503.695312 305.3125 505.433594 306.433594 507.476562 C 307.5 506.066406 308.890625 505.371094 310.601562 505.394531 C 310.601562 506.433594 310.601562 507.476562 310.601562 508.519531 C 309.558594 508.519531 308.519531 508.519531 307.476562 508.519531 C 308.007812 511.597656 309.570312 515.070312 312.164062 518.933594 C 312.484375 518.09375 313.003906 517.398438 313.726562 516.851562 C 316.597656 518.746094 317.289062 521.179688 315.808594 524.144531 C 316.371094 527.292969 318.105469 528.855469 321.019531 528.832031 C 321.058594 527.535156 320.710938 526.144531 319.976562 524.664062 C 320.09375 523.332031 320.789062 522.460938 322.058594 522.058594 C 323.101562 523.101562 324.144531 524.144531 325.183594 525.183594 C 323.796875 526.226562 323.796875 527.269531 325.183594 528.308594 C 327.03125 529.023438 328.769531 529.894531 330.394531 530.914062 C 329.332031 532.007812 329.160156 533.222656 329.871094 534.558594 C 333.628906 536.488281 335.886719 539.613281 336.644531 543.933594 C 338.925781 544.6875 341.007812 545.902344 342.894531 547.582031 C 342.40625 548.933594 342.40625 550.496094 342.894531 552.269531 C 345.535156 553.492188 347.964844 555.230469 350.183594 557.476562 C 344.539062 562.324219 344.886719 563.367188 351.226562 560.601562 C 352.527344 561.164062 353.742188 561.859375 354.871094 562.683594 C 355.988281 561.871094 357.207031 562.046875 358.519531 563.207031 C 357.328125 563.976562 357.328125 564.847656 358.519531 565.808594 C 359.796875 566.621094 361.1875 567.144531 362.683594 567.371094 C 362.335938 567.71875 361.988281 568.066406 361.644531 568.414062 C 363.34375 569.777344 365.078125 570.300781 366.851562 569.976562 C 365.992188 570.964844 365.816406 572.007812 366.332031 573.101562 C 368.066406 574.144531 369.457031 575.53125 370.496094 577.269531 C 370.84375 576.921875 371.191406 576.574219 371.539062 576.226562 C 373.417969 578.871094 376.023438 579.914062 379.351562 579.351562 C 379.1875 580.78125 379.363281 582.171875 379.871094 583.519531 C 380.21875 583.171875 380.566406 582.824219 380.914062 582.476562 C 382.996094 584.558594 385.082031 586.644531 387.164062 588.726562 C 388.207031 588.03125 389.246094 587.335938 390.289062 586.644531 C 390.496094 588.625 391.363281 590.1875 392.894531 591.332031 C 391.503906 592.71875 391.503906 594.109375 392.894531 595.496094 C 396 596.015625 399.125 596.191406 402.269531 596.019531 C 402.269531 597.753906 402.269531 599.488281 402.269531 601.226562 C 400.089844 601.035156 398.007812 601.382812 396.019531 602.269531 C 395.09375 603.128906 394.746094 604.167969 394.976562 605.394531 C 396.726562 605.167969 397.765625 605.863281 398.101562 607.476562 C 392.613281 605.078125 387.402344 602.125 382.476562 598.621094 C 354.734375 577.964844 331.644531 553.136719 313.207031 524.144531 C 308.976562 517.074219 305.332031 509.785156 302.269531 502.269531 Z M 302.269531 502.269531 " fill-opacity="1" fill-rule="evenodd"/><path fill="#a4acf8" d="M 41.851562 546.019531 C 43.457031 548.453125 44.148438 551.230469 43.933594 554.351562 C 42.613281 551.847656 41.917969 549.066406 41.851562 546.019531 Z M 41.851562 546.019531 " fill-opacity="0.016" fill-rule="evenodd"/><path fill="#4039df" d="M 565.808594 435.601562 C 566.15625 435.601562 566.503906 435.601562 566.851562 435.601562 C 567.023438 470.671875 566.851562 505.742188 566.332031 540.808594 C 564.640625 558.164062 561.339844 575.175781 556.433594 591.851562 C 562.082031 589.679688 567.980469 588.289062 574.144531 587.683594 C 568.664062 591.636719 562.414062 593.375 555.394531 592.894531 C 558.042969 580.421875 560.648438 567.921875 563.207031 555.394531 C 565.328125 532.550781 566.195312 509.632812 565.808594 486.644531 C 565.808594 469.628906 565.808594 452.613281 565.808594 435.601562 Z M 565.808594 435.601562 " fill-opacity="0.929" fill-rule="evenodd"/><path fill="#352ddf" d="M 721.019531 557.476562 C 708.058594 574.949219 692.433594 589.53125 674.144531 601.226562 C 675.566406 599.046875 676.257812 596.617188 676.226562 593.933594 C 679.042969 593.855469 681.824219 593.507812 684.558594 592.894531 C 684.558594 591.503906 684.558594 590.113281 684.558594 588.726562 C 686.097656 589 687.488281 588.652344 688.726562 587.683594 C 688.507812 587.074219 688.160156 586.554688 687.683594 586.121094 C 690 583.804688 692.777344 582.417969 696.019531 581.957031 C 695.671875 581.609375 695.324219 581.261719 694.976562 580.914062 C 696.324219 580.402344 697.710938 580.230469 699.144531 580.394531 C 698.871094 578.851562 699.214844 577.464844 700.183594 576.226562 C 703.683594 573.15625 707.15625 570.203125 710.601562 567.371094 C 709.542969 566.277344 709.367188 565.0625 710.082031 563.726562 C 711.132812 564.597656 712.347656 564.945312 713.726562 564.769531 C 712.949219 561.175781 714.339844 559.4375 717.894531 559.558594 C 717.738281 558.464844 717.910156 557.421875 718.414062 556.433594 C 719.113281 557.21875 719.980469 557.566406 721.019531 557.476562 Z M 721.019531 557.476562 " fill-opacity="0.981" fill-rule="evenodd"/><path fill="#2328d6" d="M 618.933594 571.019531 C 609.621094 575.675781 600.246094 580.363281 590.808594 585.082031 C 585.675781 586.371094 580.464844 587.242188 575.183594 587.683594 C 589.769531 582.355469 604.355469 576.800781 618.933594 571.019531 Z M 618.933594 571.019531 " fill-opacity="0.949" fill-rule="evenodd"/><path fill="#524fdf" d="M 499.144531 586.644531 C 499.019531 589.746094 498.324219 592.699219 497.058594 595.496094 C 494.792969 596.410156 493.058594 595.890625 491.851562 593.933594 C 493.28125 594.097656 494.671875 593.925781 496.019531 593.414062 C 496.675781 590.898438 497.71875 588.640625 499.144531 586.644531 Z M 499.144531 586.644531 " fill-opacity="0.839" fill-rule="evenodd"/><path fill="#2e26fc" d="M 398.101562 607.476562 C 399.824219 608.148438 401.5625 608.84375 403.308594 609.558594 C 405.15625 609.15625 406.894531 608.460938 408.519531 607.476562 C 409.988281 608.835938 411.726562 609.707031 413.726562 610.082031 C 411.90625 610.570312 410.171875 611.265625 408.519531 612.164062 C 409.472656 612.554688 410.339844 613.074219 411.121094 613.726562 C 413.199219 611.769531 415.453125 611.421875 417.894531 612.683594 C 416.527344 613.472656 416.007812 614.515625 416.332031 615.808594 C 420.296875 619 424.636719 620.042969 429.351562 618.933594 C 438.542969 620.792969 448.09375 622.875 457.996094 625.183594 C 459.308594 624.914062 460.351562 624.21875 461.121094 623.101562 C 460.847656 624.613281 461.023438 626 461.644531 627.269531 C 462.335938 626.921875 463.03125 626.574219 463.726562 626.226562 C 470.667969 627.820312 477.613281 628.34375 484.558594 627.789062 C 483.339844 628.226562 482.296875 628.917969 481.433594 629.871094 C 485.3125 631.921875 485.3125 633.660156 481.433594 635.082031 C 481.957031 635.601562 482.476562 636.121094 482.996094 636.644531 C 484.648438 633.972656 486.558594 631.539062 488.726562 629.351562 C 489.769531 630.394531 490.808594 631.433594 491.851562 632.476562 C 490.921875 633.613281 489.882812 633.613281 488.726562 632.476562 C 487.683594 632.824219 486.988281 633.519531 486.644531 634.558594 C 490.574219 637.101562 494.742188 639.1875 499.144531 640.808594 C 499.144531 641.851562 499.144531 642.894531 499.144531 643.933594 C 500.183594 643.933594 501.226562 643.933594 502.269531 643.933594 C 502.113281 642.839844 502.285156 641.796875 502.789062 640.808594 C 505.101562 639.261719 507.183594 637.523438 509.039062 635.601562 C 513.542969 641.152344 519.445312 643.929688 526.746094 643.933594 C 535.265625 642.585938 543.773438 641.199219 552.269531 639.769531 C 552.269531 641.15625 552.269531 642.546875 552.269531 643.933594 C 549.40625 643.609375 546.628906 643.957031 543.933594 644.976562 C 547.269531 645.546875 550.394531 646.585938 553.308594 648.101562 C 554.988281 647.246094 555.683594 645.855469 555.394531 643.933594 C 558.253906 644.261719 561.03125 643.914062 563.726562 642.894531 C 564.769531 640.808594 565.808594 638.726562 566.851562 636.644531 C 573.585938 635.613281 579.664062 633.183594 585.082031 629.351562 C 585.425781 630.394531 585.773438 631.433594 586.121094 632.476562 C 588.082031 631.273438 588.949219 629.539062 588.726562 627.269531 C 590.113281 627.269531 591.503906 627.269531 592.894531 627.269531 C 592.738281 626.171875 592.910156 625.128906 593.414062 624.144531 C 595.191406 624.808594 597.101562 624.808594 599.144531 624.144531 C 598.6875 619.550781 600.769531 617.816406 605.394531 618.933594 C 605.539062 620.625 604.84375 621.839844 603.308594 622.582031 C 605.800781 625.574219 605.453125 627.136719 602.269531 627.269531 C 602.269531 628.308594 602.269531 629.351562 602.269531 630.394531 C 604.484375 633.132812 606.914062 635.738281 609.558594 638.207031 C 607.726562 639.035156 605.992188 638.863281 604.351562 637.683594 C 605.761719 636.460938 605.589844 635.417969 603.832031 634.558594 C 602.421875 636.140625 600.859375 637.53125 599.144531 638.726562 C 600.710938 640.015625 601.929688 639.667969 602.789062 637.683594 C 603.179688 638.636719 603.699219 639.507812 604.351562 640.289062 C 599.636719 642.117188 594.949219 644.027344 590.289062 646.019531 C 588.035156 643.878906 585.429688 643.007812 582.476562 643.414062 C 583.863281 644.457031 585.253906 645.496094 586.644531 646.539062 C 585.535156 647.777344 584.144531 648.296875 582.476562 648.101562 C 582.703125 646.878906 582.355469 645.835938 581.433594 644.976562 C 581.085938 645.496094 580.738281 646.019531 580.394531 646.539062 C 581.554688 647.824219 581.554688 649.039062 580.394531 650.183594 C 583.042969 651.679688 583.042969 653.242188 580.394531 654.871094 C 578.390625 655.246094 576.65625 656.117188 575.183594 657.476562 C 574.488281 657.128906 573.796875 656.78125 573.101562 656.433594 C 572.753906 657.128906 572.40625 657.824219 572.058594 658.519531 C 570.433594 657.917969 568.871094 657.226562 567.371094 656.433594 C 566.753906 657.890625 566.925781 659.28125 567.894531 660.601562 C 564.710938 663.230469 561.238281 665.3125 557.476562 666.851562 C 555.425781 668.371094 553.6875 670.109375 552.269531 672.058594 C 545.019531 676.15625 537.726562 680.320312 530.394531 684.558594 C 528.199219 684.246094 526.117188 684.59375 524.144531 685.601562 C 522.457031 687.492188 520.375 688.882812 517.894531 689.769531 C 517.171875 689.222656 516.652344 688.527344 516.332031 687.683594 C 515.390625 688.933594 514.175781 689.804688 512.683594 690.289062 C 513.160156 690.71875 513.507812 691.242188 513.726562 691.851562 C 511.855469 692.519531 510.292969 693.558594 509.039062 694.976562 C 507.992188 692.210938 506.257812 691.167969 503.832031 691.851562 C 502.757812 689.480469 501.195312 688.785156 499.144531 689.769531 C 500.585938 690.863281 501.628906 692.25 502.269531 693.933594 C 500.753906 695.726562 499.882812 697.808594 499.664062 700.183594 C 497.085938 701.191406 494.480469 701.363281 491.851562 700.707031 C 490.589844 701.863281 490.589844 703.082031 491.851562 704.351562 C 489.535156 705.683594 487.449219 705.335938 485.601562 703.308594 C 484.558594 703.832031 483.519531 704.351562 482.476562 704.871094 C 487.921875 706.941406 487.574219 708.15625 481.433594 708.519531 C 481.433594 707.128906 481.433594 705.738281 481.433594 704.351562 C 475.121094 704.378906 474.773438 705.59375 480.394531 707.996094 C 478.636719 712.792969 474.820312 715.570312 468.933594 716.332031 C 469.28125 716.675781 469.628906 717.023438 469.976562 717.371094 C 466.859375 717.523438 465.125 719.085938 464.769531 722.058594 C 464.421875 722.058594 464.074219 722.058594 463.726562 722.058594 C 460.035156 722.695312 456.5625 723.914062 453.308594 725.707031 C 450.394531 727.519531 447.964844 729.777344 446.019531 732.476562 C 432.394531 741.074219 417.8125 747.671875 402.269531 752.269531 C 403.203125 751.582031 404.246094 750.886719 405.394531 750.183594 C 404.351562 749.488281 403.308594 748.796875 402.269531 748.101562 C 404.800781 746.480469 407.582031 745.789062 410.601562 746.019531 C 410.601562 744.976562 410.601562 743.933594 410.601562 742.894531 C 406.328125 742.132812 402.679688 743.171875 399.664062 746.019531 C 397.894531 745.074219 395.984375 744.726562 393.933594 744.976562 C 394.839844 741.632812 396.925781 739.199219 400.183594 737.683594 C 401.40625 738.121094 402.445312 738.816406 403.308594 739.769531 C 404.320312 737.542969 406.058594 736.328125 408.519531 736.121094 C 406.296875 735.554688 404.214844 734.6875 402.269531 733.519531 C 403.410156 726.054688 405.144531 725.707031 407.476562 732.476562 C 408.46875 730.867188 408.816406 729.128906 408.519531 727.269531 C 412.335938 727.269531 416.15625 727.269531 419.976562 727.269531 C 420.273438 724.398438 420.964844 721.621094 422.058594 718.933594 C 422.734375 721.148438 423.605469 723.230469 424.664062 725.183594 C 425.175781 723.835938 425.347656 722.449219 425.183594 721.019531 C 428.328125 721.191406 431.453125 721.015625 434.558594 720.496094 C 436.113281 718.3125 437.152344 715.882812 437.683594 713.207031 C 434.742188 710.054688 431.617188 709.878906 428.308594 712.683594 C 427.960938 712.335938 427.613281 711.988281 427.269531 711.644531 C 428.195312 710.382812 428.195312 708.992188 427.269531 707.476562 C 428.980469 705.855469 429.328125 704.121094 428.308594 702.269531 C 430.730469 701.339844 433.164062 701.167969 435.601562 701.746094 C 433.878906 700.242188 433.183594 698.332031 433.519531 696.019531 C 436.0625 696.167969 436.757812 695.300781 435.601562 693.414062 C 434.003906 692.898438 432.441406 693.070312 430.914062 693.933594 C 430.21875 693.238281 429.523438 692.546875 428.832031 691.851562 C 425.519531 693.246094 423.605469 695.675781 423.101562 699.144531 C 424.195312 698.988281 425.238281 699.160156 426.226562 699.664062 C 423.863281 701.769531 421.085938 702.636719 417.894531 702.269531 C 418.054688 703.699219 417.882812 705.085938 417.371094 706.433594 C 417.023438 706.085938 416.675781 705.738281 416.332031 705.394531 C 414.039062 707.820312 411.957031 707.820312 410.082031 705.394531 C 409.570312 706.738281 409.394531 708.128906 409.558594 709.558594 C 406.332031 709.46875 405.984375 709.988281 408.519531 711.121094 C 407.496094 713.625 405.933594 714.492188 403.832031 713.726562 C 403.445312 715.195312 402.578125 716.238281 401.226562 716.851562 C 399.464844 715.023438 397.382812 714.5 394.976562 715.289062 C 394.832031 716.605469 394.832031 717.820312 394.976562 718.933594 C 392.1875 718.335938 389.410156 717.640625 386.644531 716.851562 C 387.902344 715.582031 387.902344 714.363281 386.644531 713.207031 C 388.347656 712.644531 389.734375 713.164062 390.808594 714.769531 C 393.894531 714.054688 394.242188 713.1875 391.851562 712.164062 C 405.949219 705.035156 405.601562 703.300781 390.808594 706.957031 C 389.273438 707.695312 388.582031 708.910156 388.726562 710.601562 C 377.839844 711.773438 367.425781 714.726562 357.476562 719.457031 C 350.027344 720.050781 342.734375 721.441406 335.601562 723.621094 C 324.308594 724.480469 313.195312 724.308594 302.269531 723.101562 C 312.691406 723.273438 323.105469 723.101562 333.519531 722.582031 C 335.140625 722.363281 336.527344 721.839844 337.683594 721.019531 C 345.046875 718.785156 352.6875 717.222656 360.601562 716.332031 C 375.738281 711.246094 390.667969 705.691406 405.394531 699.664062 C 421.789062 690.433594 437.414062 680.191406 452.269531 668.933594 C 455.5 666.929688 458.625 664.675781 461.644531 662.164062 C 462.515625 661.109375 462.863281 659.894531 462.683594 658.519531 C 467.566406 653.117188 472.601562 647.910156 477.789062 642.894531 C 478.570312 641.710938 478.394531 640.667969 477.269531 639.769531 C 453.460938 634.949219 430.894531 626.789062 409.558594 615.289062 C 405.308594 613.175781 401.492188 610.570312 398.101562 607.476562 Z M 398.101562 607.476562 " fill-opacity="1" fill-rule="evenodd"/><path fill="#3126ea" d="M 632.476562 626.226562 C 605.785156 641.433594 579.046875 656.710938 552.269531 672.058594 C 553.6875 670.109375 555.425781 668.371094 557.476562 666.851562 C 561.238281 665.3125 564.710938 663.230469 567.894531 660.601562 C 566.925781 659.28125 566.753906 657.890625 567.371094 656.433594 C 568.871094 657.226562 570.433594 657.917969 572.058594 658.519531 C 572.40625 657.824219 572.753906 657.128906 573.101562 656.433594 C 573.796875 656.78125 574.488281 657.128906 575.183594 657.476562 C 576.65625 656.117188 578.390625 655.246094 580.394531 654.871094 C 583.042969 653.242188 583.042969 651.679688 580.394531 650.183594 C 581.554688 649.039062 581.554688 647.824219 580.394531 646.539062 C 580.738281 646.019531 581.085938 645.496094 581.433594 644.976562 C 582.355469 645.835938 582.703125 646.878906 582.476562 648.101562 C 584.144531 648.296875 585.535156 647.777344 586.644531 646.539062 C 585.253906 645.496094 583.863281 644.457031 582.476562 643.414062 C 585.429688 643.007812 588.035156 643.878906 590.289062 646.019531 C 594.949219 644.027344 599.636719 642.117188 604.351562 640.289062 C 603.699219 639.507812 603.179688 638.636719 602.789062 637.683594 C 601.929688 639.667969 600.710938 640.015625 599.144531 638.726562 C 600.859375 637.53125 602.421875 636.140625 603.832031 634.558594 C 605.589844 635.417969 605.761719 636.460938 604.351562 637.683594 C 605.992188 638.863281 607.726562 639.035156 609.558594 638.207031 C 606.914062 635.738281 604.484375 633.132812 602.269531 630.394531 C 603.417969 629.246094 604.808594 628.550781 606.433594 628.308594 C 608.183594 628.242188 609.921875 628.761719 611.644531 629.871094 C 609.96875 630.964844 609.273438 632.527344 609.558594 634.558594 C 611.421875 634.855469 613.160156 634.507812 614.769531 633.519531 C 616.78125 630.019531 619.558594 628.628906 623.101562 629.351562 C 626.144531 628 629.269531 626.957031 632.476562 626.226562 Z M 632.476562 626.226562 " fill-opacity="1" fill-rule="evenodd"/><path fill="#3c45d6" d="M 462.683594 658.519531 C 462.863281 659.894531 462.515625 661.109375 461.644531 662.164062 C 458.625 664.675781 455.5 666.929688 452.269531 668.933594 C 455.394531 665.113281 458.863281 661.644531 462.683594 658.519531 Z M 462.683594 658.519531 " fill-opacity="0.569" fill-rule="evenodd"/><path fill="#2d20fd" d="M 218.933594 704.351562 C 237.773438 712.183594 257.21875 717.394531 277.269531 719.976562 C 278.0625 720.777344 279.105469 721.296875 280.394531 721.539062 C 287.683594 722.140625 294.976562 722.660156 302.269531 723.101562 C 313.195312 724.308594 324.308594 724.480469 335.601562 723.621094 C 342.734375 721.441406 350.027344 720.050781 357.476562 719.457031 C 367.425781 714.726562 377.839844 711.773438 388.726562 710.601562 C 388.582031 708.910156 389.273438 707.695312 390.808594 706.957031 C 405.601562 703.300781 405.949219 705.035156 391.851562 712.164062 C 394.242188 713.1875 393.894531 714.054688 390.808594 714.769531 C 389.734375 713.164062 388.347656 712.644531 386.644531 713.207031 C 387.902344 714.363281 387.902344 715.582031 386.644531 716.851562 C 389.410156 717.640625 392.1875 718.335938 394.976562 718.933594 C 394.832031 717.820312 394.832031 716.605469 394.976562 715.289062 C 397.382812 714.5 399.464844 715.023438 401.226562 716.851562 C 402.578125 716.238281 403.445312 715.195312 403.832031 713.726562 C 405.933594 714.492188 407.496094 713.625 408.519531 711.121094 C 405.984375 709.988281 406.332031 709.46875 409.558594 709.558594 C 409.394531 708.128906 409.570312 706.738281 410.082031 705.394531 C 411.957031 707.820312 414.039062 707.820312 416.332031 705.394531 C 416.675781 705.738281 417.023438 706.085938 417.371094 706.433594 C 417.882812 705.085938 418.054688 703.699219 417.894531 702.269531 C 421.085938 702.636719 423.863281 701.769531 426.226562 699.664062 C 425.238281 699.160156 424.195312 698.988281 423.101562 699.144531 C 423.605469 695.675781 425.519531 693.246094 428.832031 691.851562 C 429.523438 692.546875 430.21875 693.238281 430.914062 693.933594 C 432.441406 693.070312 434.003906 692.898438 435.601562 693.414062 C 436.757812 695.300781 436.0625 696.167969 433.519531 696.019531 C 433.183594 698.332031 433.878906 700.242188 435.601562 701.746094 C 433.164062 701.167969 430.730469 701.339844 428.308594 702.269531 C 429.328125 704.121094 428.980469 705.855469 427.269531 707.476562 C 428.195312 708.992188 428.195312 710.382812 427.269531 711.644531 C 427.613281 711.988281 427.960938 712.335938 428.308594 712.683594 C 431.617188 709.878906 434.742188 710.054688 437.683594 713.207031 C 437.152344 715.882812 436.113281 718.3125 434.558594 720.496094 C 431.453125 721.015625 428.328125 721.191406 425.183594 721.019531 C 425.347656 722.449219 425.175781 723.835938 424.664062 725.183594 C 423.605469 723.230469 422.734375 721.148438 422.058594 718.933594 C 420.964844 721.621094 420.273438 724.398438 419.976562 727.269531 C 416.15625 727.269531 412.335938 727.269531 408.519531 727.269531 C 408.816406 729.128906 408.46875 730.867188 407.476562 732.476562 C 405.144531 725.707031 403.410156 726.054688 402.269531 733.519531 C 404.214844 734.6875 406.296875 735.554688 408.519531 736.121094 C 406.058594 736.328125 404.320312 737.542969 403.308594 739.769531 C 402.445312 738.816406 401.40625 738.121094 400.183594 737.683594 C 396.925781 739.199219 394.839844 741.632812 393.933594 744.976562 C 395.984375 744.726562 397.894531 745.074219 399.664062 746.019531 C 402.679688 743.171875 406.328125 742.132812 410.601562 742.894531 C 410.601562 743.933594 410.601562 744.976562 410.601562 746.019531 C 407.582031 745.789062 404.800781 746.480469 402.269531 748.101562 C 403.308594 748.796875 404.351562 749.488281 405.394531 750.183594 C 404.246094 750.886719 403.203125 751.582031 402.269531 752.269531 C 400.578125 753.953125 398.496094 755.167969 396.019531 755.914062 C 385.429688 759.246094 374.664062 761.851562 363.726562 763.726562 C 352.585938 764.695312 341.472656 765.910156 330.394531 767.371094 C 314.421875 768.066406 298.449219 768.066406 282.476562 767.371094 C 275.277344 765.820312 267.988281 764.949219 260.601562 764.769531 C 239.4375 761.457031 219.296875 755.207031 200.183594 746.019531 C 199.136719 743.910156 197.398438 742.523438 194.976562 741.851562 C 195.84375 741.503906 196.710938 741.15625 197.582031 740.808594 C 199.785156 741.824219 202.042969 742.695312 204.351562 743.414062 C 204.003906 743.761719 203.65625 744.109375 203.308594 744.457031 C 211.273438 746.097656 213.007812 744.535156 208.519531 739.769531 C 210.78125 739.035156 212.863281 737.992188 214.769531 736.644531 C 213.125 735.8125 211.386719 735.289062 209.558594 735.082031 C 210.035156 734.648438 210.382812 734.128906 210.601562 733.519531 C 207.179688 732.660156 203.707031 732.136719 200.183594 731.957031 C 199.835938 730.914062 199.488281 729.871094 199.144531 728.832031 C 196.808594 727.8125 194.378906 727.292969 191.851562 727.269531 C 191.851562 726.226562 191.851562 725.183594 191.851562 724.144531 C 190.082031 724.308594 188.34375 724.136719 186.644531 723.621094 C 184.84375 721.824219 182.757812 720.433594 180.394531 719.457031 C 181.710938 719.132812 182.925781 718.613281 184.039062 717.894531 C 187.292969 719.234375 190.589844 719.234375 193.933594 717.894531 C 189.59375 717.1875 185.429688 716.144531 181.433594 714.769531 C 181.613281 713.390625 181.265625 712.175781 180.394531 711.121094 C 181.5625 710.863281 182.605469 710.339844 183.519531 709.558594 C 181.542969 708.554688 179.460938 708.207031 177.269531 708.519531 C 177.269531 707.128906 177.269531 705.738281 177.269531 704.351562 C 172.753906 704.699219 170.671875 702.613281 171.019531 698.101562 C 168.824219 698.414062 166.742188 698.066406 164.769531 697.058594 C 161.382812 695.023438 160.339844 692.246094 161.644531 688.726562 C 163.652344 689.644531 165.5625 690.683594 167.371094 691.851562 C 168.28125 691.605469 169.148438 691.257812 169.976562 690.808594 C 171.238281 691.617188 171.238281 692.484375 169.976562 693.414062 C 174.070312 696.980469 178.582031 699.933594 183.519531 702.269531 C 185.929688 702.074219 188.359375 701.726562 190.808594 701.226562 C 189.898438 700.445312 188.855469 699.921875 187.683594 699.664062 C 191.144531 698.351562 191.492188 696.613281 188.726562 694.457031 C 189.246094 694.28125 189.769531 694.109375 190.289062 693.933594 C 199.753906 697.675781 209.300781 701.148438 218.933594 704.351562 Z M 218.933594 704.351562 " fill-opacity="1" fill-rule="evenodd"/><path fill="#342ae8" d="M 530.394531 684.558594 C 508.582031 696.953125 486.707031 709.453125 464.769531 722.058594 C 465.125 719.085938 466.859375 717.523438 469.976562 717.371094 C 469.628906 717.023438 469.28125 716.675781 468.933594 716.332031 C 474.820312 715.570312 478.636719 712.792969 480.394531 707.996094 C 474.773438 705.59375 475.121094 704.378906 481.433594 704.351562 C 481.433594 705.738281 481.433594 707.128906 481.433594 708.519531 C 487.574219 708.15625 487.921875 706.941406 482.476562 704.871094 C 483.519531 704.351562 484.558594 703.832031 485.601562 703.308594 C 487.449219 705.335938 489.535156 705.683594 491.851562 704.351562 C 490.589844 703.082031 490.589844 701.863281 491.851562 700.707031 C 494.480469 701.363281 497.085938 701.191406 499.664062 700.183594 C 499.882812 697.808594 500.753906 695.726562 502.269531 693.933594 C 501.628906 692.25 500.585938 690.863281 499.144531 689.769531 C 501.195312 688.785156 502.757812 689.480469 503.832031 691.851562 C 506.257812 691.167969 507.992188 692.210938 509.039062 694.976562 C 510.292969 693.558594 511.855469 692.519531 513.726562 691.851562 C 513.507812 691.242188 513.160156 690.71875 512.683594 690.289062 C 514.175781 689.804688 515.390625 688.933594 516.332031 687.683594 C 516.652344 688.527344 517.171875 689.222656 517.894531 689.769531 C 520.375 688.882812 522.457031 687.492188 524.144531 685.601562 C 526.117188 684.59375 528.199219 684.246094 530.394531 684.558594 Z M 530.394531 684.558594 " fill-opacity="0.999" fill-rule="evenodd"/><path fill="#1d29c5" d="M 277.269531 719.976562 C 297.378906 722.160156 317.515625 722.507812 337.683594 721.019531 C 336.527344 721.839844 335.140625 722.363281 333.519531 722.582031 C 323.105469 723.101562 312.691406 723.273438 302.269531 723.101562 C 294.976562 722.660156 287.683594 722.140625 280.394531 721.539062 C 279.105469 721.296875 278.0625 720.777344 277.269531 719.976562 Z M 277.269531 719.976562 " fill-opacity="0.831" fill-rule="evenodd"/><path fill="#3b30d0" d="M 463.726562 722.058594 C 457.996094 725.792969 452.09375 729.265625 446.019531 732.476562 C 447.964844 729.777344 450.394531 727.519531 453.308594 725.707031 C 456.5625 723.914062 460.035156 722.695312 463.726562 722.058594 Z M 463.726562 722.058594 " fill-opacity="0.643" fill-rule="evenodd"/><path fill="#3028d8" d="M 363.726562 763.726562 C 345.546875 768.105469 326.972656 769.839844 307.996094 768.933594 C 291.847656 769.730469 276.046875 768.34375 260.601562 764.769531 C 267.988281 764.949219 275.277344 765.820312 282.476562 767.371094 C 298.449219 768.066406 314.421875 768.066406 330.394531 767.371094 C 341.472656 765.910156 352.585938 764.695312 363.726562 763.726562 Z M 363.726562 763.726562 " fill-opacity="0.884" fill-rule="evenodd"/></svg>